<?xml version="1.0" encoding="utf-8" standalone="no"?>
<!DOCTYPE svg PUBLIC "-//W3C//DTD SVG 1.1//EN"
  "http://www.w3.org/Graphics/SVG/1.1/DTD/svg11.dtd">
<svg xmlns:xlink="http://www.w3.org/1999/xlink" width="624.721875pt" height="258.109375pt" viewBox="0 0 624.721875 258.109375" xmlns="http://www.w3.org/2000/svg" version="1.1">
 <metadata>
  <rdf:RDF xmlns:dc="http://purl.org/dc/elements/1.1/" xmlns:cc="http://creativecommons.org/ns#" xmlns:rdf="http://www.w3.org/1999/02/22-rdf-syntax-ns#">
   <cc:Work>
    <dc:type rdf:resource="http://purl.org/dc/dcmitype/StillImage"/>
    <dc:date>2024-06-26T21:07:11.967929</dc:date>
    <dc:format>image/svg+xml</dc:format>
    <dc:creator>
     <cc:Agent>
      <dc:title>Matplotlib v3.9.0, https://matplotlib.org/</dc:title>
     </cc:Agent>
    </dc:creator>
   </cc:Work>
  </rdf:RDF>
 </metadata>
 <defs>
  <style type="text/css">*{stroke-linejoin: round; stroke-linecap: butt}</style>
 </defs>
 <g id="figure_1">
  <g id="patch_1">
   <path d="M -0 258.109375 
L 624.721875 258.109375 
L 624.721875 0 
L -0 0 
z
"/>
  </g>
  <g id="axes_1">
   <g id="patch_2">
    <path d="M 52.321875 207.34375 
L 603.121875 207.34375 
L 603.121875 34.54375 
L 52.321875 34.54375 
z
"/>
   </g>
   <g id="matplotlib.axis_1">
    <g id="xtick_1">
     <g id="line2d_1">
      <path d="M 77.358239 207.34375 
L 77.358239 34.54375 
" clip-path="url(#pcbdf850280)" style="fill: none; stroke: #ffffff; stroke-opacity: 0.5; stroke-width: 0.8; stroke-linecap: square"/>
     </g>
     <g id="line2d_2">
      <defs>
       <path id="mda8ba3d70e" d="M 0 0 
L 0 3.5 
" style="stroke: #ffffff; stroke-width: 0.8"/>
      </defs>
      <g>
       <use xlink:href="#mda8ba3d70e" x="77.358239" y="207.34375" style="fill: #ffffff; stroke: #ffffff; stroke-width: 0.8"/>
      </g>
     </g>
     <g id="text_1">
      <!-- 0.000 -->
      <g style="fill: #ffffff" transform="translate(66.108239 221.2875) scale(0.1 -0.1)">
       <defs>
        <path id="TimesNewRomanPSMT-30" d="M 231 2094 
Q 231 2819 450 3342 
Q 669 3866 1031 4122 
Q 1313 4325 1613 4325 
Q 2100 4325 2488 3828 
Q 2972 3213 2972 2159 
Q 2972 1422 2759 906 
Q 2547 391 2217 158 
Q 1888 -75 1581 -75 
Q 975 -75 572 641 
Q 231 1244 231 2094 
z
M 844 2016 
Q 844 1141 1059 588 
Q 1238 122 1591 122 
Q 1759 122 1940 273 
Q 2122 425 2216 781 
Q 2359 1319 2359 2297 
Q 2359 3022 2209 3506 
Q 2097 3866 1919 4016 
Q 1791 4119 1609 4119 
Q 1397 4119 1231 3928 
Q 1006 3669 925 3112 
Q 844 2556 844 2016 
z
" transform="scale(0.015625)"/>
        <path id="TimesNewRomanPSMT-2e" d="M 800 606 
Q 947 606 1047 504 
Q 1147 403 1147 259 
Q 1147 116 1045 14 
Q 944 -88 800 -88 
Q 656 -88 554 14 
Q 453 116 453 259 
Q 453 406 554 506 
Q 656 606 800 606 
z
" transform="scale(0.015625)"/>
       </defs>
       <use xlink:href="#TimesNewRomanPSMT-30"/>
       <use xlink:href="#TimesNewRomanPSMT-2e" x="50"/>
       <use xlink:href="#TimesNewRomanPSMT-30" x="75"/>
       <use xlink:href="#TimesNewRomanPSMT-30" x="125"/>
       <use xlink:href="#TimesNewRomanPSMT-30" x="175"/>
      </g>
     </g>
    </g>
    <g id="xtick_2">
     <g id="line2d_3">
      <path d="M 177.503693 207.34375 
L 177.503693 34.54375 
" clip-path="url(#pcbdf850280)" style="fill: none; stroke: #ffffff; stroke-opacity: 0.5; stroke-width: 0.8; stroke-linecap: square"/>
     </g>
     <g id="line2d_4">
      <g>
       <use xlink:href="#mda8ba3d70e" x="177.503693" y="207.34375" style="fill: #ffffff; stroke: #ffffff; stroke-width: 0.8"/>
      </g>
     </g>
     <g id="text_2">
      <!-- 0.002 -->
      <g style="fill: #ffffff" transform="translate(166.253693 221.2875) scale(0.1 -0.1)">
       <defs>
        <path id="TimesNewRomanPSMT-32" d="M 2934 816 
L 2638 0 
L 138 0 
L 138 116 
Q 1241 1122 1691 1759 
Q 2141 2397 2141 2925 
Q 2141 3328 1894 3587 
Q 1647 3847 1303 3847 
Q 991 3847 742 3664 
Q 494 3481 375 3128 
L 259 3128 
Q 338 3706 661 4015 
Q 984 4325 1469 4325 
Q 1984 4325 2329 3994 
Q 2675 3663 2675 3213 
Q 2675 2891 2525 2569 
Q 2294 2063 1775 1497 
Q 997 647 803 472 
L 1909 472 
Q 2247 472 2383 497 
Q 2519 522 2628 598 
Q 2738 675 2819 816 
L 2934 816 
z
" transform="scale(0.015625)"/>
       </defs>
       <use xlink:href="#TimesNewRomanPSMT-30"/>
       <use xlink:href="#TimesNewRomanPSMT-2e" x="50"/>
       <use xlink:href="#TimesNewRomanPSMT-30" x="75"/>
       <use xlink:href="#TimesNewRomanPSMT-30" x="125"/>
       <use xlink:href="#TimesNewRomanPSMT-32" x="175"/>
      </g>
     </g>
    </g>
    <g id="xtick_3">
     <g id="line2d_5">
      <path d="M 277.649148 207.34375 
L 277.649148 34.54375 
" clip-path="url(#pcbdf850280)" style="fill: none; stroke: #ffffff; stroke-opacity: 0.5; stroke-width: 0.8; stroke-linecap: square"/>
     </g>
     <g id="line2d_6">
      <g>
       <use xlink:href="#mda8ba3d70e" x="277.649148" y="207.34375" style="fill: #ffffff; stroke: #ffffff; stroke-width: 0.8"/>
      </g>
     </g>
     <g id="text_3">
      <!-- 0.004 -->
      <g style="fill: #ffffff" transform="translate(266.399148 221.2875) scale(0.1 -0.1)">
       <defs>
        <path id="TimesNewRomanPSMT-34" d="M 2978 1563 
L 2978 1119 
L 2409 1119 
L 2409 0 
L 1894 0 
L 1894 1119 
L 100 1119 
L 100 1519 
L 2066 4325 
L 2409 4325 
L 2409 1563 
L 2978 1563 
z
M 1894 1563 
L 1894 3666 
L 406 1563 
L 1894 1563 
z
" transform="scale(0.015625)"/>
       </defs>
       <use xlink:href="#TimesNewRomanPSMT-30"/>
       <use xlink:href="#TimesNewRomanPSMT-2e" x="50"/>
       <use xlink:href="#TimesNewRomanPSMT-30" x="75"/>
       <use xlink:href="#TimesNewRomanPSMT-30" x="125"/>
       <use xlink:href="#TimesNewRomanPSMT-34" x="175"/>
      </g>
     </g>
    </g>
    <g id="xtick_4">
     <g id="line2d_7">
      <path d="M 377.794602 207.34375 
L 377.794602 34.54375 
" clip-path="url(#pcbdf850280)" style="fill: none; stroke: #ffffff; stroke-opacity: 0.5; stroke-width: 0.8; stroke-linecap: square"/>
     </g>
     <g id="line2d_8">
      <g>
       <use xlink:href="#mda8ba3d70e" x="377.794602" y="207.34375" style="fill: #ffffff; stroke: #ffffff; stroke-width: 0.8"/>
      </g>
     </g>
     <g id="text_4">
      <!-- 0.006 -->
      <g style="fill: #ffffff" transform="translate(366.544602 221.2875) scale(0.1 -0.1)">
       <defs>
        <path id="TimesNewRomanPSMT-36" d="M 2869 4325 
L 2869 4209 
Q 2456 4169 2195 4045 
Q 1934 3922 1679 3669 
Q 1425 3416 1258 3105 
Q 1091 2794 978 2366 
Q 1428 2675 1881 2675 
Q 2316 2675 2634 2325 
Q 2953 1975 2953 1425 
Q 2953 894 2631 456 
Q 2244 -75 1606 -75 
Q 1172 -75 869 213 
Q 275 772 275 1663 
Q 275 2231 503 2743 
Q 731 3256 1154 3653 
Q 1578 4050 1965 4187 
Q 2353 4325 2688 4325 
L 2869 4325 
z
M 925 2138 
Q 869 1716 869 1456 
Q 869 1156 980 804 
Q 1091 453 1309 247 
Q 1469 100 1697 100 
Q 1969 100 2183 356 
Q 2397 613 2397 1088 
Q 2397 1622 2184 2012 
Q 1972 2403 1581 2403 
Q 1463 2403 1327 2353 
Q 1191 2303 925 2138 
z
" transform="scale(0.015625)"/>
       </defs>
       <use xlink:href="#TimesNewRomanPSMT-30"/>
       <use xlink:href="#TimesNewRomanPSMT-2e" x="50"/>
       <use xlink:href="#TimesNewRomanPSMT-30" x="75"/>
       <use xlink:href="#TimesNewRomanPSMT-30" x="125"/>
       <use xlink:href="#TimesNewRomanPSMT-36" x="175"/>
      </g>
     </g>
    </g>
    <g id="xtick_5">
     <g id="line2d_9">
      <path d="M 477.940057 207.34375 
L 477.940057 34.54375 
" clip-path="url(#pcbdf850280)" style="fill: none; stroke: #ffffff; stroke-opacity: 0.5; stroke-width: 0.8; stroke-linecap: square"/>
     </g>
     <g id="line2d_10">
      <g>
       <use xlink:href="#mda8ba3d70e" x="477.940057" y="207.34375" style="fill: #ffffff; stroke: #ffffff; stroke-width: 0.8"/>
      </g>
     </g>
     <g id="text_5">
      <!-- 0.008 -->
      <g style="fill: #ffffff" transform="translate(466.690057 221.2875) scale(0.1 -0.1)">
       <defs>
        <path id="TimesNewRomanPSMT-38" d="M 1228 2134 
Q 725 2547 579 2797 
Q 434 3047 434 3316 
Q 434 3728 753 4026 
Q 1072 4325 1600 4325 
Q 2113 4325 2425 4047 
Q 2738 3769 2738 3413 
Q 2738 3175 2569 2928 
Q 2400 2681 1866 2347 
Q 2416 1922 2594 1678 
Q 2831 1359 2831 1006 
Q 2831 559 2490 242 
Q 2150 -75 1597 -75 
Q 994 -75 656 303 
Q 388 606 388 966 
Q 388 1247 577 1523 
Q 766 1800 1228 2134 
z
M 1719 2469 
Q 2094 2806 2194 3001 
Q 2294 3197 2294 3444 
Q 2294 3772 2109 3958 
Q 1925 4144 1606 4144 
Q 1288 4144 1088 3959 
Q 888 3775 888 3528 
Q 888 3366 970 3203 
Q 1053 3041 1206 2894 
L 1719 2469 
z
M 1375 2016 
Q 1116 1797 991 1539 
Q 866 1281 866 981 
Q 866 578 1086 336 
Q 1306 94 1647 94 
Q 1984 94 2187 284 
Q 2391 475 2391 747 
Q 2391 972 2272 1150 
Q 2050 1481 1375 2016 
z
" transform="scale(0.015625)"/>
       </defs>
       <use xlink:href="#TimesNewRomanPSMT-30"/>
       <use xlink:href="#TimesNewRomanPSMT-2e" x="50"/>
       <use xlink:href="#TimesNewRomanPSMT-30" x="75"/>
       <use xlink:href="#TimesNewRomanPSMT-30" x="125"/>
       <use xlink:href="#TimesNewRomanPSMT-38" x="175"/>
      </g>
     </g>
    </g>
    <g id="xtick_6">
     <g id="line2d_11">
      <path d="M 578.085511 207.34375 
L 578.085511 34.54375 
" clip-path="url(#pcbdf850280)" style="fill: none; stroke: #ffffff; stroke-opacity: 0.5; stroke-width: 0.8; stroke-linecap: square"/>
     </g>
     <g id="line2d_12">
      <g>
       <use xlink:href="#mda8ba3d70e" x="578.085511" y="207.34375" style="fill: #ffffff; stroke: #ffffff; stroke-width: 0.8"/>
      </g>
     </g>
     <g id="text_6">
      <!-- 0.010 -->
      <g style="fill: #ffffff" transform="translate(566.835511 221.2875) scale(0.1 -0.1)">
       <defs>
        <path id="TimesNewRomanPSMT-31" d="M 750 3822 
L 1781 4325 
L 1884 4325 
L 1884 747 
Q 1884 391 1914 303 
Q 1944 216 2037 169 
Q 2131 122 2419 116 
L 2419 0 
L 825 0 
L 825 116 
Q 1125 122 1212 167 
Q 1300 213 1334 289 
Q 1369 366 1369 747 
L 1369 3034 
Q 1369 3497 1338 3628 
Q 1316 3728 1258 3775 
Q 1200 3822 1119 3822 
Q 1003 3822 797 3725 
L 750 3822 
z
" transform="scale(0.015625)"/>
       </defs>
       <use xlink:href="#TimesNewRomanPSMT-30"/>
       <use xlink:href="#TimesNewRomanPSMT-2e" x="50"/>
       <use xlink:href="#TimesNewRomanPSMT-30" x="75"/>
       <use xlink:href="#TimesNewRomanPSMT-31" x="125"/>
       <use xlink:href="#TimesNewRomanPSMT-30" x="175"/>
      </g>
     </g>
    </g>
    <g id="text_7">
     <!-- Time [s] -->
     <g style="fill: #ffffff" transform="translate(310.819531 234.370313) scale(0.1 -0.1)">
      <defs>
       <path id="TimesNewRomanPSMT-54" d="M 3703 4238 
L 3750 3244 
L 3631 3244 
Q 3597 3506 3538 3619 
Q 3441 3800 3280 3886 
Q 3119 3972 2856 3972 
L 2259 3972 
L 2259 734 
Q 2259 344 2344 247 
Q 2463 116 2709 116 
L 2856 116 
L 2856 0 
L 1059 0 
L 1059 116 
L 1209 116 
Q 1478 116 1591 278 
Q 1659 378 1659 734 
L 1659 3972 
L 1150 3972 
Q 853 3972 728 3928 
Q 566 3869 450 3700 
Q 334 3531 313 3244 
L 194 3244 
L 244 4238 
L 3703 4238 
z
" transform="scale(0.015625)"/>
       <path id="TimesNewRomanPSMT-69" d="M 928 4444 
Q 1059 4444 1151 4351 
Q 1244 4259 1244 4128 
Q 1244 3997 1151 3903 
Q 1059 3809 928 3809 
Q 797 3809 703 3903 
Q 609 3997 609 4128 
Q 609 4259 701 4351 
Q 794 4444 928 4444 
z
M 1188 2947 
L 1188 647 
Q 1188 378 1227 289 
Q 1266 200 1342 156 
Q 1419 113 1622 113 
L 1622 0 
L 231 0 
L 231 113 
Q 441 113 512 153 
Q 584 194 626 287 
Q 669 381 669 647 
L 669 1750 
Q 669 2216 641 2353 
Q 619 2453 572 2492 
Q 525 2531 444 2531 
Q 356 2531 231 2484 
L 188 2597 
L 1050 2947 
L 1188 2947 
z
" transform="scale(0.015625)"/>
       <path id="TimesNewRomanPSMT-6d" d="M 1050 2338 
Q 1363 2650 1419 2697 
Q 1559 2816 1721 2881 
Q 1884 2947 2044 2947 
Q 2313 2947 2506 2790 
Q 2700 2634 2766 2338 
Q 3088 2713 3309 2830 
Q 3531 2947 3766 2947 
Q 3994 2947 4170 2830 
Q 4347 2713 4450 2447 
Q 4519 2266 4519 1878 
L 4519 647 
Q 4519 378 4559 278 
Q 4591 209 4675 161 
Q 4759 113 4950 113 
L 4950 0 
L 3538 0 
L 3538 113 
L 3597 113 
Q 3781 113 3884 184 
Q 3956 234 3988 344 
Q 4000 397 4000 647 
L 4000 1878 
Q 4000 2228 3916 2372 
Q 3794 2572 3525 2572 
Q 3359 2572 3192 2489 
Q 3025 2406 2788 2181 
L 2781 2147 
L 2788 2013 
L 2788 647 
Q 2788 353 2820 281 
Q 2853 209 2943 161 
Q 3034 113 3253 113 
L 3253 0 
L 1806 0 
L 1806 113 
Q 2044 113 2133 169 
Q 2222 225 2256 338 
Q 2272 391 2272 647 
L 2272 1878 
Q 2272 2228 2169 2381 
Q 2031 2581 1784 2581 
Q 1616 2581 1450 2491 
Q 1191 2353 1050 2181 
L 1050 647 
Q 1050 366 1089 281 
Q 1128 197 1204 155 
Q 1281 113 1516 113 
L 1516 0 
L 100 0 
L 100 113 
Q 297 113 375 155 
Q 453 197 493 289 
Q 534 381 534 647 
L 534 1741 
Q 534 2213 506 2350 
Q 484 2453 437 2492 
Q 391 2531 309 2531 
Q 222 2531 100 2484 
L 53 2597 
L 916 2947 
L 1050 2947 
L 1050 2338 
z
" transform="scale(0.015625)"/>
       <path id="TimesNewRomanPSMT-65" d="M 681 1784 
Q 678 1147 991 784 
Q 1303 422 1725 422 
Q 2006 422 2214 576 
Q 2422 731 2563 1106 
L 2659 1044 
Q 2594 616 2278 264 
Q 1963 -88 1488 -88 
Q 972 -88 605 314 
Q 238 716 238 1394 
Q 238 2128 614 2539 
Q 991 2950 1559 2950 
Q 2041 2950 2350 2633 
Q 2659 2316 2659 1784 
L 681 1784 
z
M 681 1966 
L 2006 1966 
Q 1991 2241 1941 2353 
Q 1863 2528 1708 2628 
Q 1553 2728 1384 2728 
Q 1125 2728 920 2526 
Q 716 2325 681 1966 
z
" transform="scale(0.015625)"/>
       <path id="TimesNewRomanPSMT-20" transform="scale(0.015625)"/>
       <path id="TimesNewRomanPSMT-5b" d="M 1900 -1269 
L 525 -1269 
L 525 4334 
L 1900 4334 
L 1900 4088 
L 994 4088 
L 994 -1025 
L 1900 -1025 
L 1900 -1269 
z
" transform="scale(0.015625)"/>
       <path id="TimesNewRomanPSMT-73" d="M 2050 2947 
L 2050 1972 
L 1947 1972 
Q 1828 2431 1642 2597 
Q 1456 2763 1169 2763 
Q 950 2763 815 2647 
Q 681 2531 681 2391 
Q 681 2216 781 2091 
Q 878 1963 1175 1819 
L 1631 1597 
Q 2266 1288 2266 781 
Q 2266 391 1970 151 
Q 1675 -88 1309 -88 
Q 1047 -88 709 6 
Q 606 38 541 38 
Q 469 38 428 -44 
L 325 -44 
L 325 978 
L 428 978 
Q 516 541 762 319 
Q 1009 97 1316 97 
Q 1531 97 1667 223 
Q 1803 350 1803 528 
Q 1803 744 1651 891 
Q 1500 1038 1047 1263 
Q 594 1488 453 1669 
Q 313 1847 313 2119 
Q 313 2472 555 2709 
Q 797 2947 1181 2947 
Q 1350 2947 1591 2875 
Q 1750 2828 1803 2828 
Q 1853 2828 1881 2850 
Q 1909 2872 1947 2947 
L 2050 2947 
z
" transform="scale(0.015625)"/>
       <path id="TimesNewRomanPSMT-5d" d="M 234 4334 
L 1609 4334 
L 1609 -1272 
L 234 -1272 
L 234 -1025 
L 1141 -1025 
L 1141 4088 
L 234 4088 
L 234 4334 
z
" transform="scale(0.015625)"/>
      </defs>
      <use xlink:href="#TimesNewRomanPSMT-54"/>
      <use xlink:href="#TimesNewRomanPSMT-69" x="57.583984"/>
      <use xlink:href="#TimesNewRomanPSMT-6d" x="85.367188"/>
      <use xlink:href="#TimesNewRomanPSMT-65" x="163.150391"/>
      <use xlink:href="#TimesNewRomanPSMT-20" x="207.535156"/>
      <use xlink:href="#TimesNewRomanPSMT-5b" x="232.535156"/>
      <use xlink:href="#TimesNewRomanPSMT-73" x="265.835938"/>
      <use xlink:href="#TimesNewRomanPSMT-5d" x="304.751953"/>
     </g>
    </g>
   </g>
   <g id="matplotlib.axis_2">
    <g id="ytick_1">
     <g id="line2d_13">
      <path d="M 52.321875 199.970931 
L 603.121875 199.970931 
" clip-path="url(#pcbdf850280)" style="fill: none; stroke: #ffffff; stroke-opacity: 0.5; stroke-width: 0.8; stroke-linecap: square"/>
     </g>
     <g id="line2d_14">
      <defs>
       <path id="mb6d8225153" d="M 0 0 
L -3.5 0 
" style="stroke: #ffffff; stroke-width: 0.8"/>
      </defs>
      <g>
       <use xlink:href="#mb6d8225153" x="52.321875" y="199.970931" style="fill: #ffffff; stroke: #ffffff; stroke-width: 0.8"/>
      </g>
     </g>
     <g id="text_8">
      <!-- −2 -->
      <g style="fill: #ffffff" transform="translate(34.682813 203.442806) scale(0.1 -0.1)">
       <defs>
        <path id="TimesNewRomanPSMT-2212" d="M 3484 2000 
L 116 2000 
L 116 2256 
L 3484 2256 
L 3484 2000 
z
" transform="scale(0.015625)"/>
       </defs>
       <use xlink:href="#TimesNewRomanPSMT-2212"/>
       <use xlink:href="#TimesNewRomanPSMT-32" x="56.396484"/>
      </g>
     </g>
    </g>
    <g id="ytick_2">
     <g id="line2d_15">
      <path d="M 52.321875 160.45734 
L 603.121875 160.45734 
" clip-path="url(#pcbdf850280)" style="fill: none; stroke: #ffffff; stroke-opacity: 0.5; stroke-width: 0.8; stroke-linecap: square"/>
     </g>
     <g id="line2d_16">
      <g>
       <use xlink:href="#mb6d8225153" x="52.321875" y="160.45734" style="fill: #ffffff; stroke: #ffffff; stroke-width: 0.8"/>
      </g>
     </g>
     <g id="text_9">
      <!-- −1 -->
      <g style="fill: #ffffff" transform="translate(34.682813 163.929215) scale(0.1 -0.1)">
       <use xlink:href="#TimesNewRomanPSMT-2212"/>
       <use xlink:href="#TimesNewRomanPSMT-31" x="56.396484"/>
      </g>
     </g>
    </g>
    <g id="ytick_3">
     <g id="line2d_17">
      <path d="M 52.321875 120.94375 
L 603.121875 120.94375 
" clip-path="url(#pcbdf850280)" style="fill: none; stroke: #ffffff; stroke-opacity: 0.5; stroke-width: 0.8; stroke-linecap: square"/>
     </g>
     <g id="line2d_18">
      <g>
       <use xlink:href="#mb6d8225153" x="52.321875" y="120.94375" style="fill: #ffffff; stroke: #ffffff; stroke-width: 0.8"/>
      </g>
     </g>
     <g id="text_10">
      <!-- 0 -->
      <g style="fill: #ffffff" transform="translate(40.321875 124.415625) scale(0.1 -0.1)">
       <use xlink:href="#TimesNewRomanPSMT-30"/>
      </g>
     </g>
    </g>
    <g id="ytick_4">
     <g id="line2d_19">
      <path d="M 52.321875 81.43016 
L 603.121875 81.43016 
" clip-path="url(#pcbdf850280)" style="fill: none; stroke: #ffffff; stroke-opacity: 0.5; stroke-width: 0.8; stroke-linecap: square"/>
     </g>
     <g id="line2d_20">
      <g>
       <use xlink:href="#mb6d8225153" x="52.321875" y="81.43016" style="fill: #ffffff; stroke: #ffffff; stroke-width: 0.8"/>
      </g>
     </g>
     <g id="text_11">
      <!-- 1 -->
      <g style="fill: #ffffff" transform="translate(40.321875 84.902035) scale(0.1 -0.1)">
       <use xlink:href="#TimesNewRomanPSMT-31"/>
      </g>
     </g>
    </g>
    <g id="ytick_5">
     <g id="line2d_21">
      <path d="M 52.321875 41.916569 
L 603.121875 41.916569 
" clip-path="url(#pcbdf850280)" style="fill: none; stroke: #ffffff; stroke-opacity: 0.5; stroke-width: 0.8; stroke-linecap: square"/>
     </g>
     <g id="line2d_22">
      <g>
       <use xlink:href="#mb6d8225153" x="52.321875" y="41.916569" style="fill: #ffffff; stroke: #ffffff; stroke-width: 0.8"/>
      </g>
     </g>
     <g id="text_12">
      <!-- 2 -->
      <g style="fill: #ffffff" transform="translate(40.321875 45.388444) scale(0.1 -0.1)">
       <use xlink:href="#TimesNewRomanPSMT-32"/>
      </g>
     </g>
    </g>
    <g id="text_13">
     <!-- Amplitude -->
     <g style="fill: #ffffff" transform="translate(28.54375 142.330469) rotate(-90) scale(0.1 -0.1)">
      <defs>
       <path id="TimesNewRomanPSMT-41" d="M 2928 1419 
L 1288 1419 
L 1000 750 
Q 894 503 894 381 
Q 894 284 986 211 
Q 1078 138 1384 116 
L 1384 0 
L 50 0 
L 50 116 
Q 316 163 394 238 
Q 553 388 747 847 
L 2238 4334 
L 2347 4334 
L 3822 809 
Q 4000 384 4145 257 
Q 4291 131 4550 116 
L 4550 0 
L 2878 0 
L 2878 116 
Q 3131 128 3220 200 
Q 3309 272 3309 375 
Q 3309 513 3184 809 
L 2928 1419 
z
M 2841 1650 
L 2122 3363 
L 1384 1650 
L 2841 1650 
z
" transform="scale(0.015625)"/>
       <path id="TimesNewRomanPSMT-70" d="M -6 2578 
L 875 2934 
L 994 2934 
L 994 2266 
Q 1216 2644 1439 2795 
Q 1663 2947 1909 2947 
Q 2341 2947 2628 2609 
Q 2981 2197 2981 1534 
Q 2981 794 2556 309 
Q 2206 -88 1675 -88 
Q 1444 -88 1275 -22 
Q 1150 25 994 166 
L 994 -706 
Q 994 -1000 1030 -1079 
Q 1066 -1159 1155 -1206 
Q 1244 -1253 1478 -1253 
L 1478 -1369 
L -22 -1369 
L -22 -1253 
L 56 -1253 
Q 228 -1256 350 -1188 
Q 409 -1153 442 -1076 
Q 475 -1000 475 -688 
L 475 2019 
Q 475 2297 450 2372 
Q 425 2447 370 2484 
Q 316 2522 222 2522 
Q 147 2522 31 2478 
L -6 2578 
z
M 994 2081 
L 994 1013 
Q 994 666 1022 556 
Q 1066 375 1236 237 
Q 1406 100 1666 100 
Q 1978 100 2172 344 
Q 2425 663 2425 1241 
Q 2425 1897 2138 2250 
Q 1938 2494 1663 2494 
Q 1513 2494 1366 2419 
Q 1253 2363 994 2081 
z
" transform="scale(0.015625)"/>
       <path id="TimesNewRomanPSMT-6c" d="M 1184 4444 
L 1184 647 
Q 1184 378 1223 290 
Q 1263 203 1344 158 
Q 1425 113 1647 113 
L 1647 0 
L 244 0 
L 244 113 
Q 441 113 512 153 
Q 584 194 625 287 
Q 666 381 666 647 
L 666 3247 
Q 666 3731 644 3842 
Q 622 3953 573 3993 
Q 525 4034 450 4034 
Q 369 4034 244 3984 
L 191 4094 
L 1044 4444 
L 1184 4444 
z
" transform="scale(0.015625)"/>
       <path id="TimesNewRomanPSMT-74" d="M 1031 3803 
L 1031 2863 
L 1700 2863 
L 1700 2644 
L 1031 2644 
L 1031 788 
Q 1031 509 1111 412 
Q 1191 316 1316 316 
Q 1419 316 1516 380 
Q 1613 444 1666 569 
L 1788 569 
Q 1678 263 1478 108 
Q 1278 -47 1066 -47 
Q 922 -47 784 33 
Q 647 113 581 261 
Q 516 409 516 719 
L 516 2644 
L 63 2644 
L 63 2747 
Q 234 2816 414 2980 
Q 594 3144 734 3369 
Q 806 3488 934 3803 
L 1031 3803 
z
" transform="scale(0.015625)"/>
       <path id="TimesNewRomanPSMT-75" d="M 2709 2863 
L 2709 1128 
Q 2709 631 2732 520 
Q 2756 409 2807 365 
Q 2859 322 2928 322 
Q 3025 322 3147 375 
L 3191 266 
L 2334 -88 
L 2194 -88 
L 2194 519 
Q 1825 119 1631 15 
Q 1438 -88 1222 -88 
Q 981 -88 804 51 
Q 628 191 559 409 
Q 491 628 491 1028 
L 491 2306 
Q 491 2509 447 2587 
Q 403 2666 317 2708 
Q 231 2750 6 2747 
L 6 2863 
L 1009 2863 
L 1009 947 
Q 1009 547 1148 422 
Q 1288 297 1484 297 
Q 1619 297 1789 381 
Q 1959 466 2194 703 
L 2194 2325 
Q 2194 2569 2105 2655 
Q 2016 2741 1734 2747 
L 1734 2863 
L 2709 2863 
z
" transform="scale(0.015625)"/>
       <path id="TimesNewRomanPSMT-64" d="M 2222 322 
Q 2013 103 1813 7 
Q 1613 -88 1381 -88 
Q 913 -88 563 304 
Q 213 697 213 1313 
Q 213 1928 600 2439 
Q 988 2950 1597 2950 
Q 1975 2950 2222 2709 
L 2222 3238 
Q 2222 3728 2198 3840 
Q 2175 3953 2125 3993 
Q 2075 4034 2000 4034 
Q 1919 4034 1784 3984 
L 1744 4094 
L 2597 4444 
L 2738 4444 
L 2738 1134 
Q 2738 631 2761 520 
Q 2784 409 2836 365 
Q 2888 322 2956 322 
Q 3041 322 3181 375 
L 3216 266 
L 2366 -88 
L 2222 -88 
L 2222 322 
z
M 2222 541 
L 2222 2016 
Q 2203 2228 2109 2403 
Q 2016 2578 1861 2667 
Q 1706 2756 1559 2756 
Q 1284 2756 1069 2509 
Q 784 2184 784 1559 
Q 784 928 1059 592 
Q 1334 256 1672 256 
Q 1956 256 2222 541 
z
" transform="scale(0.015625)"/>
      </defs>
      <use xlink:href="#TimesNewRomanPSMT-41"/>
      <use xlink:href="#TimesNewRomanPSMT-6d" x="72.216797"/>
      <use xlink:href="#TimesNewRomanPSMT-70" x="150"/>
      <use xlink:href="#TimesNewRomanPSMT-6c" x="200"/>
      <use xlink:href="#TimesNewRomanPSMT-69" x="227.783203"/>
      <use xlink:href="#TimesNewRomanPSMT-74" x="255.566406"/>
      <use xlink:href="#TimesNewRomanPSMT-75" x="283.349609"/>
      <use xlink:href="#TimesNewRomanPSMT-64" x="333.349609"/>
      <use xlink:href="#TimesNewRomanPSMT-65" x="383.349609"/>
     </g>
    </g>
   </g>
   <g id="line2d_23">
    <path d="M 77.358239 120.94375 
L 78.360696 95.214584 
L 78.861924 85.232418 
L 79.363153 78.391466 
L 79.864381 75.242785 
L 80.36561 75.975767 
L 80.866838 80.399677 
L 81.368067 87.962482 
L 82.370524 108.845822 
L 83.372981 129.729938 
L 83.874209 137.298035 
L 84.375438 141.736993 
L 84.876666 142.501501 
L 85.377895 139.408257 
L 85.879123 132.654061 
L 86.380352 122.796612 
L 88.886494 62.657197 
L 89.387723 56.202362 
L 89.888951 53.469096 
L 90.39018 54.638909 
L 90.891408 59.513179 
L 91.392637 67.53271 
L 92.395094 89.327461 
L 93.397551 111.106048 
L 93.898779 119.118353 
L 94.400008 124.005455 
L 94.901236 125.228357 
L 95.402465 122.610779 
L 95.903693 116.356502 
L 96.404922 107.029435 
L 98.911064 50.091857 
L 99.412293 44.374839 
L 99.913521 42.398295 
L 100.41475 44.335514 
L 100.915978 49.979662 
L 101.417207 58.764089 
L 103.923349 113.961585 
L 104.424578 119.531783 
L 104.925806 121.435067 
L 105.427035 119.501964 
L 105.928263 113.943023 
L 106.429492 105.328149 
L 108.935634 52.290129 
L 109.436863 47.406938 
L 109.938091 46.268289 
L 110.43932 49.039159 
L 110.940548 55.504446 
L 111.441777 65.090019 
L 113.947919 123.856108 
L 114.449148 130.056211 
L 114.950376 132.571999 
L 115.451605 131.24088 
L 115.952833 126.280247 
L 116.454062 118.266072 
L 118.960204 68.356113 
L 119.461433 64.11041 
L 119.962661 63.599654 
L 120.46389 66.980707 
L 120.965118 74.030434 
L 121.967575 96.509164 
L 123.471261 135.368406 
L 123.972489 145.069596 
L 124.473718 151.578541 
L 124.974946 154.375042 
L 125.476175 153.30372 
L 125.977403 148.589142 
L 126.478632 140.813672 
L 128.984774 92.087148 
L 129.486003 88.065467 
L 129.987231 87.761819 
L 130.48846 91.325367 
L 130.989688 98.525369 
L 131.992145 121.182382 
L 133.495831 159.955766 
L 133.997059 169.537397 
L 134.498288 175.889044 
L 134.999516 178.497505 
L 135.500745 177.215086 
L 136.001973 172.273983 
L 136.503202 164.2634 
L 139.009344 114.347607 
L 139.510573 110.07767 
L 140.011801 109.510627 
L 140.51303 112.788402 
L 141.014258 119.673119 
L 142.016715 141.587355 
L 143.520401 178.925869 
L 144.021629 187.94892 
L 144.522858 193.710365 
L 145.024086 195.704444 
L 145.525315 193.791577 
L 146.026543 188.211993 
L 146.527772 179.562119 
L 149.033914 126.565156 
L 149.535143 121.696696 
L 150.036371 120.526124 
L 150.5376 123.188453 
L 151.038828 129.43901 
L 151.540057 138.677417 
L 154.046199 193.310854 
L 154.547428 198.248022 
L 155.048656 199.406928 
L 155.549885 196.656327 
L 156.051113 190.244677 
L 156.552342 180.775798 
L 159.058484 124.011436 
L 159.559713 118.450327 
L 160.060941 116.596653 
L 160.56217 118.578589 
L 161.063398 124.144739 
L 161.564627 132.688846 
L 164.070769 183.623537 
L 164.571998 187.790692 
L 165.073226 188.183661 
L 165.574455 184.679473 
L 166.075683 177.534723 
L 167.07814 155.062534 
L 168.581826 116.908805 
L 169.083054 107.611638 
L 169.584283 101.555992 
L 170.085511 99.230677 
L 170.58674 100.756819 
L 171.087968 105.876082 
L 171.589197 113.976121 
L 174.095339 162.646245 
L 174.596568 166.365139 
L 175.097796 166.324919 
L 175.599025 162.410558 
L 176.100253 154.886443 
L 177.10271 131.773983 
L 178.606396 93.004245 
L 179.107624 83.590425 
L 179.608853 77.454853 
L 180.110081 75.079487 
L 180.61131 76.577981 
L 181.112538 81.68465 
L 181.613767 89.780652 
L 184.119909 138.458487 
L 184.621138 142.195154 
L 185.122366 142.190636 
L 185.623595 138.337399 
L 186.124823 130.907138 
L 187.12728 108.104643 
L 188.630966 70.146057 
L 189.132194 61.089725 
L 189.633423 55.346734 
L 190.134651 53.391708 
L 190.63588 55.330357 
L 191.137108 60.889197 
L 191.638337 69.442451 
L 194.144479 120.367933 
L 194.645708 124.554255 
L 195.146936 125.011015 
L 195.648165 121.637749 
L 196.149393 114.71304 
L 197.15185 93.020725 
L 198.655536 57.009158 
L 199.156764 48.670059 
L 199.657993 43.6693 
L 200.159221 42.473802 
L 200.66045 45.180994 
L 201.161678 51.509274 
L 202.164135 72.207823 
L 203.667821 107.212308 
L 204.169049 115.34831 
L 204.670278 120.216665 
L 205.171506 121.354071 
L 205.672735 118.666925 
L 206.173963 112.440481 
L 207.17642 92.202606 
L 208.680106 58.548454 
L 209.181334 51.03439 
L 209.682563 46.868913 
L 210.183791 46.511136 
L 210.68502 50.050122 
L 211.186248 57.196105 
L 212.188705 79.46037 
L 213.692391 116.586187 
L 214.193619 125.370519 
L 214.694848 130.864771 
L 215.196076 132.612017 
L 215.697305 130.525587 
L 216.198533 124.897481 
L 216.699762 116.369644 
L 218.704676 74.102579 
L 219.205904 67.228267 
L 219.707133 63.698987 
L 220.208361 63.966216 
L 220.70959 68.110866 
L 221.210818 75.835234 
L 222.213275 99.148098 
L 223.716961 137.527927 
L 224.218189 146.648354 
L 224.719418 152.445268 
L 225.220646 154.468458 
L 225.721875 152.638517 
L 226.223104 147.254521 
L 226.724332 138.964572 
L 228.729246 97.646998 
L 229.230475 91.005106 
L 229.731703 87.69706 
L 230.232932 88.167099 
L 230.73416 92.488391 
L 231.235389 100.35574 
L 232.237846 123.829074 
L 233.741531 162.09469 
L 234.24276 171.087506 
L 234.743988 176.720382 
L 235.245217 178.550296 
L 235.746445 176.505578 
L 236.247674 170.89283 
L 236.748902 162.366752 
L 238.753816 120.099642 
L 239.255045 113.216793 
L 239.756273 109.658022 
L 240.257502 109.860777 
L 240.75873 113.890948 
L 241.259959 121.436315 
L 242.262416 144.150553 
L 243.766101 180.955924 
L 244.26733 189.383296 
L 244.768558 194.420506 
L 245.269787 195.632168 
L 245.771015 192.954767 
L 246.272244 186.702837 
L 247.274701 166.404298 
L 248.778386 132.796663 
L 249.279615 125.314722 
L 249.780843 121.156959 
L 250.282072 120.754363 
L 250.7833 124.165872 
L 251.284529 131.072581 
L 252.286986 152.428323 
L 253.790671 186.964221 
L 254.2919 194.58163 
L 254.793128 198.791738 
L 255.294357 199.16704 
L 255.795585 195.652398 
L 256.296814 188.570462 
L 257.299271 166.66058 
L 258.802956 130.808146 
L 259.304185 122.621395 
L 259.805413 117.77342 
L 260.306642 116.688817 
L 260.80787 119.419652 
L 261.309099 125.640407 
L 262.311556 145.587492 
L 263.314013 168.382772 
L 263.815241 177.890664 
L 264.31647 184.740367 
L 264.817698 188.180634 
L 265.318927 187.791801 
L 265.820155 183.527035 
L 266.321384 175.717009 
L 267.323841 152.44347 
L 268.827526 114.824816 
L 269.328755 106.120535 
L 269.829983 100.783147 
L 270.331212 99.230644 
L 270.83244 101.508004 
L 271.333669 107.282884 
L 272.336126 126.339267 
L 273.338583 148.227618 
L 273.839811 157.277845 
L 274.34104 163.672585 
L 274.842268 166.666987 
L 275.343497 165.848926 
L 275.844725 161.179545 
L 276.345954 152.997182 
L 277.348411 129.100697 
L 278.852096 90.893698 
L 279.353325 82.080603 
L 279.854553 76.669842 
L 280.355782 75.072373 
L 280.85701 77.325667 
L 281.358239 83.090145 
L 282.360696 102.143351 
L 283.363153 124.031749 
L 283.864381 133.084091 
L 284.36561 139.487294 
L 284.866838 142.502472 
L 285.368067 141.724594 
L 285.869295 137.122316 
L 286.370524 129.041163 
L 287.372981 105.472318 
L 288.876666 68.103886 
L 289.377895 59.655832 
L 289.879123 54.64382 
L 290.380352 53.471297 
L 290.88158 56.167755 
L 291.382809 62.385934 
L 292.385266 82.35307 
L 293.387723 105.141093 
L 293.888951 114.637766 
L 294.39018 121.486067 
L 294.891408 124.952676 
L 295.392637 124.639244 
L 295.893865 120.521521 
L 296.395094 112.951795 
L 297.397551 90.50758 
L 298.400008 65.561764 
L 298.901236 55.108102 
L 299.402465 47.382845 
L 299.903693 43.11717 
L 300.404922 42.706645 
L 300.90615 46.172456 
L 301.407379 53.159349 
L 302.409836 74.635801 
L 303.913521 109.067247 
L 304.41475 116.603278 
L 304.915978 120.75111 
L 305.417207 121.118865 
L 305.918435 117.689177 
L 306.419664 110.820877 
L 307.422121 89.839999 
L 308.424578 66.452882 
L 308.925806 56.811247 
L 309.427035 49.913649 
L 309.928263 46.484397 
L 310.429492 46.91108 
L 310.93072 51.206502 
L 311.431949 59.007368 
L 312.434406 82.038616 
L 313.938091 118.572856 
L 314.43932 126.752271 
L 314.940548 131.52225 
L 315.441777 132.497461 
L 315.943005 129.667493 
L 316.444234 123.397795 
L 317.446691 103.631379 
L 318.449148 81.49701 
L 318.950376 72.493276 
L 319.451605 66.23528 
L 319.952833 63.440624 
L 320.454062 64.489103 
L 320.95529 69.385346 
L 321.456519 77.758262 
L 322.458976 101.822147 
L 323.962661 139.584775 
L 324.46389 148.093112 
L 324.965118 153.159844 
L 325.466347 154.406521 
L 325.967575 151.83002 
L 326.468804 145.802738 
L 327.471261 126.5099 
L 328.473718 104.851557 
L 328.974946 96.084762 
L 329.476175 90.05748 
L 329.977403 87.480979 
L 330.478632 88.727656 
L 330.97986 93.794388 
L 331.481089 102.302725 
L 332.483546 126.508955 
L 333.486003 152.990177 
L 333.987231 164.129238 
L 334.48846 172.502154 
L 334.989688 177.398397 
L 335.490917 178.446876 
L 335.992145 175.65222 
L 336.493374 169.394224 
L 337.495831 149.625941 
L 338.498288 127.493753 
L 338.999516 118.489705 
L 339.500745 112.220007 
L 340.001973 109.390039 
L 340.503202 110.36525 
L 341.00443 115.135229 
L 341.505659 123.314644 
L 342.508116 146.745185 
L 343.510573 172.277638 
L 344.011801 182.880132 
L 344.51303 190.680998 
L 345.014258 194.97642 
L 345.515487 195.403103 
L 346.016715 191.973851 
L 346.517944 185.076253 
L 347.520401 164.038888 
L 348.522858 140.673725 
L 349.024086 131.066623 
L 349.525315 124.198323 
L 350.026543 120.768635 
L 350.527772 121.13639 
L 351.029 125.284222 
L 351.530229 132.820253 
L 352.532686 154.880334 
L 353.535143 178.917015 
L 354.036371 188.728151 
L 354.5376 195.715044 
L 355.038828 199.180855 
L 355.540057 198.77033 
L 356.041285 194.504655 
L 356.542514 186.779398 
L 357.544971 164.138762 
L 358.547428 139.263118 
L 359.048656 128.935705 
L 359.549885 121.365979 
L 360.051113 117.248256 
L 360.552342 116.934824 
L 361.05357 120.401433 
L 361.554799 127.249734 
L 362.557256 147.895142 
L 363.559713 170.451545 
L 364.060941 179.501566 
L 364.56217 185.719745 
L 365.063398 188.416203 
L 365.564627 187.24368 
L 366.065855 182.231668 
L 366.567084 173.783614 
L 367.569541 149.79319 
L 368.571998 123.717755 
L 369.073226 112.846337 
L 369.574455 104.765184 
L 370.075683 100.162906 
L 370.576912 99.385028 
L 371.07814 102.400206 
L 371.579369 108.803409 
L 372.581826 128.557072 
L 373.584283 150.204894 
L 374.085511 158.797355 
L 374.58674 164.561833 
L 375.087968 166.815127 
L 375.589197 165.217658 
L 376.090425 159.806897 
L 376.591654 150.993802 
L 377.594111 126.398074 
L 378.596568 99.903194 
L 379.097796 88.890318 
L 379.599025 80.707955 
L 380.100253 76.038574 
L 380.601482 75.220513 
L 381.10271 78.214915 
L 381.603939 84.609655 
L 382.606396 104.361186 
L 383.608853 126.009173 
L 384.110081 134.604616 
L 384.61131 140.379496 
L 385.112538 142.656856 
L 385.613767 141.104353 
L 386.114995 135.766965 
L 386.616224 127.062684 
L 387.618681 102.812546 
L 388.621138 76.849944 
L 389.122366 66.170491 
L 389.623595 58.360465 
L 390.124823 54.095699 
L 390.626052 53.706866 
L 391.12728 57.147133 
L 391.628509 63.996836 
L 392.630966 84.661735 
L 393.633423 107.207535 
L 394.134651 116.247093 
L 394.63588 122.467848 
L 395.137108 125.198683 
L 395.638337 124.11408 
L 396.139565 119.266105 
L 396.640794 111.079354 
L 397.643251 87.968538 
L 398.645708 63.297448 
L 399.146936 53.317038 
L 399.648165 46.235102 
L 400.149393 42.72046 
L 400.650622 43.095762 
L 401.15185 47.30587 
L 401.653079 54.923279 
L 402.655536 77.092234 
L 403.657993 101.078498 
L 404.159221 110.814919 
L 404.66045 117.721628 
L 405.161678 121.133137 
L 405.662907 120.730541 
L 406.164135 116.572778 
L 406.665364 109.090837 
L 407.667821 87.452479 
L 408.670278 64.349445 
L 409.171506 55.184663 
L 409.672735 48.932733 
L 410.173963 46.255332 
L 410.675192 47.466994 
L 411.17642 52.504204 
L 411.677649 60.931576 
L 412.680106 84.644065 
L 413.682563 110.05041 
L 414.183791 120.451185 
L 414.68502 127.996552 
L 415.186248 132.026723 
L 415.687477 132.229478 
L 416.188705 128.670707 
L 416.689934 121.787858 
L 417.692391 101.367343 
L 418.694848 79.520748 
L 419.196076 70.99467 
L 419.697305 65.381922 
L 420.198533 63.337204 
L 420.699762 65.167118 
L 421.20099 70.799994 
L 421.702219 79.79281 
L 422.704676 104.521656 
L 423.707133 130.772102 
L 424.208361 141.53176 
L 424.70959 149.399109 
L 425.210818 153.720401 
L 425.712047 154.19044 
L 426.213275 150.882394 
L 426.714504 144.240502 
L 427.716961 124.293245 
L 428.719418 102.922928 
L 429.220646 94.632979 
L 429.721875 89.248983 
L 430.223104 87.419042 
L 430.724332 89.442232 
L 431.225561 95.239146 
L 431.726789 104.359573 
L 432.729246 129.212358 
L 433.731703 155.395399 
L 434.232932 166.052266 
L 434.73416 173.776634 
L 435.235389 177.921284 
L 435.736617 178.188513 
L 436.237846 174.659233 
L 436.739074 167.784921 
L 437.741531 147.361662 
L 438.743988 125.517856 
L 439.245217 116.990019 
L 439.746445 111.361913 
L 440.247674 109.275483 
L 440.748902 111.022729 
L 441.250131 116.516981 
L 441.751359 125.301313 
L 442.753816 149.361577 
L 443.756273 174.578654 
L 444.257502 184.691395 
L 444.75873 191.837378 
L 445.259959 195.376364 
L 445.761187 195.018587 
L 446.262416 190.85311 
L 446.763644 183.339046 
L 447.766101 161.649475 
L 448.768558 138.576645 
L 449.269787 129.447019 
L 449.771015 123.220575 
L 450.272244 120.533429 
L 450.773472 121.670835 
L 451.274701 126.53919 
L 451.775929 134.675192 
L 452.778386 157.352822 
L 453.780843 181.061852 
L 454.282072 190.378226 
L 454.7833 196.706506 
L 455.284529 199.413698 
L 455.785757 198.2182 
L 456.286986 193.217441 
L 456.788214 184.878342 
L 457.790671 161.593899 
L 458.793128 137.020253 
L 459.294357 127.17446 
L 459.795585 120.249751 
L 460.296814 116.876485 
L 460.798042 117.333245 
L 461.299271 121.519567 
L 461.800499 128.965849 
L 462.802956 150.22258 
L 463.805413 172.445049 
L 464.306642 180.998303 
L 464.80787 186.557143 
L 465.309099 188.495792 
L 465.810327 186.540766 
L 466.311556 180.797775 
L 466.812784 171.741443 
L 467.815241 147.121397 
L 468.817698 121.363261 
L 469.318927 110.980362 
L 469.820155 103.550101 
L 470.321384 99.696864 
L 470.822612 99.692346 
L 471.323841 103.429013 
L 471.825069 110.430747 
L 472.827526 130.794466 
L 473.829983 152.106848 
L 474.331212 160.20285 
L 474.83244 165.309519 
L 475.333669 166.808013 
L 475.834897 164.432647 
L 476.336126 158.297075 
L 476.837354 148.883255 
L 477.839811 123.675827 
L 478.842268 97.516945 
L 479.343497 87.001057 
L 479.844725 79.476942 
L 480.345954 75.562581 
L 480.847182 75.522361 
L 481.348411 79.241255 
L 481.849639 86.236226 
L 482.852096 106.598601 
L 483.854553 127.911379 
L 484.355782 136.011418 
L 484.85701 141.130681 
L 485.358239 142.656823 
L 485.859467 140.331508 
L 486.360696 134.275862 
L 486.861924 124.978695 
L 487.864381 100.13505 
L 488.866838 74.526999 
L 489.368067 64.352777 
L 489.869295 57.208027 
L 490.370524 53.703839 
L 490.871752 54.096808 
L 491.372981 58.263963 
L 491.874209 65.714902 
L 492.876666 86.989793 
L 493.879123 109.198654 
L 494.380352 117.742761 
L 494.88158 123.308911 
L 495.382809 125.290847 
L 495.884037 123.437173 
L 496.385266 117.876064 
L 496.886494 109.102751 
L 497.888951 85.413324 
L 498.891408 61.111702 
L 499.392637 51.642823 
L 499.893865 45.231173 
L 500.395094 42.480572 
L 500.896322 43.639478 
L 501.397551 48.576646 
L 501.898779 56.794014 
L 502.901236 79.567392 
L 503.903693 103.210083 
L 504.404922 112.44849 
L 504.90615 118.699047 
L 505.407379 121.361376 
L 505.908607 120.190804 
L 506.409836 115.322344 
L 506.911064 107.257433 
L 507.913521 85.049775 
L 508.915978 62.325381 
L 509.417207 53.675507 
L 509.918435 48.095923 
L 510.419664 46.183056 
L 510.920892 48.177135 
L 511.422121 53.93858 
L 511.923349 62.961631 
L 512.925806 87.266973 
L 513.928263 112.317145 
L 514.429492 122.214381 
L 514.93072 129.099098 
L 515.431949 132.376873 
L 515.933177 131.80983 
L 516.434406 127.539893 
L 516.935634 120.074777 
L 517.938091 99.088541 
L 518.940548 77.6241 
L 519.441777 69.613517 
L 519.943005 64.672414 
L 520.444234 63.389995 
L 520.945462 65.998456 
L 521.446691 72.350103 
L 521.947919 81.931734 
L 522.950376 107.236871 
L 523.952833 133.113806 
L 524.454062 143.362131 
L 524.95529 150.562133 
L 525.456519 154.125681 
L 525.957747 153.822033 
L 526.458976 149.800352 
L 526.960204 142.574961 
L 527.962661 122.061884 
L 528.965118 101.073828 
L 529.466347 93.298358 
L 529.967575 88.58378 
L 530.468804 87.512458 
L 530.970032 90.308959 
L 531.471261 96.817904 
L 531.972489 106.519094 
L 532.974946 131.929522 
L 533.977403 157.720024 
L 534.478632 167.857066 
L 534.97986 174.906793 
L 535.481089 178.287846 
L 535.982317 177.77709 
L 536.483546 173.531387 
L 536.984774 166.072114 
L 537.987231 145.082734 
L 538.989688 123.621428 
L 539.490917 115.607253 
L 539.992145 110.64662 
L 540.493374 109.315501 
L 540.994602 111.831289 
L 541.495831 118.031392 
L 541.997059 127.389093 
L 543.500745 164.968535 
L 544.503202 186.383054 
L 545.00443 192.848341 
L 545.505659 195.619211 
L 546.006887 194.480562 
L 546.508116 189.597371 
L 547.009344 181.498454 
L 548.011801 159.245817 
L 549.014258 136.559351 
L 549.515487 127.944477 
L 550.016715 122.385536 
L 550.517944 120.452433 
L 551.019172 122.355717 
L 551.520401 127.925915 
L 552.021629 136.630135 
L 553.024086 159.836018 
L 554.026543 183.123411 
L 554.527772 191.907838 
L 555.029 197.551986 
L 555.530229 199.489205 
L 556.031457 197.512661 
L 556.532686 191.795643 
L 557.033914 182.87458 
L 558.036371 159.035764 
L 559.038828 134.858065 
L 559.540057 125.530998 
L 560.041285 119.276721 
L 560.542514 116.659143 
L 561.043742 117.882045 
L 561.544971 122.769147 
L 562.046199 130.781452 
L 563.048656 152.560039 
L 564.051113 174.35479 
L 564.552342 182.374321 
L 565.05357 187.248591 
L 565.554799 188.418404 
L 566.056027 185.685138 
L 566.557256 179.230303 
L 567.058484 169.597828 
L 568.56217 131.187589 
L 569.564627 109.233439 
L 570.065855 102.479243 
L 570.567084 99.385999 
L 571.068312 100.150507 
L 571.569541 104.589465 
L 572.070769 112.157562 
L 573.073226 133.041678 
L 574.075683 153.925018 
L 574.576912 161.487823 
L 575.07814 165.911733 
L 575.579369 166.644715 
L 576.080597 163.496034 
L 576.581826 156.655082 
L 577.083054 146.672916 
L 578.085511 120.94375 
L 578.085511 120.94375 
" clip-path="url(#pcbdf850280)" style="fill: none; stroke: #00bfbf; stroke-width: 1.5; stroke-linecap: square"/>
   </g>
   <g id="line2d_24">
    <path d="M 77.358239 120.94375 
L 77.859467 119.719697 
L 78.360696 117.49196 
L 79.363153 111.271291 
L 80.36561 105.085045 
L 80.866838 102.84092 
L 81.368067 101.488335 
L 81.869295 101.153496 
L 82.370524 101.852799 
L 82.871752 103.49222 
L 83.874209 108.733882 
L 84.876666 114.531196 
L 85.377895 116.792747 
L 85.879123 118.234684 
L 86.380352 118.649405 
L 86.88158 117.926724 
L 87.382809 116.065169 
L 87.884037 113.172581 
L 88.886494 105.201521 
L 90.39018 92.648133 
L 90.891408 89.635865 
L 91.392637 87.626487 
L 91.893865 86.736139 
L 92.395094 86.971714 
L 92.896322 88.230406 
L 93.397551 90.31001 
L 95.402465 100.631495 
L 95.903693 102.061041 
L 96.404922 102.512713 
L 96.90615 101.875044 
L 97.407379 100.145652 
L 97.908607 97.431597 
L 98.911064 89.952887 
L 99.913521 81.862961 
L 100.41475 78.451375 
L 100.915978 75.863038 
L 101.417207 74.308588 
L 101.918435 73.900345 
L 102.419664 74.641358 
L 102.920892 76.42516 
L 103.923349 82.220389 
L 105.427035 91.653766 
L 105.928263 93.680062 
L 106.429492 94.738979 
L 106.93072 94.720042 
L 107.431949 93.62201 
L 107.933177 91.553004 
L 108.935634 85.408118 
L 109.938091 78.709359 
L 110.43932 76.012068 
L 110.940548 74.147738 
L 111.441777 73.324309 
L 111.943005 73.651096 
L 112.444234 75.128045 
L 112.945462 77.645711 
L 113.947919 84.892333 
L 115.451605 96.439535 
L 115.952833 99.152327 
L 116.454062 100.88994 
L 116.95529 101.543248 
L 117.456519 101.112477 
L 117.957747 99.707123 
L 118.960204 94.882507 
L 119.962661 89.495463 
L 120.46389 87.448667 
L 120.965118 86.228828 
L 121.466347 86.041432 
L 121.967575 86.993044 
L 122.468804 89.080765 
L 122.970032 92.192431 
L 123.972489 100.567708 
L 125.476175 113.641298 
L 125.977403 116.818374 
L 126.478632 118.999765 
L 126.97986 120.07799 
L 127.481089 120.055047 
L 127.982317 119.042109 
L 128.483546 117.248511 
L 130.48846 108.543825 
L 130.989688 107.633056 
L 131.490917 107.73675 
L 131.992145 108.959081 
L 132.493374 111.294676 
L 132.994602 114.629036 
L 133.997059 123.366716 
L 135.500745 136.764366 
L 136.001973 139.992513 
L 136.503202 142.198957 
L 137.00443 143.278294 
L 137.505659 143.234718 
L 138.006887 142.181506 
L 138.508116 140.329799 
L 140.51303 131.231491 
L 141.014258 130.18073 
L 141.515487 130.125241 
L 142.016715 131.167251 
L 142.517944 133.299367 
L 143.019172 136.405206 
L 144.021629 144.605103 
L 145.024086 153.308784 
L 145.525315 156.989038 
L 146.026543 159.827488 
L 146.527772 161.621545 
L 147.029 162.268317 
L 147.530229 161.774627 
L 148.031457 160.256277 
L 149.033914 155.075579 
L 150.036371 149.176134 
L 150.5376 146.813618 
L 151.038828 145.234108 
L 151.540057 144.638045 
L 152.041285 145.126083 
L 152.542514 146.689176 
L 153.043742 149.209427 
L 154.046199 156.184272 
L 155.048656 163.589947 
L 155.549885 166.595982 
L 156.051113 168.745863 
L 156.552342 169.839494 
L 157.05357 169.776782 
L 157.554799 168.567454 
L 158.056027 166.330095 
L 159.058484 159.710602 
L 160.060941 152.381212 
L 160.56217 149.308246 
L 161.063398 147.020655 
L 161.564627 145.717763 
L 162.065855 145.498813 
L 162.567084 146.353258 
L 163.068312 148.161827 
L 164.070769 153.700559 
L 165.073226 159.652753 
L 165.574455 161.927909 
L 166.075683 163.34671 
L 166.576912 163.7116 
L 167.07814 162.925322 
L 167.579369 161.000515 
L 168.080597 158.058545 
L 169.083054 150.071657 
L 170.58674 137.741702 
L 171.087968 134.844828 
L 171.589197 132.947673 
L 172.090425 132.147952 
L 172.591654 132.433492 
L 173.092882 133.683518 
L 174.095339 138.13201 
L 175.097796 143.028318 
L 175.599025 144.79034 
L 176.100253 145.708168 
L 176.601482 145.586567 
L 177.10271 144.330877 
L 177.603939 141.956404 
L 178.105167 138.587022 
L 179.107624 129.82016 
L 180.61131 116.521656 
L 181.112538 113.354655 
L 181.613767 111.211564 
L 182.114995 110.188222 
L 182.616224 110.270477 
L 183.117452 111.335692 
L 183.618681 113.164879 
L 185.122366 120.103127 
L 185.623595 121.760788 
L 186.124823 122.592274 
L 186.626052 122.404271 
L 187.12728 121.104305 
L 187.628509 118.709923 
L 188.630966 111.237897 
L 190.63588 93.750343 
L 191.137108 90.762966 
L 191.638337 88.824737 
L 192.139565 88.029172 
L 192.640794 88.359694 
L 193.142022 89.691361 
L 193.643251 91.803206 
L 195.648165 101.671528 
L 196.149393 102.85712 
L 196.650622 103.039859 
L 197.15185 102.129029 
L 197.653079 100.14399 
L 198.154307 97.21235 
L 199.156764 89.476837 
L 200.159221 81.418087 
L 200.66045 78.123806 
L 201.161678 75.704303 
L 201.662907 74.351698 
L 202.164135 74.1568 
L 202.665364 75.100244 
L 203.166592 77.054424 
L 204.169049 83.028074 
L 205.171506 89.585692 
L 205.672735 92.229441 
L 206.173963 94.066808 
L 206.675192 94.907176 
L 207.17642 94.661306 
L 207.677649 93.350099 
L 208.178877 91.102547 
L 209.181334 84.769566 
L 210.183791 78.159242 
L 210.68502 75.603867 
L 211.186248 73.930434 
L 211.687477 73.328472 
L 212.188705 73.885917 
L 212.689934 75.580463 
L 213.191162 78.281714 
L 214.193619 85.728173 
L 215.196076 93.720638 
L 215.697305 97.066543 
L 216.198533 99.596628 
L 216.699762 101.121448 
L 217.20099 101.553218 
L 217.702219 100.914365 
L 218.203447 99.335264 
L 219.205904 94.331101 
L 220.208361 89.039077 
L 220.70959 87.136512 
L 221.210818 86.109123 
L 221.712047 86.143939 
L 222.213275 87.326136 
L 222.714504 89.630591 
L 223.215732 92.924262 
L 224.218189 101.494523 
L 225.220646 110.521141 
L 226.223104 117.341314 
L 226.724332 119.307065 
L 227.225561 120.16116 
L 227.726789 119.927805 
L 228.228018 118.739015 
L 229.230475 114.474609 
L 230.232932 109.869996 
L 230.73416 108.28985 
L 231.235389 107.568568 
L 231.736617 107.891007 
L 232.237846 109.339922 
L 232.739074 111.887733 
L 233.741531 119.64417 
L 235.746445 137.483533 
L 236.247674 140.520742 
L 236.748902 142.506743 
L 237.250131 143.357568 
L 237.751359 143.099622 
L 238.252588 141.866979 
L 239.255045 137.463463 
L 240.257502 132.656158 
L 240.75873 130.95023 
L 241.259959 130.085328 
L 241.761187 130.244579 
L 242.262416 131.508759 
L 242.763644 133.848275 
L 243.766101 141.110518 
L 245.269787 154.099621 
L 245.771015 157.631907 
L 246.272244 160.274719 
L 246.773472 161.844113 
L 247.274701 162.258675 
L 247.775929 161.547434 
L 248.277158 159.846944 
L 249.279615 154.472091 
L 250.282072 148.653526 
L 250.7833 146.427376 
L 251.284529 145.031485 
L 251.785757 144.647623 
L 252.286986 145.354959 
L 252.788214 147.12226 
L 253.289443 149.810912 
L 254.2919 156.951499 
L 255.294357 164.247146 
L 255.795585 167.102169 
L 256.296814 169.053832 
L 256.798042 169.920761 
L 257.299271 169.624381 
L 257.800499 168.196616 
L 258.301728 165.776754 
L 259.304185 158.963572 
L 260.306642 151.716268 
L 260.80787 148.780212 
L 261.309099 146.676593 
L 261.810327 145.585991 
L 262.311556 145.586127 
L 262.812784 146.644276 
L 263.314013 148.620503 
L 264.31647 154.323149 
L 265.318927 160.163893 
L 265.820155 162.287815 
L 266.321384 163.508651 
L 266.822612 163.647642 
L 267.323841 162.629081 
L 267.825069 160.487797 
L 268.326298 157.365804 
L 269.328755 149.191359 
L 270.331212 140.648797 
L 270.83244 137.090543 
L 271.333669 134.380756 
L 271.834897 132.698717 
L 272.336126 132.120585 
L 272.837354 132.612015 
L 273.338583 134.031615 
L 274.34104 138.647425 
L 275.343497 143.435955 
L 275.844725 145.049009 
L 276.345954 145.77157 
L 276.847182 145.427273 
L 277.348411 143.943039 
L 277.849639 141.356347 
L 278.852096 133.546397 
L 280.85701 115.814455 
L 281.358239 112.839518 
L 281.859467 110.916162 
L 282.360696 110.118634 
L 282.861924 110.410615 
L 283.363153 111.6489 
L 284.36561 115.951166 
L 285.368067 120.488528 
L 285.869295 122.00069 
L 286.370524 122.640733 
L 286.871752 122.23428 
L 287.372981 120.710465 
L 287.874209 118.108996 
L 288.876666 110.351596 
L 290.380352 96.767864 
L 290.88158 93.076945 
L 291.382809 90.286853 
L 291.884037 88.573135 
L 292.385266 88.007674 
L 292.886494 88.551737 
L 293.387723 90.05986 
L 294.39018 94.94802 
L 295.392637 100.126946 
L 295.893865 101.980998 
L 296.395094 102.978343 
L 296.896322 102.946165 
L 297.397551 101.815384 
L 297.898779 99.627507 
L 298.901236 92.764938 
L 300.404922 80.701439 
L 300.90615 77.562441 
L 301.407379 75.343978 
L 301.908607 74.219115 
L 302.409836 74.256995 
L 302.911064 75.416102 
L 303.412293 77.548364 
L 304.41475 83.703677 
L 305.417207 90.166829 
L 305.918435 92.668861 
L 306.419664 94.319044 
L 306.920892 94.945838 
L 307.422121 94.48167 
L 307.923349 92.969574 
L 308.424578 90.558966 
L 309.427035 84.074869 
L 310.429492 77.589692 
L 310.93072 75.191221 
L 311.431949 73.719961 
L 311.933177 73.346316 
L 312.434406 74.136525 
L 312.935634 76.046142 
L 313.436863 78.924361 
L 314.43932 86.549088 
L 315.441777 94.443003 
L 315.943005 97.645229 
L 316.444234 99.986372 
L 316.945462 101.296133 
L 317.446691 101.508428 
L 317.947919 100.667804 
L 318.449148 98.925004 
L 319.451605 93.768771 
L 320.454062 88.600524 
L 320.95529 86.85369 
L 321.456519 86.026833 
L 321.957747 86.287787 
L 322.458976 87.700001 
L 322.960204 90.216232 
L 323.962661 97.855966 
L 325.466347 111.341885 
L 325.967575 115.022625 
L 326.468804 117.820817 
L 326.970032 119.567647 
L 327.471261 120.198761 
L 327.972489 119.760473 
L 328.473718 118.405117 
L 329.476175 113.983402 
L 330.478632 109.497142 
L 330.97986 108.069619 
L 331.481089 107.545356 
L 331.982317 108.08995 
L 332.483546 109.764405 
L 332.984774 112.519036 
L 333.987231 120.555595 
L 335.490917 134.419013 
L 335.992145 138.167486 
L 336.493374 141.006281 
L 336.994602 142.768481 
L 337.495831 143.391887 
L 337.997059 142.924999 
L 338.498288 141.522158 
L 339.500745 136.954818 
L 340.503202 132.259504 
L 341.00443 130.702751 
L 341.505659 130.031105 
L 342.006887 130.408364 
L 342.508116 131.89353 
L 343.009344 134.434925 
L 344.011801 141.966532 
L 345.515487 154.865374 
L 346.016715 158.238872 
L 346.517944 160.678634 
L 347.019172 162.020087 
L 347.520401 162.203615 
L 348.021629 161.280332 
L 348.522858 159.407004 
L 349.525315 153.864034 
L 350.527772 148.153637 
L 351.029 146.074599 
L 351.530229 144.869659 
L 352.031457 144.701191 
L 352.532686 145.626568 
L 353.033914 147.592489 
L 354.036371 153.920898 
L 355.540057 164.878668 
L 356.041285 167.571939 
L 356.542514 169.318072 
L 357.043742 169.955132 
L 357.544971 169.426371 
L 358.046199 167.785785 
L 358.547428 165.192815 
L 359.549885 158.212102 
L 360.552342 151.07418 
L 361.05357 148.285749 
L 361.554799 146.373384 
L 362.056027 145.498204 
L 362.557256 145.716107 
L 363.058484 146.972319 
L 363.559713 149.106794 
L 366.065855 162.611319 
L 366.567084 163.626982 
L 367.068312 163.537022 
L 367.569541 162.287583 
L 368.070769 159.935547 
L 369.073226 152.661503 
L 370.576912 139.880939 
L 371.07814 136.4736 
L 371.579369 133.958128 
L 372.080597 132.494275 
L 372.581826 132.136348 
L 373.083054 132.827966 
L 373.584283 134.407687 
L 374.58674 139.164648 
L 375.589197 143.818267 
L 376.090425 145.271779 
L 376.591654 145.791963 
L 377.092882 145.222024 
L 377.594111 143.510756 
L 378.095339 140.717669 
L 379.097796 132.632994 
L 380.601482 118.835248 
L 381.10271 115.14249 
L 381.603939 112.366778 
L 382.105167 110.666151 
L 382.606396 110.092973 
L 383.107624 110.588905 
L 383.608853 111.990748 
L 384.61131 116.440458 
L 385.613767 120.849275 
L 386.114995 122.205428 
L 386.616224 122.646997 
L 387.117452 122.019236 
L 387.618681 120.273173 
L 388.119909 117.470524 
L 389.122366 109.449812 
L 390.626052 95.969133 
L 391.12728 92.43986 
L 391.628509 89.854131 
L 392.129737 88.367821 
L 392.630966 88.030904 
L 393.132194 88.782641 
L 393.633423 90.457631 
L 394.63588 95.499011 
L 395.638337 100.5549 
L 396.139565 102.255918 
L 396.640794 103.058049 
L 397.142022 102.808168 
L 397.643251 101.459111 
L 398.144479 99.074366 
L 399.146936 91.957839 
L 400.650622 80.01141 
L 401.15185 77.038179 
L 401.653079 75.027734 
L 402.154307 74.1334 
L 402.655536 74.402385 
L 403.156764 75.771184 
L 403.657993 78.071849 
L 404.66045 84.382413 
L 405.662907 90.724039 
L 406.164135 93.073924 
L 406.665364 94.530007 
L 407.166592 94.940502 
L 407.667821 94.259773 
L 408.169049 92.552812 
L 408.670278 89.988869 
L 411.17642 74.815946 
L 411.677649 73.55373 
L 412.178877 73.411073 
L 412.680106 74.432254 
L 413.181334 76.550862 
L 414.183791 83.310359 
L 415.687477 95.141037 
L 416.188705 98.189189 
L 416.689934 100.334522 
L 417.191162 101.426561 
L 417.692391 101.421178 
L 418.193619 100.384859 
L 418.694848 98.488122 
L 420.699762 88.188748 
L 421.20099 86.607952 
L 421.702219 85.988394 
L 422.203447 86.478043 
L 422.704676 88.118371 
L 423.205904 90.840195 
L 424.208361 98.748676 
L 425.712047 112.137396 
L 426.213275 115.659669 
L 426.714504 118.257926 
L 427.215732 119.783241 
L 427.716961 120.193241 
L 428.218189 119.556164 
L 428.719418 118.044051 
L 429.721875 113.491518 
L 430.724332 109.150469 
L 431.225561 107.885804 
L 431.726789 107.565237 
L 432.228018 108.334446 
L 432.729246 110.232438 
L 433.230475 113.187616 
L 434.232932 121.48174 
L 435.736617 135.230319 
L 436.237846 138.814766 
L 436.739074 141.448416 
L 437.240303 142.984309 
L 437.741531 143.382251 
L 438.24276 142.712644 
L 438.743988 141.149482 
L 439.746445 136.444871 
L 440.748902 131.888363 
L 441.250131 130.490965 
L 441.751359 130.019178 
L 442.252588 130.616824 
L 442.753816 132.320892 
L 443.255045 135.057823 
L 444.257502 142.83615 
L 445.761187 155.603709 
L 446.262416 158.8082 
L 446.763644 161.038277 
L 447.264873 162.149386 
L 447.766101 162.103939 
L 448.26733 160.974935 
L 448.768558 158.938727 
L 449.771015 153.254291 
L 450.773472 147.678864 
L 451.274701 145.757076 
L 451.775929 144.749632 
L 452.277158 144.798872 
L 452.778386 145.94014 
L 453.279615 148.098279 
L 454.282072 154.666173 
L 455.785757 165.482143 
L 456.286986 168.003534 
L 456.788214 169.537607 
L 457.289443 169.942511 
L 457.790671 169.183546 
L 458.2919 167.336567 
L 458.793128 164.580539 
L 461.299271 147.826618 
L 461.800499 146.112003 
L 462.301728 145.454499 
L 462.802956 145.887961 
L 463.304185 147.335782 
L 463.805413 149.618442 
L 465.810327 161.106567 
L 466.311556 162.896677 
L 466.812784 163.700747 
L 467.314013 163.379664 
L 467.815241 161.90164 
L 468.31647 159.345387 
L 469.318927 151.809548 
L 470.822612 139.138983 
L 471.323841 135.892622 
L 471.825069 133.577907 
L 472.326298 132.33443 
L 472.827526 132.194433 
L 473.328755 133.07973 
L 473.829983 134.809468 
L 475.834897 144.172909 
L 476.336126 145.456924 
L 476.837354 145.768408 
L 477.338583 144.970762 
L 477.839811 143.034859 
L 478.34104 140.04201 
L 479.343497 131.705637 
L 480.847182 118.034125 
L 481.348411 114.507501 
L 481.849639 111.937385 
L 482.350868 110.461597 
L 482.852096 110.110416 
L 483.353325 110.80372 
L 483.854553 112.358961 
L 485.859467 121.183032 
L 486.360696 122.373289 
L 486.861924 122.610145 
L 487.363153 121.759101 
L 487.864381 119.793278 
L 488.36561 116.796159 
L 489.368067 108.535259 
L 490.871752 95.198496 
L 491.372981 91.840811 
L 491.874209 89.465729 
L 492.375438 88.208842 
L 492.876666 88.09802 
L 493.377895 89.050762 
L 493.879123 90.882388 
L 495.884037 100.956441 
L 496.385266 102.494588 
L 496.886494 103.09533 
L 497.387723 102.625845 
L 497.888951 101.061071 
L 498.39018 98.486231 
L 499.392637 91.138935 
L 500.896322 79.350332 
L 501.397551 76.552725 
L 501.898779 74.756478 
L 502.400008 74.094577 
L 502.901236 74.592106 
L 503.402465 76.163827 
L 503.903693 78.622577 
L 506.409836 93.442939 
L 506.911064 94.698802 
L 507.412293 94.891159 
L 507.913521 93.996488 
L 508.41475 92.101486 
L 509.417207 86.14738 
L 510.920892 76.533841 
L 511.422121 74.479726 
L 511.923349 73.432627 
L 512.424578 73.522742 
L 512.925806 74.772218 
L 513.427035 77.092939 
L 514.429492 84.105979 
L 515.933177 95.812423 
L 516.434406 98.696738 
L 516.935634 100.640196 
L 517.436863 101.512734 
L 517.938091 101.292352 
L 518.43932 100.067215 
L 518.940548 98.026932 
L 520.945462 87.806047 
L 521.446691 86.400961 
L 521.947919 85.994668 
L 522.449148 86.714685 
L 522.950376 88.580339 
L 523.451605 91.500773 
L 524.454062 99.654536 
L 525.957747 112.905364 
L 526.458976 116.259454 
L 526.960204 118.651773 
L 527.461433 119.953864 
L 527.962661 120.145502 
L 528.46389 119.316571 
L 528.965118 117.65814 
L 530.970032 108.832266 
L 531.471261 107.740052 
L 531.972489 107.629056 
L 532.473718 108.624452 
L 532.974946 110.743094 
L 533.476175 113.891753 
L 534.478632 122.419862 
L 535.982317 136.012946 
L 536.483546 139.423714 
L 536.984774 141.846296 
L 537.486003 143.154261 
L 537.987231 143.329577 
L 538.48846 142.464268 
L 538.989688 140.751282 
L 540.994602 131.545014 
L 541.495831 130.316503 
L 541.997059 130.050375 
L 542.498288 130.869899 
L 542.999516 132.789905 
L 543.500745 135.715235 
L 544.503202 143.716627 
L 546.006887 156.312338 
L 546.508116 159.338251 
L 547.009344 161.352814 
L 547.510573 162.232063 
L 548.011801 161.960586 
L 548.51303 160.632971 
L 549.014258 158.44446 
L 551.019172 147.231478 
L 551.520401 145.476427 
L 552.021629 144.672219 
L 552.522858 144.940591 
L 553.024086 146.294721 
L 553.525315 148.63789 
L 554.527772 155.421565 
L 555.530229 162.909567 
L 556.031457 166.055303 
L 556.532686 168.395334 
L 557.033914 169.711629 
L 557.535143 169.882977 
L 558.036371 168.896867 
L 558.5376 166.85071 
L 559.540057 160.450352 
L 561.043742 149.867962 
L 561.544971 147.404433 
L 562.046199 145.893253 
L 562.547428 145.454791 
L 563.048656 146.100723 
L 563.549885 147.732915 
L 564.552342 153.082289 
L 565.554799 159.118324 
L 566.056027 161.533489 
L 566.557256 163.14229 
L 567.058484 163.729158 
L 567.559713 163.17567 
L 568.060941 161.472234 
L 568.56217 158.719085 
L 569.564627 150.945332 
L 571.068312 138.42519 
L 571.569541 135.349215 
L 572.070769 133.240883 
L 572.571998 132.219081 
L 573.073226 132.293863 
L 573.574455 133.365547 
L 574.075683 135.23459 
L 576.080597 144.497641 
L 576.581826 145.602863 
L 577.083054 145.70014 
L 577.584283 144.673612 
L 578.085511 142.516352 
L 578.085511 142.516352 
" clip-path="url(#pcbdf850280)" style="fill: none; stroke: #bf00bf; stroke-width: 1.5; stroke-linecap: square"/>
   </g>
   <g id="patch_3">
    <path d="M 52.321875 207.34375 
L 52.321875 34.54375 
" style="fill: none; stroke: #ffffff; stroke-width: 0.8; stroke-linejoin: miter; stroke-linecap: square"/>
   </g>
   <g id="patch_4">
    <path d="M 603.121875 207.34375 
L 603.121875 34.54375 
" style="fill: none; stroke: #ffffff; stroke-width: 0.8; stroke-linejoin: miter; stroke-linecap: square"/>
   </g>
   <g id="patch_5">
    <path d="M 52.321875 207.34375 
L 603.121875 207.34375 
" style="fill: none; stroke: #ffffff; stroke-width: 0.8; stroke-linejoin: miter; stroke-linecap: square"/>
   </g>
   <g id="patch_6">
    <path d="M 52.321875 34.54375 
L 603.121875 34.54375 
" style="fill: none; stroke: #ffffff; stroke-width: 0.8; stroke-linejoin: miter; stroke-linecap: square"/>
   </g>
   <g id="text_14">
    <!-- 2 Sinusoids Lowpass Filtered -->
    <g style="fill: #ffffff" transform="translate(268.692969 28.54375) scale(0.1 -0.1)">
     <defs>
      <path id="TimesNewRomanPSMT-53" d="M 2934 4334 
L 2934 2869 
L 2819 2869 
Q 2763 3291 2617 3541 
Q 2472 3791 2203 3937 
Q 1934 4084 1647 4084 
Q 1322 4084 1109 3886 
Q 897 3688 897 3434 
Q 897 3241 1031 3081 
Q 1225 2847 1953 2456 
Q 2547 2138 2764 1967 
Q 2981 1797 3098 1565 
Q 3216 1334 3216 1081 
Q 3216 600 2842 251 
Q 2469 -97 1881 -97 
Q 1697 -97 1534 -69 
Q 1438 -53 1133 45 
Q 828 144 747 144 
Q 669 144 623 97 
Q 578 50 556 -97 
L 441 -97 
L 441 1356 
L 556 1356 
Q 638 900 775 673 
Q 913 447 1195 297 
Q 1478 147 1816 147 
Q 2206 147 2432 353 
Q 2659 559 2659 841 
Q 2659 997 2573 1156 
Q 2488 1316 2306 1453 
Q 2184 1547 1640 1851 
Q 1097 2156 867 2337 
Q 638 2519 519 2737 
Q 400 2956 400 3219 
Q 400 3675 750 4004 
Q 1100 4334 1641 4334 
Q 1978 4334 2356 4169 
Q 2531 4091 2603 4091 
Q 2684 4091 2736 4139 
Q 2788 4188 2819 4334 
L 2934 4334 
z
" transform="scale(0.015625)"/>
      <path id="TimesNewRomanPSMT-6e" d="M 1034 2341 
Q 1538 2947 1994 2947 
Q 2228 2947 2397 2830 
Q 2566 2713 2666 2444 
Q 2734 2256 2734 1869 
L 2734 647 
Q 2734 375 2778 278 
Q 2813 200 2889 156 
Q 2966 113 3172 113 
L 3172 0 
L 1756 0 
L 1756 113 
L 1816 113 
Q 2016 113 2095 173 
Q 2175 234 2206 353 
Q 2219 400 2219 647 
L 2219 1819 
Q 2219 2209 2117 2386 
Q 2016 2563 1775 2563 
Q 1403 2563 1034 2156 
L 1034 647 
Q 1034 356 1069 288 
Q 1113 197 1189 155 
Q 1266 113 1500 113 
L 1500 0 
L 84 0 
L 84 113 
L 147 113 
Q 366 113 442 223 
Q 519 334 519 647 
L 519 1709 
Q 519 2225 495 2337 
Q 472 2450 423 2490 
Q 375 2531 294 2531 
Q 206 2531 84 2484 
L 38 2597 
L 900 2947 
L 1034 2947 
L 1034 2341 
z
" transform="scale(0.015625)"/>
      <path id="TimesNewRomanPSMT-6f" d="M 1600 2947 
Q 2250 2947 2644 2453 
Q 2978 2031 2978 1484 
Q 2978 1100 2793 706 
Q 2609 313 2286 112 
Q 1963 -88 1566 -88 
Q 919 -88 538 428 
Q 216 863 216 1403 
Q 216 1797 411 2186 
Q 606 2575 925 2761 
Q 1244 2947 1600 2947 
z
M 1503 2744 
Q 1338 2744 1170 2645 
Q 1003 2547 900 2300 
Q 797 2053 797 1666 
Q 797 1041 1045 587 
Q 1294 134 1700 134 
Q 2003 134 2200 384 
Q 2397 634 2397 1244 
Q 2397 2006 2069 2444 
Q 1847 2744 1503 2744 
z
" transform="scale(0.015625)"/>
      <path id="TimesNewRomanPSMT-4c" d="M 3669 1172 
L 3772 1150 
L 3409 0 
L 128 0 
L 128 116 
L 288 116 
Q 556 116 672 291 
Q 738 391 738 753 
L 738 3488 
Q 738 3884 650 3984 
Q 528 4122 288 4122 
L 128 4122 
L 128 4238 
L 2047 4238 
L 2047 4122 
Q 1709 4125 1573 4059 
Q 1438 3994 1388 3894 
Q 1338 3794 1338 3416 
L 1338 753 
Q 1338 494 1388 397 
Q 1425 331 1503 300 
Q 1581 269 1991 269 
L 2300 269 
Q 2788 269 2984 341 
Q 3181 413 3343 595 
Q 3506 778 3669 1172 
z
" transform="scale(0.015625)"/>
      <path id="TimesNewRomanPSMT-77" d="M 41 2863 
L 1241 2863 
L 1241 2747 
Q 1075 2734 1023 2687 
Q 972 2641 972 2553 
Q 972 2456 1025 2319 
L 1638 672 
L 2253 2013 
L 2091 2434 
Q 2016 2622 1894 2694 
Q 1825 2738 1638 2747 
L 1638 2863 
L 3000 2863 
L 3000 2747 
Q 2775 2738 2681 2666 
Q 2619 2616 2619 2506 
Q 2619 2444 2644 2378 
L 3294 734 
L 3897 2319 
Q 3959 2488 3959 2588 
Q 3959 2647 3898 2694 
Q 3838 2741 3659 2747 
L 3659 2863 
L 4563 2863 
L 4563 2747 
Q 4291 2706 4163 2378 
L 3206 -88 
L 3078 -88 
L 2363 1741 
L 1528 -88 
L 1413 -88 
L 494 2319 
Q 403 2547 315 2626 
Q 228 2706 41 2747 
L 41 2863 
z
" transform="scale(0.015625)"/>
      <path id="TimesNewRomanPSMT-61" d="M 1822 413 
Q 1381 72 1269 19 
Q 1100 -59 909 -59 
Q 613 -59 420 144 
Q 228 347 228 678 
Q 228 888 322 1041 
Q 450 1253 767 1440 
Q 1084 1628 1822 1897 
L 1822 2009 
Q 1822 2438 1686 2597 
Q 1550 2756 1291 2756 
Q 1094 2756 978 2650 
Q 859 2544 859 2406 
L 866 2225 
Q 866 2081 792 2003 
Q 719 1925 600 1925 
Q 484 1925 411 2006 
Q 338 2088 338 2228 
Q 338 2497 613 2722 
Q 888 2947 1384 2947 
Q 1766 2947 2009 2819 
Q 2194 2722 2281 2516 
Q 2338 2381 2338 1966 
L 2338 994 
Q 2338 584 2353 492 
Q 2369 400 2405 369 
Q 2441 338 2488 338 
Q 2538 338 2575 359 
Q 2641 400 2828 588 
L 2828 413 
Q 2478 -56 2159 -56 
Q 2006 -56 1915 50 
Q 1825 156 1822 413 
z
M 1822 616 
L 1822 1706 
Q 1350 1519 1213 1441 
Q 966 1303 859 1153 
Q 753 1003 753 825 
Q 753 600 887 451 
Q 1022 303 1197 303 
Q 1434 303 1822 616 
z
" transform="scale(0.015625)"/>
      <path id="TimesNewRomanPSMT-46" d="M 1309 4006 
L 1309 2341 
L 2081 2341 
Q 2347 2341 2470 2458 
Q 2594 2575 2634 2922 
L 2750 2922 
L 2750 1488 
L 2634 1488 
Q 2631 1734 2570 1850 
Q 2509 1966 2401 2023 
Q 2294 2081 2081 2081 
L 1309 2081 
L 1309 750 
Q 1309 428 1350 325 
Q 1381 247 1481 191 
Q 1619 116 1769 116 
L 1922 116 
L 1922 0 
L 103 0 
L 103 116 
L 253 116 
Q 516 116 634 269 
Q 709 369 709 750 
L 709 3488 
Q 709 3809 669 3913 
Q 638 3991 541 4047 
Q 406 4122 253 4122 
L 103 4122 
L 103 4238 
L 3256 4238 
L 3297 3306 
L 3188 3306 
Q 3106 3603 2998 3742 
Q 2891 3881 2733 3943 
Q 2575 4006 2244 4006 
L 1309 4006 
z
" transform="scale(0.015625)"/>
      <path id="TimesNewRomanPSMT-72" d="M 1038 2947 
L 1038 2303 
Q 1397 2947 1775 2947 
Q 1947 2947 2059 2842 
Q 2172 2738 2172 2600 
Q 2172 2478 2090 2393 
Q 2009 2309 1897 2309 
Q 1788 2309 1652 2417 
Q 1516 2525 1450 2525 
Q 1394 2525 1328 2463 
Q 1188 2334 1038 2041 
L 1038 669 
Q 1038 431 1097 309 
Q 1138 225 1241 169 
Q 1344 113 1538 113 
L 1538 0 
L 72 0 
L 72 113 
Q 291 113 397 181 
Q 475 231 506 341 
Q 522 394 522 644 
L 522 1753 
Q 522 2253 501 2348 
Q 481 2444 426 2487 
Q 372 2531 291 2531 
Q 194 2531 72 2484 
L 41 2597 
L 906 2947 
L 1038 2947 
z
" transform="scale(0.015625)"/>
     </defs>
     <use xlink:href="#TimesNewRomanPSMT-32"/>
     <use xlink:href="#TimesNewRomanPSMT-20" x="50"/>
     <use xlink:href="#TimesNewRomanPSMT-53" x="75"/>
     <use xlink:href="#TimesNewRomanPSMT-69" x="130.615234"/>
     <use xlink:href="#TimesNewRomanPSMT-6e" x="158.398438"/>
     <use xlink:href="#TimesNewRomanPSMT-75" x="208.398438"/>
     <use xlink:href="#TimesNewRomanPSMT-73" x="258.398438"/>
     <use xlink:href="#TimesNewRomanPSMT-6f" x="297.314453"/>
     <use xlink:href="#TimesNewRomanPSMT-69" x="347.314453"/>
     <use xlink:href="#TimesNewRomanPSMT-64" x="375.097656"/>
     <use xlink:href="#TimesNewRomanPSMT-73" x="425.097656"/>
     <use xlink:href="#TimesNewRomanPSMT-20" x="464.013672"/>
     <use xlink:href="#TimesNewRomanPSMT-4c" x="489.013672"/>
     <use xlink:href="#TimesNewRomanPSMT-6f" x="550.097656"/>
     <use xlink:href="#TimesNewRomanPSMT-77" x="600.097656"/>
     <use xlink:href="#TimesNewRomanPSMT-70" x="672.314453"/>
     <use xlink:href="#TimesNewRomanPSMT-61" x="722.314453"/>
     <use xlink:href="#TimesNewRomanPSMT-73" x="766.699219"/>
     <use xlink:href="#TimesNewRomanPSMT-73" x="805.615234"/>
     <use xlink:href="#TimesNewRomanPSMT-20" x="844.53125"/>
     <use xlink:href="#TimesNewRomanPSMT-46" x="869.53125"/>
     <use xlink:href="#TimesNewRomanPSMT-69" x="925.146484"/>
     <use xlink:href="#TimesNewRomanPSMT-6c" x="952.929688"/>
     <use xlink:href="#TimesNewRomanPSMT-74" x="980.712891"/>
     <use xlink:href="#TimesNewRomanPSMT-65" x="1008.496094"/>
     <use xlink:href="#TimesNewRomanPSMT-72" x="1052.880859"/>
     <use xlink:href="#TimesNewRomanPSMT-65" x="1086.181641"/>
     <use xlink:href="#TimesNewRomanPSMT-64" x="1130.566406"/>
    </g>
   </g>
   <g id="legend_1">
    <g id="patch_7">
     <path d="M 565.252561 56.173019 
L 599.068875 56.173019 
Q 600.226875 56.173019 600.226875 55.015019 
L 600.226875 38.59675 
Q 600.226875 37.43875 599.068875 37.43875 
L 565.252561 37.43875 
Q 564.094561 37.43875 564.094561 38.59675 
L 564.094561 55.015019 
Q 564.094561 56.173019 565.252561 56.173019 
z
" style="opacity: 0.5; stroke: #cccccc; stroke-linejoin: miter"/>
    </g>
    <g id="line2d_25">
     <path d="M 566.410561 42.127745 
L 572.200561 42.127745 
L 577.990561 42.127745 
" style="fill: none; stroke: #00bfbf; stroke-width: 1.5; stroke-linecap: square"/>
    </g>
    <g id="text_15">
     <!-- X in -->
     <g style="fill: #ffffff" transform="translate(582.622561 44.154245) scale(0.0579 -0.0579)">
      <defs>
       <path id="DejaVuSans-58" d="M 403 4666 
L 1081 4666 
L 2241 2931 
L 3406 4666 
L 4084 4666 
L 2584 2425 
L 4184 0 
L 3506 0 
L 2194 1984 
L 872 0 
L 191 0 
L 1856 2491 
L 403 4666 
z
" transform="scale(0.015625)"/>
       <path id="DejaVuSans-20" transform="scale(0.015625)"/>
       <path id="DejaVuSans-69" d="M 603 3500 
L 1178 3500 
L 1178 0 
L 603 0 
L 603 3500 
z
M 603 4863 
L 1178 4863 
L 1178 4134 
L 603 4134 
L 603 4863 
z
" transform="scale(0.015625)"/>
       <path id="DejaVuSans-6e" d="M 3513 2113 
L 3513 0 
L 2938 0 
L 2938 2094 
Q 2938 2591 2744 2837 
Q 2550 3084 2163 3084 
Q 1697 3084 1428 2787 
Q 1159 2491 1159 1978 
L 1159 0 
L 581 0 
L 581 3500 
L 1159 3500 
L 1159 2956 
Q 1366 3272 1645 3428 
Q 1925 3584 2291 3584 
Q 2894 3584 3203 3211 
Q 3513 2838 3513 2113 
z
" transform="scale(0.015625)"/>
      </defs>
      <use xlink:href="#DejaVuSans-58"/>
      <use xlink:href="#DejaVuSans-20" x="68.505859"/>
      <use xlink:href="#DejaVuSans-69" x="100.292969"/>
      <use xlink:href="#DejaVuSans-6e" x="128.076172"/>
     </g>
    </g>
    <g id="line2d_26">
     <path d="M 566.410561 50.62638 
L 572.200561 50.62638 
L 577.990561 50.62638 
" style="fill: none; stroke: #bf00bf; stroke-width: 1.5; stroke-linecap: square"/>
    </g>
    <g id="text_16">
     <!-- X out -->
     <g style="fill: #ffffff" transform="translate(582.622561 52.65288) scale(0.0579 -0.0579)">
      <defs>
       <path id="DejaVuSans-6f" d="M 1959 3097 
Q 1497 3097 1228 2736 
Q 959 2375 959 1747 
Q 959 1119 1226 758 
Q 1494 397 1959 397 
Q 2419 397 2687 759 
Q 2956 1122 2956 1747 
Q 2956 2369 2687 2733 
Q 2419 3097 1959 3097 
z
M 1959 3584 
Q 2709 3584 3137 3096 
Q 3566 2609 3566 1747 
Q 3566 888 3137 398 
Q 2709 -91 1959 -91 
Q 1206 -91 779 398 
Q 353 888 353 1747 
Q 353 2609 779 3096 
Q 1206 3584 1959 3584 
z
" transform="scale(0.015625)"/>
       <path id="DejaVuSans-75" d="M 544 1381 
L 544 3500 
L 1119 3500 
L 1119 1403 
Q 1119 906 1312 657 
Q 1506 409 1894 409 
Q 2359 409 2629 706 
Q 2900 1003 2900 1516 
L 2900 3500 
L 3475 3500 
L 3475 0 
L 2900 0 
L 2900 538 
Q 2691 219 2414 64 
Q 2138 -91 1772 -91 
Q 1169 -91 856 284 
Q 544 659 544 1381 
z
M 1991 3584 
L 1991 3584 
z
" transform="scale(0.015625)"/>
       <path id="DejaVuSans-74" d="M 1172 4494 
L 1172 3500 
L 2356 3500 
L 2356 3053 
L 1172 3053 
L 1172 1153 
Q 1172 725 1289 603 
Q 1406 481 1766 481 
L 2356 481 
L 2356 0 
L 1766 0 
Q 1100 0 847 248 
Q 594 497 594 1153 
L 594 3053 
L 172 3053 
L 172 3500 
L 594 3500 
L 594 4494 
L 1172 4494 
z
" transform="scale(0.015625)"/>
      </defs>
      <use xlink:href="#DejaVuSans-58"/>
      <use xlink:href="#DejaVuSans-20" x="68.505859"/>
      <use xlink:href="#DejaVuSans-6f" x="100.292969"/>
      <use xlink:href="#DejaVuSans-75" x="161.474609"/>
      <use xlink:href="#DejaVuSans-74" x="224.853516"/>
     </g>
    </g>
   </g>
  </g>
 </g>
 <defs>
  <clipPath id="pcbdf850280">
   <rect x="52.321875" y="34.54375" width="550.8" height="172.8"/>
  </clipPath>
 </defs>
</svg>
