<svg width="2057" height="1035" xmlns="http://www.w3.org/2000/svg" xmlns:xlink="http://www.w3.org/1999/xlink" xml:space="preserve" overflow="hidden"><g><rect x="0" y="0" width="2057" height="1035" fill="#FFFFFF"/><path d="M964.076 229.876C965.508 229.876 966.6 230.091 967.352 230.521 968.104 230.95 968.722 231.698 969.205 232.763 969.689 233.828 970.145 235.534 970.575 237.879L970.843 237.879C972.168 236.017 973.198 234.616 973.932 233.676 974.666 232.736 975.346 231.984 975.973 231.42 976.599 230.856 977.208 230.458 977.799 230.225 978.39 229.993 979.088 229.876 979.894 229.876 980.789 229.876 981.693 230.037 982.606 230.36L981.344 236.16 978.927 236.16C978.837 235.408 978.506 235.032 977.933 235.032 977.682 235.032 977.418 235.095 977.141 235.22 976.863 235.346 976.496 235.628 976.04 236.066 975.583 236.505 975.015 237.141 974.335 237.973 973.654 238.806 972.634 240.072 971.273 241.773 971.9 245.551 972.414 248.259 972.817 249.897 973.22 251.535 973.636 252.596 974.066 253.079 974.317 253.348 974.621 253.482 974.979 253.482 975.427 253.482 975.843 253.308 976.228 252.958 976.613 252.609 977.11 251.826 977.718 250.609L980.162 251.737C979.124 253.634 977.947 255.049 976.631 255.98 975.315 256.911 973.771 257.376 971.998 257.376 970.906 257.376 970.033 257.237 969.38 256.96 968.726 256.682 968.171 256.221 967.715 255.577 967.258 254.932 966.855 254.024 966.506 252.851 966.157 251.678 965.83 250.143 965.526 248.245L965.257 248.245C963.736 250.43 962.518 252.095 961.605 253.24 960.692 254.386 959.909 255.246 959.255 255.819 958.602 256.392 957.975 256.794 957.375 257.027 956.776 257.26 956.055 257.376 955.213 257.376 954.82 257.376 954.341 257.327 953.777 257.229 953.213 257.13 952.787 257.027 952.501 256.92L953.763 251.092 956.18 251.092C956.198 251.468 956.292 251.75 956.462 251.938 956.632 252.126 956.852 252.22 957.12 252.22 957.442 252.22 957.742 252.153 958.02 252.019 958.297 251.884 958.682 251.584 959.175 251.119 959.667 250.653 960.289 249.969 961.041 249.064 961.793 248.16 963.064 246.571 964.855 244.298 964.479 242.185 964.125 240.363 963.794 238.833 963.463 237.302 963.163 236.192 962.894 235.502 962.626 234.813 962.37 234.352 962.129 234.119 961.887 233.887 961.614 233.77 961.31 233.77 960.952 233.77 960.638 233.864 960.37 234.052 960.101 234.24 959.819 234.545 959.524 234.965 959.228 235.386 958.911 235.946 958.57 236.644L956.127 235.516C957.165 233.618 958.333 232.204 959.631 231.273 960.929 230.342 962.411 229.876 964.076 229.876Z" fill="#FF0000" fill-rule="evenodd"/><text fill="#000000" fill-opacity="0" font-family="Arial,Arial_MSFontService,sans-serif" font-size="27.5" x="952.501" y="253.939">ğ’™</text><path d="M335.071 469.011C336.45 469.011 337.564 469.212 338.415 469.615 339.265 470.018 339.941 470.573 340.442 471.28 340.944 471.988 341.346 472.887 341.651 473.979 341.901 474.839 342.197 476.352 342.537 478.518 343.092 482.045 343.567 485.509 343.96 488.911 345.948 486.064 347.474 483.289 348.539 480.586 349.605 477.882 350.137 475.465 350.137 473.335 350.137 472.654 349.976 472.14 349.654 471.791 349.332 471.441 348.768 471.249 347.962 471.213L348.338 469.441 355.911 469.441 356.851 471.213C356.493 472.449 355.938 473.944 355.186 475.698 354.076 478.276 352.581 481.168 350.701 484.372 349 487.255 347.147 490.137 345.142 493.02 342.797 496.386 340.756 499.103 339.019 501.171 337.282 503.238 335.778 504.765 334.507 505.749 333.505 506.501 332.547 507.034 331.634 507.347 330.721 507.661 329.754 507.817 328.733 507.817 327.409 507.817 326.155 507.62 324.974 507.226L326.316 501.157 329.136 501.157C329.154 501.909 329.266 502.464 329.472 502.822 329.678 503.18 330.049 503.359 330.586 503.359 331.016 503.359 331.419 503.283 331.795 503.131 332.171 502.979 332.645 502.679 333.218 502.231 333.791 501.784 334.512 501.054 335.38 500.043 336.248 499.031 337.229 497.809 338.321 496.377 337.963 494.193 337.502 491.619 336.938 488.656 336.374 485.693 335.823 482.998 335.286 480.572 334.749 478.146 334.355 476.504 334.104 475.644 333.854 474.785 333.612 474.172 333.379 473.805 333.147 473.438 332.932 473.196 332.735 473.08 332.538 472.963 332.332 472.905 332.117 472.905 331.67 472.905 331.258 473.089 330.882 473.456 330.506 473.823 330.013 474.597 329.405 475.779L326.961 474.651C327.999 472.771 329.181 471.361 330.506 470.421 331.831 469.481 333.353 469.011 335.071 469.011Z" fill="#FF0000" fill-rule="evenodd"/><text fill="#000000" fill-opacity="0" font-family="Arial,Arial_MSFontService,sans-serif" font-size="38.8062" x="324.974" y="502.966">ğ’š</text><path d="M633.123 611.641 653.587 611.641 654.527 613.413 642.389 628.694C640.401 631.201 638.566 633.367 636.883 635.193L637.071 635.435 642.147 635.435C643.006 635.435 643.745 635.283 644.362 634.978 644.98 634.674 645.584 634.119 646.175 633.313 646.766 632.508 647.384 631.371 648.028 629.903L650.875 629.903 649.076 638.282 628.397 638.282 627.457 636.509 639.354 621.524C641.323 619.035 643.239 616.77 645.101 614.729L644.913 614.488 639.864 614.488C639.184 614.488 638.566 614.622 638.011 614.891 637.456 615.159 636.906 615.62 636.36 616.274 635.813 616.927 635.129 618.015 634.305 619.536L631.432 619.536Z" fill="#FF0000" fill-rule="evenodd"/><text fill="#000000" fill-opacity="0" font-family="Arial,Arial_MSFontService,sans-serif" font-size="26.6406" x="627.457" y="634.952">ğ’›</text><path d="M1094.16 316.284 1114.62 316.284 1115.56 318.056 1103.43 333.337C1101.44 335.844 1099.6 338.01 1097.92 339.836L1098.11 340.078 1103.18 340.078C1104.04 340.078 1104.78 339.926 1105.4 339.621 1106.02 339.317 1106.62 338.762 1107.21 337.956 1107.8 337.151 1108.42 336.014 1109.07 334.546L1111.91 334.546 1110.11 342.924 1089.43 342.924 1088.49 341.152 1100.39 326.167C1102.36 323.678 1104.28 321.413 1106.14 319.372L1105.95 319.13 1100.9 319.13C1100.22 319.13 1099.6 319.265 1099.05 319.533 1098.49 319.802 1097.94 320.263 1097.4 320.916 1096.85 321.57 1096.17 322.658 1095.34 324.179L1092.47 324.179ZM1073.76 312.766 1065.47 328.422 1074.22 328.422 1074.11 321.977C1074.08 319.686 1074.06 317.788 1074.06 316.284 1074.06 315.138 1074.07 313.965 1074.09 312.766ZM1073.39 306.079 1081.12 306.079 1082.28 334.787C1082.31 335.808 1082.38 336.725 1082.49 337.54 1082.6 338.355 1082.77 339.021 1083 339.541 1083.23 340.06 1083.53 340.44 1083.87 340.682 1084.22 340.924 1084.67 341.08 1085.2 341.152L1084.8 342.924 1070.92 342.924 1071.32 341.152C1072.11 341.098 1072.73 340.897 1073.19 340.548 1073.64 340.199 1073.96 339.724 1074.14 339.124 1074.32 338.525 1074.41 337.688 1074.41 336.613 1074.41 335.844 1074.39 335.038 1074.35 334.196L1074.3 331.565 1063.8 331.565 1063.42 332.236C1062.42 334.044 1061.75 335.414 1061.42 336.345 1061.09 337.276 1060.93 338.135 1060.93 338.923 1060.93 340.212 1061.69 340.955 1063.21 341.152L1062.81 342.924 1051.47 342.924 1051.88 341.152C1052.5 341.009 1053.05 340.767 1053.53 340.427 1054 340.087 1054.45 339.626 1054.88 339.044 1055.31 338.462 1055.92 337.464 1056.71 336.049Z" fill="#FF0000" fill-rule="evenodd"/><text fill="#000000" fill-opacity="0" font-family="Arial,Arial_MSFontService,sans-serif" font-size="36.8457" x="1051.47" y="338.319">ğ‘¨ğ’›</text><path d="M676.5 234.5 1570.06 857.169" stroke="#FF0000" stroke-width="6.875" stroke-linejoin="round" stroke-miterlimit="10" stroke-dasharray="6.875 6.875" fill="none" fill-rule="evenodd"/><path d="M679.5 234.5 988.893 353.165" stroke="#FF0000" stroke-width="6.875" stroke-linejoin="round" stroke-miterlimit="10" stroke-dasharray="27.5 20.625" fill="none" fill-rule="evenodd"/><path d="M1045.84 301.508 1041.08 310.345 1035.22 318.977 1028.49 327.023 1020.93 334.433 1012.6 341.159 1003.57 347.152 1000.48 348.824 997.23 342.766 999.773 341.417 1008.29 335.804 1016.12 329.515 1023.22 322.601 1029.54 315.108 1035.03 307.086 1039.78 298.25ZM998.855 345.795 1013 354.347 982.259 353.584 1001.31 329.453Z" fill="#FF0000"/><path d="M989.928 349.664 991.797 361.599 992.785 373.917 992.853 386.244 992.013 398.471 990.278 410.491 987.658 422.197 986.249 426.764 979.684 424.722 980.95 420.69 983.474 409.503 985.155 397.995 985.978 386.276 985.932 374.461 985.005 362.663 983.136 350.728ZM982.967 425.743 999.042 421.911 976.611 442.939 973.247 412.378Z" fill="#FF0000"/><path d="M1026.08 385.462 1049.78 385.462 1048.05 393.323 1044.92 393.323C1044.84 391.777 1044.7 390.695 1044.48 390.076 1044.27 389.458 1043.95 389.01 1043.51 388.733 1043.07 388.457 1042.45 388.318 1041.65 388.318L1035.52 388.318 1032.94 400.037 1036.33 400.037C1036.98 400.037 1037.53 399.931 1037.98 399.72 1038.43 399.508 1038.84 399.154 1039.22 398.658 1039.61 398.161 1039.98 397.474 1040.36 396.595L1043.04 396.595 1040.7 406.507 1038.19 406.507C1038.19 405.563 1038.13 404.839 1038.01 404.334 1037.9 403.829 1037.69 403.463 1037.38 403.235 1037.07 403.007 1036.54 402.894 1035.79 402.894L1032.33 402.894 1029.44 415.931 1034.94 415.931C1035.65 415.931 1036.21 415.882 1036.61 415.784 1037.01 415.686 1037.38 415.532 1037.71 415.32 1038.04 415.109 1038.43 414.771 1038.87 414.307 1039.31 413.843 1039.74 413.257 1040.17 412.549 1040.61 411.841 1041.05 410.991 1041.51 409.998L1044.83 409.998 1042.58 418.787 1019.36 418.787 1019.7 417.176C1020.63 416.915 1021.32 416.46 1021.75 415.809 1022.19 415.158 1022.61 413.953 1023 412.195L1027.44 392.054C1027.65 391.093 1027.76 390.141 1027.76 389.197 1027.76 388.514 1027.6 388.013 1027.28 387.696 1026.97 387.378 1026.45 387.171 1025.73 387.073ZM1065.01 383.826 1067.77 383.826 1061.52 411.097C1061.26 412.236 1061.13 413.188 1061.13 413.953 1061.13 414.588 1061.23 415.027 1061.44 415.271 1061.66 415.516 1061.96 415.638 1062.35 415.638 1062.82 415.638 1063.35 415.414 1063.93 414.966 1064.52 414.519 1065.21 413.839 1066.01 412.928L1067.77 414.686C1066.17 416.313 1064.74 417.469 1063.48 418.152 1062.22 418.836 1060.83 419.178 1059.32 419.178 1057.59 419.178 1056.33 418.755 1055.54 417.908 1054.74 417.062 1054.34 415.784 1054.34 414.075 1054.34 413.115 1054.52 411.837 1054.88 410.242L1059.25 391.199C1059.6 389.637 1059.78 388.473 1059.78 387.708 1059.78 387.35 1059.75 387.069 1059.67 386.866 1059.6 386.662 1059.49 386.495 1059.34 386.365 1059.2 386.235 1059 386.133 1058.76 386.06 1058.51 385.987 1058.03 385.901 1057.32 385.804L1057.71 384.217Z" fill="#FF0000" fill-rule="evenodd"/><text fill="#000000" fill-opacity="0" font-family="Arial,Arial_MSFontService,sans-serif" font-size="35.3516" x="1019.36" y="414.759">ğ‘¬ğ’</text><path d="M94.1895 27.9721C94.1895 43.4206 73.1045 55.9441 47.0947 55.9441 21.085 55.9441-1.31365e-14 43.4206-1.31365e-14 27.9721-1.31365e-14 12.5235 21.085-3.28412e-15 47.0947-6.56824e-15 73.1045-9.85236e-15 94.1895 12.5235 94.1895 27.9721L94.1895 384.757C94.1895 400.206 73.1045 412.729 47.0947 412.729 21.085 412.729-1.31365e-14 400.206-1.31365e-14 384.757L0 27.9721" stroke="#FF0000" stroke-width="6.875" stroke-linejoin="round" stroke-miterlimit="10" fill="none" fill-rule="evenodd" transform="matrix(0.176058 -0.98438 -0.98438 -0.176058 662.858 279.868)"/><path d="M0.916125 10.6648C6.10221 3.50134 31.6485-1.16187 57.9754 0.249247 73.5561 1.08437 86.6535 3.93861 93.0519 7.89326L92.0985 8.00741C81.0784 1.7297 52.6633-1.02572 28.6316 1.85302 14.7643 3.51417 4.75838 6.80247 1.69198 10.7063Z" stroke="#FF0000" stroke-width="1.14583" stroke-linejoin="round" stroke-miterlimit="10" fill="#4F81BD" fill-rule="evenodd" transform="matrix(-0.178641 0.983914 0.983914 0.178641 361.155 130.727)"/><path d="M0.912135 10.6684C6.08341 3.50454 31.5877-1.16057 57.8776 0.248575 73.45 1.08326 86.5395 3.94071 92.9265 7.89975L91.9742 8.01379C80.9839 1.7345 52.6168-1.02504 28.6145 1.85017 14.7512 3.51084 4.74819 6.80216 1.6878 10.7099Z" stroke="#FF0000" stroke-width="1.14583" stroke-linejoin="round" stroke-miterlimit="10" fill="#4F81BD" fill-rule="evenodd" transform="matrix(-0.178641 0.983914 0.983914 0.178641 550.692 162.489)"/><path d="M0 0 74.9999 57.8471" stroke="#FF0000" stroke-width="6.875" stroke-linejoin="round" stroke-miterlimit="10" fill="none" fill-rule="evenodd" transform="matrix(-1 0 0 1 1644.5 812.5)"/><path d="M0 0 74.9375 57.75" stroke="#FF0000" stroke-width="6.875" stroke-linejoin="round" stroke-miterlimit="10" fill="none" fill-rule="evenodd" transform="matrix(-1 0 0 1 1624.44 895.5)"/><path d="M0 0 17.1427 85.4254" stroke="#FF0000" stroke-width="6.875" stroke-linejoin="round" stroke-miterlimit="10" fill="none" fill-rule="evenodd" transform="matrix(-1 0 0 1 1641.64 811.5)"/><path d="M1604.5 881.5 1604.5 976.709" stroke="#FF0000" stroke-width="6.875" stroke-linejoin="round" stroke-miterlimit="10" fill="none" fill-rule="evenodd"/><path d="M0 0 16.9583 85.25" stroke="#FF0000" stroke-width="6.875" stroke-linejoin="round" stroke-miterlimit="10" fill="none" fill-rule="evenodd" transform="matrix(-1 0 0 1 1569.46 868.5)"/><path d="M659.532 231.023C661.29 222.515 666.332 216.365 670.794 217.288 675.256 218.21 677.448 225.854 675.69 234.362 673.932 242.87 668.889 249.019 664.427 248.097 659.965 247.175 657.773 239.53 659.532 231.023Z" stroke="#FF0000" stroke-width="9.16667" stroke-linejoin="round" stroke-miterlimit="10" fill="#F79646" fill-rule="evenodd"/><path d="M656.5 182.5 664.301 221.171" stroke="#FF0000" stroke-width="6.875" stroke-linejoin="round" stroke-miterlimit="10" fill="none" fill-rule="evenodd"/><path d="M616.5 224.5 659.974 231.866" stroke="#FF0000" stroke-width="6.875" stroke-linejoin="round" stroke-miterlimit="10" fill="none" fill-rule="evenodd"/><path d="M0 0 32.3342 24.5465" stroke="#FF0000" stroke-width="6.875" stroke-linejoin="round" stroke-miterlimit="10" fill="none" fill-rule="evenodd" transform="matrix(1 0 0 -1 632.5 273.046)"/><path d="M669.066 228.109 1021.74 286.973 1020.6 293.754 667.934 234.89ZM1020.42 267.005 1043.77 294.137 1012.88 312.213Z" fill="#FF0000"/><path d="M1.83049-2.90959 330.334 203.76 326.673 209.579-1.83049 2.90959ZM336.828 184.832 347.902 218.873 312.422 223.627Z" fill="#FF0000" transform="matrix(-1 0 0 1 672.402 232.5)"/><path d="M674.937 234.5 674.938 581.649 668.063 581.649 668.062 234.5ZM694.417 577.065 671.5 604.565 648.583 577.065Z" fill="#FF0000"/><path d="M783.143 73.9515C1023.86 129.715 1113.94 258.888 984.353 362.469 854.763 466.049 554.571 504.813 313.857 449.05 234.403 430.644 168.152 403.242 122.269 369.808" stroke="#FF0000" stroke-width="1.14583" stroke-linejoin="round" stroke-miterlimit="10" stroke-dasharray="1.14583 1.14583" fill="none" fill-rule="evenodd"/><path d="M154.269 798.466 142.038 803.911 154.245 809.355C154.782 808.46 155.176 807.577 155.429 806.706 155.681 805.835 155.807 804.895 155.807 803.886 155.807 802.91 155.681 801.986 155.429 801.115 155.176 800.244 154.79 799.362 154.269 798.466ZM149.069 790.019C150.273 790.491 151.36 791.053 152.328 791.704 153.297 792.355 154.277 793.193 155.27 794.218L163.644 790.336 165.085 793.486 157.174 797.124C157.874 798.198 158.379 799.276 158.688 800.358 158.997 801.441 159.152 802.6 159.152 803.837 159.152 805.091 158.977 806.283 158.627 807.414 158.277 808.545 157.793 809.64 157.174 810.698L165.085 814.311 163.644 817.46 155.197 813.554C154.35 814.58 153.411 815.43 152.377 816.105 151.343 816.781 150.192 817.346 148.922 817.802L147.921 815.019C149.549 814.449 151.006 813.53 152.292 812.26L136.642 805.131 136.642 802.788 152.316 795.561C151.844 795.056 151.225 794.548 150.46 794.035 149.696 793.522 148.857 793.087 147.946 792.729Z" fill="#FF0000" fill-rule="evenodd"/><text fill="#000000" fill-opacity="0" font-family="Arial,Arial_MSFontService,sans-serif" font-size="27.7832" x="136.642" y="814.329">âˆ¢</text><path d="M205.669 794.829 223.027 794.829 223.491 796.049 211.846 809.428C209.583 812.016 207.622 814.213 205.962 816.02L206.108 816.191 211.626 816.191C212.602 816.191 213.351 816.138 213.872 816.032 214.393 815.926 214.849 815.727 215.239 815.434 215.63 815.141 216.033 814.698 216.448 814.104 216.863 813.509 217.379 812.578 217.998 811.308L220.171 811.308 218.682 818.168 201.006 818.168 200.542 816.972 213.896 801.591C215.784 799.427 217.168 797.888 218.047 796.977L217.9 796.806 212.187 796.806C211.341 796.806 210.723 796.863 210.332 796.977 209.941 797.091 209.551 797.29 209.16 797.575 208.769 797.86 208.35 798.283 207.903 798.845 207.455 799.406 206.955 800.208 206.401 801.25L204.228 801.25ZM188.366 789.604 179.675 804.985 189.221 804.985 188.806 797.124C188.757 796.049 188.716 794.707 188.683 793.095 188.651 791.484 188.635 790.32 188.635 789.604ZM188.513 784.453 192.199 784.453 193.957 811.674C194.038 812.96 194.185 813.965 194.396 814.689 194.608 815.414 194.897 815.951 195.263 816.301 195.629 816.651 196.162 816.875 196.862 816.972L196.594 818.168 186.437 818.168 186.706 816.972C187.666 816.891 188.382 816.516 188.854 815.849 189.326 815.182 189.562 814.01 189.562 812.333 189.562 811.699 189.538 811.007 189.489 810.258L189.318 807.109 178.576 807.109 177.233 809.501C176.599 810.625 176.135 811.589 175.842 812.395 175.549 813.2 175.402 813.912 175.402 814.531 175.402 815.898 176.224 816.712 177.868 816.972L177.599 818.168 167.614 818.168 167.883 816.972C168.387 816.907 168.863 816.708 169.311 816.374 169.758 816.04 170.235 815.536 170.739 814.86 171.244 814.185 171.952 813.066 172.863 811.503Z" fill="#FF0000" fill-rule="evenodd"/><text fill="#000000" fill-opacity="0" font-family="Arial,Arial_MSFontService,sans-serif" font-size="33.7158" x="167.614" y="813.954">ğ´ğ‘§</text><path d="M242.725 807.329 272.804 807.329 272.804 810.576 242.725 810.576ZM242.725 797.197 272.804 797.197 272.804 800.444 242.725 800.444Z" fill="#FF0000" fill-rule="evenodd"/><text fill="#000000" fill-opacity="0" font-family="Arial,Arial_MSFontService,sans-serif" font-size="13.3789" x="242.725" y="808.903">=</text><path d="M323.829 807.036C320.525 807.068 318.051 807.508 316.407 808.354 314.764 809.2 313.942 810.478 313.942 812.187 313.942 813.115 314.129 813.847 314.503 814.384 314.878 814.921 315.349 815.292 315.919 815.495 316.489 815.699 317.164 815.8 317.946 815.8 319.052 815.8 320.057 815.532 320.961 814.995 321.864 814.458 322.568 813.774 323.072 812.944 323.577 812.114 323.829 811.292 323.829 810.478ZM349.635 794.438C350.514 794.438 351.299 794.54 351.991 794.743 352.683 794.947 353.293 795.26 353.822 795.683 354.351 796.106 354.786 796.631 355.128 797.258 355.47 797.884 355.726 798.637 355.897 799.516 356.068 800.395 356.154 801.51 356.154 802.861L356.154 812.065C356.154 813.188 356.186 814.002 356.251 814.506 356.316 815.011 356.43 815.402 356.593 815.678 356.756 815.955 356.992 816.187 357.301 816.374 357.61 816.561 358.147 816.761 358.912 816.972L358.912 818.168 349.293 818.168 349.293 816.972C349.928 816.777 350.384 816.606 350.66 816.459 350.937 816.313 351.169 816.11 351.356 815.849 351.543 815.589 351.69 815.186 351.796 814.641 351.901 814.095 351.954 813.269 351.954 812.163L351.954 805.766C351.954 804.627 351.922 803.593 351.857 802.666 351.792 801.738 351.682 800.977 351.527 800.383 351.372 799.789 351.185 799.325 350.966 798.991 350.746 798.658 350.485 798.373 350.184 798.137 349.883 797.901 349.537 797.714 349.147 797.575 348.756 797.437 348.243 797.368 347.609 797.368 346.974 797.368 346.372 797.494 345.802 797.746 345.232 797.998 344.606 798.434 343.922 799.052 343.238 799.671 342.742 800.281 342.433 800.883 342.124 801.486 341.969 802.177 341.969 802.958L341.969 812.065C341.969 813.465 342.034 814.437 342.164 814.982 342.294 815.528 342.543 815.943 342.909 816.228 343.275 816.512 343.873 816.761 344.703 816.972L344.703 818.168 335.133 818.168 335.133 816.972C335.768 816.777 336.219 816.606 336.488 816.459 336.757 816.313 336.984 816.11 337.172 815.849 337.359 815.589 337.505 815.19 337.611 814.653 337.717 814.116 337.77 813.278 337.77 812.138L337.77 801.494C337.77 800.452 337.753 799.614 337.721 798.979 337.688 798.344 337.574 797.836 337.379 797.453 337.184 797.071 336.887 796.786 336.488 796.599 336.089 796.411 335.524 796.253 334.791 796.123L334.791 794.829 340.504 794.609 341.993 794.609 341.725 798.588 342.067 798.686C343.271 797.465 344.244 796.595 344.984 796.074 345.725 795.553 346.473 795.15 347.23 794.865 347.987 794.58 348.789 794.438 349.635 794.438ZM321.193 794.414C322.804 794.414 324.098 794.67 325.074 795.183 326.051 795.695 326.783 796.481 327.272 797.539 327.76 798.596 328.004 800.192 328.004 802.324L328.004 810.82C328.004 812.024 328.012 812.875 328.029 813.371 328.045 813.867 328.094 814.327 328.175 814.75 328.256 815.174 328.378 815.511 328.541 815.764 328.704 816.016 328.944 816.232 329.261 816.411 329.579 816.59 330.096 816.777 330.812 816.972L330.812 818.168 324.122 818.168 324.244 814.677 323.878 814.58C322.462 816.028 321.132 817.054 319.886 817.656 318.641 818.258 317.319 818.559 315.919 818.559 314.682 818.559 313.592 818.319 312.648 817.839 311.704 817.359 310.979 816.683 310.475 815.812 309.97 814.942 309.718 813.937 309.718 812.797 309.718 810.421 310.894 808.586 313.246 807.292 315.598 805.998 319.126 805.245 323.829 805.034L323.829 803.447C323.829 801.754 323.667 800.419 323.341 799.443 323.016 798.466 322.503 797.75 321.803 797.294 321.103 796.839 320.167 796.611 318.995 796.611 317.726 796.611 316.704 796.945 315.931 797.612 315.158 798.279 314.576 799.28 314.186 800.615L310.988 800.615 310.988 797.441C312.55 796.627 313.852 796.029 314.894 795.646 315.935 795.264 316.977 794.963 318.019 794.743 319.06 794.523 320.118 794.414 321.193 794.414ZM296.014 788.798 299.481 788.798 299.481 794.829 307.366 794.829 307.366 797.294 299.481 797.294 299.481 808.159C299.481 809.737 299.546 810.995 299.676 811.931 299.806 812.867 300.05 813.599 300.408 814.128 300.766 814.657 301.173 815.035 301.629 815.263 302.085 815.491 302.671 815.605 303.387 815.605 304.038 815.605 304.648 815.471 305.218 815.202 305.788 814.934 306.349 814.547 306.903 814.042L308.001 815.361C306.846 816.484 305.751 817.298 304.717 817.802 303.684 818.307 302.614 818.559 301.507 818.559 299.407 818.559 297.845 817.937 296.82 816.691 295.794 815.446 295.281 813.497 295.281 810.844L295.281 797.294 291.668 797.294 291.668 796.049C292.482 795.919 293.141 795.691 293.646 795.366 294.15 795.04 294.545 794.621 294.83 794.108 295.115 793.596 295.338 792.953 295.501 792.18 295.664 791.407 295.835 790.279 296.014 788.798Z" fill="#FF0000" fill-rule="evenodd"/><text fill="#000000" fill-opacity="0" font-family="Arial,Arial_MSFontService,sans-serif" font-size="29.7607" x="291.668" y="814.839">tan</text><path d="M363.622 787.738 384.435 787.738 384.435 790.502 363.622 790.502Z" fill="#FF0000" fill-rule="evenodd"/><text fill="#000000" fill-opacity="0" font-family="Arial,Arial_MSFontService,sans-serif" font-size="2.76416" x="363.622" y="790.156">âˆ’</text><path d="M399.531 776.428 400.633 776.428C400.608 777.091 400.59 777.684 400.578 778.208 400.566 778.732 400.557 779.24 400.551 779.734 400.545 780.228 400.542 780.716 400.542 781.198L400.542 794.928C400.542 795.301 400.554 795.624 400.578 795.895 400.602 796.166 400.642 796.394 400.696 796.581 400.75 796.768 400.822 796.927 400.913 797.06 401.003 797.192 401.108 797.307 401.229 797.403 401.373 797.548 401.566 797.659 401.807 797.737 402.048 797.816 402.355 797.882 402.728 797.936 403.102 797.99 403.55 798.033 404.074 798.063 404.598 798.093 405.227 798.114 405.962 798.126L405.962 799.698 391.635 799.698 391.635 798.126C392.346 798.102 392.948 798.075 393.442 798.045 393.936 798.014 394.358 797.972 394.707 797.918 395.056 797.864 395.336 797.804 395.547 797.737 395.758 797.671 395.941 797.59 396.098 797.494 396.267 797.385 396.411 797.268 396.531 797.141 396.652 797.015 396.748 796.855 396.821 796.662 396.893 796.47 396.95 796.235 396.992 795.958 397.034 795.681 397.055 795.338 397.055 794.928L397.055 781.974C397.055 781.505 396.965 781.174 396.784 780.981 396.604 780.788 396.345 780.692 396.008 780.692 395.634 780.692 395.08 780.884 394.345 781.27 393.611 781.655 392.659 782.227 391.491 782.986 391.334 782.709 391.19 782.432 391.057 782.155 390.925 781.878 390.786 781.595 390.642 781.306 392.135 780.487 393.614 779.671 395.077 778.858 396.541 778.045 398.025 777.235 399.531 776.428Z" fill="#FF0000" fill-rule="evenodd"/><text fill="#000000" fill-opacity="0" font-family="Arial,Arial_MSFontService,sans-serif" font-size="23.2695" x="390.642" y="796.789">1</text><path d="M427.178 756.282C427.845 756.282 428.415 756.371 428.887 756.55 429.212 756.68 429.538 756.896 429.863 757.197 430.189 757.498 430.478 757.917 430.73 758.455 430.982 758.992 431.202 759.594 431.389 760.261 431.576 760.929 431.784 761.889 432.012 763.142 432.402 765.242 432.781 767.451 433.147 769.771 433.513 772.09 433.827 774.242 434.087 776.228 435.666 773.949 437.004 771.72 438.103 769.539 439.202 767.358 439.991 765.461 440.471 763.85 440.951 762.239 441.191 760.929 441.191 759.919 441.191 759.154 441.029 758.634 440.703 758.357 440.378 758.08 439.824 757.917 439.043 757.869L439.287 756.672 445.708 756.672 446.367 757.893C445.13 761.279 443.454 764.9 441.338 768.757 439.255 772.533 436.87 776.293 434.185 780.037 431.613 783.601 429.473 786.181 427.764 787.776 426.576 788.866 425.428 789.648 424.321 790.12 423.442 790.478 422.507 790.657 421.514 790.657 421.172 790.657 420.777 790.628 420.33 790.571 419.882 790.514 419.536 790.437 419.292 790.339L420.342 785.603 422.271 785.603C422.271 786.645 422.629 787.166 423.345 787.166 424.289 787.166 425.387 786.576 426.641 785.396 427.894 784.216 429.367 782.437 431.06 780.061 430.588 777.213 429.945 773.779 429.131 769.758 428.268 765.461 427.699 762.8 427.422 761.775 427.08 760.538 426.722 759.749 426.348 759.407 426.12 759.195 425.835 759.089 425.493 759.089 424.972 759.089 424.484 759.301 424.028 759.724 423.573 760.147 423.011 760.88 422.344 761.921L420.757 760.872C421.88 759.195 422.93 758.011 423.906 757.319 424.883 756.628 425.973 756.282 427.178 756.282Z" fill="#FF0000" fill-rule="evenodd"/><text fill="#000000" fill-opacity="0" font-family="Arial,Arial_MSFontService,sans-serif" font-size="34.375" x="419.292" y="786.36">ğ‘¦</text><path d="M450.131 766.87 469.841 766.87 468.378 773.247 466.481 773.247 466.481 772.217C466.481 772.025 466.472 771.805 466.454 771.558 466.436 771.311 466.409 771.064 466.373 770.817 466.337 770.57 466.294 770.341 466.246 770.131 466.198 769.92 466.144 769.748 466.084 769.616 465.999 769.447 465.912 769.309 465.822 769.2 465.731 769.092 465.617 769.008 465.478 768.947 465.34 768.887 465.174 768.845 464.982 768.821 464.789 768.797 464.542 768.785 464.241 768.785L461.332 768.785 457.61 785.261C457.478 785.815 457.385 786.288 457.33 786.679 457.276 787.071 457.249 787.423 457.249 787.736 457.261 787.977 457.297 788.185 457.358 788.36 457.418 788.534 457.526 788.682 457.683 788.802 457.839 788.923 458.05 789.013 458.315 789.073 458.58 789.133 458.923 789.176 459.345 789.2L459.092 790.302 451.107 790.302 451.341 789.2C451.643 789.127 451.901 789.064 452.118 789.01 452.335 788.956 452.522 788.884 452.678 788.793 452.835 788.703 452.97 788.579 453.085 788.423 453.199 788.266 453.311 788.052 453.419 787.781 453.527 787.51 453.636 787.158 453.744 786.725 453.853 786.291 453.979 785.755 454.124 785.117L457.773 768.785 455.28 768.785C454.882 768.785 454.545 768.797 454.268 768.821 453.991 768.845 453.738 768.908 453.509 769.01 453.281 769.113 453.067 769.254 452.868 769.435 452.669 769.616 452.465 769.863 452.254 770.176 452.043 770.489 451.814 770.874 451.567 771.332 451.32 771.79 451.034 772.338 450.709 772.976L448.776 772.976Z" fill="#FF0000" fill-rule="evenodd"/><text fill="#000000" fill-opacity="0" font-family="Arial,Arial_MSFontService,sans-serif" font-size="23.4321" x="448.776" y="787.373">ğ‘‡</text><path d="M428.925 828.147C429.43 828.147 429.873 828.204 430.256 828.318 430.638 828.432 430.976 828.607 431.269 828.843 431.562 829.079 431.822 829.384 432.05 829.758 432.278 830.133 432.498 830.641 432.709 831.284 432.921 831.927 433.12 832.725 433.307 833.677 433.495 834.629 433.661 835.618 433.808 836.643L434.052 836.643C435.615 834.446 436.799 832.839 437.604 831.821 438.41 830.804 439.089 830.047 439.643 829.551 440.196 829.054 440.729 828.704 441.242 828.501 441.755 828.297 442.434 828.196 443.281 828.196 444.046 828.196 444.672 828.293 445.16 828.489L444.184 832.908 442.475 832.908C442.377 832.224 442.092 831.882 441.62 831.882 441.474 831.882 441.319 831.907 441.157 831.956 440.994 832.004 440.794 832.11 440.558 832.273 440.322 832.436 439.977 832.753 439.521 833.225 439.065 833.697 438.552 834.275 437.983 834.958 437.413 835.642 436.827 836.358 436.225 837.107L434.565 839.182C434.858 840.745 435.134 842.095 435.395 843.235 435.655 844.374 435.887 845.322 436.091 846.079 436.294 846.836 436.473 847.434 436.628 847.873 436.782 848.313 436.949 848.643 437.128 848.862 437.307 849.082 437.49 849.237 437.678 849.326 437.865 849.416 438.08 849.46 438.324 849.46 438.764 849.46 439.191 849.289 439.606 848.948 440.021 848.606 440.619 847.833 441.401 846.628L442.988 847.678C441.848 849.371 440.819 850.563 439.899 851.255 438.98 851.947 437.885 852.292 436.616 852.292 435.916 852.292 435.322 852.166 434.833 851.914 434.345 851.662 433.922 851.259 433.564 850.706 433.206 850.152 432.888 849.289 432.612 848.118 432.107 846.034 431.798 844.439 431.684 843.332L431.44 843.332C429.714 845.758 428.433 847.499 427.595 848.557 426.756 849.615 426.065 850.396 425.519 850.901 424.974 851.405 424.445 851.759 423.932 851.963 423.42 852.166 422.74 852.268 421.894 852.268 421.129 852.268 420.502 852.17 420.014 851.975L420.991 847.556 422.699 847.556C422.797 848.24 423.082 848.581 423.554 848.581 423.782 848.581 424.022 848.52 424.274 848.398 424.526 848.276 424.889 847.983 425.361 847.519 425.833 847.056 426.484 846.327 427.314 845.334 428.144 844.342 429.348 842.852 430.927 840.867 430.683 839.581 430.431 838.344 430.17 837.156 429.91 835.968 429.641 834.861 429.365 833.835 429.088 832.81 428.86 832.139 428.681 831.821 428.502 831.504 428.311 831.284 428.107 831.162 427.904 831.04 427.647 830.979 427.338 830.979 426.996 830.979 426.687 831.056 426.41 831.211 426.134 831.365 425.833 831.634 425.507 832.017 425.182 832.399 424.75 832.997 424.213 833.811L422.626 832.761C423.652 831.215 424.636 830.059 425.58 829.294 426.524 828.529 427.639 828.147 428.925 828.147Z" fill="#FF0000" fill-rule="evenodd"/><text fill="#000000" fill-opacity="0" font-family="Arial,Arial_MSFontService,sans-serif" font-size="24.1455" x="420.014" y="849.274">ğ‘¥</text><path d="M449.971 838.759 469.681 838.759 468.218 845.137 466.321 845.137 466.321 844.107C466.321 843.914 466.312 843.694 466.294 843.447 466.275 843.201 466.248 842.954 466.212 842.707 466.176 842.46 466.134 842.231 466.086 842.02 466.038 841.809 465.983 841.638 465.923 841.505 465.839 841.337 465.752 841.198 465.661 841.09 465.571 840.981 465.456 840.897 465.318 840.837 465.179 840.777 465.014 840.734 464.821 840.71 464.628 840.686 464.382 840.674 464.08 840.674L461.172 840.674 457.45 857.151C457.318 857.705 457.224 858.178 457.17 858.569 457.116 858.96 457.089 859.313 457.089 859.626 457.101 859.867 457.137 860.075 457.197 860.249 457.257 860.424 457.366 860.571 457.522 860.692 457.679 860.812 457.89 860.903 458.155 860.963 458.42 861.023 458.763 861.065 459.184 861.089L458.931 862.191 450.946 862.191 451.181 861.089C451.482 861.017 451.741 860.954 451.958 860.9 452.175 860.845 452.361 860.773 452.518 860.683 452.674 860.592 452.81 860.469 452.924 860.312 453.039 860.156 453.15 859.942 453.259 859.671 453.367 859.4 453.475 859.048 453.584 858.614 453.692 858.181 453.819 857.645 453.963 857.006L457.613 840.674 455.119 840.674C454.722 840.674 454.385 840.686 454.108 840.71 453.831 840.734 453.578 840.798 453.349 840.9 453.12 841.002 452.906 841.144 452.708 841.325 452.509 841.505 452.304 841.752 452.093 842.065 451.883 842.379 451.654 842.764 451.407 843.222 451.16 843.679 450.874 844.227 450.549 844.866L448.616 844.866Z" fill="#FF0000" fill-rule="evenodd"/><text fill="#000000" fill-opacity="0" font-family="Arial,Arial_MSFontService,sans-serif" font-size="23.4321" x="448.616" y="859.262">ğ‘‡</text><path d="M418.732 802.162 472.732 802.162 472.732 805.162 418.732 805.162Z" fill="#FF0000" fill-rule="evenodd"/><path d="M1682.06 860.023 1682.72 861.903C1678.91 863.156 1676.09 865.602 1674.26 869.24 1672.43 872.877 1671.51 877.447 1671.51 882.948 1671.51 888.645 1672.43 893.34 1674.26 897.035 1676.09 900.73 1678.88 903.204 1682.64 904.457L1682.06 906.337C1677.29 905.084 1673.64 902.386 1671.1 898.244 1668.56 894.101 1667.29 889.084 1667.29 883.192 1667.29 877.317 1668.56 872.299 1671.11 868.141 1673.66 863.982 1677.31 861.277 1682.06 860.023Z" fill="#FF0000" fill-rule="evenodd"/><text fill="#000000" fill-opacity="0" font-family="Arial,Arial_MSFontService,sans-serif" font-size="46.3135" x="1667.29" y="900.548">(</text><path d="M1693.46 871.547C1693.96 871.547 1694.41 871.604 1694.79 871.718 1695.17 871.832 1695.51 872.007 1695.8 872.243 1696.1 872.479 1696.36 872.784 1696.58 873.158 1696.81 873.532 1697.03 874.041 1697.24 874.684 1697.46 875.327 1697.66 876.124 1697.84 877.077 1698.03 878.029 1698.2 879.017 1698.34 880.043L1698.59 880.043C1700.15 877.846 1701.33 876.238 1702.14 875.221 1702.94 874.204 1703.62 873.447 1704.18 872.951 1704.73 872.454 1705.26 872.104 1705.78 871.901 1706.29 871.697 1706.97 871.596 1707.82 871.596 1708.58 871.596 1709.21 871.693 1709.7 871.889L1708.72 876.307 1707.01 876.307C1706.91 875.624 1706.63 875.282 1706.16 875.282 1706.01 875.282 1705.85 875.307 1705.69 875.355 1705.53 875.404 1705.33 875.51 1705.09 875.673 1704.86 875.836 1704.51 876.153 1704.06 876.625 1703.6 877.097 1703.09 877.675 1702.52 878.358 1701.95 879.042 1701.36 879.758 1700.76 880.507L1699.1 882.582C1699.39 884.144 1699.67 885.495 1699.93 886.635 1700.19 887.774 1700.42 888.722 1700.63 889.479 1700.83 890.236 1701.01 890.834 1701.16 891.273 1701.32 891.713 1701.48 892.042 1701.66 892.262 1701.84 892.482 1702.03 892.636 1702.21 892.726 1702.4 892.815 1702.62 892.86 1702.86 892.86 1703.3 892.86 1703.73 892.689 1704.14 892.348 1704.56 892.006 1705.15 891.233 1705.94 890.028L1707.52 891.078C1706.38 892.771 1705.35 893.963 1704.43 894.655 1703.51 895.346 1702.42 895.692 1701.15 895.692 1700.45 895.692 1699.86 895.566 1699.37 895.314 1698.88 895.062 1698.46 894.659 1698.1 894.105 1697.74 893.552 1697.42 892.689 1697.15 891.517 1696.64 889.434 1696.33 887.839 1696.22 886.732L1695.97 886.732C1694.25 889.157 1692.97 890.899 1692.13 891.957 1691.29 893.015 1690.6 893.796 1690.05 894.301 1689.51 894.805 1688.98 895.159 1688.47 895.363 1687.95 895.566 1687.28 895.668 1686.43 895.668 1685.66 895.668 1685.04 895.57 1684.55 895.375L1685.53 890.956 1687.23 890.956C1687.33 891.64 1687.62 891.981 1688.09 891.981 1688.32 891.981 1688.56 891.92 1688.81 891.798 1689.06 891.676 1689.42 891.383 1689.9 890.919 1690.37 890.455 1691.02 889.727 1691.85 888.734 1692.68 887.741 1693.88 886.252 1695.46 884.266 1695.22 882.981 1694.97 881.744 1694.71 880.556 1694.44 879.367 1694.18 878.261 1693.9 877.235 1693.62 876.21 1693.39 875.538 1693.22 875.221 1693.04 874.904 1692.85 874.684 1692.64 874.562 1692.44 874.44 1692.18 874.379 1691.87 874.379 1691.53 874.379 1691.22 874.456 1690.95 874.611 1690.67 874.765 1690.37 875.034 1690.04 875.416 1689.72 875.799 1689.29 876.397 1688.75 877.211L1687.16 876.161C1688.19 874.615 1689.17 873.459 1690.12 872.694 1691.06 871.929 1692.17 871.547 1693.46 871.547Z" fill="#FF0000" fill-rule="evenodd"/><text fill="#000000" fill-opacity="0" font-family="Arial,Arial_MSFontService,sans-serif" font-size="24.1455" x="1684.55" y="892.674">ğ‘¥</text><path d="M1714.51 882.159 1734.22 882.159 1732.75 888.536 1730.86 888.536 1730.86 887.507C1730.86 887.314 1730.85 887.094 1730.83 886.847 1730.81 886.6 1730.78 886.353 1730.75 886.107 1730.71 885.86 1730.67 885.631 1730.62 885.42 1730.57 885.209 1730.52 885.038 1730.46 884.905 1730.37 884.737 1730.29 884.598 1730.2 884.49 1730.11 884.381 1729.99 884.297 1729.85 884.237 1729.71 884.176 1729.55 884.134 1729.36 884.11 1729.16 884.086 1728.92 884.074 1728.62 884.074L1725.71 884.074 1721.98 900.551C1721.85 901.105 1721.76 901.577 1721.7 901.969 1721.65 902.36 1721.62 902.713 1721.62 903.026 1721.64 903.267 1721.67 903.474 1721.73 903.649 1721.79 903.824 1721.9 903.971 1722.06 904.092 1722.21 904.212 1722.42 904.302 1722.69 904.363 1722.95 904.423 1723.3 904.465 1723.72 904.489L1723.47 905.591 1715.48 905.591 1715.72 904.489C1716.02 904.417 1716.28 904.354 1716.49 904.299 1716.71 904.245 1716.9 904.173 1717.05 904.083 1717.21 903.992 1717.34 903.869 1717.46 903.712 1717.57 903.556 1717.69 903.342 1717.79 903.071 1717.9 902.8 1718.01 902.448 1718.12 902.014 1718.23 901.58 1718.35 901.044 1718.5 900.406L1722.15 884.074 1719.65 884.074C1719.26 884.074 1718.92 884.086 1718.64 884.11 1718.37 884.134 1718.11 884.198 1717.88 884.3 1717.66 884.402 1717.44 884.544 1717.24 884.724 1717.04 884.905 1716.84 885.152 1716.63 885.465 1716.42 885.778 1716.19 886.164 1715.94 886.621 1715.69 887.079 1715.41 887.627 1715.08 888.266L1713.15 888.266Z" fill="#FF0000" fill-rule="evenodd"/><text fill="#000000" fill-opacity="0" font-family="Arial,Arial_MSFontService,sans-serif" font-size="23.4321" x="1713.15" y="902.662">ğ‘‡</text><path d="M1741.01 889.638 1745.28 889.638C1745.51 890.777 1745.63 891.9 1745.63 893.007 1745.63 894.146 1745.43 895.188 1745.04 896.132 1744.65 897.076 1744.03 898.016 1743.17 898.952 1742.32 899.887 1741.14 900.917 1739.64 902.04L1738.33 900.551C1739.16 899.769 1739.76 899.065 1740.13 898.439 1740.51 897.812 1740.77 897.1 1740.94 896.303 1741.1 895.505 1741.18 894.504 1741.18 893.3 1741.18 892.063 1741.12 890.842 1741.01 889.638Z" fill="#FF0000" fill-rule="evenodd"/><text fill="#000000" fill-opacity="0" font-family="Arial,Arial_MSFontService,sans-serif" font-size="12.4023" x="1738.33" y="900.49">,</text><path d="M1764.54 871.571C1765.21 871.571 1765.78 871.661 1766.25 871.84 1766.58 871.97 1766.9 872.186 1767.23 872.487 1767.55 872.788 1767.84 873.207 1768.09 873.744 1768.35 874.281 1768.57 874.883 1768.75 875.551 1768.94 876.218 1769.15 877.178 1769.38 878.432 1769.77 880.531 1770.14 882.741 1770.51 885.06 1770.88 887.379 1771.19 889.532 1771.45 891.517 1773.03 889.239 1774.37 887.009 1775.47 884.828 1776.57 882.647 1777.36 880.751 1777.84 879.14 1778.32 877.528 1778.56 876.218 1778.56 875.209 1778.56 874.444 1778.39 873.923 1778.07 873.646 1777.74 873.37 1777.19 873.207 1776.41 873.158L1776.65 871.962 1783.07 871.962 1783.73 873.182C1782.49 876.568 1780.82 880.189 1778.7 884.047 1776.62 887.823 1774.23 891.583 1771.55 895.326 1768.98 898.891 1766.84 901.47 1765.13 903.065 1763.94 904.156 1762.79 904.937 1761.69 905.409 1760.81 905.767 1759.87 905.946 1758.88 905.946 1758.54 905.946 1758.14 905.918 1757.69 905.861 1757.25 905.804 1756.9 905.726 1756.66 905.629L1757.71 900.892 1759.63 900.892C1759.63 901.934 1759.99 902.455 1760.71 902.455 1761.65 902.455 1762.75 901.865 1764 900.685 1765.26 899.505 1766.73 897.727 1768.42 895.35 1767.95 892.502 1767.31 889.068 1766.49 885.048 1765.63 880.751 1765.06 878.09 1764.79 877.064 1764.44 875.827 1764.09 875.038 1763.71 874.696 1763.48 874.485 1763.2 874.379 1762.86 874.379 1762.34 874.379 1761.85 874.59 1761.39 875.014 1760.94 875.437 1760.38 876.169 1759.71 877.211L1758.12 876.161C1759.24 874.485 1760.29 873.3 1761.27 872.609 1762.25 871.917 1763.34 871.571 1764.54 871.571Z" fill="#FF0000" fill-rule="evenodd"/><text fill="#000000" fill-opacity="0" font-family="Arial,Arial_MSFontService,sans-serif" font-size="34.375" x="1756.66" y="901.649">ğ‘¦</text><path d="M1787.49 882.159 1807.21 882.159 1805.74 888.536 1803.85 888.536 1803.85 887.507C1803.85 887.314 1803.84 887.094 1803.82 886.847 1803.8 886.6 1803.77 886.353 1803.74 886.107 1803.7 885.86 1803.66 885.631 1803.61 885.42 1803.56 885.209 1803.51 885.038 1803.45 884.905 1803.36 884.737 1803.28 884.598 1803.19 884.49 1803.1 884.381 1802.98 884.297 1802.84 884.237 1802.7 884.176 1802.54 884.134 1802.35 884.11 1802.15 884.086 1801.91 884.074 1801.6 884.074L1798.7 884.074 1794.97 900.551C1794.84 901.105 1794.75 901.577 1794.69 901.969 1794.64 902.36 1794.61 902.713 1794.61 903.026 1794.63 903.267 1794.66 903.474 1794.72 903.649 1794.78 903.824 1794.89 903.971 1795.05 904.092 1795.2 904.212 1795.41 904.302 1795.68 904.363 1795.94 904.423 1796.29 904.465 1796.71 904.489L1796.46 905.591 1788.47 905.591 1788.71 904.489C1789.01 904.417 1789.27 904.354 1789.48 904.299 1789.7 904.245 1789.89 904.173 1790.04 904.083 1790.2 903.992 1790.33 903.869 1790.45 903.712 1790.56 903.556 1790.67 903.342 1790.78 903.071 1790.89 902.8 1791 902.448 1791.11 902.014 1791.22 901.58 1791.34 901.044 1791.49 900.406L1795.14 884.074 1792.64 884.074C1792.25 884.074 1791.91 884.086 1791.63 884.11 1791.36 884.134 1791.1 884.198 1790.87 884.3 1790.64 884.402 1790.43 884.544 1790.23 884.724 1790.03 884.905 1789.83 885.152 1789.62 885.465 1789.41 885.778 1789.18 886.164 1788.93 886.621 1788.68 887.079 1788.4 887.627 1788.07 888.266L1786.14 888.266Z" fill="#FF0000" fill-rule="evenodd"/><text fill="#000000" fill-opacity="0" font-family="Arial,Arial_MSFontService,sans-serif" font-size="23.4321" x="1786.14" y="902.662">ğ‘‡</text><path d="M1814 889.638 1818.27 889.638C1818.5 890.777 1818.61 891.9 1818.61 893.007 1818.61 894.146 1818.42 895.188 1818.03 896.132 1817.64 897.076 1817.02 898.016 1816.16 898.952 1815.31 899.887 1814.13 900.917 1812.63 902.04L1811.31 900.551C1812.14 899.769 1812.75 899.065 1813.12 898.439 1813.5 897.812 1813.76 897.1 1813.93 896.303 1814.09 895.505 1814.17 894.504 1814.17 893.3 1814.17 892.063 1814.11 890.842 1814 889.638Z" fill="#FF0000" fill-rule="evenodd"/><text fill="#000000" fill-opacity="0" font-family="Arial,Arial_MSFontService,sans-serif" font-size="12.4023" x="1811.31" y="900.49">,</text><path d="M1835.21 871.962 1852.57 871.962 1853.03 873.182 1841.39 886.561C1839.13 889.149 1837.17 891.347 1835.51 893.153L1835.65 893.324 1841.17 893.324C1842.15 893.324 1842.89 893.271 1843.42 893.165 1843.94 893.06 1844.39 892.86 1844.78 892.567 1845.17 892.274 1845.58 891.831 1845.99 891.237 1846.41 890.643 1846.92 889.711 1847.54 888.441L1849.71 888.441 1848.22 895.302 1830.55 895.302 1830.09 894.105 1843.44 878.724C1845.33 876.56 1846.71 875.022 1847.59 874.11L1847.44 873.939 1841.73 873.939C1840.88 873.939 1840.27 873.996 1839.88 874.11 1839.48 874.224 1839.09 874.424 1838.7 874.708 1838.31 874.993 1837.89 875.416 1837.45 875.978 1837 876.539 1836.5 877.341 1835.94 878.383L1833.77 878.383Z" fill="#FF0000" fill-rule="evenodd"/><text fill="#000000" fill-opacity="0" font-family="Arial,Arial_MSFontService,sans-serif" font-size="23.3398" x="1830.09" y="892.384">ğ‘§</text><path d="M1856.93 882.159 1876.64 882.159 1875.18 888.536 1873.28 888.536 1873.28 887.507C1873.28 887.314 1873.27 887.094 1873.26 886.847 1873.24 886.6 1873.21 886.353 1873.17 886.107 1873.14 885.86 1873.1 885.631 1873.05 885.42 1873 885.209 1872.95 885.038 1872.89 884.905 1872.8 884.737 1872.71 884.598 1872.62 884.49 1872.53 884.381 1872.42 884.297 1872.28 884.237 1872.14 884.176 1871.98 884.134 1871.78 884.11 1871.59 884.086 1871.34 884.074 1871.04 884.074L1868.13 884.074 1864.41 900.551C1864.28 901.105 1864.19 901.577 1864.13 901.969 1864.08 902.36 1864.05 902.713 1864.05 903.026 1864.06 903.267 1864.1 903.474 1864.16 903.649 1864.22 903.824 1864.33 903.971 1864.48 904.092 1864.64 904.212 1864.85 904.302 1865.12 904.363 1865.38 904.423 1865.72 904.465 1866.15 904.489L1865.89 905.591 1857.91 905.591 1858.14 904.489C1858.44 904.417 1858.7 904.354 1858.92 904.299 1859.14 904.245 1859.32 904.173 1859.48 904.083 1859.64 903.992 1859.77 903.869 1859.89 903.712 1860 903.556 1860.11 903.342 1860.22 903.071 1860.33 902.8 1860.44 902.448 1860.55 902.014 1860.65 901.58 1860.78 901.044 1860.93 900.406L1864.57 884.074 1862.08 884.074C1861.68 884.074 1861.35 884.086 1861.07 884.11 1860.79 884.134 1860.54 884.198 1860.31 884.3 1860.08 884.402 1859.87 884.544 1859.67 884.724 1859.47 884.905 1859.27 885.152 1859.06 885.465 1858.84 885.778 1858.62 886.164 1858.37 886.621 1858.12 887.079 1857.84 887.627 1857.51 888.266L1855.58 888.266Z" fill="#FF0000" fill-rule="evenodd"/><text fill="#000000" fill-opacity="0" font-family="Arial,Arial_MSFontService,sans-serif" font-size="23.4321" x="1855.58" y="902.662">ğ‘‡</text><path d="M1881.75 860.023C1886.51 861.277 1890.16 863.982 1892.7 868.141 1895.25 872.299 1896.52 877.317 1896.52 883.192 1896.52 889.084 1895.25 894.101 1892.72 898.244 1890.18 902.386 1886.52 905.084 1881.75 906.337L1881.17 904.457C1884.93 903.204 1887.72 900.73 1889.55 897.035 1891.38 893.34 1892.3 888.645 1892.3 882.948 1892.3 877.447 1891.39 872.877 1889.57 869.24 1887.74 865.602 1884.92 863.156 1881.09 861.903Z" fill="#FF0000" fill-rule="evenodd"/><text fill="#000000" fill-opacity="0" font-family="Arial,Arial_MSFontService,sans-serif" font-size="46.3135" x="1881.09" y="900.548">)</text><path d="M206.648 935.805 194.416 941.25 206.624 946.694C207.161 945.799 207.555 944.916 207.808 944.045 208.06 943.174 208.186 942.234 208.186 941.225 208.186 940.249 208.06 939.325 207.808 938.454 207.555 937.583 207.169 936.7 206.648 935.805ZM201.448 927.358C202.652 927.83 203.739 928.391 204.707 929.042 205.675 929.694 206.656 930.532 207.649 931.557L216.023 927.675 217.463 930.825 209.553 934.462C210.253 935.537 210.758 936.615 211.067 937.697 211.376 938.78 211.531 939.939 211.531 941.176 211.531 942.43 211.356 943.622 211.006 944.753 210.656 945.884 210.172 946.979 209.553 948.037L217.463 951.65 216.023 954.799 207.576 950.893C206.729 951.918 205.789 952.769 204.756 953.444 203.722 954.12 202.571 954.685 201.301 955.141L200.3 952.358C201.928 951.788 203.385 950.869 204.67 949.599L189.021 942.47 189.021 940.126 204.695 932.9C204.223 932.395 203.604 931.887 202.839 931.374 202.074 930.861 201.236 930.426 200.325 930.068Z" fill="#FF0000" fill-rule="evenodd"/><text fill="#000000" fill-opacity="0" font-family="Arial,Arial_MSFontService,sans-serif" font-size="27.7832" x="189.021" y="951.668">âˆ¢</text><path d="M228.098 922.182 250.559 922.182 248.875 929.677 246.531 929.677C246.466 928.261 246.344 927.195 246.165 926.479 245.986 925.763 245.77 925.271 245.518 925.002 245.266 924.733 244.964 924.554 244.615 924.465 244.265 924.375 243.764 924.331 243.113 924.331L235.154 924.331 232.371 937.124 237.034 937.124C238.19 937.124 239.073 936.851 239.683 936.306 240.293 935.76 240.908 934.861 241.526 933.608L243.748 933.608 241.551 942.983 239.475 942.983C239.475 941.681 239.394 940.798 239.231 940.334 239.068 939.87 238.828 939.577 238.511 939.455 238.194 939.333 237.62 939.272 236.79 939.272L231.907 939.272 228.782 953.359 236.009 953.359C236.969 953.359 237.73 953.261 238.291 953.066 238.853 952.871 239.382 952.553 239.878 952.114 240.375 951.674 240.871 951.06 241.367 950.271 241.864 949.481 242.454 948.411 243.137 947.06L245.506 947.06 243.357 955.507 221.702 955.507 221.971 954.311C222.589 954.213 223.053 954.055 223.362 953.835 223.671 953.615 223.932 953.31 224.143 952.919 224.355 952.529 224.55 952.053 224.729 951.491 224.908 950.93 225.177 949.843 225.535 948.232L229.685 929.433C230.043 927.805 230.222 926.495 230.222 925.502 230.222 924.737 230.031 924.204 229.649 923.903 229.266 923.602 228.66 923.427 227.83 923.378ZM263.884 920.595 265.324 920.595 259.318 947.622C258.96 949.233 258.781 950.437 258.781 951.235 258.781 951.886 258.887 952.358 259.098 952.651 259.31 952.944 259.644 953.09 260.099 953.09 260.588 953.09 261.109 952.891 261.662 952.492 262.215 952.093 262.997 951.333 264.006 950.209L265.397 951.577C263.818 953.237 262.529 954.372 261.528 954.982 260.527 955.593 259.408 955.898 258.171 955.898 257.113 955.898 256.266 955.511 255.632 954.738 254.997 953.965 254.679 952.976 254.679 951.772 254.679 950.681 254.907 949.103 255.363 947.036L259.733 927.48C259.928 926.617 260.067 925.93 260.148 925.417 260.23 924.904 260.27 924.428 260.27 923.989 260.27 923.5 260.181 923.13 260.002 922.878 259.823 922.626 259.566 922.443 259.233 922.329 258.899 922.215 258.301 922.133 257.438 922.084L257.731 920.815Z" fill="#FF0000" fill-rule="evenodd"/><text fill="#000000" fill-opacity="0" font-family="Arial,Arial_MSFontService,sans-serif" font-size="35.3027" x="221.702" y="951.485">ğ¸ğ‘™</text><path d="M286.969 944.667 317.047 944.667 317.047 947.915 286.969 947.915ZM286.969 934.536 317.047 934.536 317.047 937.783 286.969 937.783Z" fill="#FF0000" fill-rule="evenodd"/><text fill="#000000" fill-opacity="0" font-family="Arial,Arial_MSFontService,sans-serif" font-size="13.3789" x="286.969" y="946.242">=</text><path d="M368.073 944.375C364.769 944.407 362.295 944.846 360.651 945.693 359.007 946.539 358.185 947.817 358.185 949.526 358.185 950.454 358.372 951.186 358.747 951.723 359.121 952.26 359.593 952.631 360.163 952.834 360.732 953.037 361.408 953.139 362.189 953.139 363.296 953.139 364.301 952.871 365.204 952.333 366.107 951.796 366.811 951.113 367.316 950.283 367.82 949.453 368.073 948.631 368.073 947.817ZM393.878 931.777C394.757 931.777 395.543 931.879 396.234 932.082 396.926 932.285 397.536 932.599 398.065 933.022 398.594 933.445 399.03 933.97 399.372 934.597 399.713 935.223 399.97 935.976 400.141 936.855 400.311 937.734 400.397 938.849 400.397 940.2L400.397 949.404C400.397 950.527 400.43 951.341 400.495 951.845 400.56 952.35 400.674 952.74 400.836 953.017 400.999 953.294 401.235 953.526 401.544 953.713 401.854 953.9 402.391 954.099 403.156 954.311L403.156 955.507 393.537 955.507 393.537 954.311C394.171 954.116 394.627 953.945 394.904 953.798 395.18 953.652 395.412 953.448 395.6 953.188 395.787 952.928 395.933 952.525 396.039 951.979 396.145 951.434 396.198 950.608 396.198 949.501L396.198 943.105C396.198 941.966 396.165 940.932 396.1 940.004 396.035 939.077 395.925 938.316 395.77 937.722 395.616 937.128 395.429 936.664 395.209 936.33 394.989 935.996 394.729 935.712 394.428 935.476 394.127 935.24 393.781 935.052 393.39 934.914 392.999 934.776 392.487 934.707 391.852 934.707 391.217 934.707 390.615 934.833 390.045 935.085 389.476 935.337 388.849 935.773 388.165 936.391 387.482 937.01 386.985 937.62 386.676 938.222 386.367 938.824 386.212 939.516 386.212 940.297L386.212 949.404C386.212 950.804 386.277 951.776 386.408 952.321 386.538 952.867 386.786 953.282 387.152 953.566 387.519 953.851 388.117 954.099 388.947 954.311L388.947 955.507 379.376 955.507 379.376 954.311C380.011 954.116 380.463 953.945 380.731 953.798 381 953.652 381.228 953.448 381.415 953.188 381.602 952.928 381.749 952.529 381.854 951.992 381.96 951.455 382.013 950.616 382.013 949.477L382.013 938.833C382.013 937.791 381.997 936.953 381.964 936.318 381.932 935.683 381.818 935.174 381.623 934.792 381.427 934.409 381.13 934.125 380.731 933.938 380.333 933.75 379.767 933.592 379.035 933.461L379.035 932.167 384.748 931.948 386.237 931.948 385.968 935.927 386.31 936.025C387.514 934.804 388.487 933.933 389.228 933.413 389.968 932.892 390.717 932.489 391.474 932.204 392.23 931.919 393.032 931.777 393.878 931.777ZM365.436 931.752C367.047 931.752 368.341 932.009 369.318 932.521 370.294 933.034 371.027 933.82 371.515 934.877 372.003 935.935 372.248 937.53 372.248 939.663L372.248 948.159C372.248 949.363 372.256 950.214 372.272 950.71 372.288 951.206 372.337 951.666 372.418 952.089 372.5 952.513 372.622 952.85 372.785 953.103 372.947 953.355 373.187 953.57 373.505 953.75 373.822 953.929 374.339 954.116 375.055 954.311L375.055 955.507 368.366 955.507 368.488 952.016 368.122 951.918C366.706 953.367 365.375 954.392 364.13 954.995 362.885 955.597 361.562 955.898 360.163 955.898 358.926 955.898 357.835 955.658 356.891 955.178 355.947 954.698 355.223 954.022 354.718 953.151 354.214 952.281 353.961 951.276 353.961 950.136 353.961 947.76 355.137 945.925 357.489 944.631 359.841 943.337 363.369 942.584 368.073 942.373L368.073 940.786C368.073 939.093 367.91 937.758 367.584 936.782 367.259 935.805 366.746 935.089 366.046 934.633 365.346 934.178 364.411 933.95 363.239 933.95 361.969 933.95 360.948 934.283 360.175 934.951 359.402 935.618 358.82 936.619 358.429 937.954L355.231 937.954 355.231 934.78C356.793 933.966 358.096 933.368 359.137 932.985 360.179 932.603 361.221 932.302 362.262 932.082 363.304 931.862 364.362 931.752 365.436 931.752ZM340.257 926.137 343.724 926.137 343.724 932.167 351.61 932.167 351.61 934.633 343.724 934.633 343.724 945.498C343.724 947.076 343.789 948.334 343.919 949.27 344.05 950.205 344.294 950.938 344.652 951.467 345.01 951.996 345.417 952.374 345.873 952.602 346.328 952.83 346.914 952.944 347.63 952.944 348.281 952.944 348.892 952.81 349.461 952.541 350.031 952.272 350.593 951.886 351.146 951.381L352.245 952.7C351.089 953.823 349.994 954.637 348.961 955.141 347.927 955.646 346.857 955.898 345.75 955.898 343.651 955.898 342.088 955.275 341.063 954.03 340.038 952.785 339.525 950.836 339.525 948.183L339.525 934.633 335.912 934.633 335.912 933.388C336.725 933.258 337.385 933.03 337.889 932.705 338.394 932.379 338.788 931.96 339.073 931.447 339.358 930.935 339.582 930.292 339.745 929.519 339.907 928.745 340.078 927.618 340.257 926.137Z" fill="#FF0000" fill-rule="evenodd"/><text fill="#000000" fill-opacity="0" font-family="Arial,Arial_MSFontService,sans-serif" font-size="29.7607" x="335.912" y="952.178">tan</text><path d="M407.866 925.076 428.678 925.076 428.678 927.841 407.866 927.841Z" fill="#FF0000" fill-rule="evenodd"/><text fill="#000000" fill-opacity="0" font-family="Arial,Arial_MSFontService,sans-serif" font-size="2.76416" x="407.866" y="927.495">âˆ’</text><path d="M443.774 913.767 444.876 913.767C444.852 914.429 444.834 915.023 444.822 915.546 444.81 916.07 444.801 916.579 444.795 917.073 444.789 917.567 444.786 918.055 444.786 918.536L444.786 932.267C444.786 932.64 444.798 932.962 444.822 933.233 444.846 933.504 444.885 933.733 444.939 933.92 444.993 934.107 445.066 934.266 445.156 934.399 445.246 934.531 445.352 934.646 445.472 934.742 445.617 934.887 445.809 934.998 446.05 935.076 446.291 935.155 446.598 935.221 446.972 935.275 447.345 935.329 447.794 935.371 448.318 935.401 448.842 935.432 449.471 935.453 450.206 935.465L450.206 937.036 435.879 937.036 435.879 935.465C436.59 935.441 437.192 935.413 437.686 935.383 438.179 935.353 438.601 935.311 438.95 935.257 439.299 935.203 439.579 935.142 439.79 935.076 440.001 935.01 440.185 934.929 440.341 934.832 440.51 934.724 440.654 934.607 440.775 934.48 440.895 934.354 440.992 934.194 441.064 934.001 441.136 933.809 441.193 933.574 441.236 933.297 441.278 933.02 441.299 932.676 441.299 932.267L441.299 919.313C441.299 918.844 441.208 918.512 441.028 918.32 440.847 918.127 440.588 918.031 440.251 918.031 439.878 918.031 439.324 918.223 438.589 918.609 437.854 918.994 436.903 919.566 435.734 920.325 435.578 920.048 435.433 919.771 435.301 919.494 435.168 919.217 435.03 918.934 434.885 918.645 436.379 917.826 437.857 917.01 439.321 916.197 440.784 915.384 442.268 914.574 443.774 913.767Z" fill="#FF0000" fill-rule="evenodd"/><text fill="#000000" fill-opacity="0" font-family="Arial,Arial_MSFontService,sans-serif" font-size="23.2695" x="434.885" y="934.128">1</text><path d="M546.606 894.011 563.964 894.011 564.428 895.232 552.783 908.611C550.52 911.199 548.559 913.396 546.899 915.203L547.045 915.374 552.563 915.374C553.54 915.374 554.288 915.321 554.809 915.215 555.33 915.109 555.786 914.91 556.176 914.617 556.567 914.324 556.97 913.88 557.385 913.286 557.8 912.692 558.317 911.76 558.935 910.491L561.108 910.491 559.619 917.351 541.943 917.351 541.479 916.155 554.833 900.774C556.721 898.609 558.105 897.071 558.984 896.16L558.837 895.989 553.125 895.989C552.278 895.989 551.66 896.046 551.269 896.16 550.878 896.274 550.488 896.473 550.097 896.758 549.707 897.043 549.287 897.466 548.84 898.027 548.392 898.589 547.892 899.39 547.338 900.432L545.166 900.432Z" fill="#FF0000" fill-rule="evenodd"/><text fill="#000000" fill-opacity="0" font-family="Arial,Arial_MSFontService,sans-serif" font-size="23.3398" x="541.479" y="914.434">ğ‘§</text><path d="M568.326 904.208 588.037 904.208 586.574 910.586 584.677 910.586 584.677 909.556C584.677 909.363 584.668 909.144 584.649 908.897 584.631 908.65 584.604 908.403 584.568 908.156 584.532 907.909 584.49 907.68 584.442 907.469 584.394 907.259 584.339 907.087 584.279 906.955 584.195 906.786 584.107 906.647 584.017 906.539 583.927 906.431 583.812 906.346 583.674 906.286 583.535 906.226 583.37 906.184 583.177 906.16 582.984 906.136 582.737 906.124 582.436 906.124L579.528 906.124 575.806 922.6C575.673 923.154 575.58 923.627 575.526 924.018 575.472 924.41 575.445 924.762 575.445 925.075 575.457 925.316 575.493 925.524 575.553 925.698 575.613 925.873 575.722 926.021 575.878 926.141 576.035 926.262 576.246 926.352 576.511 926.412 576.776 926.472 577.119 926.514 577.54 926.539L577.287 927.641 569.302 927.641 569.537 926.539C569.838 926.466 570.097 926.403 570.314 926.349 570.531 926.295 570.717 926.222 570.874 926.132 571.03 926.042 571.166 925.918 571.28 925.762 571.395 925.605 571.506 925.391 571.615 925.12 571.723 924.849 571.831 924.497 571.94 924.063 572.048 923.63 572.175 923.094 572.319 922.456L575.969 906.124 573.475 906.124C573.078 906.124 572.741 906.136 572.464 906.16 572.187 906.184 571.934 906.247 571.705 906.349 571.476 906.452 571.262 906.593 571.064 906.774 570.865 906.955 570.66 907.201 570.449 907.515 570.239 907.828 570.01 908.213 569.763 908.671 569.516 909.129 569.23 909.677 568.905 910.315L566.971 910.315Z" fill="#FF0000" fill-rule="evenodd"/><text fill="#000000" fill-opacity="0" font-family="Arial,Arial_MSFontService,sans-serif" font-size="23.4321" x="566.971" y="924.712">ğ‘‡</text><path d="M501.156 952.507 585.156 952.507 669.156 952.507 669.156 955.507 585.156 955.507 502.329 955.507 502.329 956.075 497.447 956.075 481.577 1014.91 479.209 1014.91 469.102 993.184 464.976 995.015 464.219 993.184 472.227 989.522 480.674 1008.37 495.493 952.828 501.156 952.828Z" fill="#FF0000" fill-rule="evenodd"/><path d="M510.454 978.159C510.958 978.159 511.402 978.216 511.784 978.33 512.167 978.444 512.505 978.618 512.798 978.854 513.091 979.091 513.351 979.396 513.579 979.77 513.807 980.144 514.026 980.653 514.238 981.296 514.45 981.939 514.649 982.736 514.836 983.688 515.023 984.641 515.19 985.629 515.337 986.655L515.581 986.655C517.143 984.458 518.327 982.85 519.133 981.833 519.939 980.816 520.618 980.059 521.172 979.562 521.725 979.066 522.258 978.716 522.771 978.513 523.283 978.309 523.963 978.208 524.809 978.208 525.574 978.208 526.201 978.305 526.689 978.5L525.713 982.919 524.004 982.919C523.906 982.236 523.621 981.894 523.149 981.894 523.003 981.894 522.848 981.918 522.685 981.967 522.523 982.016 522.323 982.122 522.087 982.285 521.851 982.447 521.505 982.765 521.05 983.237 520.594 983.709 520.081 984.287 519.511 984.97 518.942 985.654 518.356 986.37 517.754 987.119L516.094 989.194C516.386 990.756 516.663 992.107 516.924 993.247 517.184 994.386 517.416 995.334 517.619 996.091 517.823 996.848 518.002 997.446 518.156 997.885 518.311 998.325 518.478 998.654 518.657 998.874 518.836 999.094 519.019 999.248 519.206 999.338 519.393 999.427 519.609 999.472 519.853 999.472 520.293 999.472 520.72 999.301 521.135 998.959 521.55 998.618 522.148 997.845 522.929 996.64L524.516 997.69C523.377 999.383 522.348 1000.57 521.428 1001.27 520.508 1001.96 519.414 1002.3 518.144 1002.3 517.444 1002.3 516.85 1002.18 516.362 1001.93 515.874 1001.67 515.451 1001.27 515.093 1000.72 514.734 1000.16 514.417 999.301 514.14 998.129 513.636 996.046 513.327 994.451 513.213 993.344L512.969 993.344C511.243 995.769 509.962 997.511 509.123 998.569 508.285 999.627 507.593 1000.41 507.048 1000.91 506.503 1001.42 505.974 1001.77 505.461 1001.97 504.949 1002.18 504.269 1002.28 503.423 1002.28 502.658 1002.28 502.031 1002.18 501.543 1001.99L502.519 997.568 504.228 997.568C504.326 998.251 504.611 998.593 505.083 998.593 505.311 998.593 505.551 998.532 505.803 998.41 506.055 998.288 506.417 997.995 506.889 997.531 507.361 997.067 508.012 996.339 508.843 995.346 509.673 994.353 510.877 992.864 512.456 990.878 512.212 989.593 511.959 988.356 511.699 987.167 511.439 985.979 511.17 984.873 510.893 983.847 510.617 982.822 510.389 982.15 510.21 981.833 510.031 981.516 509.839 981.296 509.636 981.174 509.433 981.052 509.176 980.991 508.867 980.991 508.525 980.991 508.216 981.068 507.939 981.223 507.663 981.377 507.361 981.646 507.036 982.028 506.71 982.411 506.279 983.009 505.742 983.823L504.155 982.773C505.18 981.227 506.165 980.071 507.109 979.306 508.053 978.541 509.168 978.159 510.454 978.159Z" fill="#FF0000" fill-rule="evenodd"/><text fill="#000000" fill-opacity="0" font-family="Arial,Arial_MSFontService,sans-serif" font-size="24.1455" x="501.543" y="999.286">ğ‘¥</text><path d="M531.499 991.406 551.21 991.406 549.746 997.784 547.849 997.784 547.849 996.754C547.849 996.561 547.84 996.342 547.822 996.095 547.804 995.848 547.777 995.601 547.741 995.354 547.705 995.107 547.663 994.878 547.615 994.667 547.566 994.457 547.512 994.285 547.452 994.153 547.368 993.984 547.28 993.845 547.19 993.737 547.1 993.629 546.985 993.544 546.847 993.484 546.708 993.424 546.543 993.382 546.35 993.358 546.157 993.333 545.91 993.321 545.609 993.321L542.701 993.321 538.979 1009.8C538.846 1010.35 538.753 1010.82 538.699 1011.22 538.645 1011.61 538.618 1011.96 538.618 1012.27 538.63 1012.51 538.666 1012.72 538.726 1012.9 538.786 1013.07 538.895 1013.22 539.051 1013.34 539.208 1013.46 539.419 1013.55 539.683 1013.61 539.948 1013.67 540.292 1013.71 540.713 1013.74L540.46 1014.84 532.475 1014.84 532.71 1013.74C533.011 1013.66 533.27 1013.6 533.487 1013.55 533.703 1013.49 533.89 1013.42 534.047 1013.33 534.203 1013.24 534.339 1013.12 534.453 1012.96 534.568 1012.8 534.679 1012.59 534.787 1012.32 534.896 1012.05 535.004 1011.7 535.113 1011.26 535.221 1010.83 535.348 1010.29 535.492 1009.65L539.141 993.321 536.648 993.321C536.251 993.321 535.914 993.333 535.637 993.358 535.36 993.382 535.107 993.445 534.878 993.547 534.649 993.65 534.435 993.791 534.236 993.972 534.038 994.153 533.833 994.399 533.622 994.713 533.411 995.026 533.183 995.411 532.936 995.869 532.689 996.327 532.403 996.875 532.078 997.513L530.144 997.513Z" fill="#FF0000" fill-rule="evenodd"/><text fill="#000000" fill-opacity="0" font-family="Arial,Arial_MSFontService,sans-serif" font-size="23.4321" x="530.144" y="1011.91">ğ‘‡</text><path d="M541.204 959.68C542.457 959.68 543.526 959.822 544.411 960.105 545.296 960.388 546.016 960.77 546.57 961.252 547.124 961.734 547.525 962.312 547.771 962.986 548.018 963.661 548.142 964.389 548.142 965.172 548.142 965.642 548.109 966.079 548.042 966.482 547.976 966.886 547.862 967.283 547.699 967.674 547.537 968.066 547.323 968.46 547.058 968.858 546.793 969.255 546.462 969.677 546.064 970.122 545.763 970.508 545.372 970.953 544.89 971.459 544.408 971.965 543.881 972.507 543.309 973.085 542.737 973.663 542.138 974.266 541.511 974.892 540.885 975.518 540.277 976.139 539.687 976.753 539.097 977.367 538.555 977.963 538.061 978.541 537.567 979.12 537.164 979.649 536.85 980.131L543.535 980.131C544.101 980.131 544.553 980.11 544.89 980.068 545.227 980.026 545.507 979.932 545.73 979.788 545.953 979.643 546.143 979.424 546.299 979.129 546.456 978.833 546.636 978.427 546.841 977.909L548.521 977.909C548.461 978.764 548.404 979.625 548.35 980.493 548.295 981.36 548.238 982.221 548.178 983.076L532.876 983.076 532.876 982.137C533.165 981.486 533.502 980.845 533.887 980.213 534.273 979.58 534.706 978.939 535.188 978.288 535.67 977.638 536.218 976.967 536.832 976.274 537.447 975.581 538.127 974.862 538.874 974.115 540.006 972.983 540.927 972.016 541.638 971.215 542.349 970.414 542.909 969.701 543.318 969.075 543.728 968.448 544.008 967.87 544.158 967.34 544.309 966.81 544.384 966.244 544.384 965.642 544.384 965.028 544.297 964.462 544.122 963.944 543.947 963.426 543.698 962.986 543.372 962.625 543.047 962.264 542.635 961.981 542.135 961.776 541.635 961.571 541.06 961.469 540.409 961.469 539.289 961.469 538.35 961.773 537.591 962.381 536.832 962.989 536.242 963.871 535.821 965.028L533.454 965.028 533.454 961.505C534.996 960.866 536.414 960.403 537.708 960.114 539.003 959.825 540.169 959.68 541.204 959.68Z" fill="#FF0000" fill-rule="evenodd"/><text fill="#000000" fill-opacity="0" font-family="Arial,Arial_MSFontService,sans-serif" font-size="23.396" x="532.876" y="980.152">2</text><path d="M582.883 971.933 586.35 971.933 586.35 985.996 599.655 985.996 599.655 989.243 586.35 989.243 586.35 1003.31 582.883 1003.31 582.883 989.243 569.577 989.243 569.577 985.996 582.883 985.996Z" fill="#FF0000" fill-rule="evenodd"/><text fill="#000000" fill-opacity="0" font-family="Arial,Arial_MSFontService,sans-serif" font-size="31.3721" x="569.577" y="999.384">+</text><path d="M622.877 978.183C623.545 978.183 624.114 978.273 624.586 978.452 624.912 978.582 625.237 978.798 625.563 979.099 625.888 979.4 626.177 979.819 626.43 980.356 626.682 980.893 626.902 981.495 627.089 982.163 627.276 982.83 627.484 983.79 627.711 985.043 628.102 987.143 628.48 989.353 628.847 991.672 629.213 993.991 629.526 996.144 629.787 998.129 631.365 995.851 632.704 993.621 633.803 991.44 634.901 989.259 635.691 987.363 636.171 985.751 636.651 984.14 636.891 982.83 636.891 981.821 636.891 981.056 636.728 980.535 636.403 980.258 636.077 979.982 635.524 979.819 634.743 979.77L634.987 978.574 641.408 978.574 642.067 979.794C640.83 983.18 639.153 986.801 637.038 990.659 634.954 994.435 632.57 998.195 629.884 1001.94 627.313 1005.5 625.172 1008.08 623.463 1009.68 622.275 1010.77 621.128 1011.55 620.021 1012.02 619.142 1012.38 618.206 1012.56 617.213 1012.56 616.872 1012.56 616.477 1012.53 616.029 1012.47 615.582 1012.42 615.236 1012.34 614.992 1012.24L616.041 1007.5 617.97 1007.5C617.97 1008.55 618.328 1009.07 619.044 1009.07 619.988 1009.07 621.087 1008.48 622.34 1007.3 623.594 1006.12 625.067 1004.34 626.759 1001.96 626.287 999.114 625.644 995.68 624.831 991.66 623.968 987.363 623.398 984.702 623.122 983.676 622.78 982.439 622.422 981.65 622.047 981.308 621.819 981.096 621.535 980.991 621.193 980.991 620.672 980.991 620.184 981.202 619.728 981.625 619.272 982.049 618.711 982.781 618.043 983.823L616.456 982.773C617.58 981.096 618.629 979.912 619.606 979.221 620.582 978.529 621.673 978.183 622.877 978.183Z" fill="#FF0000" fill-rule="evenodd"/><text fill="#000000" fill-opacity="0" font-family="Arial,Arial_MSFontService,sans-serif" font-size="34.375" x="614.992" y="1008.26">ğ‘¦</text><path d="M645.831 991.406 665.541 991.406 664.078 997.784 662.181 997.784 662.181 996.754C662.181 996.561 662.172 996.342 662.154 996.095 662.136 995.848 662.108 995.601 662.072 995.354 662.036 995.107 661.994 994.878 661.946 994.667 661.898 994.457 661.844 994.285 661.783 994.153 661.699 993.984 661.612 993.845 661.521 993.737 661.431 993.629 661.317 993.544 661.178 993.484 661.04 993.424 660.874 993.382 660.681 993.358 660.489 993.333 660.242 993.321 659.94 993.321L657.032 993.321 653.31 1009.8C653.178 1010.35 653.084 1010.82 653.03 1011.22 652.976 1011.61 652.949 1011.96 652.949 1012.27 652.961 1012.51 652.997 1012.72 653.057 1012.9 653.117 1013.07 653.226 1013.22 653.382 1013.34 653.539 1013.46 653.75 1013.55 654.015 1013.61 654.28 1013.67 654.623 1013.71 655.044 1013.74L654.792 1014.84 646.806 1014.84 647.041 1013.74C647.342 1013.66 647.601 1013.6 647.818 1013.55 648.035 1013.49 648.221 1013.42 648.378 1013.33 648.535 1013.24 648.67 1013.12 648.784 1012.96 648.899 1012.8 649.01 1012.59 649.119 1012.32 649.227 1012.05 649.336 1011.7 649.444 1011.26 649.552 1010.83 649.679 1010.29 649.823 1009.65L653.473 993.321 650.98 993.321C650.582 993.321 650.245 993.333 649.968 993.358 649.691 993.382 649.438 993.445 649.209 993.547 648.98 993.65 648.766 993.791 648.568 993.972 648.369 994.153 648.164 994.399 647.953 994.713 647.743 995.026 647.514 995.411 647.267 995.869 647.02 996.327 646.734 996.875 646.409 997.513L644.476 997.513Z" fill="#FF0000" fill-rule="evenodd"/><text fill="#000000" fill-opacity="0" font-family="Arial,Arial_MSFontService,sans-serif" font-size="23.4321" x="644.476" y="1011.91">ğ‘‡</text><path d="M656.292 959.68C657.544 959.68 658.613 959.822 659.499 960.105 660.384 960.388 661.104 960.77 661.658 961.252 662.212 961.734 662.612 962.312 662.859 962.986 663.106 963.661 663.229 964.389 663.229 965.172 663.229 965.642 663.196 966.079 663.13 966.482 663.064 966.886 662.949 967.283 662.787 967.674 662.624 968.066 662.41 968.46 662.145 968.858 661.88 969.255 661.549 969.677 661.152 970.122 660.851 970.508 660.459 970.953 659.977 971.459 659.496 971.965 658.969 972.507 658.397 973.085 657.824 973.663 657.225 974.266 656.599 974.892 655.973 975.518 655.364 976.139 654.774 976.753 654.184 977.367 653.642 977.963 653.148 978.541 652.654 979.12 652.251 979.649 651.938 980.131L658.622 980.131C659.188 980.131 659.64 980.11 659.977 980.068 660.315 980.026 660.595 979.932 660.817 979.788 661.04 979.643 661.23 979.424 661.387 979.129 661.543 978.833 661.724 978.427 661.929 977.909L663.609 977.909C663.548 978.764 663.491 979.625 663.437 980.493 663.383 981.36 663.326 982.221 663.265 983.076L647.963 983.076 647.963 982.137C648.252 981.486 648.589 980.845 648.975 980.213 649.36 979.58 649.794 978.939 650.276 978.288 650.757 977.638 651.305 976.967 651.92 976.274 652.534 975.581 653.214 974.862 653.961 974.115 655.093 972.983 656.015 972.016 656.725 971.215 657.436 970.414 657.996 969.701 658.406 969.075 658.815 968.448 659.095 967.87 659.246 967.34 659.396 966.81 659.471 966.244 659.471 965.642 659.471 965.028 659.384 964.462 659.21 963.944 659.035 963.426 658.785 962.986 658.46 962.625 658.135 962.264 657.722 961.981 657.222 961.776 656.722 961.571 656.147 961.469 655.497 961.469 654.377 961.469 653.437 961.773 652.679 962.381 651.92 962.989 651.33 963.871 650.908 965.028L648.541 965.028 648.541 961.505C650.083 960.866 651.501 960.403 652.796 960.114 654.091 959.825 655.256 959.68 656.292 959.68Z" fill="#FF0000" fill-rule="evenodd"/><text fill="#000000" fill-opacity="0" font-family="Arial,Arial_MSFontService,sans-serif" font-size="23.396" x="647.963" y="980.152">2</text><path d="M463.156 939.507 566.156 939.507 669.156 939.507 669.156 942.507 566.156 942.507 463.156 942.507Z" fill="#FF0000" fill-rule="evenodd"/></g></svg>