<svg xmlns="http://www.w3.org/2000/svg" xmlns:xlink="http://www.w3.org/1999/xlink" width="1080" zoomAndPan="magnify" viewBox="0 0 810 697.499984" height="930" preserveAspectRatio="xMidYMid meet" version="1.0"><defs><clipPath id="6627ecfc3e"><path d="M 0.289062 0 L 809.707031 0 L 809.707031 697 L 0.289062 697 Z M 0.289062 0 " clip-rule="nonzero"/></clipPath></defs><g clip-path="url(#6627ecfc3e)"><path fill="#ffffff" d="M 0.289062 0 L 809.710938 0 L 809.710938 697 L 0.289062 697 Z M 0.289062 0 " fill-opacity="1" fill-rule="nonzero"/><path fill="#ffffff" d="M 0.289062 0 L 809.710938 0 L 809.710938 697 L 0.289062 697 Z M 0.289062 0 " fill-opacity="1" fill-rule="nonzero"/></g><path fill="#5271ff" d="M 211.308594 2.039062 L 211.308594 3.234375 L 222.667969 3.398438 C 263 4.050781 283.410156 5.625 303.167969 9.703125 C 313.035156 11.714844 320.128906 13.96875 328.851562 17.828125 C 334.558594 20.355469 338.3125 22.3125 351.003906 29.242188 C 374.214844 41.9375 380.21875 44.492188 396.390625 48.539062 C 413.675781 52.863281 432.128906 55.578125 462.242188 58.1875 C 467.625 58.648438 472.027344 59.003906 472.082031 58.949219 C 472.136719 58.894531 472.269531 58.351562 472.378906 57.726562 C 472.597656 56.339844 473.546875 56.558594 462.296875 55.605469 C 429.410156 52.863281 407.75 49.4375 389.050781 44.027344 C 379.8125 41.339844 370.542969 37.152344 355.625 28.917969 C 338.011719 19.1875 332.710938 16.523438 323.960938 13.074219 C 310.941406 7.9375 294.148438 4.675781 270.828125 2.746094 C 258.027344 1.683594 234.679688 0.84375 218.457031 0.84375 L 211.308594 0.84375 Z M 211.308594 2.039062 " fill-opacity="1" fill-rule="nonzero"/><path fill="#5271ff" d="M 210.953125 7.394531 C 210.875 8.046875 210.847656 8.617188 210.902344 8.671875 C 210.953125 8.722656 215.683594 9.078125 221.417969 9.429688 C 267.023438 12.285156 291.890625 15.84375 311.730469 22.449219 C 322.929688 26.171875 330.238281 29.894531 349.808594 41.910156 C 363.042969 50.035156 366.46875 51.992188 373.125 55.199219 C 379.429688 58.269531 381.90625 59.277344 388.644531 61.503906 C 402.914062 66.261719 421.285156 70.335938 443.273438 73.679688 C 448.542969 74.46875 468.222656 77.214844 468.683594 77.214844 C 468.929688 77.214844 469.363281 75.09375 469.171875 74.902344 C 469.117188 74.820312 464.550781 74.167969 459.007812 73.40625 C 426.175781 68.894531 407.179688 65.011719 389.460938 59.167969 C 377.691406 55.28125 370.382812 51.664062 355.214844 42.34375 C 333.746094 29.136719 327.304688 25.628906 317.382812 21.824219 C 312.464844 19.921875 309.367188 18.96875 302.21875 17.148438 C 281.671875 11.929688 259.765625 9.242188 217.152344 6.6875 C 215.820312 6.605469 213.890625 6.46875 212.910156 6.386719 L 211.117188 6.222656 Z M 210.953125 7.394531 " fill-opacity="1" fill-rule="nonzero"/><path fill="#5271ff" d="M 210.113281 16.632812 C 210.003906 17.339844 210.03125 17.855469 210.222656 17.964844 C 210.355469 18.046875 211.878906 18.34375 213.535156 18.617188 C 252.183594 24.597656 272.894531 30.277344 284.6875 38.105469 C 289.636719 41.363281 292.351562 44.761719 293.546875 49.21875 C 294.199219 51.585938 294.199219 58.050781 293.546875 64.710938 C 292.976562 70.609375 293.058594 78.542969 293.765625 81.699219 C 294.988281 87.269531 296.730469 90.992188 301.347656 97.949219 C 310.886719 112.328125 323.089844 126.324219 351.519531 155.429688 L 361.683594 165.839844 L 362.582031 164.96875 L 363.476562 164.101562 L 353.230469 153.609375 C 327.957031 127.765625 317.382812 115.941406 307.410156 102.378906 C 296.023438 86.914062 294.5 81.5625 296.128906 62.945312 C 297.136719 51.609375 296.347656 46.800781 292.761719 41.964844 C 288.683594 36.472656 278.113281 30.710938 264.714844 26.660156 C 253.351562 23.210938 241.367188 20.683594 218.375 16.878906 C 214.707031 16.28125 211.390625 15.710938 211.007812 15.628906 C 210.355469 15.492188 210.277344 15.574219 210.113281 16.632812 Z M 210.113281 16.632812 " fill-opacity="1" fill-rule="nonzero"/><path fill="#5271ff" d="M 205.058594 20.980469 C 204.894531 21.578125 204.8125 22.148438 204.894531 22.230469 C 204.949219 22.3125 210.328125 23.671875 216.796875 25.304688 C 236.503906 30.222656 246.503906 33.15625 256.421875 36.933594 C 270.855469 42.453125 280.722656 48.976562 283.953125 55.144531 C 285.257812 57.617188 285.777344 59.980469 285.777344 63.625 C 285.777344 66.316406 285.585938 67.863281 283.847656 78.570312 C 283.140625 83.027344 282.894531 88.898438 283.300781 92.023438 C 284.007812 97.433594 285.367188 101.347656 288.546875 107.246094 C 296.050781 121.078125 307.492188 136.921875 327.332031 160.921875 C 331.789062 166.328125 343.5 180.324219 344.234375 181.140625 C 344.480469 181.414062 346.109375 180.082031 346.109375 179.648438 C 346.109375 179.511719 344.128906 177.066406 341.679688 174.183594 C 311.8125 138.742188 298.332031 120.644531 290.207031 105.015625 C 285.125 95.285156 284.554688 89.605469 287.027344 74.632812 C 288.195312 67.429688 288.4375 64.738281 288.167969 61.179688 C 287.839844 56.585938 286.347656 53.269531 283.113281 49.734375 C 277.433594 43.59375 266.070312 37.425781 250.988281 32.316406 C 242.019531 29.296875 229 25.65625 213.617188 21.90625 C 209.597656 20.925781 206.0625 20.058594 205.816406 19.976562 C 205.464844 19.867188 205.273438 20.085938 205.058594 20.980469 Z M 205.058594 20.980469 " fill-opacity="1" fill-rule="nonzero"/><path fill="#5271ff" d="M 307.246094 33.890625 C 306.539062 34.136719 306.324219 34.351562 306.375 34.707031 C 306.59375 35.820312 311.160156 53.949219 312.4375 58.703125 C 319.230469 83.84375 326.242188 99.6875 335.511719 110.777344 C 343.964844 120.886719 350.703125 127.410156 366.902344 141.082031 C 383.425781 155.023438 388.996094 159.96875 394.542969 165.59375 C 403.917969 175.109375 412.042969 187.339844 415.902344 197.746094 C 419.953125 208.589844 419.601562 212.992188 414.164062 220.277344 C 412.453125 222.535156 412.398438 222.667969 412.859375 223.050781 C 413.8125 223.785156 414.382812 224.027344 414.574219 223.785156 C 415.660156 222.152344 416.339844 221.554688 416.664062 221.828125 C 416.9375 222.042969 417.480469 221.175781 419.300781 217.53125 C 426.070312 203.972656 426.992188 197.828125 424.246094 184.132812 C 422.398438 174.917969 418.40625 167.199219 410.714844 157.957031 C 404.515625 150.539062 398.457031 145.265625 377.636719 129.257812 C 357.960938 114.121094 351.4375 108.65625 344.074219 101.292969 C 332.222656 89.414062 323.960938 76.207031 316.703125 57.5625 C 315.671875 54.871094 314.855469 52.671875 314.910156 52.617188 C 314.964844 52.589844 316.839844 54.085938 319.070312 55.933594 C 336.109375 70.148438 348.664062 77.023438 382.882812 90.964844 C 394.839844 95.828125 399.570312 97.515625 411.609375 101.238281 C 428.839844 106.539062 430.933594 107.324219 441.777344 112.625 C 448.898438 116.105469 451.671875 117.789062 454.226562 120.261719 C 459.28125 125.074219 461.265625 130.917969 461.753906 142.441406 C 461.96875 147.65625 461.644531 153.828125 460.015625 174.917969 L 459.523438 181.441406 L 460.339844 182.308594 L 461.15625 183.207031 L 472.867188 171.574219 C 479.308594 165.1875 486.921875 157.851562 489.746094 155.242188 C 513.851562 133.089844 528.53125 124.230469 548.96875 119.476562 C 555.328125 118.007812 570.628906 115.75 569.40625 116.457031 C 566.144531 118.359375 564.378906 119.773438 561.359375 122.84375 C 553.941406 130.371094 546.710938 142.167969 542.335938 153.828125 C 541.410156 156.273438 538.855469 163.613281 536.628906 170.132812 C 529.371094 191.441406 526.382812 199.078125 521.273438 209.296875 C 511.515625 228.8125 500.890625 240.878906 484.3125 251.207031 C 468.085938 261.316406 446.96875 270.691406 404.40625 286.617188 C 361.984375 302.492188 354.183594 305.941406 340.320312 314.777344 C 324.015625 325.183594 317.246094 333.417969 316.050781 344.289062 C 315.890625 345.976562 315.890625 346.003906 316.515625 346.003906 C 316.867188 346.003906 317.4375 346.085938 317.792969 346.167969 C 318.308594 346.328125 318.390625 346.246094 318.390625 345.515625 C 318.390625 345.050781 318.5 344.617188 318.632812 344.507812 C 318.769531 344.425781 319.042969 343.664062 319.203125 342.796875 C 320.453125 336.546875 322.195312 333.257812 326.789062 328.5 C 330.917969 324.261719 336.570312 320.210938 345.023438 315.507812 C 358.613281 307.925781 366.683594 304.882812 406.855469 292.191406 C 442.023438 281.074219 456.644531 276.019531 471.539062 269.769531 C 502.464844 256.804688 516.191406 246.097656 530.214844 223.972656 C 536.953125 213.375 542.171875 202.285156 551.65625 178.449219 C 558.832031 160.40625 561.496094 154.96875 566.605469 147.792969 C 573.726562 137.820312 578.808594 132.601562 584.21875 129.695312 C 587.777344 127.792969 594.164062 125.371094 596.636719 125.019531 C 600.523438 124.476562 604.953125 125.507812 610.335938 128.199219 C 611.640625 128.851562 612.835938 129.394531 613 129.394531 C 613.269531 129.394531 614.085938 127.980469 614.085938 127.519531 C 614.085938 127.355469 613.351562 126.867188 612.453125 126.40625 C 611.449219 125.886719 609.546875 124.421875 607.617188 122.65625 C 591.554688 107.976562 581.472656 101.617188 570.058594 98.984375 C 550.542969 94.472656 530.050781 104.390625 492.328125 136.679688 C 489.421875 139.179688 483.765625 144.125 479.773438 147.65625 C 475.777344 151.21875 472.433594 154.125 472.351562 154.125 C 472.269531 154.125 472.214844 150.132812 472.214844 145.210938 C 472.214844 122.816406 470.207031 112.382812 464.523438 105.015625 C 460.992188 100.449219 457.160156 97.976562 446.261719 93.246094 C 435.445312 88.574219 433.570312 87.949219 416.5 83.601562 C 402.34375 79.984375 398.074219 78.707031 387.121094 74.875 C 347.714844 61.097656 333.855469 54.058594 312.410156 36.90625 C 310.535156 35.414062 308.824219 34.054688 308.605469 33.863281 C 308.304688 33.621094 307.980469 33.648438 307.246094 33.890625 Z M 390.953125 294.636719 C 390.738281 294.773438 390.355469 294.910156 390.140625 294.910156 C 389.785156 294.910156 389.785156 294.882812 390.140625 294.636719 C 390.355469 294.5 390.738281 294.363281 390.953125 294.363281 C 391.308594 294.363281 391.308594 294.390625 390.953125 294.636719 Z M 390.953125 294.636719 " fill-opacity="1" fill-rule="nonzero"/></svg>