 <svg  version="1.0" xmlns="http://www.w3.org/2000/svg"  width="300.000000pt" height="90.000000pt" viewBox="0 0 300.000000 90.000000"  preserveAspectRatio="xMidYMid meet">  <g transform="translate(0.000000,90.000000) scale(0.100000,-0.100000)" fill="#0008ff" stroke="none"> <path d="M1494 786 c-6 -75 -6 -112 1 -108 5 3 18 7 27 7 25 2 26 3 48 88 12 48 16 85 11 99 -6 16 -13 -2 -31 -76 -13 -53 -28 -100 -33 -103 -6 -4 -7 3 -3 18 4 13 10 56 13 94 4 55 2 73 -9 83 -13 10 -16 -4 -24 -102z"/> <path d="M1453 793 c4 -45 3 -60 -3 -45 -19 46 -25 18 -22 -104 3 -134 -9 -197 -49 -248 -17 -21 -29 -26 -67 -26 -46 0 -112 -29 -112 -49 0 -5 12 -9 28 -9 29 1 71 -18 112 -51 19 -16 21 -21 9 -21 -9 0 -22 7 -29 15 -12 14 -18 12 -49 -19 -20 -19 -63 -51 -95 -70 -43 -26 -53 -36 -38 -36 12 0 22 -3 22 -7 0 -7 -107 -51 -185 -78 -19 -6 -19 -7 -2 -17 20 -10 78 -7 112 7 20 8 20 8 0 -15 l-20 -23 25 8 c14 4 38 14 53 22 15 7 32 11 38 8 5 -4 16 -1 24 5 8 6 18 9 24 6 5 -4 15 0 23 7 7 8 19 12 26 9 6 -2 15 3 18 11 3 9 13 13 25 10 11 -3 21 1 25 10 3 9 11 14 19 11 7 -3 15 2 18 10 4 9 13 16 22 16 8 0 15 8 15 18 0 9 9 23 20 30 18 11 20 10 20 -8 0 -11 7 -20 15 -20 8 0 15 -7 15 -15 0 -24 20 -17 21 8 1 20 2 19 14 -8 l14 -30 1 29 c0 28 1 28 18 13 26 -23 52 -22 52 3 0 11 7 20 16 20 11 0 13 6 9 19 -5 16 -2 18 14 14 16 -4 19 0 17 21 -2 14 1 26 6 26 5 0 6 4 3 10 -3 6 -3 10 2 10 4 0 9 18 10 40 1 22 -3 40 -9 40 -5 0 -8 7 -4 15 7 20 -2 19 -52 -5 -22 -11 -44 -20 -47 -20 -9 0 19 44 38 58 10 7 16 19 15 25 -1 7 4 22 11 35 7 13 10 28 8 35 -2 7 2 27 10 45 7 18 11 37 8 42 -3 5 1 23 10 40 21 40 5 66 -28 49 -20 -11 -19 -10 2 25 12 19 21 44 19 55 -2 16 -10 11 -42 -26 -31 -36 -37 -47 -25 -54 37 -22 37 -22 19 -109 -10 -47 -27 -105 -39 -128 -36 -70 -24 -112 31 -112 22 0 28 -5 28 -22 0 -22 -45 -107 -58 -109 -4 0 -20 -2 -37 -4 -16 -2 -43 2 -59 10 -41 21 -49 19 -97 -21 -67 -56 -219 -115 -219 -86 0 20 130 125 163 131 40 8 46 34 18 72 l-21 28 29 16 c77 39 107 124 115 327 7 148 2 198 -17 198 -6 0 -8 -24 -4 -67z"/> <path d="M1614 825 c-23 -43 -56 -136 -51 -142 21 -20 71 83 65 133 -3 27 -4 28 -14 9z"/> </g> </svg> 