<?xml version="1.0" encoding="UTF-8"?>
<!DOCTYPE svg PUBLIC "-//W3C//DTD SVG 1.1//EN" "http://www.w3.org/Graphics/SVG/1.1/DTD/svg11.dtd">
<svg xmlns="http://www.w3.org/2000/svg" version="1.1" width="1500px" height="449px" style="shape-rendering:geometricPrecision; text-rendering:geometricPrecision; image-rendering:optimizeQuality; fill-rule:evenodd; clip-rule:evenodd" xmlns:xlink="http://www.w3.org/1999/xlink">
<g><path style="opacity:1" fill="#000000" d="M -0.5,-0.5 C 248.167,-0.5 496.833,-0.5 745.5,-0.5C 745.102,9.58584 743.935,19.5858 742,29.5C 739.57,21.5691 734.736,15.5691 727.5,11.5C 724.53,12.6367 722.364,14.6367 721,17.5C 720.755,31.19 720.088,44.8567 719,58.5C 717.649,56.9903 715.982,55.9903 714,55.5C 711.384,57.1122 709.05,59.1122 707,61.5C 706.855,99.4264 707.355,137.26 708.5,175C 706.16,201.689 697.66,226.189 683,248.5C 673.2,259.075 661.366,262.075 647.5,257.5C 640.845,258.397 634.179,259.231 627.5,260C 623.02,261.072 619.353,263.406 616.5,267C 611.833,269 607.167,271 602.5,273C 595.865,277.916 593.698,284.416 596,292.5C 600.249,299.8 606.415,301.8 614.5,298.5C 625.826,298.886 635.826,302.72 644.5,310C 625.519,331.806 603.519,349.806 578.5,364C 570.468,368.348 562.468,372.681 554.5,377C 551.294,382.362 552.294,386.862 557.5,390.5C 531.872,402.643 505.539,413.143 478.5,422C 469.606,427.059 469.273,432.726 477.5,439C 487.892,443.261 498.726,445.427 510,445.5C 515.379,444.88 520.713,444.213 526,443.5C 527.12,445.03 527.954,446.697 528.5,448.5C 352.167,448.5 175.833,448.5 -0.5,448.5C -0.5,298.833 -0.5,149.167 -0.5,-0.5 Z"/></g>
<g><path style="opacity:1" fill="#e4e4e4" d="M 745.5,-0.5 C 746.167,-0.5 746.833,-0.5 747.5,-0.5C 747.62,1.19863 747.954,2.86529 748.5,4.5C 746.869,13.6984 745.202,22.865 743.5,32C 742.551,32.6172 741.718,32.4506 741,31.5C 738.636,25.2714 735.136,19.7714 730.5,15C 728.866,14.5065 727.199,14.3398 725.5,14.5C 724.5,14.8333 723.833,15.5 723.5,16.5C 722.77,30.8088 721.937,45.1422 721,59.5C 720.586,59.9574 720.086,60.2907 719.5,60.5C 715.554,56.2047 712.054,56.538 709,61.5C 708.898,99.4244 709.398,137.258 710.5,175C 708.611,200.663 701.111,224.496 688,246.5C 677.818,260.597 664.318,264.93 647.5,259.5C 640.156,260.631 632.823,261.797 625.5,263C 619.576,268.798 612.576,272.798 604.5,275C 595.374,282.438 595.208,289.938 604,297.5C 612.247,295.452 620.413,295.619 628.5,298C 633.802,300.651 639.136,303.318 644.5,306C 646.847,307.191 647.68,309.024 647,311.5C 622.34,339.82 592.84,361.653 558.5,377C 553.211,382.029 554.044,386.196 561,389.5C 561.749,390.635 561.583,391.635 560.5,392.5C 534.175,403.912 507.509,414.412 480.5,424C 477.689,425.644 475.356,427.81 473.5,430.5C 477.564,436.535 483.231,440.035 490.5,441C 503.155,442.642 515.822,442.975 528.5,442C 529.147,443.609 529.98,445.109 531,446.5C 532.892,441.447 536.058,437.447 540.5,434.5C 542.555,433.441 543.889,431.775 544.5,429.5C 545.167,429.167 545.833,428.833 546.5,428.5C 546.564,429.365 546.897,430.365 547.5,431.5C 543.202,435.296 539.036,439.296 535,443.5C 534.544,444.744 535.044,445.577 536.5,446C 535.833,446.333 535.167,446.667 534.5,447C 535.416,447.278 536.082,447.778 536.5,448.5C 533.833,448.5 531.167,448.5 528.5,448.5C 527.954,446.697 527.12,445.03 526,443.5C 520.713,444.213 515.379,444.88 510,445.5C 498.726,445.427 487.892,443.261 477.5,439C 469.273,432.726 469.606,427.059 478.5,422C 505.539,413.143 531.872,402.643 557.5,390.5C 552.294,386.862 551.294,382.362 554.5,377C 562.468,372.681 570.468,368.348 578.5,364C 603.519,349.806 625.519,331.806 644.5,310C 635.826,302.72 625.826,298.886 614.5,298.5C 606.415,301.8 600.249,299.8 596,292.5C 593.698,284.416 595.865,277.916 602.5,273C 607.167,271 611.833,269 616.5,267C 619.353,263.406 623.02,261.072 627.5,260C 634.179,259.231 640.845,258.397 647.5,257.5C 661.366,262.075 673.2,259.075 683,248.5C 697.66,226.189 706.16,201.689 708.5,175C 707.355,137.26 706.855,99.4264 707,61.5C 709.05,59.1122 711.384,57.1122 714,55.5C 715.982,55.9903 717.649,56.9903 719,58.5C 720.088,44.8567 720.755,31.19 721,17.5C 722.364,14.6367 724.53,12.6367 727.5,11.5C 734.736,15.5691 739.57,21.5691 742,29.5C 743.935,19.5858 745.102,9.58584 745.5,-0.5 Z"/></g>
<g><path style="opacity:1" fill="#141414" d="M 747.5,-0.5 C 748.5,-0.5 749.5,-0.5 750.5,-0.5C 747.832,25.5119 744.999,51.5119 742,77.5C 741.667,67.8333 741.333,58.1667 741,48.5C 740.42,36.3541 736.253,25.6874 728.5,16.5C 727.675,15.6143 726.675,15.281 725.5,15.5C 725.5,15.1667 725.5,14.8333 725.5,14.5C 727.199,14.3398 728.866,14.5065 730.5,15C 735.136,19.7714 738.636,25.2714 741,31.5C 741.718,32.4506 742.551,32.6172 743.5,32C 745.202,22.865 746.869,13.6984 748.5,4.5C 747.954,2.86529 747.62,1.19863 747.5,-0.5 Z"/></g>
<g><path style="opacity:1" fill="#f2f2f2" d="M 750.5,-0.5 C 751.167,-0.5 751.833,-0.5 752.5,-0.5C 749.053,33.8569 745.386,68.1902 741.5,102.5C 740.681,99.6946 740.181,96.6946 740,93.5C 740.01,97.3455 739.51,99.6789 738.5,100.5C 739.303,83.505 739.47,66.505 739,49.5C 738.674,38.1978 735.007,28.1978 728,19.5C 727.5,39.8306 727.333,60.1639 727.5,80.5C 726.579,80.0697 726.079,78.7364 726,76.5C 725.802,78.3817 725.302,80.0484 724.5,81.5C 723.618,73.7364 720.118,67.403 714,62.5C 713.781,93.6732 714.281,124.84 715.5,156C 717.329,188.849 709.829,219.349 693,247.5C 682.804,264.019 668.137,270.019 649,265.5C 641.375,265.271 633.875,266.105 626.5,268C 623.833,269.333 621.833,271.333 620.5,274C 615.272,275.41 610.272,277.41 605.5,280C 602.197,283.795 601.697,287.962 604,292.5C 611.047,290.061 618.214,289.895 625.5,292C 645.464,298.9 662.297,310.4 676,326.5C 676.483,327.448 676.649,328.448 676.5,329.5C 672.895,329.201 669.561,328.035 666.5,326C 661.5,322.333 656.5,318.667 651.5,315C 650.833,314.333 650.167,314.333 649.5,315C 624.869,344.076 595.035,366.243 560,381.5C 559.312,382.332 559.479,382.998 560.5,383.5C 567.017,385.431 573.684,386.431 580.5,386.5C 580.719,387.675 580.386,388.675 579.5,389.5C 546.984,404.504 513.817,417.837 480,429.5C 479.383,430.449 479.549,431.282 480.5,432C 489.671,436.334 499.338,438.167 509.5,437.5C 522.007,438.122 533.673,435.455 544.5,429.5C 543.889,431.775 542.555,433.441 540.5,434.5C 520.588,442.213 500.588,442.38 480.5,435C 476.777,433.741 475.777,431.408 477.5,428C 510.472,416.565 542.806,403.565 574.5,389C 568.701,388.201 563.034,386.867 557.5,385C 556.446,383.612 556.28,382.112 557,380.5C 584.445,368.204 609.278,352.037 631.5,332C 637.542,325.627 643.208,318.96 648.5,312C 649.5,311.333 650.5,311.333 651.5,312C 677.23,330.465 677.897,329.465 653.5,309C 641.776,300.055 628.609,294.555 614,292.5C 610.143,293.241 606.31,293.741 602.5,294C 599.049,287.461 600.049,281.795 605.5,277C 609.59,275.303 613.757,273.803 618,272.5C 620.281,268.43 623.781,265.93 628.5,265C 643.847,264.017 659.18,263.017 674.5,262C 678.278,259.888 681.778,257.388 685,254.5C 705.82,224.908 715.32,191.908 713.5,155.5C 711.896,124.182 711.396,92.8485 712,61.5C 713.049,60.4829 714.216,60.3162 715.5,61C 719.818,64.3148 722.985,68.4814 725,73.5C 725.5,63.5056 725.666,53.5056 725.5,43.5C 725.5,34.1667 725.5,24.8333 725.5,15.5C 726.675,15.281 727.675,15.6143 728.5,16.5C 736.253,25.6874 740.42,36.3541 741,48.5C 741.333,58.1667 741.667,67.8333 742,77.5C 744.999,51.5119 747.832,25.5119 750.5,-0.5 Z"/></g>
<g><path style="opacity:1" fill="#000000" d="M 752.5,-0.5 C 753.167,-0.5 753.833,-0.5 754.5,-0.5C 762.86,9.57701 766.86,21.2437 766.5,34.5C 766.393,41.1967 765.893,47.8634 765,54.5C 761.999,70.1724 759.333,85.8391 757,101.5C 757.667,97.5 758.333,97.5 759,101.5C 769.97,70.5952 779.304,39.2619 787,7.5C 790.396,17.8943 791.396,28.5609 790,39.5C 785.171,59.8048 780.838,80.1382 777,100.5C 777.667,96.5 778.333,96.5 779,100.5C 787.962,76.908 798.295,53.908 810,31.5C 814.507,40.0654 815.507,49.0654 813,58.5C 809.572,73.617 804.072,87.9504 796.5,101.5C 796.833,102.5 797.5,103.167 798.5,103.5C 802.096,99.2783 805.429,94.945 808.5,90.5C 809.872,89.4884 811.205,88.4884 812.5,87.5C 819.48,80.8549 826.48,74.1882 833.5,67.5C 834.48,70.0865 834.813,72.7531 834.5,75.5C 834.5,77.1667 834.5,78.8333 834.5,80.5C 833.837,82.8036 833.17,85.1369 832.5,87.5C 835.738,90.3987 838.238,89.732 840,85.5C 840.64,83.735 840.473,82.0683 839.5,80.5C 839.5,79.5 839.5,78.5 839.5,77.5C 843.572,69.4471 841.572,63.4471 833.5,59.5C 831.226,59.9702 829.226,60.9702 827.5,62.5C 824.382,65.9069 821.382,69.4069 818.5,73C 817.668,73.6877 817.002,73.521 816.5,72.5C 820.912,60.7893 822.079,48.7893 820,36.5C 818.534,30.8789 815.201,26.8789 810,24.5C 807.501,25.0831 805.501,26.4164 804,28.5C 801.746,32.0066 799.746,35.6733 798,39.5C 798.264,34.1479 798.43,28.8146 798.5,23.5C 797.881,13.9238 794.214,5.92375 787.5,-0.5C 1024.83,-0.5 1262.17,-0.5 1499.5,-0.5C 1499.5,149.167 1499.5,298.833 1499.5,448.5C 1187.17,448.5 874.833,448.5 562.5,448.5C 569.501,444.912 576.334,440.912 583,436.5C 587.125,439.163 591.625,439.997 596.5,439C 601.557,437.055 606.057,434.221 610,430.5C 619.128,434.422 626.961,432.589 633.5,425C 637.121,425.405 640.787,425.405 644.5,425C 648.913,422.591 652.747,419.425 656,415.5C 661.24,417.179 666.073,416.346 670.5,413C 672.833,410.667 675.167,408.333 677.5,406C 687.548,406.622 694.548,402.289 698.5,393C 705.35,393.133 710.517,390.3 714,384.5C 715.335,380.489 716.669,376.489 718,372.5C 719.085,371.707 720.252,371.04 721.5,370.5C 724.778,375.778 729.444,379.111 735.5,380.5C 738.375,389.582 744.375,394.082 753.5,394C 755.286,393.215 756.786,392.049 758,390.5C 767.44,401.858 774.607,400.525 779.5,386.5C 786.753,390.734 794.42,391.567 802.5,389C 809.235,385.096 812.235,379.263 811.5,371.5C 824.4,371.944 829.733,365.944 827.5,353.5C 833.59,354.863 838.09,352.863 841,347.5C 841.576,345.623 841.409,343.789 840.5,342C 842.023,339.495 843.023,336.829 843.5,334C 843.441,332.564 843.108,331.231 842.5,330C 847.289,327.1 848.622,323.1 846.5,318C 850.038,313.905 850.371,309.572 847.5,305C 850.86,300.539 851.193,295.872 848.5,291C 851.752,285.918 852.919,280.418 852,274.5C 850.249,271.08 847.582,268.746 844,267.5C 843.726,253.63 837.226,249.13 824.5,254C 818.241,258.796 811.241,261.963 803.5,263.5C 803.351,262.448 803.517,261.448 804,260.5C 809.744,255.427 814.744,249.76 819,243.5C 821.146,239.388 820.98,235.388 818.5,231.5C 826.272,223.726 830.938,214.393 832.5,203.5C 832.779,199.901 831.779,196.734 829.5,194C 834.556,183.165 838.222,171.832 840.5,160C 839.5,157.667 838.5,155.333 837.5,153C 841.408,146.017 844.908,138.851 848,131.5C 848.667,126.167 848.667,120.833 848,115.5C 845.103,108.603 839.936,104.769 832.5,104C 835.507,101.085 835.84,98.0848 833.5,95C 831.888,94.2797 830.388,94.4464 829,95.5C 825.669,102.166 821.836,108.499 817.5,114.5C 817.808,115.308 818.308,115.975 819,116.5C 823.77,112.355 829.27,110.855 835.5,112C 838,113.167 839.833,115 841,117.5C 842.093,124.473 841.093,131.139 838,137.5C 834.877,143.582 831.377,149.415 827.5,155C 828.905,156.269 830.571,156.769 832.5,156.5C 832.622,161.232 832.122,165.898 831,170.5C 827.406,180.009 823.573,189.343 819.5,198.5C 825.204,198.146 827.037,200.813 825,206.5C 821.426,215.988 816.092,224.321 809,231.5C 808.51,232.793 808.343,234.127 808.5,235.5C 810.665,235.116 812.332,235.783 813.5,237.5C 808.899,244.936 803.065,251.269 796,256.5C 797.766,264.136 795.266,269.97 788.5,274C 789.833,274.667 789.833,275.333 788.5,276C 803.752,272.882 818.085,267.215 831.5,259C 834.567,257.836 836.233,258.836 836.5,262C 835.598,266.915 834.765,271.748 834,276.5C 834.414,276.957 834.914,277.291 835.5,277.5C 838.289,275.702 841.289,275.202 844.5,276C 845.059,276.725 845.392,277.558 845.5,278.5C 843.315,284.203 840.649,289.536 837.5,294.5C 839.842,294.504 841.842,295.337 843.5,297C 841.153,300.011 838.819,303.011 836.5,306C 838.5,307.667 840.5,309.333 842.5,311C 842.355,311.772 842.022,312.439 841.5,313C 838.92,314.144 836.253,314.978 833.5,315.5C 832.167,316.5 832.167,317.5 833.5,318.5C 836.273,318.812 838.607,319.978 840.5,322C 837.205,324.434 833.538,326.101 829.5,327C 828.663,328.011 828.33,329.178 828.5,330.5C 831.727,330.78 834.393,332.113 836.5,334.5C 833.553,336.704 830.22,337.704 826.5,337.5C 826.351,338.552 826.517,339.552 827,340.5C 829.333,342.006 831.5,343.673 833.5,345.5C 826.807,346.796 820.141,346.796 813.5,345.5C 813.167,346.167 812.833,346.833 812.5,347.5C 814.789,350.291 817.289,352.958 820,355.5C 822.764,361.244 820.93,363.91 814.5,363.5C 810.435,363.15 806.435,362.483 802.5,361.5C 808.107,381.061 801.44,387.228 782.5,380C 778.546,376.883 775.546,373.05 773.5,368.5C 772.675,367.614 771.675,367.281 770.5,367.5C 772.568,396.889 768.401,397.889 758,370.5C 757.333,374.5 756.667,374.5 756,370.5C 755.869,375.694 754.869,380.694 753,385.5C 751.412,387.968 749.578,388.134 747.5,386C 743.522,381.231 741.856,375.731 742.5,369.5C 739.364,371.139 736.03,371.973 732.5,372C 728.304,367.36 726.471,361.86 727,355.5C 726.333,358.167 725.667,358.167 725,355.5C 722.321,362.757 717.154,365.757 709.5,364.5C 709.952,370.38 709.118,376.047 707,381.5C 703.241,386.803 699.741,386.636 696.5,381C 695.552,380.517 694.552,380.351 693.5,380.5C 693.135,387.396 690.468,393.23 685.5,398C 683.833,398.667 682.167,398.667 680.5,398C 678.559,396.097 676.226,395.264 673.5,395.5C 671.742,404.44 666.409,408.607 657.5,408C 656.274,406.365 654.941,404.865 653.5,403.5C 651.234,407.851 648.567,412.018 645.5,416C 643.086,417.885 640.419,418.552 637.5,418C 635.707,416.22 634.04,414.387 632.5,412.5C 630.125,416.712 627.125,420.545 623.5,424C 617.596,426.718 612.763,425.551 609,420.5C 606.233,423.267 603.4,426.1 600.5,429C 597.691,430.658 594.691,431.825 591.5,432.5C 587.33,431.508 585.663,428.841 586.5,424.5C 585.448,424.351 584.448,424.517 583.5,425C 572.448,436.194 559.114,443.194 543.5,446C 545.167,446.333 546.833,446.667 548.5,447C 546.618,447.198 544.952,447.698 543.5,448.5C 541.167,448.5 538.833,448.5 536.5,448.5C 536.082,447.778 535.416,447.278 534.5,447C 535.167,446.667 535.833,446.333 536.5,446C 535.044,445.577 534.544,444.744 535,443.5C 539.036,439.296 543.202,435.296 547.5,431.5C 550.14,430.206 550.14,428.873 547.5,427.5C 546.893,427.624 546.56,427.957 546.5,428.5C 545.833,428.833 545.167,429.167 544.5,429.5C 533.673,435.455 522.007,438.122 509.5,437.5C 499.338,438.167 489.671,436.334 480.5,432C 479.549,431.282 479.383,430.449 480,429.5C 513.817,417.837 546.984,404.504 579.5,389.5C 580.386,388.675 580.719,387.675 580.5,386.5C 573.684,386.431 567.017,385.431 560.5,383.5C 559.479,382.998 559.312,382.332 560,381.5C 595.035,366.243 624.869,344.076 649.5,315C 650.167,314.333 650.833,314.333 651.5,315C 656.5,318.667 661.5,322.333 666.5,326C 669.561,328.035 672.895,329.201 676.5,329.5C 676.649,328.448 676.483,327.448 676,326.5C 662.297,310.4 645.464,298.9 625.5,292C 618.214,289.895 611.047,290.061 604,292.5C 601.697,287.962 602.197,283.795 605.5,280C 610.272,277.41 615.272,275.41 620.5,274C 621.833,271.333 623.833,269.333 626.5,268C 633.875,266.105 641.375,265.271 649,265.5C 668.137,270.019 682.804,264.019 693,247.5C 709.829,219.349 717.329,188.849 715.5,156C 714.281,124.84 713.781,93.6732 714,62.5C 720.118,67.403 723.618,73.7364 724.5,81.5C 724.709,82.9217 725.209,84.255 726,85.5C 726.333,84.8333 726.667,84.1667 727,83.5C 727.333,84.8333 727.667,86.1667 728,87.5C 728.796,84.9615 728.629,82.6282 727.5,80.5C 727.333,60.1639 727.5,39.8306 728,19.5C 735.007,28.1978 738.674,38.1978 739,49.5C 739.47,66.505 739.303,83.505 738.5,100.5C 737.366,102.966 737.199,105.633 738,108.5C 738.667,104.5 739.333,104.5 740,108.5C 740.813,106.564 741.313,104.564 741.5,102.5C 745.386,68.1902 749.053,33.8569 752.5,-0.5 Z"/></g>
<g><path style="opacity:1" fill="#f5f5f5" d="M 760.5,-0.5 C 761.5,-0.5 762.5,-0.5 763.5,-0.5C 769.054,8.32245 772.554,17.9891 774,28.5C 775.743,19.5207 778.41,10.854 782,2.5C 783.145,1.36362 784.312,0.363622 785.5,-0.5C 786.167,-0.5 786.833,-0.5 787.5,-0.5C 794.214,5.92375 797.881,13.9238 798.5,23.5C 798.43,28.8146 798.264,34.1479 798,39.5C 799.746,35.6733 801.746,32.0066 804,28.5C 805.501,26.4164 807.501,25.0831 810,24.5C 815.201,26.8789 818.534,30.8789 820,36.5C 822.079,48.7893 820.912,60.7893 816.5,72.5C 817.002,73.521 817.668,73.6877 818.5,73C 821.382,69.4069 824.382,65.9069 827.5,62.5C 829.226,60.9702 831.226,59.9702 833.5,59.5C 841.572,63.4471 843.572,69.4471 839.5,77.5C 837.302,77.5912 836.969,76.9245 838.5,75.5C 840.476,70.647 839.476,66.647 835.5,63.5C 834.998,61.9153 833.998,61.4153 832.5,62C 827.161,66.5406 822.161,71.3739 817.5,76.5C 816.311,77.4287 814.978,77.762 813.5,77.5C 816.65,67.7504 818.65,57.7504 819.5,47.5C 819.164,41.9844 817.997,36.651 816,31.5C 813.94,27.045 810.773,25.8783 806.5,28C 802.554,33.7246 799.554,39.8912 797.5,46.5C 796.5,46.5 795.5,46.5 794.5,46.5C 794.96,38.7955 795.627,31.1289 796.5,23.5C 795.596,17.2179 793.763,11.2179 791,5.5C 789.649,3.98101 788.149,2.64768 786.5,1.5C 785.328,1.91862 784.328,2.58529 783.5,3.5C 780.052,12.6204 777.219,21.9538 775,31.5C 774.333,32.1667 773.667,32.8333 773,33.5C 771.894,21.0138 767.728,9.68047 760.5,-0.5 Z"/></g>
<g><path style="opacity:1" fill="#0c0c0c" d="M 763.5,-0.5 C 770.833,-0.5 778.167,-0.5 785.5,-0.5C 784.312,0.363622 783.145,1.36362 782,2.5C 778.41,10.854 775.743,19.5207 774,28.5C 772.554,17.9891 769.054,8.32245 763.5,-0.5 Z"/></g>
<g><path style="opacity:1" fill="#171717" d="M 756.5,-0.5 C 757.833,-0.5 759.167,-0.5 760.5,-0.5C 767.728,9.68047 771.894,21.0138 773,33.5C 773.667,32.8333 774.333,32.1667 775,31.5C 777.219,21.9538 780.052,12.6204 783.5,3.5C 784.328,2.58529 785.328,1.91862 786.5,1.5C 788.149,2.64768 789.649,3.98101 791,5.5C 793.763,11.2179 795.596,17.2179 796.5,23.5C 795.627,31.1289 794.96,38.7955 794.5,46.5C 795.5,46.5 796.5,46.5 797.5,46.5C 799.554,39.8912 802.554,33.7246 806.5,28C 810.773,25.8783 813.94,27.045 816,31.5C 817.997,36.651 819.164,41.9844 819.5,47.5C 818.65,57.7504 816.65,67.7504 813.5,77.5C 814.978,77.762 816.311,77.4287 817.5,76.5C 822.161,71.3739 827.161,66.5406 832.5,62C 833.998,61.4153 834.998,61.9153 835.5,63.5C 832.011,64.4769 829.177,66.4769 827,69.5C 821.551,75.1043 816.717,81.1043 812.5,87.5C 811.205,88.4884 809.872,89.4884 808.5,90.5C 809.35,88.5056 809.85,86.5056 810,84.5C 807.608,87.228 805.608,90.228 804,93.5C 803.346,94.6956 802.846,94.6956 802.5,93.5C 810.39,79.4979 815.056,64.4979 816.5,48.5C 816.248,43.4052 815.414,38.4052 814,33.5C 813.359,31.1868 812.026,29.5202 810,28.5C 799.672,46.462 790.672,65.1287 783,84.5C 785.663,69.8358 788.663,55.1691 792,40.5C 793.803,32.1525 793.803,23.8191 792,15.5C 790.936,11.046 789.103,7.04596 786.5,3.5C 785.029,4.38054 784.196,5.71387 784,7.5C 777.913,34.5143 770.58,61.181 762,87.5C 763.986,74.2222 765.986,60.8889 768,47.5C 771.671,29.5213 767.837,13.5213 756.5,-0.5 Z"/></g>
<g><path style="opacity:1" fill="#e9e9e9" d="M 754.5,-0.5 C 755.167,-0.5 755.833,-0.5 756.5,-0.5C 767.837,13.5213 771.671,29.5213 768,47.5C 765.986,60.8889 763.986,74.2222 762,87.5C 770.58,61.181 777.913,34.5143 784,7.5C 784.196,5.71387 785.029,4.38054 786.5,3.5C 789.103,7.04596 790.936,11.046 792,15.5C 793.803,23.8191 793.803,32.1525 792,40.5C 788.663,55.1691 785.663,69.8358 783,84.5C 790.672,65.1287 799.672,46.462 810,28.5C 812.026,29.5202 813.359,31.1868 814,33.5C 815.414,38.4052 816.248,43.4052 816.5,48.5C 815.056,64.4979 810.39,79.4979 802.5,93.5C 802.846,94.6956 803.346,94.6956 804,93.5C 805.608,90.228 807.608,87.228 810,84.5C 809.85,86.5056 809.35,88.5056 808.5,90.5C 805.429,94.945 802.096,99.2783 798.5,103.5C 797.5,103.167 796.833,102.5 796.5,101.5C 804.072,87.9504 809.572,73.617 813,58.5C 815.507,49.0654 814.507,40.0654 810,31.5C 798.295,53.908 787.962,76.908 779,100.5C 778.333,96.5 777.667,96.5 777,100.5C 780.838,80.1382 785.171,59.8048 790,39.5C 791.396,28.5609 790.396,17.8943 787,7.5C 779.304,39.2619 769.97,70.5952 759,101.5C 758.333,97.5 757.667,97.5 757,101.5C 759.333,85.8391 761.999,70.1724 765,54.5C 765.893,47.8634 766.393,41.1967 766.5,34.5C 766.86,21.2437 762.86,9.57701 754.5,-0.5 Z"/></g>
<g><path style="opacity:1" fill="#606060" d="M 725.5,14.5 C 725.5,14.8333 725.5,15.1667 725.5,15.5C 725.5,24.8333 725.5,34.1667 725.5,43.5C 724.833,34.5 724.167,25.5 723.5,16.5C 723.833,15.5 724.5,14.8333 725.5,14.5 Z"/></g>
<g><path style="opacity:1" fill="#101010" d="M 723.5,16.5 C 724.167,25.5 724.833,34.5 725.5,43.5C 725.666,53.5056 725.5,63.5056 725,73.5C 722.985,68.4814 719.818,64.3148 715.5,61C 714.216,60.3162 713.049,60.4829 712,61.5C 711.396,92.8485 711.896,124.182 713.5,155.5C 715.32,191.908 705.82,224.908 685,254.5C 681.778,257.388 678.278,259.888 674.5,262C 659.18,263.017 643.847,264.017 628.5,265C 623.781,265.93 620.281,268.43 618,272.5C 613.757,273.803 609.59,275.303 605.5,277C 600.049,281.795 599.049,287.461 602.5,294C 606.31,293.741 610.143,293.241 614,292.5C 628.609,294.555 641.776,300.055 653.5,309C 677.897,329.465 677.23,330.465 651.5,312C 650.5,311.333 649.5,311.333 648.5,312C 643.208,318.96 637.542,325.627 631.5,332C 609.278,352.037 584.445,368.204 557,380.5C 556.28,382.112 556.446,383.612 557.5,385C 563.034,386.867 568.701,388.201 574.5,389C 542.806,403.565 510.472,416.565 477.5,428C 475.777,431.408 476.777,433.741 480.5,435C 500.588,442.38 520.588,442.213 540.5,434.5C 536.058,437.447 532.892,441.447 531,446.5C 529.98,445.109 529.147,443.609 528.5,442C 515.822,442.975 503.155,442.642 490.5,441C 483.231,440.035 477.564,436.535 473.5,430.5C 475.356,427.81 477.689,425.644 480.5,424C 507.509,414.412 534.175,403.912 560.5,392.5C 561.583,391.635 561.749,390.635 561,389.5C 554.044,386.196 553.211,382.029 558.5,377C 592.84,361.653 622.34,339.82 647,311.5C 647.68,309.024 646.847,307.191 644.5,306C 639.136,303.318 633.802,300.651 628.5,298C 620.413,295.619 612.247,295.452 604,297.5C 595.208,289.938 595.374,282.438 604.5,275C 612.576,272.798 619.576,268.798 625.5,263C 632.823,261.797 640.156,260.631 647.5,259.5C 664.318,264.93 677.818,260.597 688,246.5C 701.111,224.496 708.611,200.663 710.5,175C 709.398,137.258 708.898,99.4244 709,61.5C 712.054,56.538 715.554,56.2047 719.5,60.5C 720.086,60.2907 720.586,59.9574 721,59.5C 721.937,45.1422 722.77,30.8088 723.5,16.5 Z"/></g>
<g><path style="opacity:1" fill="#ededed" d="M 835.5,63.5 C 836.344,67.0991 836.677,70.7657 836.5,74.5C 836.633,77.925 835.967,78.2583 834.5,75.5C 834.813,72.7531 834.48,70.0865 833.5,67.5C 826.48,74.1882 819.48,80.8549 812.5,87.5C 816.717,81.1043 821.551,75.1043 827,69.5C 829.177,66.4769 832.011,64.4769 835.5,63.5 Z"/></g>
<g><path style="opacity:1" fill="#272727" d="M 835.5,63.5 C 839.476,66.647 840.476,70.647 838.5,75.5C 837.833,75.1667 837.167,74.8333 836.5,74.5C 836.677,70.7657 836.344,67.0991 835.5,63.5 Z"/></g>
<g><path style="opacity:1" fill="#ebebeb" d="M 834.5,80.5 C 835.497,80.4701 836.164,80.9701 836.5,82C 834.866,87.7363 835.533,88.4029 838.5,84C 837.015,82.2435 837.348,81.0768 839.5,80.5C 840.473,82.0683 840.64,83.735 840,85.5C 838.238,89.732 835.738,90.3987 832.5,87.5C 833.17,85.1369 833.837,82.8036 834.5,80.5 Z"/></g>
<g><path style="opacity:1" fill="#646464" d="M 836.5,74.5 C 837.167,74.8333 837.833,75.1667 838.5,75.5C 836.969,76.9245 837.302,77.5912 839.5,77.5C 839.5,78.5 839.5,79.5 839.5,80.5C 837.348,81.0768 837.015,82.2435 838.5,84C 835.533,88.4029 834.866,87.7363 836.5,82C 836.164,80.9701 835.497,80.4701 834.5,80.5C 834.5,78.8333 834.5,77.1667 834.5,75.5C 835.967,78.2583 836.633,77.925 836.5,74.5 Z"/></g>
<g><path style="opacity:1" fill="#5c5d5c" d="M 727.5,80.5 C 728.629,82.6282 728.796,84.9615 728,87.5C 727.667,86.1667 727.333,84.8333 727,83.5C 726.667,84.1667 726.333,84.8333 726,85.5C 725.209,84.255 724.709,82.9217 724.5,81.5C 725.302,80.0484 725.802,78.3817 726,76.5C 726.079,78.7364 726.579,80.0697 727.5,80.5 Z"/></g>
<g><path style="opacity:1" fill="#e6e6e6" d="M 562.5,448.5 C 556.167,448.5 549.833,448.5 543.5,448.5C 544.952,447.698 546.618,447.198 548.5,447C 546.833,446.667 545.167,446.333 543.5,446C 559.114,443.194 572.448,436.194 583.5,425C 584.448,424.517 585.448,424.351 586.5,424.5C 585.663,428.841 587.33,431.508 591.5,432.5C 594.691,431.825 597.691,430.658 600.5,429C 603.4,426.1 606.233,423.267 609,420.5C 612.763,425.551 617.596,426.718 623.5,424C 627.125,420.545 630.125,416.712 632.5,412.5C 634.04,414.387 635.707,416.22 637.5,418C 640.419,418.552 643.086,417.885 645.5,416C 648.567,412.018 651.234,407.851 653.5,403.5C 654.941,404.865 656.274,406.365 657.5,408C 666.409,408.607 671.742,404.44 673.5,395.5C 676.226,395.264 678.559,396.097 680.5,398C 682.167,398.667 683.833,398.667 685.5,398C 690.468,393.23 693.135,387.396 693.5,380.5C 694.552,380.351 695.552,380.517 696.5,381C 699.741,386.636 703.241,386.803 707,381.5C 709.118,376.047 709.952,370.38 709.5,364.5C 717.154,365.757 722.321,362.757 725,355.5C 725.667,358.167 726.333,358.167 727,355.5C 726.471,361.86 728.304,367.36 732.5,372C 736.03,371.973 739.364,371.139 742.5,369.5C 741.856,375.731 743.522,381.231 747.5,386C 749.578,388.134 751.412,387.968 753,385.5C 754.869,380.694 755.869,375.694 756,370.5C 756.667,374.5 757.333,374.5 758,370.5C 768.401,397.889 772.568,396.889 770.5,367.5C 771.675,367.281 772.675,367.614 773.5,368.5C 775.546,373.05 778.546,376.883 782.5,380C 801.44,387.228 808.107,381.061 802.5,361.5C 806.435,362.483 810.435,363.15 814.5,363.5C 820.93,363.91 822.764,361.244 820,355.5C 817.289,352.958 814.789,350.291 812.5,347.5C 812.833,346.833 813.167,346.167 813.5,345.5C 820.141,346.796 826.807,346.796 833.5,345.5C 831.5,343.673 829.333,342.006 827,340.5C 826.517,339.552 826.351,338.552 826.5,337.5C 830.22,337.704 833.553,336.704 836.5,334.5C 834.393,332.113 831.727,330.78 828.5,330.5C 828.33,329.178 828.663,328.011 829.5,327C 833.538,326.101 837.205,324.434 840.5,322C 838.607,319.978 836.273,318.812 833.5,318.5C 834.919,317.549 836.585,317.216 838.5,317.5C 841.814,318.295 843.314,320.295 843,323.5C 839.821,326.006 836.321,327.839 832.5,329C 835.602,329.881 837.936,331.714 839.5,334.5C 837.172,337.335 834.172,339.169 830.5,340C 832.333,341.167 834.167,342.333 836,343.5C 836.667,344.833 836.667,346.167 836,347.5C 832.676,348.906 829.176,349.572 825.5,349.5C 822.454,349.161 819.454,348.995 816.5,349C 822.061,352.29 824.227,357.123 823,363.5C 817.816,367.1 812.316,367.433 806.5,364.5C 809.261,381.893 801.928,388.393 784.5,384C 780.067,381.867 776.567,378.7 774,374.5C 773.79,380.231 773.124,385.897 772,391.5C 768.076,394.064 765.076,393.064 763,388.5C 760.781,384.729 759.115,380.729 758,376.5C 757.709,381.027 756.209,385.027 753.5,388.5C 748.054,389.937 744.22,387.937 742,382.5C 741.246,379.361 740.246,376.361 739,373.5C 734.554,376.142 730.887,375.142 728,370.5C 726.257,367.043 725.257,363.377 725,359.5C 722.668,364.333 718.835,366.999 713.5,367.5C 713.44,366.957 713.107,366.624 712.5,366.5C 711.52,369.086 711.187,371.753 711.5,374.5C 711.073,378.856 709.406,382.689 706.5,386C 702.526,388.364 699.026,387.864 696,384.5C 694.631,389.955 692.131,394.789 688.5,399C 683.962,401.303 679.795,400.803 676,397.5C 672.969,405.888 667.135,410.388 658.5,411C 656.714,410.215 655.214,409.049 654,407.5C 651.973,412.864 648.473,417.031 643.5,420C 639.102,421.378 635.602,420.212 633,416.5C 630.491,421.043 626.991,424.543 622.5,427C 617.243,428.426 612.743,427.259 609,423.5C 605.336,428.175 600.836,431.675 595.5,434C 589.247,435.796 585.414,433.63 584,427.5C 575.589,436.301 565.422,442.468 553.5,446C 557.738,446.823 561.738,446.156 565.5,444C 571.598,440.871 577.432,437.371 583,433.5C 585.793,435.291 588.793,436.625 592,437.5C 597.869,435.967 603.036,433.134 607.5,429C 612.066,429.925 616.733,430.259 621.5,430C 626.065,427.891 630.065,425.058 633.5,421.5C 642.45,424.536 649.116,421.702 653.5,413C 656.063,412.846 658.563,413.346 661,414.5C 667.283,412.223 672.45,408.39 676.5,403C 682.432,404.676 687.432,403.176 691.5,398.5C 693.539,396.258 695.205,393.758 696.5,391C 703.35,391.133 708.517,388.3 712,382.5C 713.335,378.489 714.669,374.489 716,370.5C 717.861,369.236 719.861,368.236 722,367.5C 724.333,370.705 727.166,373.539 730.5,376C 732.804,376.895 735.138,377.729 737.5,378.5C 739.755,384.92 743.922,389.586 750,392.5C 752.977,391.011 755.81,389.345 758.5,387.5C 761.546,390.548 764.88,393.215 768.5,395.5C 773.342,393.506 776.009,389.839 776.5,384.5C 777.167,384.167 777.833,383.833 778.5,383.5C 783.156,386.163 788.156,387.83 793.5,388.5C 800.808,387.923 805.974,384.257 809,377.5C 809.333,374.833 809.667,372.167 810,369.5C 816.918,370.289 822.252,367.623 826,361.5C 825.667,358.5 825.333,355.5 825,352.5C 827.74,351.718 830.574,351.218 833.5,351C 838.41,348.541 839.91,344.708 838,339.5C 841.719,336.72 842.219,333.554 839.5,330C 840.944,327.551 842.778,325.385 845,323.5C 845.564,321.438 845.064,319.605 843.5,318C 844.833,315.667 846.167,313.333 847.5,311C 846.103,309.039 845.103,306.872 844.5,304.5C 846.029,302.129 847.362,299.629 848.5,297C 847.26,295.27 846.26,293.437 845.5,291.5C 848.477,286.556 849.977,281.222 850,275.5C 847.87,272.77 845.203,270.77 842,269.5C 840.927,265.916 840.26,262.25 840,258.5C 839.292,257.619 838.458,256.953 837.5,256.5C 838.745,262.227 838.411,267.894 836.5,273.5C 836.667,273.833 836.833,274.167 837,274.5C 847.081,270.921 850.081,274.254 846,284.5C 844.533,287.266 842.7,289.766 840.5,292C 843.387,292.582 845.054,294.249 845.5,297C 844.49,300.183 842.823,303.016 840.5,305.5C 844.058,307.123 845.224,309.79 844,313.5C 842.512,315.16 840.679,316.16 838.5,316.5C 836.585,316.784 834.919,316.451 833.5,315.5C 836.253,314.978 838.92,314.144 841.5,313C 842.022,312.439 842.355,311.772 842.5,311C 840.5,309.333 838.5,307.667 836.5,306C 838.819,303.011 841.153,300.011 843.5,297C 841.842,295.337 839.842,294.504 837.5,294.5C 840.649,289.536 843.315,284.203 845.5,278.5C 845.392,277.558 845.059,276.725 844.5,276C 841.289,275.202 838.289,275.702 835.5,277.5C 834.914,277.291 834.414,276.957 834,276.5C 834.765,271.748 835.598,266.915 836.5,262C 836.233,258.836 834.567,257.836 831.5,259C 818.085,267.215 803.752,272.882 788.5,276C 789.833,275.333 789.833,274.667 788.5,274C 795.266,269.97 797.766,264.136 796,256.5C 803.065,251.269 808.899,244.936 813.5,237.5C 812.332,235.783 810.665,235.116 808.5,235.5C 808.343,234.127 808.51,232.793 809,231.5C 816.092,224.321 821.426,215.988 825,206.5C 827.037,200.813 825.204,198.146 819.5,198.5C 823.573,189.343 827.406,180.009 831,170.5C 832.122,165.898 832.622,161.232 832.5,156.5C 830.571,156.769 828.905,156.269 827.5,155C 831.377,149.415 834.877,143.582 838,137.5C 841.093,131.139 842.093,124.473 841,117.5C 839.833,115 838,113.167 835.5,112C 829.27,110.855 823.77,112.355 819,116.5C 818.308,115.975 817.808,115.308 817.5,114.5C 821.836,108.499 825.669,102.166 829,95.5C 830.388,94.4464 831.888,94.2797 833.5,95C 835.84,98.0848 835.507,101.085 832.5,104C 839.936,104.769 845.103,108.603 848,115.5C 848.667,120.833 848.667,126.167 848,131.5C 844.908,138.851 841.408,146.017 837.5,153C 838.5,155.333 839.5,157.667 840.5,160C 838.222,171.832 834.556,183.165 829.5,194C 831.779,196.734 832.779,199.901 832.5,203.5C 830.938,214.393 826.272,223.726 818.5,231.5C 820.98,235.388 821.146,239.388 819,243.5C 814.744,249.76 809.744,255.427 804,260.5C 803.517,261.448 803.351,262.448 803.5,263.5C 811.241,261.963 818.241,258.796 824.5,254C 837.226,249.13 843.726,253.63 844,267.5C 847.582,268.746 850.249,271.08 852,274.5C 852.919,280.418 851.752,285.918 848.5,291C 851.193,295.872 850.86,300.539 847.5,305C 850.371,309.572 850.038,313.905 846.5,318C 848.622,323.1 847.289,327.1 842.5,330C 843.108,331.231 843.441,332.564 843.5,334C 843.023,336.829 842.023,339.495 840.5,342C 841.409,343.789 841.576,345.623 841,347.5C 838.09,352.863 833.59,354.863 827.5,353.5C 829.733,365.944 824.4,371.944 811.5,371.5C 812.235,379.263 809.235,385.096 802.5,389C 794.42,391.567 786.753,390.734 779.5,386.5C 774.607,400.525 767.44,401.858 758,390.5C 756.786,392.049 755.286,393.215 753.5,394C 744.375,394.082 738.375,389.582 735.5,380.5C 729.444,379.111 724.778,375.778 721.5,370.5C 720.252,371.04 719.085,371.707 718,372.5C 716.669,376.489 715.335,380.489 714,384.5C 710.517,390.3 705.35,393.133 698.5,393C 694.548,402.289 687.548,406.622 677.5,406C 675.167,408.333 672.833,410.667 670.5,413C 666.073,416.346 661.24,417.179 656,415.5C 652.747,419.425 648.913,422.591 644.5,425C 640.787,425.405 637.121,425.405 633.5,425C 626.961,432.589 619.128,434.422 610,430.5C 606.057,434.221 601.557,437.055 596.5,439C 591.625,439.997 587.125,439.163 583,436.5C 576.334,440.912 569.501,444.912 562.5,448.5 Z"/></g>
<g><path style="opacity:1" fill="#454545" d="M 741.5,102.5 C 741.313,104.564 740.813,106.564 740,108.5C 739.333,104.5 738.667,104.5 738,108.5C 737.199,105.633 737.366,102.966 738.5,100.5C 739.51,99.6789 740.01,97.3455 740,93.5C 740.181,96.6946 740.681,99.6946 741.5,102.5 Z"/></g>
<g><path style="opacity:1" fill="#111111" d="M 837.5,256.5 C 835.863,255.782 834.197,255.616 832.5,256C 820.663,263.593 807.996,268.927 794.5,272C 798.416,268.346 799.416,264.012 797.5,259C 804.758,253.744 810.591,247.244 815,239.5C 816.108,235.553 814.608,233.386 810.5,233C 819.191,224.463 825.191,214.296 828.5,202.5C 828.046,198.88 826.046,196.713 822.5,196C 828.803,184.724 833.136,172.724 835.5,160C 835.464,156.575 833.797,154.575 830.5,154C 838.307,144.549 842.974,133.716 844.5,121.5C 843.838,113.505 839.505,109.172 831.5,108.5C 828.42,109.477 825.42,110.311 822.5,111C 825.563,106.931 828.23,102.598 830.5,98C 831.483,97.4092 832.15,97.7425 832.5,99C 831.129,101.319 830.462,103.819 830.5,106.5C 843.548,108.547 848.715,116.214 846,129.5C 843.305,137.887 839.805,145.887 835.5,153.5C 836.618,155.571 837.618,157.738 838.5,160C 836.589,171.068 833.089,181.568 828,191.5C 827.333,193.5 827.333,195.5 828,197.5C 830.95,201.225 831.284,205.225 829,209.5C 825.491,217.01 821.157,224.01 816,230.5C 815.959,233.025 816.793,235.358 818.5,237.5C 814.745,245.769 809.245,252.769 802,258.5C 801.333,260.833 801.333,263.167 802,265.5C 802.561,266.022 803.228,266.355 804,266.5C 814.201,263.23 823.868,258.897 833,253.5C 834.981,253.899 836.481,254.899 837.5,256.5 Z"/></g>
<g><path style="opacity:1" fill="#656565" d="M 833.5,315.5 C 834.919,316.451 836.585,316.784 838.5,316.5C 838.5,316.833 838.5,317.167 838.5,317.5C 836.585,317.216 834.919,317.549 833.5,318.5C 832.167,317.5 832.167,316.5 833.5,315.5 Z"/></g>
<g><path style="opacity:1" fill="#606060" d="M 713.5,367.5 C 712.833,369.833 712.167,372.167 711.5,374.5C 711.187,371.753 711.52,369.086 712.5,366.5C 713.107,366.624 713.44,366.957 713.5,367.5 Z"/></g>
<g><path style="opacity:1" fill="#0d0d0d" d="M 837.5,256.5 C 838.458,256.953 839.292,257.619 840,258.5C 840.26,262.25 840.927,265.916 842,269.5C 845.203,270.77 847.87,272.77 850,275.5C 849.977,281.222 848.477,286.556 845.5,291.5C 846.26,293.437 847.26,295.27 848.5,297C 847.362,299.629 846.029,302.129 844.5,304.5C 845.103,306.872 846.103,309.039 847.5,311C 846.167,313.333 844.833,315.667 843.5,318C 845.064,319.605 845.564,321.438 845,323.5C 842.778,325.385 840.944,327.551 839.5,330C 842.219,333.554 841.719,336.72 838,339.5C 839.91,344.708 838.41,348.541 833.5,351C 830.574,351.218 827.74,351.718 825,352.5C 825.333,355.5 825.667,358.5 826,361.5C 822.252,367.623 816.918,370.289 810,369.5C 809.667,372.167 809.333,374.833 809,377.5C 805.974,384.257 800.808,387.923 793.5,388.5C 788.156,387.83 783.156,386.163 778.5,383.5C 777.833,383.833 777.167,384.167 776.5,384.5C 776.009,389.839 773.342,393.506 768.5,395.5C 764.88,393.215 761.546,390.548 758.5,387.5C 755.81,389.345 752.977,391.011 750,392.5C 743.922,389.586 739.755,384.92 737.5,378.5C 735.138,377.729 732.804,376.895 730.5,376C 727.166,373.539 724.333,370.705 722,367.5C 719.861,368.236 717.861,369.236 716,370.5C 714.669,374.489 713.335,378.489 712,382.5C 708.517,388.3 703.35,391.133 696.5,391C 695.205,393.758 693.539,396.258 691.5,398.5C 687.432,403.176 682.432,404.676 676.5,403C 672.45,408.39 667.283,412.223 661,414.5C 658.563,413.346 656.063,412.846 653.5,413C 649.116,421.702 642.45,424.536 633.5,421.5C 630.065,425.058 626.065,427.891 621.5,430C 616.733,430.259 612.066,429.925 607.5,429C 603.036,433.134 597.869,435.967 592,437.5C 588.793,436.625 585.793,435.291 583,433.5C 577.432,437.371 571.598,440.871 565.5,444C 561.738,446.156 557.738,446.823 553.5,446C 565.422,442.468 575.589,436.301 584,427.5C 585.414,433.63 589.247,435.796 595.5,434C 600.836,431.675 605.336,428.175 609,423.5C 612.743,427.259 617.243,428.426 622.5,427C 626.991,424.543 630.491,421.043 633,416.5C 635.602,420.212 639.102,421.378 643.5,420C 648.473,417.031 651.973,412.864 654,407.5C 655.214,409.049 656.714,410.215 658.5,411C 667.135,410.388 672.969,405.888 676,397.5C 679.795,400.803 683.962,401.303 688.5,399C 692.131,394.789 694.631,389.955 696,384.5C 699.026,387.864 702.526,388.364 706.5,386C 709.406,382.689 711.073,378.856 711.5,374.5C 712.167,372.167 712.833,369.833 713.5,367.5C 718.835,366.999 722.668,364.333 725,359.5C 725.257,363.377 726.257,367.043 728,370.5C 730.887,375.142 734.554,376.142 739,373.5C 740.246,376.361 741.246,379.361 742,382.5C 744.22,387.937 748.054,389.937 753.5,388.5C 756.209,385.027 757.709,381.027 758,376.5C 759.115,380.729 760.781,384.729 763,388.5C 765.076,393.064 768.076,394.064 772,391.5C 773.124,385.897 773.79,380.231 774,374.5C 776.567,378.7 780.067,381.867 784.5,384C 801.928,388.393 809.261,381.893 806.5,364.5C 812.316,367.433 817.816,367.1 823,363.5C 824.227,357.123 822.061,352.29 816.5,349C 819.454,348.995 822.454,349.161 825.5,349.5C 829.176,349.572 832.676,348.906 836,347.5C 836.667,346.167 836.667,344.833 836,343.5C 834.167,342.333 832.333,341.167 830.5,340C 834.172,339.169 837.172,337.335 839.5,334.5C 837.936,331.714 835.602,329.881 832.5,329C 836.321,327.839 839.821,326.006 843,323.5C 843.314,320.295 841.814,318.295 838.5,317.5C 838.5,317.167 838.5,316.833 838.5,316.5C 840.679,316.16 842.512,315.16 844,313.5C 845.224,309.79 844.058,307.123 840.5,305.5C 842.823,303.016 844.49,300.183 845.5,297C 845.054,294.249 843.387,292.582 840.5,292C 842.7,289.766 844.533,287.266 846,284.5C 850.081,274.254 847.081,270.921 837,274.5C 836.833,274.167 836.667,273.833 836.5,273.5C 838.411,267.894 838.745,262.227 837.5,256.5 Z"/></g>
<g><path style="opacity:1" fill="#515151" d="M 546.5,428.5 C 546.56,427.957 546.893,427.624 547.5,427.5C 550.14,428.873 550.14,430.206 547.5,431.5C 546.897,430.365 546.564,429.365 546.5,428.5 Z"/></g>
</svg>
