<svg width="1542" height="1095" xmlns="http://www.w3.org/2000/svg" xmlns:xlink="http://www.w3.org/1999/xlink" xml:space="preserve" overflow="hidden"><g><rect x="0" y="0" width="1542" height="1095" fill="#FFFFFF"/><path d="M0.603222-3.38416 947.197 165.345 945.99 172.113-0.603222 3.38416ZM946.103 145.364 969.155 172.751 938.06 190.486Z" fill="#FF0000" transform="matrix(1 0 0 -1 317.5 344.251)"/><path d="M320.907 344.045 391.794 874.733 384.979 875.644 314.093 344.955ZM410.494 867.61 391.42 897.902 365.064 873.679Z" fill="#FF0000"/><path d="M318.322 341.162 1043.19 519.53 1041.54 526.206 316.679 347.838ZM1043.39 499.521 1064.62 528.344 1032.44 544.026Z" fill="#FF0000"/><path d="M830.993 225.006 836.922 214.715 843.269 205.129 849.889 196.451 856.734 188.704 863.757 181.911 870.915 176.095 878.165 171.283 885.464 167.504 892.771 164.792 900.042 163.189C900.217 163.151 900.395 163.127 900.573 163.117L907.225 162.74C907.421 162.729 907.617 162.735 907.812 162.757L914.252 163.497C914.458 163.521 914.662 163.563 914.86 163.624L921.038 165.503C921.239 165.564 921.434 165.644 921.621 165.74L927.484 168.782C927.664 168.875 927.836 168.984 927.997 169.108L933.495 173.334C933.643 173.448 933.783 173.575 933.911 173.711L938.991 179.145C939.106 179.267 939.211 179.397 939.306 179.535L943.806 186.028 947.841 193.759 951.118 202.241 953.66 211.39 955.483 221.124 956.604 231.367 957.034 242.043 956.783 253.073 955.857 264.383 954.263 275.893 952.006 287.526 949.092 299.205 945.524 310.849 940.49 323.629 934.095 321.105 938.952 308.832 942.422 297.537 945.258 286.214 947.453 274.947 949.005 263.818 949.909 252.912 950.165 242.314 949.769 232.109 948.724 222.382 947.032 213.218 944.7 204.704 941.736 196.92 938.155 189.944 933.655 183.451 933.97 183.841 928.889 178.407 929.305 178.785 923.807 174.559 924.319 174.885 918.455 171.843 919.038 172.08 912.86 170.201 913.468 170.327 907.027 169.587 907.614 169.604 900.962 169.981 901.493 169.909 895.141 171.246 888.609 173.617 881.956 177.018 875.243 181.437 868.532 186.857 861.882 193.261 855.352 200.625 848.999 208.928 842.879 218.147 836.95 228.439ZM951.71 323.852 927.857 343.251 926.65 312.528Z" fill="#FF0000"/><path d="M383.779 658.479 394.45 663.787 404.45 669.585 413.564 675.735 421.765 682.191 429.027 688.906 435.322 695.836 440.621 702.935 444.892 710.164 448.098 717.479 450.197 724.835C450.244 725.003 450.278 725.173 450.299 725.345L451.14 732.183C451.163 732.371 451.171 732.56 451.163 732.749L450.876 739.457C450.868 739.657 450.842 739.856 450.799 740.051L449.359 746.578C449.315 746.777 449.253 746.971 449.175 747.159L446.555 753.453C446.479 753.636 446.388 753.811 446.282 753.978L442.455 759.988C442.356 760.144 442.245 760.292 442.122 760.43L437.063 766.105C436.952 766.229 436.833 766.345 436.705 766.452L430.54 771.619 423.11 776.399 414.871 780.457 405.912 783.806 396.317 786.46 386.163 788.426 375.53 789.71 364.495 790.316 353.135 790.246 341.529 789.5 329.755 788.077 317.891 785.978 306.018 783.198 290.917 778.351 293.023 771.806 307.588 776.505 319.093 779.208 330.582 781.252 341.973 782.639 353.181 783.371 364.122 783.451 374.711 782.884 384.863 781.675 394.493 779.831 403.516 777.363 411.848 774.282 419.409 770.605 426.124 766.349 432.289 761.183 431.931 761.53 436.99 755.855 436.656 756.297 440.482 750.286 440.208 750.811 442.828 744.517 442.645 745.097 444.085 738.57 444.007 739.164 444.294 732.456 444.316 733.022 443.475 726.184 443.578 726.694 441.792 720.218 438.964 713.647 435.104 707.037 430.227 700.451 424.354 693.949 417.508 687.59 409.714 681.431 400.998 675.531 391.388 669.943 380.717 664.634ZM291.229 789.554 270.628 766.73 301.248 763.943Z" fill="#FF0000"/><path d="M0.568837 80.8995 3.23262 69.2946 6.52865 58.226 10.3752 47.9364 14.7321 38.462 19.5606 29.8396 24.8234 22.1063 30.4853 15.3007 36.5127 9.46397 42.8732 4.64136 49.5335 0.88448C49.6851 0.799767 49.8424 0.726925 50.0051 0.666045L56.455-1.7476C56.632-1.81383 56.8146-1.86546 57.0001-1.90173L63.5876-3.18992C63.7837-3.22827 63.9831-3.24947 64.1829-3.25322L70.8642-3.37844C71.0673-3.38225 71.2702-3.36806 71.4708-3.33601L78.2021-2.26075C78.3974-2.22956 78.5891-2.1817 78.7761-2.11749L85.5135 0.19576C85.6882 0.255735 85.8576 0.329596 86.0204 0.416803L92.7201 4.00556C92.8671 4.08428 93.0073 4.17306 93.1414 4.27221L99.6056 9.0543 105.991 15.1562 111.863 22.2119 117.214 30.1321 122.039 38.8338 126.325 48.238 130.061 58.2674 133.232 68.8459 135.821 79.8975 137.812 91.3461 139.184 103.116 139.918 115.13 139.994 127.313 138.816 143.094 131.961 142.577 133.119 127.353 133.056 115.547 132.355 103.909 131.038 92.5202 129.127 81.4621 126.645 70.8156 123.617 60.6621 120.066 51.083 116.021 42.1593 111.511 33.9712 106.568 26.597 101.225 20.1111 95.5169 14.5813 89.0526 9.79923 89.4739 10.0659 82.7741 6.47712 83.281 6.69817 76.5436 4.38491 77.1176 4.52818 70.3864 3.45292 70.993 3.49535 64.3117 3.62057 64.907 3.55728 58.3195 4.84547 58.8645 4.69133 52.4146 7.10497 52.8862 6.88654 47.0095 10.1328 41.2835 14.4142 35.7624 19.7073 30.5017 25.9823 25.5554 33.2053 20.9757 41.34 16.8131 50.3484 13.1165 60.1922 9.93336 70.8327 7.26958 82.4376ZM149.635 140.169 132.265 165.538 122.391 136.421Z" fill="#FF0000" transform="matrix(-0.962566 0.271048 0.271048 0.962566 797.32 386.048)"/><path d="M0.602993-3.3842 331.879 55.6423 330.673 62.4107-0.602993 3.3842ZM330.784 35.6612 353.838 63.0465 322.744 80.7838Z" fill="#FF0000" transform="matrix(1 0 0 -1 317.5 344.546)"/><path d="M318.321 341.162 612.831 413.611 611.189 420.287 316.679 347.838ZM613.034 393.601 634.263 422.423 602.085 438.108Z" fill="#FF0000"/><path d="M320.907 344.045 346.789 538.065 339.974 538.974 314.093 344.954ZM365.491 530.946 346.412 561.235 320.06 537.006Z" fill="#FF0000"/><path d="M278.637 524.584 281.672 524.584 276.677 547.196 277.214 547.196C277.858 547.196 278.467 547.08 279.04 546.847 279.738 546.561 280.598 546.05 281.618 545.316 282.997 544.296 283.973 543.499 284.545 542.926 285.118 542.353 285.517 541.812 285.741 541.302 285.964 540.791 286.076 540.268 286.076 539.73 286.076 539.319 285.964 538.97 285.741 538.683 285.517 538.397 285.118 538.227 284.545 538.173L284.975 536.4 294.536 536.4 295.207 538.146C294.097 539.363 292.602 540.688 290.722 542.121L284.68 546.659 287.446 556.461C287.768 557.625 288.068 558.413 288.346 558.825 288.623 559.237 289.012 559.442 289.514 559.442 289.979 559.442 290.507 559.205 291.098 558.731 291.689 558.256 292.387 557.545 293.193 556.596L295.127 558.529C293.461 560.32 291.958 561.591 290.615 562.343 289.272 563.095 287.893 563.471 286.479 563.471 284.707 563.471 283.328 563.05 282.343 562.208 281.359 561.367 280.642 559.926 280.195 557.885L278.772 551.439C278.682 551.01 278.566 550.67 278.422 550.419 278.279 550.168 278.091 549.989 277.858 549.882 277.626 549.774 277.277 549.721 276.811 549.721L276.14 549.721 273.212 563.041 265.505 563.041 272.299 532.694C272.693 530.94 272.89 529.66 272.89 528.854 272.89 528.46 272.85 528.151 272.769 527.927 272.689 527.704 272.568 527.52 272.407 527.377 272.246 527.234 272.031 527.122 271.762 527.041 271.494 526.961 270.966 526.867 270.178 526.759L270.607 525.014Z" fill="#FF0000" fill-rule="evenodd"/><text fill="#000000" fill-opacity="0" font-family="Arial,Arial_MSFontService,sans-serif" font-size="38.8867" x="265.505" y="558.61">𝒌</text><path d="M609.062 477.324 612.123 477.324 606.457 503.428C605.49 507.886 603.91 511.14 601.717 513.19 599.524 515.24 596.538 516.265 592.76 516.265 591.919 516.265 591.069 516.148 590.209 515.916L590.934 512.988C591.436 513.132 592.026 513.203 592.707 513.203 593.512 513.203 594.17 513.091 594.681 512.867 595.191 512.644 595.652 512.259 596.064 511.713 596.476 511.167 596.86 510.365 597.219 509.309 597.577 508.253 597.97 506.767 598.4 504.851L602.751 485.515C603.163 483.689 603.368 482.346 603.368 481.487 603.368 480.789 603.203 480.292 602.872 479.996 602.54 479.701 601.847 479.5 600.79 479.392L601.193 477.62ZM607.155 466.904 614.03 466.904 612.634 473.484 605.678 473.484Z" fill="#FF0000" fill-rule="evenodd"/><text fill="#000000" fill-opacity="0" font-family="Arial,Arial_MSFontService,sans-serif" font-size="49.3603" x="590.209" y="510.095">𝒋</text><path d="M652.22 193.846 655.282 193.846 650.985 212.323C650.806 213.075 650.685 213.657 650.622 214.068 650.56 214.48 650.528 214.946 650.528 215.465 650.528 216.163 650.645 216.646 650.877 216.915 651.11 217.184 651.441 217.318 651.871 217.318 652.39 217.318 652.972 217.072 653.617 216.579 654.261 216.087 655.022 215.34 655.899 214.337L657.833 216.271C656.078 218.061 654.507 219.332 653.12 220.084 651.732 220.836 650.206 221.212 648.541 221.212 646.643 221.212 645.256 220.746 644.378 219.815 643.501 218.884 643.062 217.479 643.062 215.599 643.062 214.4 643.259 212.994 643.653 211.383L645.909 202.037C646.321 200.336 646.527 198.993 646.527 198.009 646.527 197.311 646.361 196.814 646.03 196.518 645.699 196.223 645.005 196.021 643.949 195.914L644.351 194.142ZM650.26 183.426 657.135 183.426 655.738 190.006 648.783 190.006Z" fill="#FF0000" fill-rule="evenodd"/><text fill="#000000" fill-opacity="0" font-family="Arial,Arial_MSFontService,sans-serif" font-size="37.7856" x="643.062" y="216.489">𝒊</text><path d="M1267.01 88.0379C1268.44 88.0379 1269.53 88.2528 1270.29 88.6825 1271.04 89.1122 1271.66 89.8596 1272.14 90.9249 1272.62 91.9902 1273.08 93.6955 1273.51 96.0409L1273.78 96.0409C1275.1 94.1789 1276.13 92.7779 1276.87 91.838 1277.6 90.898 1278.28 90.1461 1278.91 89.5821 1279.53 89.0182 1280.14 88.6198 1280.73 88.3871 1281.32 88.1543 1282.02 88.0379 1282.83 88.0379 1283.72 88.0379 1284.63 88.1991 1285.54 88.5213L1284.28 94.3221 1281.86 94.3221C1281.77 93.5702 1281.44 93.1942 1280.87 93.1942 1280.62 93.1942 1280.35 93.2569 1280.08 93.3822 1279.8 93.5075 1279.43 93.7895 1278.97 94.2281 1278.52 94.6668 1277.95 95.3023 1277.27 96.1349 1276.59 96.9674 1275.57 98.2341 1274.21 99.9349 1274.83 103.713 1275.35 106.421 1275.75 108.059 1276.15 109.697 1276.57 110.758 1277 111.241 1277.25 111.51 1277.56 111.644 1277.91 111.644 1278.36 111.644 1278.78 111.469 1279.16 111.12 1279.55 110.771 1280.04 109.988 1280.65 108.77L1283.1 109.898C1282.06 111.796 1280.88 113.21 1279.56 114.141 1278.25 115.072 1276.7 115.538 1274.93 115.538 1273.84 115.538 1272.97 115.399 1272.31 115.122 1271.66 114.844 1271.11 114.383 1270.65 113.739 1270.19 113.094 1269.79 112.185 1269.44 111.013 1269.09 109.84 1268.76 108.305 1268.46 106.407L1268.19 106.407C1266.67 108.591 1265.45 110.256 1264.54 111.402 1263.63 112.548 1262.84 113.407 1262.19 113.98 1261.54 114.553 1260.91 114.956 1260.31 115.189 1259.71 115.422 1258.99 115.538 1258.15 115.538 1257.75 115.538 1257.27 115.489 1256.71 115.39 1256.15 115.292 1255.72 115.189 1255.44 115.081L1256.7 109.254 1259.11 109.254C1259.13 109.63 1259.23 109.912 1259.4 110.1 1259.57 110.288 1259.79 110.382 1260.05 110.382 1260.38 110.382 1260.68 110.315 1260.95 110.18 1261.23 110.046 1261.62 109.746 1262.11 109.281 1262.6 108.815 1263.22 108.13 1263.98 107.226 1264.73 106.322 1266 104.733 1267.79 102.459 1267.41 100.347 1267.06 98.525 1266.73 96.9942 1266.4 95.4635 1266.1 94.3534 1265.83 93.6642 1265.56 92.9749 1265.3 92.5138 1265.06 92.2811 1264.82 92.0484 1264.55 91.932 1264.24 91.932 1263.89 91.932 1263.57 92.026 1263.3 92.214 1263.04 92.4019 1262.75 92.7063 1262.46 93.127 1262.16 93.5478 1261.84 94.1073 1261.5 94.8055L1259.06 93.6776C1260.1 91.7798 1261.27 90.3654 1262.57 89.4344 1263.86 88.5034 1265.34 88.0379 1267.01 88.0379Z" fill="#FF0000" fill-rule="evenodd"/><text fill="#000000" fill-opacity="0" font-family="Arial,Arial_MSFontService,sans-serif" font-size="27.5" x="1255.44" y="112.1">𝒙</text><path d="M1084.88 550.167C1086.25 550.167 1087.37 550.369 1088.22 550.772 1089.07 551.175 1089.74 551.73 1090.25 552.437 1090.75 553.144 1091.15 554.044 1091.45 555.136 1091.71 555.995 1092 557.508 1092.34 559.674 1092.9 563.201 1093.37 566.666 1093.76 570.067 1095.75 567.221 1097.28 564.446 1098.34 561.742 1099.41 559.039 1099.94 556.622 1099.94 554.491 1099.94 553.811 1099.78 553.296 1099.46 552.947 1099.14 552.598 1098.57 552.405 1097.77 552.37L1098.14 550.597 1105.71 550.597 1106.65 552.37C1106.3 553.605 1105.74 555.1 1104.99 556.854 1103.88 559.433 1102.38 562.324 1100.5 565.529 1098.8 568.411 1096.95 571.294 1094.95 574.176 1092.6 577.542 1090.56 580.259 1088.82 582.327 1087.09 584.395 1085.58 585.921 1084.31 586.906 1083.31 587.658 1082.35 588.19 1081.44 588.504 1080.52 588.817 1079.56 588.974 1078.54 588.974 1077.21 588.974 1075.96 588.777 1074.78 588.383L1076.12 582.313 1078.94 582.313C1078.96 583.065 1079.07 583.62 1079.28 583.979 1079.48 584.337 1079.85 584.516 1080.39 584.516 1080.82 584.516 1081.22 584.44 1081.6 584.287 1081.97 584.135 1082.45 583.835 1083.02 583.388 1083.59 582.94 1084.32 582.211 1085.18 581.199 1086.05 580.187 1087.03 578.966 1088.12 577.533 1087.77 575.349 1087.31 572.775 1086.74 569.812 1086.18 566.849 1085.63 564.155 1085.09 561.729 1084.55 559.303 1084.16 557.66 1083.91 556.801 1083.66 555.941 1083.42 555.328 1083.18 554.961 1082.95 554.594 1082.74 554.352 1082.54 554.236 1082.34 554.12 1082.14 554.062 1081.92 554.062 1081.47 554.062 1081.06 554.245 1080.69 554.612 1080.31 554.979 1079.82 555.753 1079.21 556.935L1076.76 555.807C1077.8 553.927 1078.98 552.517 1080.31 551.577 1081.63 550.637 1083.16 550.167 1084.88 550.167Z" fill="#FF0000" fill-rule="evenodd"/><text fill="#000000" fill-opacity="0" font-family="Arial,Arial_MSFontService,sans-serif" font-size="38.8062" x="1074.78" y="584.123">𝒚</text><path d="M419.828 920.205 440.292 920.205 441.232 921.978 429.093 937.258C427.106 939.765 425.271 941.931 423.588 943.757L423.776 943.999 428.851 943.999C429.711 943.999 430.449 943.847 431.067 943.542 431.684 943.238 432.289 942.683 432.88 941.877 433.47 941.072 434.088 939.935 434.733 938.467L437.579 938.467 435.78 946.846 415.101 946.846 414.161 945.073 426.058 930.088C428.028 927.599 429.943 925.334 431.805 923.293L431.617 923.052 426.569 923.052C425.888 923.052 425.271 923.186 424.715 923.455 424.16 923.723 423.61 924.184 423.064 924.838 422.518 925.491 421.833 926.579 421.009 928.101L418.136 928.101Z" fill="#FF0000" fill-rule="evenodd"/><text fill="#000000" fill-opacity="0" font-family="Arial,Arial_MSFontService,sans-serif" font-size="26.6406" x="414.161" y="943.516">𝒛</text></g></svg>