<svg width="1448" height="1602" xmlns="http://www.w3.org/2000/svg" xmlns:xlink="http://www.w3.org/1999/xlink" xml:space="preserve" overflow="hidden"><g><rect x="0" y="0" width="1448" height="1602" fill="#FFFFFF"/><rect x="907.5" y="721.5" width="486" height="99" stroke="#FF0000" stroke-width="3.4375" stroke-miterlimit="8" fill="#FFC000"/><text font-family="Cambria Math,Cambria Math_MSFontService,sans-serif" font-weight="400" font-size="41" transform="matrix(1 0 0 1 1060.39 787)">Rigidbody</text><rect x="907.5" y="855.5" width="486" height="99" stroke="#FF0000" stroke-width="3.4375" stroke-miterlimit="8" fill="none"/><text font-family="Cambria Math,Cambria Math_MSFontService,sans-serif" font-weight="400" font-size="41" transform="matrix(1 0 0 1 958.044 921)">6 </text><text font-family="Cambria Math,Cambria Math_MSFontService,sans-serif" font-weight="400" font-size="41" transform="matrix(1 0 0 1 989.967 921)">Degrees of Freedom</text><rect x="154.5" y="1021.5" width="631" height="99" stroke="#FF0000" stroke-width="3.4375" stroke-miterlimit="8" fill="none"/><text font-family="Cambria Math,Cambria Math_MSFontService,sans-serif" font-weight="400" font-size="41" transform="matrix(1 0 0 1 310.782 1087)">Rotational Motion</text><rect x="154.5" y="1162.5" width="83.0002" height="81.9998" stroke="#FF0000" stroke-width="3.4375" stroke-miterlimit="8" fill="none"/><text font-family="Cambria Math,Cambria Math_MSFontService,sans-serif" font-weight="400" font-size="41" transform="matrix(1 0 0 1 181.108 1217)">ğœ‘</text><rect x="485.5" y="1161.5" width="83.0002" height="81.9998" stroke="#FF0000" stroke-width="3.4375" stroke-miterlimit="8" fill="none"/><text font-family="Cambria Math,Cambria Math_MSFontService,sans-serif" font-weight="400" font-size="41" transform="matrix(1 0 0 1 514.958 1216)">ğ‘</text><rect x="262.5" y="1160.5" width="81.9998" height="82.9999" stroke="#FF0000" stroke-width="3.4375" stroke-miterlimit="8" fill="none"/><text font-family="Cambria Math,Cambria Math_MSFontService,sans-serif" font-weight="400" font-size="41" transform="matrix(1 0 0 1 290.558 1216)">ğœƒ</text><rect x="593.5" y="1161.5" width="81.9998" height="82.9999" stroke="#FF0000" stroke-width="3.4375" stroke-miterlimit="8" fill="none"/><text font-family="Cambria Math,Cambria Math_MSFontService,sans-serif" font-weight="400" font-size="41" transform="matrix(1 0 0 1 622.137 1217)">ğ‘</text><rect x="373.5" y="1160.5" width="81.9998" height="82.9999" stroke="#FF0000" stroke-width="3.4375" stroke-miterlimit="8" fill="none"/><text font-family="Cambria Math,Cambria Math_MSFontService,sans-serif" font-weight="400" font-size="41" transform="matrix(1 0 0 1 399.166 1216)">ğœ“</text><rect x="702.5" y="1162.5" width="82.9998" height="81.9998" stroke="#FF0000" stroke-width="3.4375" stroke-miterlimit="8" fill="none"/><text font-family="Cambria Math,Cambria Math_MSFontService,sans-serif" font-weight="400" font-size="41" transform="matrix(1 0 0 1 733.239 1217)">ğ‘Ÿ</text><rect x="156.5" y="229.5" width="631" height="99" stroke="#FF0000" stroke-width="3.4375" stroke-miterlimit="8" fill="none"/><text font-family="Cambria Math,Cambria Math_MSFontService,sans-serif" font-weight="400" font-size="50" transform="matrix(1 0 0 1 237.056 299)">3 </text><text font-family="Cambria Math,Cambria Math_MSFontService,sans-serif" font-weight="400" font-size="50" transform="matrix(1 0 0 1 276.061 299)">Degrees of Freedom</text><rect x="156.5" y="79.4999" width="631" height="99" stroke="#FF0000" stroke-width="3.4375" stroke-miterlimit="8" fill="#FFC000"/><text font-family="Cambria Math,Cambria Math_MSFontService,sans-serif" font-weight="400" font-size="50" transform="matrix(1 0 0 1 364.771 148)">Datapoint</text><rect x="154.5" y="695.5" width="633" height="99" stroke="#FF0000" stroke-width="3.4375" stroke-miterlimit="8" fill="none"/><text font-family="Cambria Math,Cambria Math_MSFontService,sans-serif" font-weight="400" font-size="50" transform="matrix(1 0 0 1 416.037 764)">Mass</text><rect x="156.5" y="422.5" width="631" height="99" stroke="#FF0000" stroke-width="3.4375" stroke-miterlimit="8" fill="none"/><text font-family="Cambria Math,Cambria Math_MSFontService,sans-serif" font-weight="400" font-size="50" transform="matrix(1 0 0 1 246.519 491)">Translational Motion</text><rect x="156.5" y="563.5" width="83.0002" height="82.0002" stroke="#FF0000" stroke-width="3.4375" stroke-miterlimit="8" fill="none"/><path d="M192.944 597.815C193.449 597.815 193.892 597.872 194.275 597.986 194.657 598.1 194.995 598.275 195.288 598.511 195.581 598.747 195.841 599.052 196.069 599.427 196.297 599.801 196.517 600.31 196.728 600.952 196.94 601.595 197.139 602.393 197.327 603.345 197.514 604.297 197.681 605.286 197.827 606.311L198.071 606.311C199.634 604.114 200.818 602.507 201.623 601.49 202.429 600.472 203.109 599.715 203.662 599.219 204.215 598.723 204.748 598.373 205.261 598.169 205.774 597.966 206.453 597.864 207.3 597.864 208.065 597.864 208.691 597.962 209.18 598.157L208.203 602.576 206.494 602.576C206.396 601.892 206.112 601.551 205.64 601.551 205.493 601.551 205.338 601.575 205.176 601.624 205.013 601.673 204.814 601.778 204.578 601.941 204.342 602.104 203.996 602.421 203.54 602.893 203.084 603.365 202.571 603.943 202.002 604.627 201.432 605.31 200.846 606.026 200.244 606.775L198.584 608.85C198.877 610.413 199.154 611.764 199.414 612.903 199.674 614.042 199.906 614.991 200.11 615.747 200.313 616.504 200.492 617.102 200.647 617.542 200.801 617.981 200.968 618.311 201.147 618.531 201.326 618.75 201.509 618.905 201.697 618.994 201.884 619.084 202.099 619.129 202.344 619.129 202.783 619.129 203.21 618.958 203.625 618.616 204.04 618.274 204.639 617.501 205.42 616.297L207.007 617.346C205.867 619.039 204.838 620.231 203.918 620.923 202.999 621.615 201.904 621.961 200.635 621.961 199.935 621.961 199.341 621.835 198.852 621.582 198.364 621.33 197.941 620.927 197.583 620.374 197.225 619.82 196.907 618.958 196.631 617.786 196.126 615.703 195.817 614.108 195.703 613.001L195.459 613.001C193.734 615.426 192.452 617.167 191.614 618.225 190.775 619.283 190.084 620.065 189.538 620.569 188.993 621.074 188.464 621.428 187.952 621.631 187.439 621.835 186.759 621.936 185.913 621.936 185.148 621.936 184.521 621.839 184.033 621.643L185.01 617.224 186.719 617.224C186.816 617.908 187.101 618.25 187.573 618.25 187.801 618.25 188.041 618.189 188.293 618.067 188.546 617.945 188.908 617.652 189.38 617.188 189.852 616.724 190.503 615.996 191.333 615.003 192.163 614.01 193.367 612.521 194.946 610.535 194.702 609.249 194.45 608.012 194.189 606.824 193.929 605.636 193.66 604.529 193.384 603.504 193.107 602.478 192.879 601.807 192.7 601.49 192.521 601.172 192.33 600.952 192.126 600.83 191.923 600.708 191.667 600.647 191.357 600.647 191.016 600.647 190.706 600.725 190.43 600.879 190.153 601.034 189.852 601.302 189.526 601.685 189.201 602.067 188.769 602.666 188.232 603.479L186.645 602.43C187.671 600.883 188.655 599.728 189.599 598.963 190.544 598.198 191.658 597.815 192.944 597.815Z" fill-rule="evenodd"/><text fill="#000000" fill-opacity="0" font-family="Arial,Arial_MSFontService,sans-serif" font-size="24.1455" x="184.033" y="618.943">ğ‘¥</text><rect x="483.5" y="565.5" width="81.9998" height="82.0002" stroke="#FF0000" stroke-width="3.4375" stroke-miterlimit="8" fill="none"/><path d="M522.386 599.696C523.558 599.696 524.404 600.001 524.925 600.612 525.446 601.222 525.706 602.04 525.706 603.065 525.706 603.846 525.568 604.742 525.291 605.751 525.015 606.76 524.624 607.826 524.12 608.949 523.615 610.072 523.013 611.224 522.313 612.404 521.613 613.584 520.84 614.731 519.994 615.846 519.147 616.961 518.244 618.011 517.284 618.995 516.323 619.98 515.326 620.839 514.293 621.571 513.259 622.303 512.21 622.885 511.144 623.317 510.077 623.748 509.015 623.964 507.957 623.964 507.485 623.964 507.091 623.846 506.773 623.61 506.456 623.374 506.2 623.04 506.004 622.609 505.809 622.177 505.671 621.669 505.589 621.083 505.508 620.497 505.467 619.854 505.467 619.154 505.467 618.226 505.524 617.233 505.638 616.176 505.752 615.118 505.899 614.052 506.078 612.977L507.103 606.215C507.168 605.824 507.221 605.454 507.262 605.104 507.302 604.754 507.323 604.497 507.323 604.335 507.323 603.83 507.241 603.415 507.079 603.09 506.916 602.764 506.639 602.601 506.249 602.601 505.939 602.601 505.606 602.695 505.248 602.882 504.889 603.069 504.527 603.309 504.161 603.602 503.795 603.895 503.441 604.209 503.099 604.542 502.757 604.876 502.44 605.189 502.147 605.482L500.975 604.115C501.48 603.594 502.017 603.077 502.586 602.565 503.156 602.052 503.758 601.588 504.393 601.173 505.028 600.758 505.695 600.424 506.395 600.172 507.095 599.92 507.811 599.794 508.543 599.794 509.162 599.794 509.666 599.895 510.057 600.099 510.448 600.302 510.753 600.571 510.973 600.905 511.192 601.238 511.343 601.604 511.424 602.003 511.506 602.402 511.546 602.797 511.546 603.187 511.546 603.415 511.538 603.635 511.522 603.846 511.506 604.058 511.481 604.253 511.449 604.432L510.082 613.27C509.935 614.198 509.813 615.105 509.715 615.992 509.618 616.879 509.569 617.665 509.569 618.348 509.569 619.032 509.609 619.585 509.691 620.009 509.772 620.432 509.927 620.643 510.155 620.643 510.692 620.643 511.367 620.428 512.181 619.996 512.995 619.565 513.849 618.971 514.745 618.214 515.64 617.457 516.535 616.562 517.43 615.529 518.325 614.495 519.131 613.376 519.847 612.172 520.563 610.967 521.145 609.698 521.593 608.363 522.04 607.028 522.264 605.686 522.264 604.335 522.264 603.749 522.138 603.297 521.886 602.98 521.633 602.662 521.239 602.504 520.702 602.504 520.018 602.504 519.387 602.768 518.81 603.297 518.232 603.826 517.634 604.522 517.015 605.385L515.623 604.139C516.014 603.553 516.474 602.992 517.003 602.455 517.532 601.918 518.093 601.446 518.687 601.039 519.282 600.632 519.896 600.306 520.531 600.062 521.165 599.818 521.784 599.696 522.386 599.696Z" fill-rule="evenodd"/><text fill="#000000" fill-opacity="0" font-family="Arial,Arial_MSFontService,sans-serif" font-size="24.2676" x="500.975" y="620.93">ğ‘£</text><path d="M531.763 615.392C532.425 615.392 532.967 615.537 533.389 615.826 533.81 616.115 534.159 616.537 534.436 617.091 534.713 617.645 534.942 618.328 535.123 619.141 535.304 619.954 535.496 620.885 535.701 621.932L535.936 621.932C536.659 620.981 537.285 620.156 537.815 619.457 538.345 618.759 538.818 618.169 539.233 617.687 539.649 617.205 540.022 616.814 540.353 616.512 540.684 616.211 541.007 615.979 541.32 615.817 541.633 615.654 541.955 615.543 542.286 615.483 542.617 615.422 542.988 615.392 543.397 615.392 544 615.392 544.548 615.501 545.041 615.718L544.138 619.277 542.639 619.277C542.602 618.759 542.41 618.5 542.06 618.5 541.928 618.5 541.783 618.524 541.627 618.572 541.47 618.62 541.284 618.717 541.067 618.861 540.85 619.006 540.6 619.207 540.317 619.466 540.034 619.725 539.7 620.062 539.314 620.478 538.929 620.894 538.489 621.402 537.995 622.005 537.502 622.607 536.936 623.317 536.297 624.136 536.622 625.799 536.902 627.129 537.137 628.129 537.372 629.129 537.598 629.894 537.815 630.424 538.032 630.954 538.248 631.3 538.465 631.462 538.682 631.625 538.929 631.706 539.206 631.706 539.411 631.706 539.6 631.682 539.775 631.634 539.95 631.586 540.13 631.48 540.317 631.318 540.504 631.155 540.711 630.92 540.94 630.613 541.169 630.306 541.44 629.9 541.753 629.394L543.108 630.279C542.578 631.074 542.109 631.724 541.699 632.23 541.29 632.736 540.892 633.134 540.507 633.423 540.121 633.712 539.724 633.907 539.314 634.01 538.905 634.112 538.435 634.163 537.905 634.163 537.447 634.163 537.038 634.1 536.677 633.974 536.315 633.847 536.002 633.615 535.737 633.278 535.557 633.073 535.388 632.799 535.231 632.456 535.075 632.113 534.93 631.742 534.798 631.345 534.665 630.948 534.545 630.535 534.436 630.107 534.328 629.68 534.238 629.279 534.165 628.906 534.093 628.533 534.036 628.198 533.994 627.903 533.952 627.608 533.924 627.388 533.912 627.244L533.714 627.244C532.991 628.207 532.362 629.048 531.826 629.764 531.29 630.481 530.805 631.095 530.371 631.607 529.938 632.119 529.546 632.54 529.197 632.872 528.848 633.203 528.505 633.465 528.167 633.657 527.83 633.85 527.484 633.983 527.129 634.055 526.773 634.127 526.379 634.163 525.945 634.163 525.319 634.163 524.783 634.055 524.337 633.838L525.168 630.315 526.704 630.315C526.74 630.845 526.939 631.11 527.3 631.11 527.433 631.098 527.562 631.074 527.689 631.038 527.815 631.002 527.963 630.926 528.131 630.812 528.3 630.698 528.514 630.517 528.773 630.27 529.032 630.023 529.36 629.68 529.757 629.24 530.155 628.801 530.642 628.25 531.221 627.587 531.799 626.925 532.491 626.106 533.298 625.13 533.081 624.118 532.892 623.239 532.729 622.492 532.567 621.746 532.416 621.104 532.277 620.568 532.139 620.032 532.003 619.596 531.871 619.259 531.738 618.921 531.603 618.653 531.464 618.455 531.326 618.256 531.175 618.114 531.013 618.03 530.85 617.946 530.661 617.898 530.444 617.885 530.239 617.885 530.049 617.919 529.875 617.985 529.7 618.051 529.519 618.169 529.333 618.337 529.146 618.506 528.941 618.741 528.718 619.042 528.496 619.343 528.24 619.734 527.951 620.216L526.559 619.313C527.053 618.578 527.499 617.958 527.896 617.452 528.294 616.946 528.685 616.543 529.071 616.241 529.456 615.94 529.863 615.724 530.29 615.591 530.718 615.459 531.209 615.392 531.763 615.392Z" fill-rule="evenodd"/><text fill="#000000" fill-opacity="0" font-family="Arial,Arial_MSFontService,sans-serif" font-size="18.771" x="524.337" y="631.817">ğ‘¥</text><rect x="264.5" y="565.5" width="82.0002" height="82.0002" stroke="#FF0000" stroke-width="3.4375" stroke-miterlimit="8" fill="none"/><path d="M298.36 599.788C299.028 599.788 299.597 599.877 300.069 600.056 300.395 600.187 300.72 600.402 301.046 600.703 301.372 601.004 301.66 601.424 301.913 601.961 302.165 602.498 302.385 603.1 302.572 603.767 302.759 604.435 302.967 605.395 303.194 606.648 303.585 608.748 303.963 610.957 304.33 613.277 304.696 615.596 305.009 617.748 305.27 619.734 306.848 617.455 308.187 615.226 309.286 613.045 310.384 610.864 311.174 608.967 311.654 607.356 312.134 605.745 312.374 604.435 312.374 603.425 312.374 602.661 312.211 602.14 311.886 601.863 311.56 601.586 311.007 601.424 310.226 601.375L310.47 600.178 316.891 600.178 317.55 601.399C316.313 604.785 314.636 608.406 312.521 612.263 310.437 616.039 308.053 619.799 305.367 623.543 302.796 627.107 300.655 629.687 298.946 631.282 297.758 632.372 296.611 633.154 295.504 633.626 294.625 633.984 293.689 634.163 292.696 634.163 292.355 634.163 291.96 634.134 291.512 634.077 291.065 634.02 290.719 633.943 290.475 633.845L291.525 629.109 293.453 629.109C293.453 630.151 293.811 630.672 294.527 630.672 295.471 630.672 296.57 630.082 297.823 628.902 299.077 627.722 300.55 625.943 302.242 623.567 301.77 620.719 301.127 617.285 300.314 613.264 299.451 608.967 298.881 606.306 298.605 605.281 298.263 604.044 297.905 603.255 297.53 602.913 297.302 602.701 297.018 602.595 296.676 602.595 296.155 602.595 295.667 602.807 295.211 603.23 294.755 603.653 294.194 604.386 293.526 605.427L291.94 604.378C293.063 602.701 294.112 601.517 295.089 600.825 296.066 600.134 297.156 599.788 298.36 599.788Z" fill-rule="evenodd"/><text fill="#000000" fill-opacity="0" font-family="Arial,Arial_MSFontService,sans-serif" font-size="34.375" x="290.475" y="629.866">ğ‘¦</text><rect x="595.5" y="565.5" width="82.0002" height="82.0002" stroke="#FF0000" stroke-width="3.4375" stroke-miterlimit="8" fill="none"/><path d="M633.682 599.52C634.854 599.52 635.7 599.825 636.221 600.436 636.742 601.046 637.002 601.864 637.002 602.889 637.002 603.67 636.864 604.566 636.587 605.575 636.311 606.584 635.92 607.65 635.416 608.773 634.911 609.896 634.309 611.048 633.609 612.228 632.909 613.408 632.136 614.555 631.29 615.67 630.443 616.785 629.54 617.835 628.58 618.819 627.619 619.804 626.622 620.663 625.589 621.395 624.555 622.128 623.506 622.709 622.439 623.141 621.373 623.572 620.311 623.788 619.253 623.788 618.781 623.788 618.387 623.67 618.069 623.434 617.752 623.198 617.496 622.864 617.3 622.433 617.105 622.001 616.967 621.493 616.885 620.907 616.804 620.321 616.763 619.678 616.763 618.978 616.763 618.05 616.82 617.057 616.934 616 617.048 614.942 617.195 613.876 617.374 612.801L618.399 606.039C618.464 605.648 618.517 605.278 618.558 604.928 618.598 604.578 618.619 604.322 618.619 604.159 618.619 603.654 618.537 603.239 618.375 602.914 618.212 602.588 617.935 602.425 617.544 602.425 617.235 602.425 616.902 602.519 616.543 602.706 616.185 602.893 615.823 603.133 615.457 603.426 615.091 603.719 614.737 604.033 614.395 604.366 614.053 604.7 613.736 605.013 613.443 605.306L612.271 603.939C612.776 603.418 613.313 602.901 613.882 602.389 614.452 601.876 615.054 601.412 615.689 600.997 616.324 600.582 616.991 600.248 617.691 599.996 618.391 599.744 619.107 599.618 619.839 599.618 620.458 599.618 620.962 599.719 621.353 599.923 621.744 600.126 622.049 600.395 622.269 600.729 622.488 601.062 622.639 601.428 622.72 601.827 622.802 602.226 622.842 602.621 622.842 603.011 622.842 603.239 622.834 603.459 622.818 603.67 622.802 603.882 622.777 604.077 622.745 604.256L621.377 613.094C621.231 614.022 621.109 614.929 621.011 615.816 620.914 616.703 620.865 617.489 620.865 618.172 620.865 618.856 620.905 619.409 620.987 619.833 621.068 620.256 621.223 620.467 621.451 620.467 621.988 620.467 622.663 620.252 623.477 619.82 624.291 619.389 625.145 618.795 626.041 618.038 626.936 617.281 627.831 616.386 628.726 615.353 629.621 614.319 630.427 613.2 631.143 611.996 631.859 610.791 632.441 609.522 632.889 608.187 633.336 606.852 633.56 605.51 633.56 604.159 633.56 603.573 633.434 603.121 633.182 602.804 632.929 602.486 632.535 602.328 631.998 602.328 631.314 602.328 630.683 602.592 630.105 603.121 629.528 603.65 628.93 604.346 628.311 605.209L626.919 603.963C627.31 603.378 627.77 602.816 628.299 602.279 628.828 601.742 629.389 601.27 629.983 600.863 630.577 600.456 631.192 600.13 631.827 599.886 632.461 599.642 633.08 599.52 633.682 599.52Z" fill-rule="evenodd"/><text fill="#000000" fill-opacity="0" font-family="Arial,Arial_MSFontService,sans-serif" font-size="24.2676" x="612.271" y="620.754">ğ‘£</text><path d="M642.101 615.216C642.535 615.216 642.908 615.262 643.221 615.352 643.534 615.442 643.817 615.584 644.07 615.776 644.323 615.969 644.549 616.219 644.748 616.526 644.946 616.833 645.148 617.204 645.353 617.637 645.461 617.902 645.576 618.282 645.696 618.776 645.817 619.269 645.943 619.841 646.076 620.492 646.208 621.142 646.341 621.859 646.473 622.642 646.606 623.425 646.738 624.244 646.871 625.099 647.003 625.954 647.13 626.83 647.25 627.727 647.37 628.625 647.485 629.507 647.593 630.374 648.497 629.194 649.31 627.998 650.032 626.788 650.755 625.578 651.366 624.433 651.866 623.355 652.366 622.277 652.748 621.296 653.013 620.411 653.278 619.525 653.405 618.818 653.393 618.288 653.393 617.758 653.254 617.378 652.977 617.15 652.7 616.921 652.236 616.788 651.586 616.752L651.821 615.596 656.97 615.596 657.602 616.644C656.398 619.619 654.991 622.488 653.383 625.252 651.776 628.016 649.96 630.699 647.936 633.301 647.057 634.349 646.265 635.252 645.561 636.011 644.856 636.77 644.206 637.423 643.61 637.971 643.013 638.519 642.459 638.968 641.947 639.317 641.436 639.666 640.939 639.946 640.457 640.157 639.975 640.368 639.496 640.518 639.021 640.609 638.545 640.699 638.048 640.756 637.53 640.78 637.253 640.78 636.919 640.75 636.528 640.69 636.136 640.63 635.79 640.552 635.489 640.455L636.392 636.499 638.036 636.499 638.036 636.607C638.036 637.426 638.367 637.836 639.03 637.836 639.909 637.836 640.8 637.495 641.704 636.815 642.607 636.134 643.697 635.047 644.974 633.554 644.576 631.265 644.227 629.287 643.926 627.619 643.625 625.951 643.351 624.53 643.104 623.355 642.857 622.181 642.631 621.227 642.426 620.492 642.221 619.757 642.023 619.185 641.83 618.776 641.637 618.366 641.442 618.086 641.243 617.935 641.044 617.785 640.83 617.71 640.602 617.71 640.385 617.71 640.186 617.737 640.005 617.791 639.825 617.845 639.638 617.956 639.445 618.125 639.253 618.294 639.045 618.532 638.822 618.839 638.599 619.146 638.325 619.546 638 620.04L636.609 619.137C637.127 618.378 637.602 617.746 638.036 617.24 638.47 616.734 638.9 616.334 639.328 616.038 639.755 615.743 640.192 615.533 640.638 615.406 641.083 615.28 641.571 615.216 642.101 615.216Z" fill-rule="evenodd"/><text fill="#000000" fill-opacity="0" font-family="Arial,Arial_MSFontService,sans-serif" font-size="25.564" x="635.489" y="637.585">ğ‘¦</text><rect x="371.5" y="565.5" width="81.9998" height="82.0002" stroke="#FF0000" stroke-width="3.4375" stroke-miterlimit="8" fill="none"/><path d="M405.241 600.178 422.599 600.178 423.063 601.399 411.418 614.778C409.155 617.366 407.194 619.563 405.534 621.37L405.68 621.541 411.198 621.541C412.175 621.541 412.923 621.488 413.444 621.382 413.965 621.276 414.421 621.077 414.811 620.784 415.202 620.491 415.605 620.047 416.02 619.453 416.435 618.859 416.952 617.927 417.57 616.658L419.743 616.658 418.254 623.518 400.578 623.518 400.114 622.322 413.469 606.941C415.357 604.776 416.74 603.238 417.619 602.327L417.472 602.156 411.76 602.156C410.913 602.156 410.295 602.213 409.904 602.327 409.513 602.441 409.123 602.64 408.732 602.925 408.342 603.21 407.922 603.633 407.475 604.195 407.027 604.756 406.527 605.558 405.973 606.599L403.801 606.599Z" fill-rule="evenodd"/><text fill="#000000" fill-opacity="0" font-family="Arial,Arial_MSFontService,sans-serif" font-size="23.3398" x="400.114" y="620.601">ğ‘§</text><rect x="704.5" y="565.5" width="83.0002" height="83.0002" stroke="#FF0000" stroke-width="3.4375" stroke-miterlimit="8" fill="none"/><path d="M745.288 600.437C746.46 600.437 747.307 600.742 747.828 601.352 748.348 601.962 748.609 602.78 748.609 603.806 748.609 604.587 748.47 605.482 748.194 606.491 747.917 607.5 747.526 608.566 747.022 609.69 746.517 610.813 745.915 611.964 745.215 613.144 744.515 614.324 743.742 615.472 742.896 616.586 742.049 617.701 741.146 618.751 740.186 619.736 739.226 620.721 738.229 621.579 737.195 622.312 736.162 623.044 735.112 623.626 734.046 624.057 732.98 624.489 731.918 624.704 730.86 624.704 730.388 624.704 729.993 624.586 729.676 624.35 729.358 624.114 729.102 623.781 728.907 623.349 728.711 622.918 728.573 622.409 728.492 621.823 728.41 621.237 728.37 620.594 728.37 619.895 728.37 618.967 728.426 617.974 728.54 616.916 728.654 615.858 728.801 614.792 728.98 613.718L730.005 606.955C730.07 606.565 730.123 606.194 730.164 605.844 730.205 605.494 730.225 605.238 730.225 605.075 730.225 604.571 730.144 604.156 729.981 603.83 729.818 603.505 729.541 603.342 729.151 603.342 728.841 603.342 728.508 603.435 728.15 603.623 727.792 603.81 727.43 604.05 727.063 604.343 726.697 604.636 726.343 604.949 726.001 605.283 725.66 605.616 725.342 605.93 725.049 606.223L723.877 604.856C724.382 604.335 724.919 603.818 725.489 603.305 726.058 602.793 726.661 602.329 727.295 601.914 727.93 601.499 728.597 601.165 729.297 600.913 729.997 600.66 730.713 600.534 731.446 600.534 732.064 600.534 732.569 600.636 732.959 600.839 733.35 601.043 733.655 601.311 733.875 601.645 734.095 601.979 734.245 602.345 734.327 602.744 734.408 603.142 734.449 603.537 734.449 603.928 734.449 604.156 734.44 604.375 734.424 604.587 734.408 604.799 734.383 604.994 734.351 605.173L732.984 614.011C732.837 614.939 732.715 615.846 732.618 616.733 732.52 617.62 732.471 618.405 732.471 619.089 732.471 619.773 732.512 620.326 732.593 620.749 732.674 621.172 732.829 621.384 733.057 621.384 733.594 621.384 734.27 621.168 735.083 620.737 735.897 620.306 736.752 619.711 737.647 618.955 738.542 618.198 739.437 617.303 740.332 616.269 741.228 615.236 742.033 614.117 742.749 612.912 743.466 611.708 744.047 610.438 744.495 609.104 744.943 607.769 745.166 606.426 745.166 605.075 745.166 604.489 745.04 604.038 744.788 603.72 744.536 603.403 744.141 603.244 743.604 603.244 742.92 603.244 742.29 603.509 741.712 604.038 741.134 604.567 740.536 605.262 739.917 606.125L738.526 604.88C738.916 604.294 739.376 603.732 739.905 603.195 740.434 602.658 740.996 602.186 741.59 601.779 742.184 601.372 742.798 601.047 743.433 600.803 744.068 600.559 744.686 600.437 745.288 600.437Z" fill-rule="evenodd"/><text fill="#000000" fill-opacity="0" font-family="Arial,Arial_MSFontService,sans-serif" font-size="24.2676" x="723.877" y="621.671">ğ‘£</text><path d="M751.16 616.512 765.216 616.512 765.649 617.596C764.854 618.476 764.099 619.313 763.382 620.108 762.665 620.902 761.955 621.685 761.25 622.456 760.545 623.227 759.841 623.995 759.136 624.76 758.432 625.524 757.7 626.319 756.941 627.144 756.182 627.969 755.388 628.837 754.556 629.746 753.725 630.655 752.834 631.634 751.883 632.682 751.931 632.73 751.967 632.76 751.991 632.772L756.435 632.772C756.893 632.772 757.291 632.769 757.628 632.763 757.965 632.757 758.26 632.724 758.513 632.664 758.766 632.603 758.998 632.504 759.209 632.366 759.419 632.227 759.627 632.022 759.832 631.751 760.037 631.48 760.253 631.134 760.482 630.713 760.711 630.291 760.982 629.767 761.295 629.141L763.156 629.141 762 634.579 747.655 634.579 747.167 633.495C748.324 632.218 749.525 630.893 750.772 629.52 752.018 628.147 753.247 626.798 754.457 625.473 755.668 624.148 756.833 622.881 757.953 621.67 759.073 620.46 760.085 619.373 760.988 618.409 760.94 618.361 760.904 618.331 760.88 618.319L756.237 618.319C755.707 618.319 755.255 618.361 754.882 618.445 754.508 618.53 754.165 618.692 753.852 618.933 753.539 619.174 753.232 619.511 752.93 619.945 752.629 620.379 752.28 620.951 751.883 621.661L750.04 621.661Z" fill-rule="evenodd"/><text fill="#000000" fill-opacity="0" font-family="Arial,Arial_MSFontService,sans-serif" font-size="18.0664" x="747.167" y="632.32">ğ‘§</text><rect x="103.5" y="375.5" width="734" height="577" stroke="#FF0000" stroke-width="6.875" stroke-linejoin="round" stroke-miterlimit="10" stroke-dasharray="27.5 20.625" fill="none"/><rect x="64.5001" y="48.5" width="811" height="1509" stroke="#FF0000" stroke-width="3.4375" stroke-linejoin="round" stroke-miterlimit="10" stroke-dasharray="13.75 10.3125" fill="none"/><rect x="154.5" y="1280.5" width="633" height="98" stroke="#FF0000" stroke-width="3.4375" stroke-miterlimit="8" fill="none"/><text font-family="Cambria Math,Cambria Math_MSFontService,sans-serif" font-weight="400" font-size="41" transform="matrix(1 0 0 1 302.381 1345)">Moments of Inertia</text><path d="M387.5 868C387.5 858.887 394.887 851.5 404 851.5 413.113 851.5 420.5 858.887 420.5 868 420.5 877.113 413.113 884.5 404 884.5 394.887 884.5 387.5 877.113 387.5 868Z" stroke="#000000" stroke-width="1.14583" stroke-linejoin="round" stroke-miterlimit="10" fill="#FF0000" fill-rule="evenodd"/><path d="M0.588512-3.38675 121.757 17.6686 120.58 24.4421-0.588512 3.38675ZM119.007 6.72372 143.747 24.9788 114.299 33.8177Z" fill="#FF0000" transform="matrix(1 0 0 -1 408.5 869.479)"/><path d="M0.588512-3.38675 121.757 17.6686 120.58 24.4421-0.588512 3.38675ZM119.007 6.72372 143.747 24.9788 114.299 33.8177Z" fill="#FF0000" transform="matrix(1 0 0 -1 453.5 1482.48)"/><path d="M383.369 1512.01C387.334 1509.64 393.784 1513.12 397.777 1519.8 401.77 1526.47 401.793 1533.81 397.828 1536.18 393.863 1538.55 387.413 1535.06 383.42 1528.39 379.427 1521.71 379.405 1514.38 383.369 1512.01L484.81 1451.33C488.775 1448.96 495.225 1452.45 499.218 1459.12 503.211 1465.8 503.234 1473.13 499.269 1475.5L397.828 1536.18" stroke="#FF0000" stroke-width="3.4375" stroke-linejoin="round" stroke-miterlimit="10" fill="none" fill-rule="evenodd"/><path d="M472.003 1460.25C474.749 1460.25 479.982 1465.92 483.691 1472.91 486 1477.25 487.269 1481.3 487.05 1483.61L486.869 1483.37C487.081 1479.69 483.604 1472.01 479.102 1466.22 476.359 1462.69 473.735 1460.53 472.12 1460.46Z" stroke="#FF0000" stroke-width="3.4375" stroke-linejoin="round" stroke-miterlimit="10" fill="#4F81BD" fill-rule="evenodd"/><path d="M402.937 1500.65C405.682 1500.66 410.909 1506.31 414.612 1513.29 416.92 1517.63 418.186 1521.67 417.964 1523.98L417.784 1523.75C418 1520.07 414.531 1512.4 410.035 1506.62 407.293 1503.09 404.669 1500.93 403.054 1500.87Z" stroke="#FF0000" stroke-width="3.4375" stroke-linejoin="round" stroke-miterlimit="10" fill="#4F81BD" fill-rule="evenodd"/><path d="M441.257 1478.71 332.389 1459.75 332.978 1456.36 441.847 1475.32ZM347.631 1473.77 329.489 1457.5 352.064 1448.32C352.943 1447.96 353.946 1448.39 354.303 1449.26 354.661 1450.14 354.238 1451.15 353.358 1451.5L333.331 1459.65 333.831 1456.77 349.926 1471.21C350.633 1471.84 350.692 1472.93 350.058 1473.64 349.425 1474.34 348.338 1474.4 347.631 1473.77Z" fill="#FF0000"/><path d="M7.12765 8.57635 11.5156 4.56187C11.5734 4.50902 11.6365 4.46219 11.7038 4.42219L16.6012 1.51243C16.6687 1.47235 16.7401 1.43929 16.8143 1.4138L22.0592-0.387361C22.1332-0.412764 22.2096-0.430539 22.2872-0.440379L27.7175-1.12905C27.795-1.13889 27.8733-1.14076 27.9512-1.13465L33.4049-0.706953C33.483-0.700823 33.5604-0.686679 33.6357-0.664753L38.9507 0.883202C39.0264 0.905245 39.0996 0.935041 39.1691 0.972115L44.1834 3.64421C44.253 3.68126 44.3184 3.72536 44.3789 3.77585L48.9305 7.57598C48.9895 7.62525 49.0434 7.68033 49.0914 7.74039L52.8426 12.4362C52.8893 12.4946 52.9301 12.5574 52.9645 12.6238L55.6834 17.8648C55.7164 17.9284 55.7433 17.9948 55.7639 18.0634L57.447 23.6763C57.4668 23.7426 57.4807 23.8105 57.4883 23.8793L58.1318 29.6906C58.1393 29.7585 58.1407 29.8268 58.1361 29.895L57.7364 35.7314C57.7317 35.8003 57.7208 35.8685 57.7038 35.9355L56.2573 41.6234C56.2397 41.6925 56.2157 41.7598 56.1857 41.8244L53.6888 47.1906C53.6574 47.258 53.6196 47.3221 53.5758 47.3822L50.769 51.2324 48.9172 49.8824 51.724 46.0322 51.611 46.2238 54.1079 40.8576 54.0363 41.0586 55.4828 35.3707 55.4501 35.5748 55.8498 29.7385 55.854 29.9428 55.2105 24.1315 55.2518 24.3345 53.5688 18.7216 53.6492 18.9201 50.9303 13.6791 51.0521 13.8666 47.3009 9.17072 47.4618 9.33513 42.9102 5.535 43.1057 5.66664 38.0914 2.99454 38.3099 3.08345 32.9949 1.5355 33.2257 1.5777 27.772 1.15 28.0058 1.1444 22.5755 1.83308 22.8035 1.78006 17.5586 3.58122 17.7717 3.48259 12.8743 6.39235 13.0625 6.25268 8.67455 10.2672ZM70.6383 44.5343 48.4882 52.2421 51.266 28.9543C51.341 28.326 51.9112 27.8773 52.5395 27.9523 53.1679 28.0273 53.6165 28.5974 53.5416 29.2258L50.9808 50.6931 49.4665 49.4752 69.8851 42.37C70.4828 42.162 71.1359 42.4779 71.3439 43.0756 71.5518 43.6733 71.2359 44.3264 70.6383 44.5343Z" fill="#FF0000" transform="matrix(-1 0 0 1 422 1445)"/><path d="M597.744 1480.63C598.705 1480.63 599.399 1480.88 599.826 1481.38 600.253 1481.88 600.467 1482.55 600.467 1483.39 600.467 1484.03 600.354 1484.77 600.127 1485.59 599.9 1486.42 599.579 1487.3 599.166 1488.22 598.752 1489.14 598.258 1490.08 597.684 1491.05 597.11 1492.02 596.476 1492.96 595.782 1493.87 595.088 1494.79 594.348 1495.65 593.56 1496.45 592.773 1497.26 591.955 1497.97 591.108 1498.57 590.26 1499.17 589.4 1499.64 588.525 1500 587.651 1500.35 586.78 1500.53 585.913 1500.53 585.526 1500.53 585.202 1500.43 584.942 1500.24 584.682 1500.04 584.471 1499.77 584.311 1499.42 584.151 1499.06 584.038 1498.65 583.971 1498.17 583.904 1497.69 583.871 1497.16 583.871 1496.58 583.871 1495.82 583.917 1495.01 584.011 1494.14 584.104 1493.27 584.224 1492.4 584.371 1491.52L585.212 1485.97C585.266 1485.65 585.309 1485.35 585.342 1485.06 585.376 1484.78 585.392 1484.57 585.392 1484.43 585.392 1484.02 585.326 1483.68 585.192 1483.41 585.059 1483.14 584.832 1483.01 584.511 1483.01 584.258 1483.01 583.984 1483.09 583.691 1483.24 583.397 1483.4 583.1 1483.59 582.8 1483.83 582.499 1484.07 582.209 1484.33 581.929 1484.6 581.649 1484.88 581.388 1485.13 581.148 1485.37L580.187 1484.25C580.601 1483.83 581.041 1483.4 581.508 1482.98 581.976 1482.56 582.469 1482.18 582.99 1481.84 583.51 1481.5 584.058 1481.23 584.632 1481.02 585.205 1480.81 585.793 1480.71 586.393 1480.71 586.9 1480.71 587.314 1480.79 587.634 1480.96 587.955 1481.13 588.205 1481.35 588.385 1481.62 588.565 1481.89 588.689 1482.19 588.756 1482.52 588.822 1482.85 588.856 1483.17 588.856 1483.49 588.856 1483.68 588.849 1483.86 588.836 1484.03 588.822 1484.21 588.802 1484.37 588.776 1484.51L587.654 1491.76C587.534 1492.52 587.434 1493.26 587.354 1493.99 587.274 1494.72 587.234 1495.36 587.234 1495.92 587.234 1496.48 587.267 1496.94 587.334 1497.29 587.401 1497.63 587.528 1497.81 587.715 1497.81 588.155 1497.81 588.709 1497.63 589.376 1497.28 590.043 1496.92 590.744 1496.43 591.478 1495.81 592.212 1495.19 592.946 1494.46 593.68 1493.61 594.414 1492.76 595.075 1491.85 595.662 1490.86 596.25 1489.87 596.727 1488.83 597.094 1487.74 597.461 1486.64 597.644 1485.54 597.644 1484.43 597.644 1483.95 597.541 1483.58 597.334 1483.32 597.127 1483.06 596.803 1482.93 596.363 1482.93 595.802 1482.93 595.285 1483.15 594.811 1483.58 594.338 1484.02 593.847 1484.59 593.34 1485.29L592.199 1484.27C592.519 1483.79 592.896 1483.33 593.33 1482.89 593.764 1482.45 594.224 1482.06 594.711 1481.73 595.198 1481.4 595.702 1481.13 596.223 1480.93 596.743 1480.73 597.25 1480.63 597.744 1480.63Z" fill-rule="evenodd"/><text fill="#000000" fill-opacity="0" font-family="Arial,Arial_MSFontService,sans-serif" font-size="19.8994" x="580.187" y="1498.04">ğ‘£</text><path d="M378.3 1415.78 379.321 1417.14C377.292 1418.8 375.704 1420.67 374.556 1422.76 373.408 1424.85 372.835 1427.01 372.835 1429.24 372.835 1430.77 373.125 1431.95 373.705 1432.77 374.286 1433.59 375.103 1434 376.158 1434 377.145 1434 377.986 1433.6 378.68 1432.8 379.374 1432 379.888 1430.82 380.222 1429.28L381.863 1421.73 385.227 1421.73 383.705 1428.62C383.532 1429.4 383.445 1430.14 383.445 1430.82 383.445 1431.89 383.675 1432.68 384.136 1433.21 384.596 1433.74 385.247 1434 386.087 1434 387.195 1434 388.176 1433.6 389.03 1432.79 389.884 1431.98 390.548 1430.8 391.022 1429.26 391.496 1427.71 391.733 1425.91 391.733 1423.85 391.733 1422.64 391.566 1421.39 391.232 1420.12 390.899 1418.84 390.432 1417.79 389.831 1416.94L391.192 1415.78C392.527 1417.05 393.531 1418.45 394.205 1419.97 394.879 1421.49 395.216 1423.12 395.216 1424.87 395.216 1426.83 394.829 1428.64 394.055 1430.3 393.281 1431.95 392.183 1433.25 390.762 1434.18 389.341 1435.12 387.716 1435.58 385.887 1435.58 383.672 1435.58 382.157 1434.49 381.343 1432.3L381.263 1432.3C380.796 1433.03 380.305 1433.62 379.791 1434.07 379.277 1434.52 378.633 1434.88 377.859 1435.16 377.085 1435.44 376.164 1435.58 375.097 1435.58 374.069 1435.58 373.125 1435.35 372.264 1434.89 371.403 1434.43 370.706 1433.71 370.172 1432.73 369.638 1431.75 369.371 1430.54 369.371 1429.12 369.371 1426.69 370.152 1424.31 371.713 1421.97 373.275 1419.63 375.47 1417.57 378.3 1415.78Z" fill-rule="evenodd"/><text fill="#000000" fill-opacity="0" font-family="Arial,Arial_MSFontService,sans-serif" font-size="19.7993" x="369.371" y="1433.11">ğœ”</text><path d="M561.221 869.288C562.393 869.288 563.239 869.593 563.76 870.204 564.281 870.814 564.541 871.632 564.541 872.657 564.541 873.438 564.403 874.334 564.126 875.343 563.85 876.352 563.459 877.418 562.955 878.541 562.45 879.664 561.848 880.816 561.148 881.996 560.448 883.176 559.675 884.323 558.829 885.438 557.982 886.553 557.079 887.603 556.119 888.587 555.158 889.572 554.161 890.431 553.128 891.163 552.094 891.895 551.045 892.477 549.978 892.909 548.912 893.34 547.85 893.556 546.792 893.556 546.32 893.556 545.926 893.438 545.608 893.202 545.291 892.966 545.035 892.632 544.839 892.201 544.644 891.769 544.506 891.261 544.424 890.675 544.343 890.089 544.302 889.446 544.302 888.746 544.302 887.818 544.359 886.825 544.473 885.768 544.587 884.71 544.734 883.643 544.913 882.569L545.938 875.807C546.003 875.416 546.056 875.046 546.097 874.696 546.137 874.346 546.158 874.089 546.158 873.927 546.158 873.422 546.076 873.007 545.914 872.682 545.751 872.356 545.474 872.193 545.083 872.193 544.774 872.193 544.441 872.287 544.082 872.474 543.724 872.661 543.362 872.901 542.996 873.194 542.63 873.487 542.276 873.801 541.934 874.134 541.592 874.468 541.275 874.781 540.982 875.074L539.81 873.707C540.315 873.186 540.852 872.669 541.421 872.157 541.991 871.644 542.593 871.18 543.228 870.765 543.863 870.35 544.53 870.016 545.23 869.764 545.93 869.512 546.646 869.386 547.378 869.386 547.997 869.386 548.501 869.487 548.892 869.691 549.283 869.894 549.588 870.163 549.808 870.497 550.027 870.83 550.178 871.196 550.259 871.595 550.341 871.994 550.381 872.389 550.381 872.779 550.381 873.007 550.373 873.227 550.357 873.438 550.341 873.65 550.316 873.845 550.284 874.024L548.916 882.862C548.77 883.79 548.648 884.697 548.55 885.584 548.453 886.471 548.404 887.257 548.404 887.94 548.404 888.624 548.444 889.177 548.526 889.601 548.607 890.024 548.762 890.235 548.99 890.235 549.527 890.235 550.202 890.02 551.016 889.588 551.83 889.157 552.684 888.563 553.58 887.806 554.475 887.049 555.37 886.154 556.265 885.121 557.16 884.087 557.966 882.968 558.682 881.764 559.398 880.559 559.98 879.29 560.428 877.955 560.875 876.62 561.099 875.278 561.099 873.927 561.099 873.341 560.973 872.889 560.721 872.572 560.468 872.254 560.074 872.096 559.537 872.096 558.853 872.096 558.222 872.36 557.644 872.889 557.067 873.418 556.469 874.114 555.85 874.977L554.458 873.731C554.849 873.145 555.309 872.584 555.838 872.047 556.367 871.51 556.928 871.038 557.522 870.631 558.116 870.224 558.731 869.898 559.366 869.654 560 869.41 560.619 869.288 561.221 869.288Z" fill-rule="evenodd"/><text fill="#000000" fill-opacity="0" font-family="Arial,Arial_MSFontService,sans-serif" font-size="24.2676" x="539.81" y="890.522">ğ‘£</text></g></svg>