<svg width="2542" height="1154" xmlns="http://www.w3.org/2000/svg" xmlns:xlink="http://www.w3.org/1999/xlink" xml:space="preserve" overflow="hidden"><g><rect x="0" y="0" width="2542" height="1154" fill="#FFFFFF"/><path d="M101.984 498.653C126.603 494.25 152.57 524.281 159.983 565.73 167.396 607.179 153.448 644.349 128.83 648.752 104.211 653.156 78.2443 623.124 70.8311 581.675 63.4179 540.226 77.3657 503.056 101.984 498.653L1756.14 202.805C1780.76 198.402 1806.72 228.434 1814.14 269.883 1821.55 311.331 1807.6 348.502 1782.98 352.905L128.829 648.751" stroke="#FF0000" stroke-width="6.875" stroke-linejoin="round" stroke-miterlimit="10" fill="none" fill-rule="evenodd"/><path d="M0.603181-3.38417 1385.16 243.395 1383.96 250.163-0.603181 3.38417ZM1384.07 223.413 1407.12 250.8 1376.03 268.536Z" fill="#FF0000" transform="matrix(1 0 0 -1 942.5 425.3)"/><path d="M945.907 425.045 1016.79 955.733 1009.98 956.644 939.093 425.955ZM1035.49 948.611 1016.42 978.903 990.064 954.679Z" fill="#FF0000"/><path d="M943.321 422.162 1668.19 600.53 1666.54 607.206 941.679 428.838ZM1668.39 580.521 1689.62 609.344 1657.44 625.026Z" fill="#FF0000"/><path d="M2009.29 206.808 2015.22 196.516 2021.57 186.93 2028.19 178.253 2035.03 170.505 2042.06 163.712 2049.21 157.896 2056.46 153.085 2063.76 149.306 2071.07 146.594 2078.34 144.991C2078.52 144.953 2078.69 144.929 2078.87 144.919L2085.52 144.542C2085.72 144.531 2085.92 144.537 2086.11 144.559L2092.55 145.3C2092.76 145.323 2092.96 145.366 2093.16 145.426L2099.34 147.305C2099.54 147.366 2099.73 147.446 2099.92 147.543L2105.78 150.584C2105.96 150.677 2106.14 150.786 2106.3 150.91L2111.79 155.136C2111.94 155.251 2112.08 155.377 2112.21 155.514L2117.29 160.948C2117.41 161.07 2117.51 161.199 2117.61 161.337L2122.11 167.83 2126.14 175.561 2129.42 184.044 2131.96 193.192 2133.78 202.927 2134.9 213.17 2135.33 223.845 2135.08 234.876 2134.16 246.186 2132.56 257.696 2130.31 269.329 2127.39 281.008 2123.82 292.652 2118.79 305.432 2112.4 302.907 2117.25 290.635 2120.72 279.34 2123.56 268.018 2125.75 256.75 2127.3 245.621 2128.21 234.715 2128.46 224.117 2128.07 213.912 2127.02 204.184 2125.33 195.021 2123 186.507 2120.04 178.723 2116.45 171.747 2111.95 165.253 2112.27 165.643 2107.19 160.209 2107.6 160.587 2102.11 156.361 2102.62 156.687 2096.75 153.645 2097.34 153.883 2091.16 152.003 2091.77 152.13 2085.33 151.389 2085.91 151.406 2079.26 151.783 2079.79 151.711 2073.44 153.048 2066.91 155.419 2060.25 158.82 2053.54 163.238 2046.83 168.659 2040.18 175.062 2033.65 182.426 2027.3 190.729 2021.18 199.948 2015.25 210.24ZM2130.01 305.655 2106.16 325.053 2104.95 294.331Z" fill="#FF0000"/><path d="M1009.38 739.36 1020.05 744.668 1030.05 750.466 1039.17 756.617 1047.37 763.073 1054.63 769.788 1060.92 776.717 1066.22 783.817 1070.49 791.046 1073.7 798.361 1075.8 805.717C1075.85 805.885 1075.88 806.055 1075.9 806.227L1076.74 813.065C1076.77 813.253 1076.77 813.442 1076.76 813.631L1076.48 820.34C1076.47 820.54 1076.44 820.738 1076.4 820.934L1074.96 827.461C1074.92 827.659 1074.86 827.853 1074.78 828.041L1072.16 834.335C1072.08 834.518 1071.99 834.694 1071.88 834.86L1068.06 840.871C1067.96 841.027 1067.85 841.174 1067.72 841.312L1062.66 846.987C1062.55 847.111 1062.43 847.228 1062.31 847.335L1056.14 852.501 1048.71 857.281 1040.47 861.339 1031.51 864.689 1021.92 867.343 1011.76 869.308 1001.13 870.593 990.096 871.199 978.736 871.129 967.13 870.383 955.356 868.96 943.493 866.86 931.62 864.081 916.518 859.234 918.624 852.689 933.189 857.388 944.694 860.091 956.183 862.135 967.574 863.522 978.782 864.254 989.723 864.334 1000.31 863.767 1010.46 862.557 1020.09 860.714 1029.12 858.245 1037.45 855.165 1045.01 851.488 1051.73 847.232 1057.89 842.065 1057.53 842.413 1062.59 836.738 1062.26 837.179 1066.08 831.168 1065.81 831.693 1068.43 825.399 1068.25 825.979 1069.69 819.452 1069.61 820.046 1069.9 813.338 1069.92 813.904 1069.08 807.066 1069.18 807.576 1067.39 801.1 1064.57 794.529 1060.71 787.919 1055.83 781.333 1049.96 774.83 1043.11 768.471 1035.32 762.313 1026.6 756.412 1016.99 750.824 1006.32 745.515ZM916.83 870.436 896.23 847.612 926.849 844.826Z" fill="#FF0000"/><path d="M0.568842 80.8989 3.2327 69.2941 6.52881 58.2255 10.3754 47.9359 14.7324 38.4616 19.561 29.8392 24.824 22.106 30.486 15.3004 36.5134 9.46371 42.874 4.64116 49.5345 0.884345C49.6859 0.799784 49.8437 0.72669 50.0061 0.665919L56.4561-1.74767C56.6333-1.81397 56.8155-1.86549 57.0012-1.90179L63.5888-3.18993C63.7849-3.22828 63.9843-3.24947 64.1841-3.25321L70.8655-3.37838C71.0686-3.38219 71.2715-3.36799 71.4721-3.33594L78.2035-2.26063C78.3988-2.22943 78.5905-2.18159 78.7775-2.11737L85.5151 0.195941C85.6896 0.255855 85.8593 0.329867 86.0219 0.416984L92.7217 4.0058C92.8682 4.08428 93.0093 4.17359 93.1429 4.27245L99.6073 9.0546 105.992 15.1565 111.864 22.2123 117.216 30.1325 122.041 38.8343 126.327 48.2385 130.063 58.268 133.234 68.8465 135.823 79.8981 137.814 91.3468 139.186 103.116 139.92 115.131 139.996 127.314 138.818 143.094 131.963 142.578 133.121 127.353 133.058 115.547 132.357 103.909 131.04 92.5209 129.129 81.4627 126.647 70.8162 123.618 60.6627 120.068 51.0835 116.023 42.1598 111.513 33.9717 106.569 26.5974 101.226 20.1114 95.5186 14.5816 89.0542 9.79946 89.4754 10.0661 82.7756 6.4773 83.2825 6.69834 76.545 4.38503 77.119 4.52829 70.3876 3.45298 70.9943 3.49541 64.3129 3.62058 64.9081 3.55729 58.3205 4.84543 58.8656 4.6913 52.4155 7.10488 52.8871 6.88645 47.0103 10.1327 41.2842 14.414 35.7631 19.707 30.5022 25.982 25.5558 33.205 20.976 41.3396 16.8134 50.348 13.1166 60.1918 9.93342 70.8322 7.26957 82.4371ZM149.637 140.17 132.266 165.539 122.393 136.421Z" fill="#FF0000" transform="matrix(-0.974272 -0.225376 -0.225376 0.974272 1638.64 533.716)"/><path d="M0.602952-3.38421 946.294 165.106 945.089 171.875-0.602952 3.38421ZM945.199 145.125 968.253 172.51 937.16 190.248Z" fill="#FF0000" transform="matrix(1 0 0 -1 942.5 425.01)"/><path d="M943.321 422.162 1237.83 494.611 1236.19 501.287 941.679 428.838ZM1238.03 474.601 1259.26 503.424 1227.09 519.108Z" fill="#FF0000"/><path d="M946.907 425.046 972.789 619.065 965.974 619.974 940.093 425.955ZM991.491 611.946 972.412 642.235 946.06 618.006Z" fill="#FF0000"/><path d="M808.538 624.068 833.943 624.068 832.037 632.715 828.599 632.715C828.51 631.014 828.348 629.824 828.116 629.143 827.883 628.463 827.525 627.971 827.041 627.666 826.558 627.362 825.878 627.21 825 627.21L818.931 627.21 815.977 640.638 819.576 640.638C820.632 640.638 821.487 640.297 822.14 639.617 822.794 638.937 823.452 637.836 824.114 636.314L827.068 636.314 824.248 648.291 821.482 648.291C821.482 647.038 821.415 646.107 821.281 645.498 821.147 644.89 820.909 644.451 820.569 644.183 820.229 643.914 819.701 643.78 818.985 643.78L815.306 643.78 813.157 653.475C813.032 654.047 812.942 654.544 812.889 654.965 812.835 655.386 812.808 655.936 812.808 656.617 812.808 657.44 813.018 658.022 813.439 658.362 813.86 658.702 814.518 658.899 815.413 658.953L815.037 660.726 801.153 660.726 801.529 658.953C802.549 658.667 803.301 658.165 803.785 657.449 804.268 656.733 804.725 655.408 805.154 653.475L810.042 631.319C810.275 630.262 810.391 629.215 810.391 628.177 810.391 627.425 810.216 626.874 809.867 626.525 809.518 626.176 808.95 625.948 808.162 625.84Z" fill="#FF0000" fill-rule="evenodd"/><text fill="#000000" fill-opacity="0" font-family="Arial,Arial_MSFontService,sans-serif" font-size="36.6577" x="801.153" y="656.143">𝑭</text><path d="M839.363 652.58 854.245 652.58 854.929 653.869 846.101 664.982C844.656 666.805 843.321 668.38 842.097 669.709L842.234 669.884 845.925 669.884C846.55 669.884 847.087 669.774 847.536 669.552 847.986 669.331 848.425 668.927 848.855 668.341 849.284 667.755 849.734 666.929 850.202 665.861L852.273 665.861 850.964 671.955 835.925 671.955 835.242 670.666 843.894 659.767C845.326 657.957 846.719 656.31 848.074 654.826L847.937 654.65 844.265 654.65C843.77 654.65 843.321 654.748 842.917 654.943 842.514 655.138 842.113 655.474 841.716 655.949 841.319 656.424 840.821 657.215 840.222 658.322L838.132 658.322Z" fill="#FF0000" fill-rule="evenodd"/><text fill="#000000" fill-opacity="0" font-family="Arial,Arial_MSFontService,sans-serif" font-size="19.375" x="835.242" y="669.533">𝒛</text><path d="M861.383 654.495 866.083 654.495C866.333 655.748 866.459 656.984 866.459 658.201 866.459 659.454 866.244 660.6 865.814 661.639 865.385 662.677 864.7 663.711 863.76 664.74 862.82 665.77 861.526 666.902 859.879 668.138L858.429 666.499C859.342 665.64 860.005 664.866 860.416 664.176 860.828 663.487 861.124 662.704 861.303 661.827 861.482 660.949 861.571 659.848 861.571 658.523 861.571 657.163 861.508 655.82 861.383 654.495Z" fill="#FF0000" fill-rule="evenodd"/><text fill="#000000" fill-opacity="0" font-family="Arial,Arial_MSFontService,sans-serif" font-size="13.6426" x="858.429" y="666.432">,</text><path d="M880.106 634.085 889.479 634.085 890.956 653.582C893.641 649.428 895.517 646.121 896.582 643.659 897.647 641.197 898.314 638.597 898.583 635.857L898.959 634.085 905.001 634.085 906.666 653.609C909.262 649.688 911.147 646.501 912.319 644.048 913.492 641.595 914.078 639.572 914.078 637.979 914.078 637.299 913.917 636.784 913.595 636.435 913.273 636.086 912.709 635.893 911.903 635.857L912.279 634.085 919.852 634.085 920.792 635.857C919.951 638.274 918.111 641.797 915.273 646.425 912.436 651.053 909.065 655.954 905.162 661.128L900.624 661.128 899.791 653.179C899.558 651.031 899.406 649.41 899.335 648.318 899.263 647.226 899.227 646.358 899.227 645.713L898.959 645.713C896.721 650.368 893.579 655.507 889.532 661.128L884.645 661.128 882.523 640.477C882.398 639.223 882.241 638.297 882.053 637.697 881.865 637.097 881.597 636.654 881.247 636.368 880.898 636.081 880.384 635.911 879.703 635.857Z" fill="#FF0000" fill-rule="evenodd"/><text fill="#000000" fill-opacity="0" font-family="Arial,Arial_MSFontService,sans-serif" font-size="27.0435" x="879.703" y="657.748">𝒘</text><path d="M1150.62 547.601 1176.02 547.601 1174.12 556.249 1170.68 556.249C1170.59 554.548 1170.43 553.357 1170.19 552.677 1169.96 551.997 1169.6 551.504 1169.12 551.2 1168.64 550.895 1167.96 550.743 1167.08 550.743L1161.01 550.743 1158.06 564.171 1161.65 564.171C1162.71 564.171 1163.57 563.831 1164.22 563.151 1164.87 562.47 1165.53 561.369 1166.19 559.847L1169.15 559.847 1166.33 571.825 1163.56 571.825C1163.56 570.572 1163.49 569.641 1163.36 569.032 1163.23 568.423 1162.99 567.984 1162.65 567.716 1162.31 567.447 1161.78 567.313 1161.06 567.313L1157.38 567.313 1155.24 577.008C1155.11 577.581 1155.02 578.078 1154.97 578.498 1154.91 578.919 1154.89 579.47 1154.89 580.15 1154.89 580.974 1155.1 581.555 1155.52 581.896 1155.94 582.236 1156.6 582.433 1157.49 582.486L1157.12 584.259 1143.23 584.259 1143.61 582.486C1144.63 582.2 1145.38 581.699 1145.86 580.983 1146.35 580.266 1146.8 578.942 1147.23 577.008L1152.12 554.852C1152.35 553.796 1152.47 552.748 1152.47 551.71 1152.47 550.958 1152.3 550.408 1151.95 550.058 1151.6 549.709 1151.03 549.481 1150.24 549.374Z" fill="#FF0000" fill-rule="evenodd"/><text fill="#000000" fill-opacity="0" font-family="Arial,Arial_MSFontService,sans-serif" font-size="36.6577" x="1143.23" y="579.677">𝑭</text><path d="M1184.31 575.801C1185.32 575.801 1186.13 575.947 1186.74 576.24 1187.36 576.533 1187.85 576.937 1188.22 577.451 1188.58 577.965 1188.88 578.62 1189.1 579.414 1189.28 580.039 1189.49 581.139 1189.74 582.715 1190.15 585.28 1190.49 587.799 1190.78 590.273 1192.22 588.203 1193.33 586.185 1194.11 584.219 1194.88 582.252 1195.27 580.495 1195.27 578.945 1195.27 578.45 1195.15 578.076 1194.92 577.822 1194.68 577.568 1194.27 577.428 1193.69 577.402L1193.96 576.113 1199.47 576.113 1200.15 577.402C1199.89 578.301 1199.49 579.388 1198.94 580.664 1198.13 582.539 1197.05 584.642 1195.68 586.972 1194.44 589.069 1193.1 591.165 1191.64 593.262 1189.93 595.709 1188.45 597.685 1187.18 599.189 1185.92 600.693 1184.83 601.803 1183.9 602.519 1183.17 603.066 1182.48 603.454 1181.81 603.681 1181.15 603.909 1180.45 604.023 1179.7 604.023 1178.74 604.023 1177.83 603.88 1176.97 603.594L1177.95 599.18 1180 599.18C1180.01 599.726 1180.09 600.13 1180.24 600.39 1180.39 600.651 1180.66 600.781 1181.05 600.781 1181.36 600.781 1181.66 600.726 1181.93 600.615 1182.2 600.504 1182.55 600.286 1182.97 599.961 1183.38 599.635 1183.91 599.105 1184.54 598.369 1185.17 597.633 1185.88 596.745 1186.68 595.703 1186.42 594.114 1186.08 592.243 1185.67 590.088 1185.26 587.933 1184.86 585.973 1184.47 584.209 1184.08 582.444 1183.79 581.25 1183.61 580.625 1183.43 580 1183.25 579.554 1183.08 579.287 1182.91 579.02 1182.76 578.844 1182.61 578.76 1182.47 578.675 1182.32 578.633 1182.16 578.633 1181.84 578.633 1181.54 578.766 1181.27 579.033 1180.99 579.3 1180.63 579.863 1180.19 580.722L1178.41 579.902C1179.17 578.535 1180.03 577.51 1180.99 576.826 1181.96 576.142 1183.06 575.801 1184.31 575.801Z" fill="#FF0000" fill-rule="evenodd"/><text fill="#000000" fill-opacity="0" font-family="Arial,Arial_MSFontService,sans-serif" font-size="28.2227" x="1176.97" y="600.495">𝒚</text><path d="M1206.72 578.028 1211.42 578.028C1211.67 579.282 1211.79 580.517 1211.79 581.734 1211.79 582.988 1211.58 584.134 1211.15 585.172 1210.72 586.21 1210.03 587.244 1209.09 588.274 1208.15 589.303 1206.86 590.436 1205.21 591.671L1203.76 590.033C1204.68 589.173 1205.34 588.399 1205.75 587.71 1206.16 587.021 1206.46 586.237 1206.64 585.36 1206.81 584.483 1206.9 583.382 1206.9 582.057 1206.9 580.696 1206.84 579.353 1206.72 578.028Z" fill="#FF0000" fill-rule="evenodd"/><text fill="#000000" fill-opacity="0" font-family="Arial,Arial_MSFontService,sans-serif" font-size="13.6426" x="1203.76" y="589.966">,</text><path d="M1233.79 557.189C1235.55 557.189 1236.9 557.672 1237.86 558.639 1238.82 559.606 1239.3 560.823 1239.3 562.291 1239.3 563.186 1239.2 564.117 1239 565.084L1237.26 573.275C1237.09 574.224 1236.96 575.146 1236.85 576.041 1236.75 576.936 1236.69 577.733 1236.69 578.431 1236.69 579.112 1236.74 579.667 1236.83 580.096 1236.92 580.526 1237.03 580.741 1237.18 580.741 1237.68 580.741 1238.33 580.508 1239.12 580.043 1239.92 579.577 1240.78 578.933 1241.7 578.109 1242.62 577.285 1243.54 576.319 1244.47 575.209 1245.39 574.099 1246.22 572.899 1246.96 571.61 1247.71 570.321 1248.31 568.956 1248.76 567.515 1249.22 566.073 1249.45 564.619 1249.45 563.151 1249.45 562.434 1249.31 561.879 1249.03 561.485 1248.75 561.092 1248.32 560.895 1247.73 560.895 1247.07 560.895 1246.45 561.141 1245.89 561.633 1245.33 562.126 1244.75 562.784 1244.16 563.607L1242.28 562.103C1243.41 560.546 1244.66 559.337 1246.05 558.478 1247.44 557.618 1248.98 557.189 1250.68 557.189 1252.37 557.189 1253.56 557.623 1254.26 558.491 1254.95 559.359 1255.3 560.519 1255.3 561.969 1255.3 562.81 1255.14 563.782 1254.82 564.883 1254.5 565.984 1254.03 567.143 1253.42 568.36 1252.81 569.578 1252.1 570.831 1251.27 572.12 1250.45 573.409 1249.54 574.658 1248.53 575.867 1247.53 577.075 1246.46 578.216 1245.33 579.291 1244.19 580.365 1243.01 581.3 1241.78 582.097 1240.55 582.894 1239.31 583.525 1238.05 583.99 1236.79 584.456 1235.52 584.689 1234.25 584.689 1233.3 584.689 1232.52 584.559 1231.91 584.299 1231.3 584.04 1230.86 583.673 1230.58 583.198 1230.3 582.724 1230.12 582.169 1230.03 581.533 1229.94 580.898 1229.9 580.204 1229.9 579.452 1229.9 578.413 1229.96 577.317 1230.09 576.162 1230.21 575.007 1230.37 573.848 1230.57 572.684L1232.21 565.084C1232.31 564.619 1232.4 564.193 1232.48 563.808 1232.55 563.424 1232.58 563.115 1232.58 562.882 1232.58 562.345 1232.47 561.92 1232.25 561.606 1232.02 561.293 1231.56 561.136 1230.86 561.136 1229.75 561.136 1228.17 562.076 1226.11 563.956L1224.45 562.076C1225.29 561.02 1226.54 559.941 1228.22 558.84 1229.89 557.739 1231.75 557.189 1233.79 557.189Z" fill="#FF0000" fill-rule="evenodd"/><text fill="#000000" fill-opacity="0" font-family="Arial,Arial_MSFontService,sans-serif" font-size="27.5" x="1224.45" y="581.251">𝒗</text><path d="M1836.19 159.332 1861.6 159.332 1859.69 167.979 1856.25 167.979C1856.16 166.278 1856 165.088 1855.77 164.407 1855.54 163.727 1855.18 163.235 1854.7 162.93 1854.21 162.626 1853.53 162.474 1852.65 162.474L1846.59 162.474 1843.63 175.901 1847.23 175.901C1848.29 175.901 1849.14 175.561 1849.79 174.881 1850.45 174.201 1851.11 173.099 1851.77 171.578L1854.72 171.578 1851.9 183.555 1849.14 183.555C1849.14 182.302 1849.07 181.371 1848.93 180.762 1848.8 180.154 1848.56 179.715 1848.22 179.446 1847.88 179.178 1847.35 179.043 1846.64 179.043L1842.96 179.043 1840.81 188.738C1840.69 189.311 1840.6 189.808 1840.54 190.229 1840.49 190.65 1840.46 191.2 1840.46 191.88 1840.46 192.704 1840.67 193.286 1841.09 193.626 1841.51 193.966 1842.17 194.163 1843.07 194.217L1842.69 195.989 1828.81 195.989 1829.18 194.217C1830.2 193.93 1830.96 193.429 1831.44 192.713 1831.92 191.997 1832.38 190.672 1832.81 188.738L1837.7 166.583C1837.93 165.526 1838.05 164.479 1838.05 163.44 1838.05 162.688 1837.87 162.138 1837.52 161.789 1837.17 161.44 1836.6 161.211 1835.82 161.104Z" fill="#FF0000" fill-rule="evenodd"/><text fill="#000000" fill-opacity="0" font-family="Arial,Arial_MSFontService,sans-serif" font-size="36.6577" x="1828.81" y="191.407">𝑭</text><path d="M1871.41 187.531C1872.45 187.531 1873.25 187.687 1873.79 188 1874.34 188.312 1874.79 188.856 1875.14 189.631 1875.49 190.405 1875.83 191.646 1876.14 193.351L1876.33 193.351C1877.3 191.997 1878.05 190.978 1878.58 190.295 1879.11 189.611 1879.61 189.064 1880.06 188.654 1880.52 188.244 1880.96 187.954 1881.39 187.785 1881.82 187.616 1882.33 187.531 1882.92 187.531 1883.57 187.531 1884.22 187.648 1884.89 187.883L1883.97 192.101 1882.21 192.101C1882.15 191.554 1881.91 191.281 1881.49 191.281 1881.31 191.281 1881.11 191.327 1880.91 191.418 1880.71 191.509 1880.44 191.714 1880.11 192.033 1879.78 192.352 1879.37 192.814 1878.87 193.42 1878.38 194.025 1877.64 194.946 1876.65 196.183 1877.1 198.931 1877.48 200.9 1877.77 202.091 1878.06 203.283 1878.36 204.054 1878.68 204.406 1878.86 204.601 1879.08 204.699 1879.34 204.699 1879.67 204.699 1879.97 204.572 1880.25 204.318 1880.53 204.064 1880.89 203.494 1881.33 202.609L1883.11 203.429C1882.36 204.81 1881.5 205.838 1880.54 206.515 1879.58 207.192 1878.46 207.531 1877.17 207.531 1876.38 207.531 1875.74 207.43 1875.27 207.228 1874.79 207.026 1874.39 206.691 1874.06 206.222 1873.73 205.754 1873.43 205.093 1873.18 204.24 1872.92 203.387 1872.69 202.271 1872.47 200.89L1872.27 200.89C1871.16 202.479 1870.28 203.69 1869.61 204.523 1868.95 205.356 1868.38 205.981 1867.91 206.398 1867.43 206.815 1866.97 207.108 1866.54 207.277 1866.1 207.446 1865.58 207.531 1864.97 207.531 1864.68 207.531 1864.33 207.495 1863.92 207.424 1863.51 207.352 1863.2 207.277 1862.99 207.199L1863.91 202.961 1865.67 202.961C1865.68 203.234 1865.75 203.439 1865.87 203.576 1866 203.713 1866.16 203.781 1866.35 203.781 1866.59 203.781 1866.81 203.732 1867.01 203.634 1867.21 203.537 1867.49 203.319 1867.85 202.98 1868.2 202.642 1868.66 202.144 1869.2 201.486 1869.75 200.828 1870.68 199.673 1871.98 198.019 1871.7 196.483 1871.45 195.158 1871.21 194.045 1870.97 192.931 1870.75 192.124 1870.55 191.623 1870.36 191.121 1870.17 190.786 1870 190.617 1869.82 190.448 1869.62 190.363 1869.4 190.363 1869.14 190.363 1868.91 190.431 1868.72 190.568 1868.52 190.705 1868.32 190.926 1868.1 191.232 1867.89 191.538 1867.65 191.945 1867.41 192.453L1865.63 191.633C1866.39 190.252 1867.23 189.224 1868.18 188.547 1869.12 187.869 1870.2 187.531 1871.41 187.531Z" fill="#FF0000" fill-rule="evenodd"/><text fill="#000000" fill-opacity="0" font-family="Arial,Arial_MSFontService,sans-serif" font-size="20" x="1862.99" y="205.031">𝒙</text><path d="M1891.44 189.759 1896.14 189.759C1896.39 191.012 1896.52 192.247 1896.52 193.465 1896.52 194.718 1896.3 195.864 1895.87 196.902 1895.44 197.941 1894.76 198.975 1893.82 200.004 1892.88 201.034 1891.59 202.166 1889.94 203.401L1888.49 201.763C1889.4 200.904 1890.06 200.129 1890.48 199.44 1890.89 198.751 1891.18 197.968 1891.36 197.09 1891.54 196.213 1891.63 195.112 1891.63 193.787 1891.63 192.426 1891.57 191.084 1891.44 189.759Z" fill="#FF0000" fill-rule="evenodd"/><text fill="#000000" fill-opacity="0" font-family="Arial,Arial_MSFontService,sans-serif" font-size="13.6426" x="1888.49" y="201.696">,</text><path d="M1918.22 168.919C1920.1 168.919 1921.49 169.393 1922.37 170.342 1923.26 171.291 1923.7 172.67 1923.7 174.478 1923.7 175.749 1923.44 177.405 1922.92 179.446L1921.74 183.958C1921.01 186.769 1920.64 188.819 1920.64 190.108 1920.64 191.701 1921.27 192.498 1922.52 192.498 1923.09 192.498 1923.71 192.283 1924.37 191.854 1925.04 191.424 1925.77 190.766 1926.59 189.88 1927.4 188.993 1928.07 188.013 1928.59 186.939 1929.11 185.865 1929.53 184.594 1929.85 183.126L1932.86 169.349 1940.54 169.349 1936.16 187.959C1935.95 188.873 1935.84 189.777 1935.84 190.672 1935.84 191.263 1935.94 191.719 1936.14 192.042 1936.33 192.364 1936.67 192.525 1937.16 192.525 1937.71 192.525 1938.31 192.274 1938.96 191.773 1939.6 191.272 1940.35 190.529 1941.21 189.544L1943.14 191.478C1941.26 193.357 1939.64 194.651 1938.28 195.358 1936.92 196.065 1935.49 196.419 1933.99 196.419 1932.48 196.419 1931.29 196.003 1930.42 195.17 1929.54 194.338 1929.1 193.241 1929.1 191.88 1929.1 191.433 1929.15 191.003 1929.26 190.591L1928.99 190.376C1927.33 192.435 1925.73 193.957 1924.2 194.942 1922.67 195.927 1920.9 196.419 1918.89 196.419 1917.07 196.419 1915.64 195.9 1914.61 194.861 1913.58 193.823 1913.07 192.409 1913.07 190.618 1913.07 190.045 1913.12 189.329 1913.24 188.47 1913.36 187.61 1913.5 186.849 1913.66 186.187L1915.78 177.808C1916.08 176.609 1916.24 175.561 1916.24 174.666 1916.24 173.968 1916.12 173.484 1915.89 173.216 1915.65 172.947 1915.32 172.813 1914.89 172.813 1914.37 172.813 1913.8 173.059 1913.16 173.552 1912.53 174.044 1911.76 174.791 1910.86 175.794L1908.93 173.86C1910.78 172.016 1912.38 170.732 1913.74 170.007 1915.1 169.282 1916.59 168.919 1918.22 168.919Z" fill="#FF0000" fill-rule="evenodd"/><text fill="#000000" fill-opacity="0" font-family="Arial,Arial_MSFontService,sans-serif" font-size="27.5" x="1908.93" y="192.981">𝒖</text><path d="M2073.38 81.2864 2086.88 81.2864 2086.51 83.0589C2085.49 83.3453 2084.73 83.8466 2084.25 84.5628 2083.77 85.2789 2083.31 86.6038 2082.88 88.5374L2077.08 114.748 2082.16 114.748C2083.03 114.748 2083.71 114.677 2084.2 114.533 2084.68 114.39 2085.12 114.166 2085.51 113.862 2085.91 113.558 2086.34 113.137 2086.82 112.6 2087.29 112.063 2087.76 111.365 2088.23 110.505 2088.69 109.646 2089.17 108.572 2089.65 107.283L2093.3 107.283 2090.56 117.944 2065.99 117.944 2066.37 116.172C2067.39 115.885 2068.14 115.384 2068.62 114.668 2069.1 113.952 2069.56 112.627 2069.99 110.693L2074.88 88.5374C2075.11 87.4811 2075.23 86.4337 2075.23 85.3953 2075.23 84.6434 2075.05 84.0928 2074.7 83.7437 2074.36 83.3946 2073.79 83.1663 2073 83.0589Z" fill="#FF0000" fill-rule="evenodd"/><text fill="#000000" fill-opacity="0" font-family="Arial,Arial_MSFontService,sans-serif" font-size="36.6577" x="2065.99" y="113.362">𝑳</text><path d="M2099.18 111.714 2103.88 111.714C2104.13 112.967 2104.25 114.202 2104.25 115.42 2104.25 116.673 2104.04 117.819 2103.61 118.857 2103.18 119.896 2102.5 120.93 2101.56 121.959 2100.62 122.988 2099.32 124.121 2097.67 125.356L2096.22 123.718C2097.14 122.859 2097.8 122.084 2098.21 121.395 2098.62 120.706 2098.92 119.922 2099.1 119.045 2099.28 118.168 2099.37 117.067 2099.37 115.742 2099.37 114.381 2099.3 113.039 2099.18 111.714Z" fill="#FF0000" fill-rule="evenodd"/><text fill="#000000" fill-opacity="0" font-family="Arial,Arial_MSFontService,sans-serif" font-size="13.6426" x="2096.22" y="123.651">,</text><path d="M2137.67 94.8216C2136.49 94.8216 2135.28 95.399 2134.05 96.5538 2132.83 97.7085 2131.85 99.0468 2131.11 100.569 2130.38 102.09 2129.71 104.239 2129.1 107.014L2128.89 108.008C2128.6 109.332 2128.46 110.631 2128.46 111.902 2128.46 113.209 2128.67 114.149 2129.11 114.721 2129.55 115.294 2130.29 115.581 2131.33 115.581 2132.22 115.581 2133.04 115.379 2133.77 114.977 2134.51 114.574 2135.2 113.916 2135.85 113.003 2136.51 112.09 2137.14 110.912 2137.76 109.471 2138.38 108.03 2138.91 106.307 2139.36 104.302 2139.81 102.296 2140.03 100.434 2140.03 98.7156 2140.03 97.3908 2139.84 96.4105 2139.45 95.7749 2139.07 95.1394 2138.47 94.8216 2137.67 94.8216ZM2125.82 90.8738C2127.31 90.8738 2128.5 91.2901 2129.38 92.1226 2130.27 92.9551 2130.71 94.0517 2130.71 95.4124 2130.71 95.86 2130.66 96.2897 2130.55 96.7015L2130.82 96.9163C2132.47 94.8216 2134.06 93.2908 2135.6 92.324 2137.14 91.3572 2138.92 90.8738 2140.94 90.8738 2142.97 90.8738 2144.54 91.6079 2145.66 93.076 2146.78 94.5441 2147.33 96.6657 2147.33 99.4407 2147.33 101.858 2146.99 104.257 2146.29 106.638 2145.59 109.019 2144.59 111.074 2143.28 112.801 2141.97 114.529 2140.33 115.89 2138.35 116.883 2136.37 117.877 2134.14 118.374 2131.65 118.374 2130.06 118.374 2128.52 118.096 2127.03 117.541L2126.01 122.322C2125.85 123.109 2125.73 123.723 2125.66 124.161 2125.59 124.6 2125.56 125.007 2125.56 125.383 2125.56 126.153 2125.76 126.708 2126.16 127.048 2126.56 127.388 2127.26 127.612 2128.24 127.72L2127.95 129.492 2116.77 129.492 2123.57 99.2796C2123.84 98.08 2123.97 97.1938 2123.97 96.6209 2123.97 96.0301 2123.87 95.5735 2123.68 95.2513 2123.48 94.929 2123.14 94.7679 2122.65 94.7679 2122.1 94.7679 2121.5 95.0185 2120.86 95.5198 2120.21 96.0211 2119.46 96.7641 2118.6 97.7488L2116.67 95.8152C2118.46 93.9891 2120.05 92.709 2121.43 91.9749 2122.82 91.2409 2124.28 90.8738 2125.82 90.8738Z" fill="#FF0000" fill-rule="evenodd"/><text fill="#000000" fill-opacity="0" font-family="Arial,Arial_MSFontService,sans-serif" font-size="38.6182" x="2116.67" y="124.665">𝒑</text><path d="M2357.14 111.397C2358.57 111.397 2359.66 111.612 2360.41 112.042 2361.17 112.471 2361.78 113.219 2362.27 114.284 2362.75 115.349 2363.21 117.055 2363.64 119.4L2363.91 119.4C2365.23 117.538 2366.26 116.137 2366.99 115.197 2367.73 114.257 2368.41 113.505 2369.03 112.941 2369.66 112.377 2370.27 111.979 2370.86 111.746 2371.45 111.513 2372.15 111.397 2372.96 111.397 2373.85 111.397 2374.75 111.558 2375.67 111.88L2374.41 117.681 2371.99 117.681C2371.9 116.929 2371.57 116.553 2371 116.553 2370.74 116.553 2370.48 116.616 2370.2 116.741 2369.93 116.867 2369.56 117.149 2369.1 117.587 2368.65 118.026 2368.08 118.661 2367.4 119.494 2366.72 120.326 2365.7 121.593 2364.33 123.294 2364.96 127.072 2365.48 129.78 2365.88 131.418 2366.28 133.056 2366.7 134.117 2367.13 134.6 2367.38 134.869 2367.68 135.003 2368.04 135.003 2368.49 135.003 2368.9 134.828 2369.29 134.479 2369.67 134.13 2370.17 133.347 2370.78 132.129L2373.22 133.257C2372.19 135.155 2371.01 136.57 2369.69 137.501 2368.38 138.432 2366.83 138.897 2365.06 138.897 2363.97 138.897 2363.1 138.758 2362.44 138.481 2361.79 138.203 2361.23 137.742 2360.78 137.098 2360.32 136.453 2359.92 135.545 2359.57 134.372 2359.22 133.199 2358.89 131.664 2358.59 129.766L2358.32 129.766C2356.8 131.95 2355.58 133.615 2354.67 134.761 2353.75 135.907 2352.97 136.767 2352.32 137.339 2351.66 137.912 2351.04 138.315 2350.44 138.548 2349.84 138.781 2349.12 138.897 2348.28 138.897 2347.88 138.897 2347.4 138.848 2346.84 138.749 2346.27 138.651 2345.85 138.548 2345.56 138.441L2346.83 132.613 2349.24 132.613C2349.26 132.989 2349.35 133.271 2349.52 133.459 2349.69 133.647 2349.91 133.741 2350.18 133.741 2350.5 133.741 2350.8 133.674 2351.08 133.539 2351.36 133.405 2351.74 133.105 2352.24 132.64 2352.73 132.174 2353.35 131.489 2354.1 130.585 2354.85 129.681 2356.13 128.092 2357.92 125.818 2357.54 123.706 2357.19 121.884 2356.86 120.353 2356.52 118.823 2356.22 117.713 2355.96 117.023 2355.69 116.334 2355.43 115.873 2355.19 115.64 2354.95 115.407 2354.68 115.291 2354.37 115.291 2354.01 115.291 2353.7 115.385 2353.43 115.573 2353.16 115.761 2352.88 116.065 2352.59 116.486 2352.29 116.907 2351.97 117.466 2351.63 118.165L2349.19 117.037C2350.23 115.139 2351.4 113.725 2352.69 112.794 2353.99 111.863 2355.47 111.397 2357.14 111.397Z" fill="#FF0000" fill-rule="evenodd"/><text fill="#000000" fill-opacity="0" font-family="Arial,Arial_MSFontService,sans-serif" font-size="27.5" x="2345.56" y="135.46">𝒙</text><path d="M2391.67 132.88C2390.81 132.88 2389.93 133.3 2389.04 134.14 2388.15 134.98 2387.44 135.953 2386.9 137.06 2386.37 138.167 2385.88 139.729 2385.44 141.747L2385.28 142.47C2385.07 143.434 2384.97 144.378 2384.97 145.302 2384.97 146.253 2385.13 146.936 2385.45 147.353 2385.77 147.769 2386.3 147.978 2387.06 147.978 2387.71 147.978 2388.3 147.831 2388.84 147.538 2389.37 147.245 2389.88 146.767 2390.35 146.103 2390.83 145.439 2391.29 144.583 2391.74 143.534 2392.19 142.486 2392.57 141.233 2392.9 139.775 2393.23 138.316 2393.39 136.962 2393.39 135.712 2393.39 134.749 2393.25 134.036 2392.97 133.573 2392.69 133.111 2392.26 132.88 2391.67 132.88ZM2387.72 121.728 2390.01 121.728 2387.02 133.681 2387.27 133.759C2388.41 132.431 2389.47 131.474 2390.47 130.888 2391.46 130.302 2392.65 130.009 2394.03 130.009 2395.52 130.009 2396.67 130.543 2397.48 131.611 2398.29 132.678 2398.7 134.221 2398.7 136.24 2398.7 137.385 2398.56 138.645 2398.29 140.019 2398.02 141.393 2397.63 142.61 2397.14 143.671 2396.64 144.732 2396.05 145.66 2395.36 146.454 2394.67 147.249 2393.9 147.906 2393.05 148.427 2392.19 148.948 2391.27 149.342 2390.28 149.609 2389.29 149.876 2388.23 150.009 2387.1 150.009 2386.24 150.009 2385.42 149.905 2384.64 149.697 2383.86 149.488 2383.05 149.124 2382.22 148.603L2380.4 150.009 2378.27 149.697 2383.21 127.626C2383.49 126.402 2383.62 125.471 2383.62 124.833 2383.62 124.43 2383.56 124.137 2383.44 123.954 2383.31 123.772 2383.15 123.642 2382.94 123.564 2382.73 123.486 2382.31 123.401 2381.67 123.31L2381.98 122.04Z" fill="#FF0000" fill-rule="evenodd"/><text fill="#000000" fill-opacity="0" font-family="Arial,Arial_MSFontService,sans-serif" font-size="28.2812" x="2378.27" y="146.474">𝒃</text><path d="M1697.16 631.049C1698.54 631.049 1699.66 631.25 1700.51 631.653 1701.36 632.056 1702.03 632.611 1702.53 633.318 1703.04 634.025 1703.44 634.925 1703.74 636.017 1703.99 636.876 1704.29 638.389 1704.63 640.555 1705.18 644.082 1705.66 647.547 1706.05 650.948 1708.04 648.102 1709.57 645.327 1710.63 642.623 1711.7 639.92 1712.23 637.503 1712.23 635.372 1712.23 634.692 1712.07 634.177 1711.75 633.828 1711.42 633.479 1710.86 633.286 1710.05 633.251L1710.43 631.478 1718 631.478 1718.94 633.251C1718.58 634.486 1718.03 635.981 1717.28 637.736 1716.17 640.314 1714.67 643.205 1712.79 646.41 1711.09 649.292 1709.24 652.175 1707.23 655.057 1704.89 658.423 1702.85 661.14 1701.11 663.208 1699.37 665.276 1697.87 666.802 1696.6 667.787 1695.6 668.539 1694.64 669.071 1693.73 669.385 1692.81 669.698 1691.85 669.855 1690.82 669.855 1689.5 669.855 1688.25 669.658 1687.06 669.264L1688.41 663.195 1691.23 663.195C1691.25 663.946 1691.36 664.501 1691.56 664.86 1691.77 665.218 1692.14 665.397 1692.68 665.397 1693.11 665.397 1693.51 665.321 1693.89 665.168 1694.26 665.016 1694.74 664.716 1695.31 664.269 1695.88 663.821 1696.6 663.092 1697.47 662.08 1698.34 661.068 1699.32 659.847 1700.41 658.414 1700.05 656.23 1699.59 653.656 1699.03 650.693 1698.47 647.73 1697.91 645.036 1697.38 642.61 1696.84 640.184 1696.45 638.541 1696.2 637.682 1695.95 636.822 1695.7 636.209 1695.47 635.842 1695.24 635.475 1695.02 635.234 1694.83 635.117 1694.63 635.001 1694.42 634.943 1694.21 634.943 1693.76 634.943 1693.35 635.126 1692.97 635.493 1692.6 635.86 1692.1 636.634 1691.5 637.816L1689.05 636.688C1690.09 634.808 1691.27 633.398 1692.6 632.458 1693.92 631.518 1695.44 631.049 1697.16 631.049Z" fill="#FF0000" fill-rule="evenodd"/><text fill="#000000" fill-opacity="0" font-family="Arial,Arial_MSFontService,sans-serif" font-size="38.8062" x="1687.06" y="665.004">𝒚</text><path d="M1734.93 652.532C1734.08 652.532 1733.2 652.951 1732.31 653.791 1731.42 654.631 1730.7 655.604 1730.17 656.711 1729.64 657.818 1729.15 659.38 1728.7 661.399L1728.55 662.121C1728.34 663.085 1728.24 664.029 1728.24 664.953 1728.24 665.904 1728.4 666.588 1728.71 667.004 1729.03 667.421 1729.57 667.629 1730.33 667.629 1730.98 667.629 1731.57 667.483 1732.1 667.19 1732.64 666.897 1733.14 666.418 1733.62 665.754 1734.09 665.09 1734.55 664.234 1735 663.186 1735.45 662.138 1735.84 660.884 1736.17 659.426 1736.49 657.968 1736.65 656.614 1736.65 655.364 1736.65 654.4 1736.51 653.687 1736.23 653.225 1735.95 652.763 1735.52 652.532 1734.93 652.532ZM1730.99 641.379 1733.27 641.379 1730.29 653.332 1730.54 653.41C1731.67 652.082 1732.74 651.125 1733.73 650.539 1734.73 649.953 1735.92 649.66 1737.3 649.66 1738.78 649.66 1739.93 650.194 1740.75 651.262 1741.56 652.33 1741.97 653.873 1741.97 655.891 1741.97 657.037 1741.83 658.297 1741.56 659.67 1741.28 661.044 1740.9 662.261 1740.4 663.323 1739.91 664.384 1739.32 665.312 1738.63 666.106 1737.94 666.9 1737.16 667.558 1736.31 668.078 1735.46 668.599 1734.54 668.993 1733.55 669.26 1732.56 669.527 1731.5 669.66 1730.36 669.66 1729.51 669.66 1728.68 669.556 1727.9 669.348 1727.12 669.14 1726.32 668.775 1725.48 668.254L1723.67 669.66 1721.54 669.348 1726.48 647.278C1726.75 646.054 1726.89 645.123 1726.89 644.485 1726.89 644.081 1726.83 643.788 1726.7 643.606 1726.58 643.423 1726.41 643.293 1726.2 643.215 1726 643.137 1725.57 643.052 1724.93 642.961L1725.25 641.692Z" fill="#FF0000" fill-rule="evenodd"/><text fill="#000000" fill-opacity="0" font-family="Arial,Arial_MSFontService,sans-serif" font-size="28.2812" x="1721.54" y="666.125">𝒃</text><path d="M1032.12 1001.09 1052.58 1001.09 1053.52 1002.86 1041.38 1018.14C1039.39 1020.65 1037.56 1022.81 1035.88 1024.64L1036.06 1024.88 1041.14 1024.88C1042 1024.88 1042.74 1024.73 1043.35 1024.42 1043.97 1024.12 1044.58 1023.56 1045.17 1022.76 1045.76 1021.95 1046.38 1020.82 1047.02 1019.35L1049.87 1019.35 1048.07 1027.73 1027.39 1027.73 1026.45 1025.95 1038.35 1010.97C1040.32 1008.48 1042.23 1006.22 1044.09 1004.17L1043.91 1003.93 1038.86 1003.93C1038.18 1003.93 1037.56 1004.07 1037 1004.34 1036.45 1004.6 1035.9 1005.07 1035.35 1005.72 1034.81 1006.37 1034.12 1007.46 1033.3 1008.98L1030.42 1008.98Z" fill="#FF0000" fill-rule="evenodd"/><text fill="#000000" fill-opacity="0" font-family="Arial,Arial_MSFontService,sans-serif" font-size="26.6406" x="1026.45" y="1024.4">𝒛</text><path d="M1069.39 1022.14C1068.53 1022.14 1067.65 1022.56 1066.76 1023.4 1065.87 1024.24 1065.16 1025.21 1064.62 1026.32 1064.09 1027.43 1063.6 1028.99 1063.16 1031.01L1063 1031.73C1062.79 1032.69 1062.69 1033.64 1062.69 1034.56 1062.69 1035.51 1062.85 1036.2 1063.17 1036.61 1063.49 1037.03 1064.02 1037.24 1064.78 1037.24 1065.43 1037.24 1066.02 1037.09 1066.56 1036.8 1067.09 1036.5 1067.6 1036.03 1068.07 1035.36 1068.55 1034.7 1069.01 1033.84 1069.46 1032.79 1069.91 1031.75 1070.29 1030.49 1070.62 1029.03 1070.95 1027.58 1071.11 1026.22 1071.11 1024.97 1071.11 1024.01 1070.97 1023.3 1070.69 1022.83 1070.41 1022.37 1069.98 1022.14 1069.39 1022.14ZM1065.44 1010.99 1067.73 1010.99 1064.74 1022.94 1064.99 1023.02C1066.13 1021.69 1067.19 1020.73 1068.19 1020.15 1069.18 1019.56 1070.37 1019.27 1071.75 1019.27 1073.24 1019.27 1074.39 1019.8 1075.2 1020.87 1076.01 1021.94 1076.42 1023.48 1076.42 1025.5 1076.42 1026.64 1076.28 1027.9 1076.01 1029.28 1075.74 1030.65 1075.35 1031.87 1074.86 1032.93 1074.36 1033.99 1073.77 1034.92 1073.08 1035.71 1072.39 1036.51 1071.62 1037.17 1070.77 1037.69 1069.91 1038.21 1068.99 1038.6 1068 1038.87 1067.01 1039.14 1065.95 1039.27 1064.82 1039.27 1063.96 1039.27 1063.14 1039.16 1062.36 1038.96 1061.58 1038.75 1060.77 1038.38 1059.94 1037.86L1058.12 1039.27 1055.99 1038.96 1060.93 1016.89C1061.21 1015.66 1061.34 1014.73 1061.34 1014.09 1061.34 1013.69 1061.28 1013.4 1061.16 1013.21 1061.03 1013.03 1060.87 1012.9 1060.66 1012.82 1060.45 1012.74 1060.03 1012.66 1059.39 1012.57L1059.7 1011.3Z" fill="#FF0000" fill-rule="evenodd"/><text fill="#000000" fill-opacity="0" font-family="Arial,Arial_MSFontService,sans-serif" font-size="28.2812" x="1055.99" y="1035.73">𝒃</text><path d="M1518.09 437.405 1530.6 437.405 1532.7 459.83 1545.43 437.405 1557.92 437.405 1557.54 439.178C1556.52 439.464 1555.77 439.966 1555.29 440.682 1554.8 441.398 1554.35 442.723 1553.92 444.656L1549.03 466.812C1548.9 467.385 1548.81 467.882 1548.76 468.302 1548.71 468.723 1548.68 469.274 1548.68 469.954 1548.68 470.706 1548.85 471.257 1549.2 471.606 1549.55 471.955 1550.12 472.183 1550.91 472.291L1550.53 474.063 1537.02 474.063 1537.4 472.291C1538.42 472.004 1539.17 471.503 1539.66 470.787 1540.14 470.07 1540.6 468.746 1541.02 466.812L1543.5 455.533C1544.32 451.809 1545.29 448.058 1546.4 444.28L1545.86 444.28C1545.02 445.82 1544.11 447.422 1543.15 449.087L1531.06 470.008 1526.71 470.008 1524.94 453.868C1524.53 450.036 1524.26 446.751 1524.13 444.012L1523.7 444.012C1522.99 448.434 1522.31 452.104 1521.66 455.022L1519.06 466.812C1518.93 467.385 1518.84 467.882 1518.79 468.302 1518.73 468.723 1518.71 469.274 1518.71 469.954 1518.71 470.706 1518.88 471.257 1519.23 471.606 1519.58 471.955 1520.15 472.183 1520.94 472.291L1520.56 474.063 1510.7 474.063 1511.08 472.291C1512.1 472.004 1512.85 471.503 1513.34 470.787 1513.82 470.07 1514.28 468.746 1514.71 466.812L1519.59 444.656C1519.83 443.6 1519.94 442.553 1519.94 441.514 1519.94 440.762 1519.77 440.212 1519.42 439.863 1519.07 439.513 1518.5 439.285 1517.71 439.178Z" fill="#FF0000" fill-rule="evenodd"/><text fill="#000000" fill-opacity="0" font-family="Arial,Arial_MSFontService,sans-serif" font-size="36.6577" x="1510.7" y="469.481">𝑴</text><path d="M1563.04 467.833 1567.74 467.833C1567.99 469.086 1568.11 470.321 1568.11 471.539 1568.11 472.792 1567.9 473.938 1567.47 474.976 1567.04 476.014 1566.35 477.048 1565.41 478.078 1564.47 479.107 1563.18 480.24 1561.53 481.475L1560.08 479.837C1561 478.978 1561.66 478.203 1562.07 477.514 1562.48 476.825 1562.78 476.041 1562.96 475.164 1563.14 474.287 1563.22 473.186 1563.22 471.861 1563.22 470.5 1563.16 469.157 1563.04 467.833Z" fill="#FF0000" fill-rule="evenodd"/><text fill="#000000" fill-opacity="0" font-family="Arial,Arial_MSFontService,sans-serif" font-size="13.6426" x="1560.08" y="479.77">,</text><path d="M1598.73 449.786C1597.05 449.786 1595.57 450.609 1594.3 452.256 1593.03 453.903 1592 456.146 1591.2 458.984 1590.4 461.821 1590 464.377 1590 466.651 1590 467.958 1590.2 468.934 1590.58 469.578 1590.97 470.223 1591.56 470.545 1592.37 470.545 1593.55 470.545 1594.75 469.968 1595.98 468.813 1597.21 467.658 1598.2 466.302 1598.95 464.744 1599.7 463.187 1600.37 461.056 1600.96 458.353L1601.18 457.359C1601.46 456.034 1601.61 454.727 1601.61 453.438 1601.61 452.221 1601.38 451.307 1600.93 450.699 1600.49 450.09 1599.75 449.786 1598.73 449.786ZM1598.41 446.993C1601.08 446.993 1603.35 447.637 1605.23 448.926L1607.65 446.993 1610.66 447.422 1603.84 478.467C1603.64 479.345 1603.51 479.998 1603.46 480.428 1603.41 480.857 1603.38 481.224 1603.38 481.529 1603.38 482.317 1603.58 482.872 1603.97 483.194 1604.36 483.516 1605.06 483.74 1606.06 483.865L1605.77 485.638 1594.62 485.638 1599 469.122 1598.65 469.014C1597.18 470.876 1595.73 472.259 1594.29 473.163 1592.85 474.067 1591.12 474.52 1589.12 474.52 1587.08 474.52 1585.5 473.781 1584.38 472.304 1583.26 470.827 1582.7 468.701 1582.7 465.926 1582.7 463.509 1583.05 461.11 1583.75 458.729 1584.45 456.347 1585.45 454.293 1586.76 452.565 1588.06 450.837 1589.7 449.477 1591.68 448.483 1593.66 447.49 1595.9 446.993 1598.41 446.993Z" fill="#FF0000" fill-rule="evenodd"/><text fill="#000000" fill-opacity="0" font-family="Arial,Arial_MSFontService,sans-serif" font-size="38.645" x="1582.7" y="480.807">𝒒</text><path d="M1090.23 814.925 1100.43 814.925 1105.61 830.126C1107.03 834.261 1108.15 837.914 1108.97 841.083L1109.32 841.083C1109.84 837.985 1110.52 834.557 1111.36 830.797L1113.24 822.176C1113.47 821.102 1113.59 820.055 1113.59 819.034 1113.59 818.282 1113.42 817.732 1113.07 817.383 1112.72 817.034 1112.15 816.805 1111.36 816.698L1111.74 814.925 1121.62 814.925 1121.24 816.698C1120.22 816.984 1119.47 817.486 1118.99 818.202 1118.51 818.918 1118.05 820.243 1117.62 822.176L1111.15 851.583 1105.02 851.583 1098.58 832.811C1098.08 831.343 1097.63 829.969 1097.24 828.689 1096.84 827.409 1096.37 825.784 1095.81 823.815L1095.41 823.788C1095.09 826.366 1094.34 830.296 1093.15 835.577L1091.22 844.332C1091.09 844.905 1091.01 845.402 1090.95 845.823 1090.9 846.243 1090.87 846.794 1090.87 847.474 1090.87 848.226 1091.05 848.777 1091.39 849.126 1091.74 849.475 1092.31 849.703 1093.1 849.811L1092.72 851.583 1082.84 851.583 1083.22 849.811C1084.24 849.524 1084.99 849.023 1085.47 848.307 1085.96 847.591 1086.41 846.266 1086.84 844.332L1091.73 822.176C1091.96 821.12 1092.08 820.073 1092.08 819.034 1092.08 818.282 1091.91 817.732 1091.56 817.383 1091.21 817.034 1090.64 816.805 1089.85 816.698Z" fill="#FF0000" fill-rule="evenodd"/><text fill="#000000" fill-opacity="0" font-family="Arial,Arial_MSFontService,sans-serif" font-size="36.6577" x="1082.84" y="847.001">𝑵</text><path d="M1126.74 845.353 1131.44 845.353C1131.69 846.606 1131.82 847.841 1131.82 849.059 1131.82 850.312 1131.6 851.458 1131.17 852.496 1130.74 853.535 1130.06 854.569 1129.12 855.598 1128.18 856.628 1126.88 857.76 1125.24 858.995L1123.79 857.357C1124.7 856.498 1125.36 855.723 1125.77 855.034 1126.19 854.345 1126.48 853.561 1126.66 852.684 1126.84 851.807 1126.93 850.706 1126.93 849.381 1126.93 848.02 1126.87 846.678 1126.74 845.353Z" fill="#FF0000" fill-rule="evenodd"/><text fill="#000000" fill-opacity="0" font-family="Arial,Arial_MSFontService,sans-serif" font-size="13.6426" x="1123.79" y="857.29">,</text><path d="M1153.36 824.513C1154.84 824.513 1156.03 824.929 1156.92 825.762 1157.8 826.594 1158.25 827.691 1158.25 829.051 1158.25 829.535 1158.15 830.143 1157.95 830.878L1158.17 830.958C1159.67 828.846 1161.25 827.243 1162.89 826.151 1164.54 825.059 1166.37 824.513 1168.37 824.513 1169.55 824.513 1170.81 824.683 1172.13 825.023L1170.55 832.247 1165.74 832.247C1165.74 831.048 1165.61 830.215 1165.35 829.75 1165.09 829.284 1164.65 829.051 1164.02 829.051 1163.54 829.051 1163.01 829.221 1162.44 829.562 1161.86 829.902 1161.18 830.564 1160.38 831.549 1159.58 832.534 1158.98 833.474 1158.58 834.369 1158.18 835.264 1157.83 836.41 1157.52 837.806L1154.49 851.583 1146.78 851.583 1151.1 832.919C1151.37 831.755 1151.51 830.869 1151.51 830.26 1151.51 829.669 1151.41 829.213 1151.21 828.89 1151.01 828.568 1150.67 828.407 1150.19 828.407 1149.63 828.407 1149.03 828.658 1148.39 829.159 1147.75 829.66 1146.99 830.403 1146.13 831.388L1144.2 829.454C1145.99 827.628 1147.58 826.348 1148.97 825.614 1150.36 824.88 1151.82 824.513 1153.36 824.513Z" fill="#FF0000" fill-rule="evenodd"/><text fill="#000000" fill-opacity="0" font-family="Arial,Arial_MSFontService,sans-serif" font-size="27.0703" x="1144.2" y="848.199">𝒓</text><path d="M1601.72 228.517C1633.09 226.086 1662.94 258.993 1668.39 302.016 1672.94 337.957 1658.98 370.622 1634.59 381.078L1633.68 378.13C1661.25 366.083 1673.7 324.211 1661.5 284.606 1651.34 251.62 1626.83 229.733 1602.11 231.568Z" stroke="#FF0000" stroke-width="1.14583" stroke-linejoin="round" stroke-miterlimit="10" fill="#4F81BD" fill-rule="evenodd"/><path d="M283.431 463.854C314.742 461.438 344.544 494.346 349.995 537.357 354.547 573.276 340.624 605.916 316.292 616.368L315.386 613.425C342.895 601.379 355.308 559.516 343.11 519.921 332.955 486.955 308.489 465.077 283.817 466.9Z" stroke="#FF0000" stroke-width="1.14583" stroke-linejoin="round" stroke-miterlimit="10" fill="#4F81BD" fill-rule="evenodd"/></g></svg>