<?xml version="1.0" standalone="no"?>
<!DOCTYPE svg PUBLIC "-//W3C//DTD SVG 20010904//EN"
 "http://www.w3.org/TR/2001/REC-SVG-20010904/DTD/svg10.dtd">
<svg version="1.0" xmlns="http://www.w3.org/2000/svg"
 width="1610.000000pt" height="1607.000000pt" viewBox="0 0 1610.000000 1607.000000"
 preserveAspectRatio="xMidYMid meet">

<g transform="translate(0.000000,1607.000000) scale(0.100000,-0.100000)"
fill="#000000" stroke="none">
<path d="M620 15496 l0 -44 418 -6 c1484 -24 2235 -82 2962 -232 363 -74 624
-157 945 -299 210 -93 348 -165 815 -420 854 -467 1075 -561 1670 -710 636
-159 1315 -259 2423 -355 198 -17 360 -30 362 -28 2 2 7 22 11 45 8 51 43 43
-371 78 -1210 101 -2007 227 -2695 426 -340 99 -681 253 -1230 556 -648 358
-843 456 -1165 583 -479 189 -1097 309 -1955 380 -471 39 -1330 70 -1927 70
l-263 0 0 -44z"/>
<path d="M607 15299 c-3 -24 -4 -45 -2 -47 2 -2 176 -15 387 -28 1678 -105
2593 -236 3323 -479 412 -137 681 -274 1401 -716 487 -299 613 -371 858 -489
232 -113 323 -150 571 -232 525 -175 1201 -325 2010 -448 194 -29 918 -130
935 -130 9 0 25 78 18 85 -2 3 -170 27 -374 55 -1208 166 -1907 309 -2559 524
-433 143 -702 276 -1260 619 -790 486 -1027 615 -1392 755 -181 70 -295 105
-558 172 -756 192 -1562 291 -3130 385 -49 3 -120 8 -156 11 l-66 6 -6 -43z"/>
<path d="M576 14959 c-4 -26 -3 -45 4 -49 5 -3 61 -14 122 -24 1422 -220 2184
-429 2618 -717 182 -120 282 -245 326 -409 24 -87 24 -325 0 -570 -21 -217
-18 -509 8 -625 45 -205 109 -342 279 -598 351 -529 800 -1044 1846 -2115
l374 -383 33 32 33 32 -377 386 c-930 951 -1319 1386 -1686 1885 -419 569
-475 766 -415 1451 37 417 8 594 -124 772 -150 202 -539 414 -1032 563 -418
127 -859 220 -1705 360 -135 22 -257 43 -271 46 -24 5 -27 2 -33 -37z"/>
<path d="M390 14799 c-6 -22 -9 -43 -6 -46 2 -3 200 -53 438 -113 725 -181
1093 -289 1458 -428 531 -203 894 -443 1013 -670 48 -91 67 -178 67 -312 0
-99 -7 -156 -71 -550 -26 -164 -35 -380 -20 -495 26 -199 76 -343 193 -560
276 -509 697 -1092 1427 -1975 164 -199 595 -714 622 -744 9 -10 69 39 69 55
0 5 -73 95 -163 201 -1099 1304 -1595 1970 -1894 2545 -187 358 -208 567 -117
1118 43 265 52 364 42 495 -12 169 -67 291 -186 421 -209 226 -627 453 -1182
641 -330 111 -809 245 -1375 383 -148 36 -278 68 -287 71 -13 4 -20 -4 -28
-37z"/>
<path d="M4150 14324 c-26 -9 -34 -17 -32 -30 8 -41 176 -708 223 -883 250
-925 508 -1508 849 -1916 311 -372 559 -612 1155 -1115 608 -513 813 -695
1017 -902 345 -350 644 -800 786 -1183 149 -399 136 -561 -64 -829 -63 -83
-65 -88 -48 -102 35 -27 56 -36 63 -27 40 60 65 82 77 72 10 -8 30 24 97 158
249 499 283 725 182 1229 -68 339 -215 623 -498 963 -228 273 -451 467 -1217
1056 -724 557 -964 758 -1235 1029 -436 437 -740 923 -1007 1609 -38 99 -68
180 -66 182 2 1 71 -54 153 -122 627 -523 1089 -776 2348 -1289 440 -179 614
-241 1057 -378 634 -195 711 -224 1110 -419 262 -128 364 -190 458 -281 186
-177 259 -392 277 -816 8 -192 -4 -419 -64 -1195 l-18 -240 30 -32 30 -33 431
428 c237 235 517 505 621 601 887 815 1427 1141 2179 1316 234 54 797 137 752
111 -120 -70 -185 -122 -296 -235 -273 -277 -539 -711 -700 -1140 -34 -90
-128 -360 -210 -600 -267 -784 -377 -1065 -565 -1441 -359 -718 -750 -1162
-1360 -1542 -597 -372 -1374 -717 -2940 -1303 -1561 -584 -1848 -711 -2358
-1036 -600 -383 -849 -686 -893 -1086 -6 -62 -6 -63 17 -63 13 0 34 -3 47 -6
19 -6 22 -3 22 24 0 17 4 33 9 37 5 3 15 31 21 63 46 230 110 351 279 526 152
156 360 305 671 478 500 279 797 391 2275 858 1294 409 1832 595 2380 825
1138 477 1643 871 2159 1685 248 390 440 798 789 1675 264 664 362 864 550
1128 262 367 449 559 648 666 131 70 366 159 457 172 143 20 306 -18 504 -117
48 -24 92 -44 98 -44 10 0 40 52 40 69 0 6 -27 24 -60 41 -37 19 -107 73 -178
138 -591 540 -962 774 -1382 871 -718 166 -1472 -199 -2860 -1387 -107 -92
-315 -274 -462 -404 -147 -131 -270 -238 -273 -238 -3 0 -5 147 -5 328 0 824
-74 1208 -283 1479 -130 168 -271 259 -672 433 -398 172 -467 195 -1095 355
-521 133 -678 180 -1081 321 -1450 507 -1960 766 -2749 1397 -69 55 -132 105
-140 112 -11 9 -23 8 -50 -1z m3080 -9594 c-8 -5 -22 -10 -30 -10 -13 0 -13 1
0 10 8 5 22 10 30 10 13 0 13 -1 0 -10z"/>
<path d="M2060 1855 c-228 -51 -406 -227 -456 -451 -35 -157 -7 -346 68 -475
115 -196 358 -314 607 -295 198 14 309 74 398 213 56 89 101 243 70 243 -9 0
-18 -19 -26 -54 -16 -70 -70 -181 -114 -231 -42 -49 -107 -83 -181 -95 -173
-28 -278 64 -349 308 -19 68 -22 99 -21 267 0 177 2 196 28 280 32 106 66 166
119 209 34 27 48 31 112 34 96 5 137 -9 203 -72 62 -59 92 -114 152 -278 65
-178 70 -167 70 142 0 223 -2 260 -15 260 -8 0 -17 -12 -21 -27 -24 -110 -48
-119 -163 -56 -144 80 -162 86 -296 89 -80 2 -142 -1 -185 -11z"/>
<path d="M12630 1855 c-228 -51 -406 -227 -456 -451 -35 -157 -7 -346 68 -475
115 -196 358 -314 607 -295 198 14 309 74 398 213 56 89 101 243 70 243 -9 0
-18 -19 -26 -54 -16 -70 -70 -181 -114 -231 -42 -49 -107 -83 -181 -95 -173
-28 -278 64 -349 308 -19 68 -22 99 -21 267 0 177 2 196 28 280 32 106 66 166
119 209 34 27 48 31 112 34 96 5 137 -9 203 -72 62 -59 92 -114 152 -278 65
-178 70 -167 70 142 0 223 -2 260 -15 260 -8 0 -17 -12 -21 -27 -24 -110 -48
-119 -163 -56 -144 80 -162 86 -296 89 -80 2 -142 -1 -185 -11z"/>
<path d="M13800 1851 c-80 -26 -112 -44 -178 -106 -86 -80 -117 -151 -116
-270 2 -113 28 -188 83 -238 54 -49 182 -115 361 -187 198 -79 220 -91 258
-135 28 -31 32 -43 32 -95 0 -49 -4 -64 -27 -91 -37 -43 -80 -59 -161 -59
-222 0 -405 165 -498 450 -21 62 -37 96 -48 98 -14 3 -16 -26 -16 -292 0 -246
2 -296 14 -296 15 0 20 17 32 94 3 27 15 57 25 67 34 34 57 27 204 -62 146
-89 263 -114 389 -85 132 31 248 111 301 207 28 50 30 61 30 159 0 96 -3 110
-29 165 -40 82 -124 161 -216 207 -41 20 -140 62 -220 93 -216 84 -280 135
-280 220 0 57 24 90 85 121 50 24 63 26 130 21 96 -7 161 -39 243 -120 75 -74
117 -137 147 -220 13 -35 29 -62 36 -62 11 0 15 42 17 218 2 212 2 217 -18
217 -16 0 -20 -7 -20 -34 0 -50 -16 -85 -44 -96 -21 -7 -41 0 -123 46 -54 30
-120 61 -147 69 -66 20 -178 18 -246 -4z"/>
<path d="M3508 1723 c-211 -257 -372 -438 -545 -614 -95 -96 -173 -181 -173
-187 0 -9 73 -12 280 -12 l280 0 0 -69 c0 -125 -20 -149 -131 -158 -49 -4 -69
-10 -69 -19 0 -12 69 -14 390 -14 322 0 390 2 390 14 0 9 -20 15 -67 19 -47 5
-73 12 -87 26 -20 20 -34 85 -35 159 l-1 42 100 0 100 0 0 35 0 35 -100 0
-100 0 0 440 0 440 -59 0 -59 0 -114 -137z m-158 -498 l0 -245 -232 0 -231 0
149 153 c82 83 185 194 228 245 43 50 80 92 82 92 2 0 4 -110 4 -245z"/>
<path d="M4005 1850 c-11 -17 -4 -20 70 -27 49 -4 75 -12 94 -29 l26 -22 3
-503 c3 -521 1 -548 -38 -569 -9 -5 -47 -12 -84 -16 -46 -5 -66 -11 -66 -20 0
-12 68 -14 395 -14 519 0 655 16 782 91 74 45 158 122 188 174 64 108 85 334
45 489 -27 107 -63 170 -140 246 -108 106 -208 156 -375 187 -106 20 -889 31
-900 13z m815 -64 c110 -73 173 -281 172 -571 0 -149 -19 -262 -62 -378 -42
-110 -93 -144 -237 -154 l-83 -6 0 573 0 573 84 -5 c71 -4 91 -9 126 -32z"/>
<path d="M5444 1849 c-8 -14 14 -29 44 -29 42 0 91 -31 126 -79 19 -25 107
-165 195 -310 l162 -263 -3 -219 c-4 -264 -1 -259 -122 -267 -55 -3 -76 -8
-76 -18 0 -12 68 -14 400 -14 331 0 400 2 400 14 0 9 -20 15 -66 20 -37 4 -75
11 -84 16 -34 18 -40 66 -40 324 l0 251 106 185 c188 328 216 360 319 360 58
0 100 -22 139 -73 l27 -35 -3 -482 -3 -482 -32 -28 c-26 -24 -44 -29 -107 -35
-55 -5 -76 -11 -76 -21 0 -12 42 -14 240 -14 196 0 240 3 240 14 0 9 -20 15
-66 20 -75 8 -118 26 -136 59 -10 17 -14 128 -16 467 l-3 445 24 -25 c13 -14
191 -240 396 -502 l372 -478 99 0 99 0 3 538 c3 497 4 539 21 570 20 37 68 62
119 62 48 0 78 10 78 26 0 12 -42 14 -235 14 -193 0 -235 -2 -235 -14 0 -16
30 -26 78 -26 51 0 99 -25 119 -62 16 -29 18 -68 21 -345 2 -172 0 -313 -5
-313 -4 0 -129 157 -278 347 -148 191 -283 362 -299 380 l-28 33 -443 0 c-304
0 -446 -3 -450 -11 -10 -15 -4 -18 51 -25 27 -4 57 -14 67 -22 36 -32 22 -67
-130 -330 l-105 -182 -62 97 c-159 252 -216 351 -218 382 -4 40 8 48 85 56 40
5 57 11 57 21 0 12 -57 14 -379 14 -268 0 -382 -3 -387 -11z"/>
<path d="M8547 1357 c-92 -276 -182 -531 -200 -567 -38 -78 -67 -97 -160 -107
-37 -5 -69 -12 -70 -18 -1 -6 82 -11 231 -13 191 -2 232 0 232 11 0 10 -19 16
-62 21 -131 13 -139 43 -72 264 l25 82 154 0 153 0 41 -123 c23 -67 41 -137
41 -154 0 -43 -29 -61 -108 -69 -42 -5 -62 -11 -62 -20 0 -12 102 -14 605 -14
508 0 605 2 605 14 0 10 -21 16 -75 21 -93 8 -123 30 -136 95 -11 61 -12 877
0 864 5 -5 98 -231 207 -501 l198 -493 51 0 51 0 16 48 c9 26 90 265 180 532
l164 485 -3 -465 c-2 -256 -6 -479 -9 -496 -7 -46 -34 -65 -103 -71 -42 -4
-61 -10 -61 -20 0 -11 63 -13 378 -11 243 2 377 7 376 13 0 6 -23 13 -50 17
-85 12 -95 17 -110 53 -21 51 -21 979 1 1030 16 41 37 50 128 60 43 5 66 12
64 19 -3 8 -91 12 -299 14 l-296 2 -61 -177 c-34 -98 -90 -258 -124 -355 -34
-98 -64 -178 -67 -178 -3 0 -66 159 -141 353 l-135 352 -299 3 c-278 2 -334
-2 -312 -24 3 -4 34 -10 69 -13 76 -8 102 -22 125 -64 16 -29 18 -72 18 -502
0 -508 -1 -516 -54 -552 -38 -26 -195 -26 -235 0 -40 27 -69 96 -277 660
l-184 497 -90 0 -90 0 -168 -503z m213 -284 c0 -10 -35 -13 -140 -13 l-139 0
64 188 c36 103 68 194 71 202 5 14 143 -349 144 -377z"/>
<path d="M11250 1846 c0 -16 30 -26 77 -26 48 0 81 -19 93 -53 6 -19 10 -202
10 -514 0 -397 -3 -490 -14 -518 -16 -37 -28 -42 -116 -54 -28 -3 -52 -10 -53
-16 -1 -6 134 -11 386 -13 340 -2 387 0 387 13 0 11 -11 15 -37 15 -21 0 -55
5 -76 11 -67 18 -67 16 -67 556 0 300 4 492 10 515 12 42 34 58 78 58 50 0 92
12 92 26 0 12 -65 14 -385 14 -321 0 -385 -2 -385 -14z"/>
</g>
</svg>
