<?xml version="1.0" encoding="UTF-8"?>
<!DOCTYPE svg PUBLIC "-//W3C//DTD SVG 1.1//EN" "http://www.w3.org/Graphics/SVG/1.1/DTD/svg11.dtd">
<svg xmlns="http://www.w3.org/2000/svg" version="1.1" width="1500px" height="449px" style="shape-rendering:geometricPrecision; text-rendering:geometricPrecision; image-rendering:optimizeQuality; fill-rule:evenodd; clip-rule:evenodd" xmlns:xlink="http://www.w3.org/1999/xlink">
<g><path style="opacity:0.996" fill="#020202" d="M 751.5,-0.5 C 752.833,-0.5 754.167,-0.5 755.5,-0.5C 767.082,13.8167 770.916,30.15 767,48.5C 764.601,62.5265 762.101,76.5265 759.5,90.5C 758.102,94.9969 757.269,99.6636 757,104.5C 758.17,101.148 759.336,97.8145 760.5,94.5C 770.712,65.0251 779.212,35.0251 786,4.5C 790.856,11.5393 792.69,19.3726 791.5,28C 791.333,32.1667 791.167,36.3333 791,40.5C 788.179,51.7742 785.679,63.1075 783.5,74.5C 780.719,82.904 778.885,91.5707 778,100.5C 780.41,93.766 782.91,87.0993 785.5,80.5C 792.615,62.9863 800.781,45.9863 810,29.5C 812.087,31.7452 813.421,34.4119 814,37.5C 815.451,49.8172 814.118,61.8172 810,73.5C 806.657,83.1876 802.49,92.5209 797.5,101.5C 797.667,101.833 797.833,102.167 798,102.5C 800.425,99.9466 802.592,97.2799 804.5,94.5C 807.111,91.2219 810.111,88.2219 813.5,85.5C 817.234,82.7689 820.234,79.4356 822.5,75.5C 826.48,71.8553 830.48,68.1886 834.5,64.5C 835.489,68.1073 835.823,71.774 835.5,75.5C 835.5,77.5 835.5,79.5 835.5,81.5C 834.766,82.7079 834.433,84.0413 834.5,85.5C 833.218,86.7082 833.218,88.0416 834.5,89.5C 835.417,88.8728 836.417,88.5394 837.5,88.5C 836.213,91.4061 835.213,94.4061 834.5,97.5C 833.735,96.3398 832.735,95.3398 831.5,94.5C 826.703,101.783 822.203,109.117 818,116.5C 822.52,111.824 828.02,109.824 834.5,110.5C 838.429,111.431 841.095,113.764 842.5,117.5C 842.089,131.563 837.423,144.063 828.5,155C 832.871,154.994 834.538,157.161 833.5,161.5C 831.342,173.974 827.009,185.64 820.5,196.5C 822.341,197.23 824.175,197.897 826,198.5C 826.88,203.796 826.047,208.796 823.5,213.5C 819.294,220.714 814.294,227.38 808.5,233.5C 810.341,234.23 812.175,234.897 814,235.5C 813.849,239.16 812.515,242.494 810,245.5C 805.967,249.868 801.634,253.868 797,257.5C 798.778,265.47 795.945,271.303 788.5,275C 803.562,272.142 817.562,266.475 830.5,258C 832.769,257.242 834.936,257.409 837,258.5C 837.62,264.361 836.787,270.027 834.5,275.5C 835.576,276.656 836.576,276.489 837.5,275C 840.167,274.333 842.833,274.333 845.5,275C 846.16,282 843.827,288 838.5,293C 843.946,293.407 845.446,295.907 843,300.5C 841.316,302.351 839.483,304.018 837.5,305.5C 839.422,306.711 841.255,308.044 843,309.5C 843.667,310.833 843.667,312.167 843,313.5C 840.002,315.081 836.835,316.247 833.5,317C 835.833,318 838.167,319 840.5,320C 841.517,321.049 841.684,322.216 841,323.5C 837.059,325.695 832.892,327.362 828.5,328.5C 831.115,329.762 833.782,330.928 836.5,332C 837.38,333.356 837.714,334.856 837.5,336.5C 833.964,337.758 830.297,338.591 826.5,339C 829.418,340.709 832.252,342.542 835,344.5C 835.333,346.934 834.166,347.934 831.5,347.5C 825.491,347.334 819.491,347.501 813.5,348C 814.244,349.039 815.244,349.539 816.5,349.5C 819.966,352.139 821.966,355.639 822.5,360C 822.383,362.616 821.05,364.116 818.5,364.5C 813.663,364.884 808.997,364.217 804.5,362.5C 804.167,362.833 803.833,363.167 803.5,363.5C 805.256,367.288 805.922,371.288 805.5,375.5C 805.5,376.167 805.5,376.833 805.5,377.5C 801.523,383.665 795.856,385.832 788.5,384C 781.822,381.82 776.822,377.653 773.5,371.5C 773.539,370.244 773.039,369.244 772,368.5C 771.501,374.491 771.334,380.491 771.5,386.5C 772.139,390.126 770.806,391.959 767.5,392C 763.919,387.67 761.252,382.837 759.5,377.5C 758.97,375.076 758.136,372.743 757,370.5C 756.497,375.19 755.83,379.857 755,384.5C 753.971,387.875 751.804,389.042 748.5,388C 746.094,386.378 744.261,384.211 743,381.5C 742.167,377.5 741.333,373.5 740.5,369.5C 737.76,373.948 734.26,374.614 730,371.5C 727.437,366.478 726.104,361.145 726,355.5C 724.855,357.926 723.522,360.259 722,362.5C 720.512,364.16 718.679,365.16 716.5,365.5C 714.5,365.5 712.5,365.5 710.5,365.5C 710.5,368.833 710.5,372.167 710.5,375.5C 709.411,379.51 707.411,383.01 704.5,386C 700.328,386.868 697.162,385.368 695,381.5C 693.697,387.602 691.197,393.102 687.5,398C 682.79,400.493 678.79,399.66 675.5,395.5C 673.236,404.615 667.569,409.448 658.5,410C 656.308,408.641 654.641,406.808 653.5,404.5C 651.643,410.716 647.977,415.55 642.5,419C 640.5,419.667 638.5,419.667 636.5,419C 635.044,417.255 633.711,415.422 632.5,413.5C 630.561,419.227 626.894,423.393 621.5,426C 615.617,427.922 611.451,426.089 609,420.5C 604.642,428.881 597.808,433.048 588.5,433C 586.032,430.772 584.865,427.938 585,424.5C 581.77,429.363 577.604,433.196 572.5,436C 563.482,440.941 554.149,444.775 544.5,447.5C 541.167,447.5 537.833,447.5 534.5,447.5C 533.2,446.399 532.7,445.066 533,443.5C 537.738,438.884 542.571,434.384 547.5,430C 530.856,437.951 513.189,440.618 494.5,438C 492.414,437.685 490.414,437.185 488.5,436.5C 484.083,435.793 480.416,433.793 477.5,430.5C 477.977,429.522 478.643,428.689 479.5,428C 484.295,426.762 488.961,425.262 493.5,423.5C 522.53,412.762 551.197,400.928 579.5,388C 572.248,387.722 565.248,386.388 558.5,384C 557.549,383.282 557.383,382.449 558,381.5C 582.325,370.163 604.825,355.997 625.5,339C 634.402,330.768 642.569,321.934 650,312.5C 655.886,317.387 662.053,321.887 668.5,326C 670.914,327.885 673.581,328.552 676.5,328C 664.513,315.333 650.846,305 635.5,297C 625.266,291.432 614.599,290.265 603.5,293.5C 600.116,287.426 601.116,282.26 606.5,278C 610.669,276.041 615.002,274.541 619.5,273.5C 621.27,269.603 624.27,267.103 628.5,266C 642.787,264.755 657.121,264.089 671.5,264C 684.486,258.511 693.153,249.011 697.5,235.5C 710.813,209.725 716.479,182.225 714.5,153C 714.364,141.49 714.03,129.99 713.5,118.5C 713.17,99.326 713.503,80.326 714.5,61.5C 715.795,62.4884 717.128,63.4884 718.5,64.5C 722.623,69.4156 725.123,75.0823 726,81.5C 726.168,59.6628 726.668,37.9961 727.5,16.5C 734.943,25.4033 739.11,35.7366 740,47.5C 740.304,65.5062 740.304,83.5062 740,101.5C 742.881,76.8342 745.714,52.1675 748.5,27.5C 750.231,18.2569 751.231,8.92353 751.5,-0.5 Z"/></g>
<g><path style="opacity:0.094" fill="#929292" d="M 755.5,-0.5 C 757.5,-0.5 759.5,-0.5 761.5,-0.5C 768.786,9.18813 772.62,20.1881 773,32.5C 776.021,22.4268 779.354,12.4268 783,2.5C 785.815,-0.194477 788.315,0.138856 790.5,3.5C 794.362,9.60497 796.695,16.2716 797.5,23.5C 797.018,30.7323 796.518,38.0656 796,45.5C 798.867,38.9272 802.367,32.7605 806.5,27C 809.719,24.9548 812.552,25.4548 815,28.5C 820.542,38.5752 821.876,49.2418 819,60.5C 817.425,66.1996 816.092,71.8663 815,77.5C 816.039,76.2899 817.206,75.2899 818.5,74.5C 819.959,74.4326 821.292,74.7659 822.5,75.5C 820.234,79.4356 817.234,82.7689 813.5,85.5C 812.48,83.0659 811.147,83.0659 809.5,85.5C 807.376,88.2794 805.709,91.2794 804.5,94.5C 802.592,97.2799 800.425,99.9466 798,102.5C 797.833,102.167 797.667,101.833 797.5,101.5C 802.49,92.5209 806.657,83.1876 810,73.5C 814.118,61.8172 815.451,49.8172 814,37.5C 813.421,34.4119 812.087,31.7452 810,29.5C 800.781,45.9863 792.615,62.9863 785.5,80.5C 783.692,79.0821 783.025,77.0821 783.5,74.5C 785.679,63.1075 788.179,51.7742 791,40.5C 791.167,36.3333 791.333,32.1667 791.5,28C 792.69,19.3726 790.856,11.5393 786,4.5C 779.212,35.0251 770.712,65.0251 760.5,94.5C 759.566,93.4324 759.232,92.099 759.5,90.5C 762.101,76.5265 764.601,62.5265 767,48.5C 770.916,30.15 767.082,13.8167 755.5,-0.5 Z"/></g>
<g><path style="opacity:0.134" fill="#8d8d8d" d="M 727.5,16.5 C 729.903,16.393 731.736,17.393 733,19.5C 737.45,27.7333 740.783,36.4 743,45.5C 744.521,39.2825 746.354,33.2825 748.5,27.5C 745.714,52.1675 742.881,76.8342 740,101.5C 740.304,83.5062 740.304,65.5062 740,47.5C 739.11,35.7366 734.943,25.4033 727.5,16.5 Z"/></g>
<g><path style="opacity:0.036" fill="#9e9e9e" d="M 746.5,-0.5 C 748.167,-0.5 749.833,-0.5 751.5,-0.5C 751.231,8.92353 750.231,18.2569 748.5,27.5C 746.354,33.2825 744.521,39.2825 743,45.5C 740.783,36.4 737.45,27.7333 733,19.5C 731.736,17.393 729.903,16.393 727.5,16.5C 727.44,15.9569 727.107,15.6236 726.5,15.5C 725.667,34.1577 725.167,52.8244 725,71.5C 724.238,67.7535 722.071,65.4201 718.5,64.5C 717.128,63.4884 715.795,62.4884 714.5,61.5C 714.44,60.9569 714.107,60.6236 713.5,60.5C 712.502,69.1411 712.169,77.8078 712.5,86.5C 710.521,85.1879 708.855,83.5212 707.5,81.5C 707.334,74.825 707.5,68.1583 708,61.5C 709.719,59.4429 711.719,57.7763 714,56.5C 716.058,57.1117 717.891,58.1117 719.5,59.5C 721.033,45.5501 721.866,31.5501 722,17.5C 723.794,13.3422 726.627,12.1756 730.5,14C 735.623,19.0857 739.623,24.919 742.5,31.5C 744.075,22.4692 745.742,13.4692 747.5,4.5C 746.691,2.92908 746.357,1.26241 746.5,-0.5 Z"/></g>
<g><path style="opacity:0.081" fill="#b7b7b7" d="M 840.5,74.5 C 839.833,74.5 839.5,74.8333 839.5,75.5C 838.167,75.5 836.833,75.5 835.5,75.5C 835.823,71.774 835.489,68.1073 834.5,64.5C 830.48,68.1886 826.48,71.8553 822.5,75.5C 821.292,74.7659 819.959,74.4326 818.5,74.5C 822.196,68.4719 827.196,63.8052 833.5,60.5C 839.015,63.5291 841.348,68.1958 840.5,74.5 Z"/></g>
<g><path style="opacity:0.407" fill="#7f7f7f" d="M 727.5,16.5 C 726.668,37.9961 726.168,59.6628 726,81.5C 725.123,75.0823 722.623,69.4156 718.5,64.5C 722.071,65.4201 724.238,67.7535 725,71.5C 725.167,52.8244 725.667,34.1577 726.5,15.5C 727.107,15.6236 727.44,15.9569 727.5,16.5 Z"/></g>
<g><path style="opacity:0.688" fill="#3a3a3a" d="M 714.5,61.5 C 713.503,80.326 713.17,99.326 713.5,118.5C 712.566,117.432 712.232,116.099 712.5,114.5C 712.5,105.167 712.5,95.8333 712.5,86.5C 712.169,77.8078 712.502,69.1411 713.5,60.5C 714.107,60.6236 714.44,60.9569 714.5,61.5 Z"/></g>
<g><path style="opacity:0.006" fill="#000000" d="M 840.5,74.5 C 840.599,77.2372 840.265,79.9039 839.5,82.5C 838.833,82.5 838.5,82.1667 838.5,81.5C 838.325,79.3792 838.659,77.3792 839.5,75.5C 839.5,74.8333 839.833,74.5 840.5,74.5 Z"/></g>
<g><path style="opacity:0.054" fill="#4a4a4a" d="M 835.5,75.5 C 836.833,75.5 838.167,75.5 839.5,75.5C 838.659,77.3792 838.325,79.3792 838.5,81.5C 837.5,81.5 836.5,81.5 835.5,81.5C 835.5,79.5 835.5,77.5 835.5,75.5 Z"/></g>
<g><path style="opacity:0.41" fill="#767676" d="M 783.5,74.5 C 783.025,77.0821 783.692,79.0821 785.5,80.5C 782.91,87.0993 780.41,93.766 778,100.5C 778.885,91.5707 780.719,82.904 783.5,74.5 Z"/></g>
<g><path style="opacity:0.051" fill="#999999" d="M 835.5,81.5 C 836.5,81.5 837.5,81.5 838.5,81.5C 838.5,82.1667 838.833,82.5 839.5,82.5C 839.371,84.2161 839.038,85.8828 838.5,87.5C 836.517,87.8432 835.183,87.1765 834.5,85.5C 834.433,84.0413 834.766,82.7079 835.5,81.5 Z"/></g>
<g><path style="opacity:0.11" fill="#373737" d="M 813.5,85.5 C 810.111,88.2219 807.111,91.2219 804.5,94.5C 805.709,91.2794 807.376,88.2794 809.5,85.5C 811.147,83.0659 812.48,83.0659 813.5,85.5 Z"/></g>
<g><path style="opacity:0.027" fill="#464646" d="M 834.5,85.5 C 835.183,87.1765 836.517,87.8432 838.5,87.5C 838.5,88.1667 838.167,88.5 837.5,88.5C 836.417,88.5394 835.417,88.8728 834.5,89.5C 833.218,88.0416 833.218,86.7082 834.5,85.5 Z"/></g>
<g><path style="opacity:0.686" fill="#545555" d="M 759.5,90.5 C 759.232,92.099 759.566,93.4324 760.5,94.5C 759.336,97.8145 758.17,101.148 757,104.5C 757.269,99.6636 758.102,94.9969 759.5,90.5 Z"/></g>
<g><path style="opacity:0.085" fill="#b6b6b6" d="M 707.5,81.5 C 708.855,83.5212 710.521,85.1879 712.5,86.5C 712.5,95.8333 712.5,105.167 712.5,114.5C 711.333,116.041 710,117.375 708.5,118.5C 707.656,106.187 707.323,93.8536 707.5,81.5 Z"/></g>
<g><path style="opacity:0.176" fill="#aaaaaa" d="M 834.5,97.5 C 832.94,99.9535 831.94,102.62 831.5,105.5C 830.033,104.708 828.7,104.708 827.5,105.5C 829.918,107.297 832.251,108.964 834.5,110.5C 828.02,109.824 822.52,111.824 818,116.5C 822.203,109.117 826.703,101.783 831.5,94.5C 832.735,95.3398 833.735,96.3398 834.5,97.5 Z"/></g>
<g><path style="opacity:0.082" fill="#c9c9c9" d="M 831.5,105.5 C 838.989,105.813 844.156,109.48 847,116.5C 847.778,121.584 847.611,126.584 846.5,131.5C 845.542,131.047 844.708,130.381 844,129.5C 843.824,125.312 843.324,121.312 842.5,117.5C 841.095,113.764 838.429,111.431 834.5,110.5C 832.251,108.964 829.918,107.297 827.5,105.5C 828.7,104.708 830.033,104.708 831.5,105.5 Z"/></g>
<g><path style="opacity:0.052" fill="#9b9b9b" d="M 842.5,117.5 C 843.324,121.312 843.824,125.312 844,129.5C 844.708,130.381 845.542,131.047 846.5,131.5C 843.845,138.976 840.512,146.143 836.5,153C 839.562,158.946 839.729,165.113 837,171.5C 834.611,178.61 831.944,185.61 829,192.5C 828.36,194.265 828.527,195.932 829.5,197.5C 827.725,201.386 826.892,205.72 827,210.5C 826.578,212.426 825.411,213.426 823.5,213.5C 826.047,208.796 826.88,203.796 826,198.5C 824.175,197.897 822.341,197.23 820.5,196.5C 827.009,185.64 831.342,173.974 833.5,161.5C 834.538,157.161 832.871,154.994 828.5,155C 837.423,144.063 842.089,131.563 842.5,117.5 Z"/></g>
<g><path style="opacity:0.027" fill="#9f9f9f" d="M 712.5,114.5 C 712.232,116.099 712.566,117.432 713.5,118.5C 714.03,129.99 714.364,141.49 714.5,153C 716.479,182.225 710.813,209.725 697.5,235.5C 699.317,229.678 701.317,223.845 703.5,218C 703.613,216.301 702.947,215.134 701.5,214.5C 705.763,201.684 708.43,188.518 709.5,175C 708.885,156.212 708.552,137.378 708.5,118.5C 710,117.375 711.333,116.041 712.5,114.5 Z"/></g>
<g><path style="opacity:0.07" fill="#b2b2b2" d="M 829.5,197.5 C 831.971,201.587 832.137,205.92 830,210.5C 826.388,218.223 821.888,225.39 816.5,232C 819.809,235.077 820.309,238.577 818,242.5C 813.744,248.76 808.744,254.427 803,259.5C 802.18,261.728 802.513,263.728 804,265.5C 813.303,262.265 822.136,258.098 830.5,253C 834.952,252.14 838.452,253.64 841,257.5C 841.26,261.25 841.927,264.916 843,268.5C 849.45,270.598 852.117,274.931 851,281.5C 849.774,284.952 848.274,288.285 846.5,291.5C 850.335,296.051 850.001,300.384 845.5,304.5C 849.702,309.328 849.368,313.828 844.5,318C 846.396,319.808 846.896,321.975 846,324.5C 844.167,326.333 842.333,328.167 840.5,330C 841.894,330.956 842.561,332.289 842.5,334C 841.577,336.678 840.243,339.178 838.5,341.5C 841.167,345.185 840.5,348.185 836.5,350.5C 835.07,349.463 833.403,348.796 831.5,348.5C 831.5,348.167 831.5,347.833 831.5,347.5C 834.166,347.934 835.333,346.934 835,344.5C 832.252,342.542 829.418,340.709 826.5,339C 830.297,338.591 833.964,337.758 837.5,336.5C 837.714,334.856 837.38,333.356 836.5,332C 833.782,330.928 831.115,329.762 828.5,328.5C 832.892,327.362 837.059,325.695 841,323.5C 841.684,322.216 841.517,321.049 840.5,320C 838.167,319 835.833,318 833.5,317C 836.835,316.247 840.002,315.081 843,313.5C 843.667,312.167 843.667,310.833 843,309.5C 841.255,308.044 839.422,306.711 837.5,305.5C 839.483,304.018 841.316,302.351 843,300.5C 845.446,295.907 843.946,293.407 838.5,293C 843.827,288 846.16,282 845.5,275C 842.833,274.333 840.167,274.333 837.5,275C 836.576,276.489 835.576,276.656 834.5,275.5C 836.787,270.027 837.62,264.361 837,258.5C 834.936,257.409 832.769,257.242 830.5,258C 817.562,266.475 803.562,272.142 788.5,275C 795.945,271.303 798.778,265.47 797,257.5C 801.634,253.868 805.967,249.868 810,245.5C 812.515,242.494 813.849,239.16 814,235.5C 812.175,234.897 810.341,234.23 808.5,233.5C 814.294,227.38 819.294,220.714 823.5,213.5C 825.411,213.426 826.578,212.426 827,210.5C 826.892,205.72 827.725,201.386 829.5,197.5 Z"/></g>
<g><path style="opacity:0.062" fill="#b3b3b3" d="M 701.5,214.5 C 702.947,215.134 703.613,216.301 703.5,218C 701.317,223.845 699.317,229.678 697.5,235.5C 693.153,249.011 684.486,258.511 671.5,264C 657.121,264.089 642.787,264.755 628.5,266C 624.27,267.103 621.27,269.603 619.5,273.5C 615.002,274.541 610.669,276.041 606.5,278C 601.116,282.26 600.116,287.426 603.5,293.5C 614.599,290.265 625.266,291.432 635.5,297C 650.846,305 664.513,315.333 676.5,328C 673.581,328.552 670.914,327.885 668.5,326C 662.053,321.887 655.886,317.387 650,312.5C 642.569,321.934 634.402,330.768 625.5,339C 604.825,355.997 582.325,370.163 558,381.5C 557.383,382.449 557.549,383.282 558.5,384C 565.248,386.388 572.248,387.722 579.5,388C 551.197,400.928 522.53,412.762 493.5,423.5C 493.756,421.224 495.09,420.057 497.5,420C 497.167,419.667 496.833,419.333 496.5,419C 497.854,417.706 499.188,417.54 500.5,418.5C 503.801,416.305 507.134,414.305 510.5,412.5C 527.189,405.65 543.856,398.483 560.5,391C 557.763,389.386 555.597,387.219 554,384.5C 552.824,380.74 553.99,377.907 557.5,376C 591.814,360.688 621.314,338.855 646,310.5C 646.089,308.887 645.255,307.72 643.5,307C 638.136,304.318 632.802,301.651 627.5,299C 619.179,297.37 610.845,297.037 602.5,298C 594.262,289.695 594.595,281.695 603.5,274C 608.167,272 612.833,270 617.5,268C 620.353,264.406 624.02,262.072 628.5,261C 634.862,260.361 641.195,259.527 647.5,258.5C 666.762,264.253 680.929,258.253 690,240.5C 694.132,231.929 697.965,223.262 701.5,214.5 Z"/></g>
<g><path style="opacity:0.407" fill="#7c7c7c" d="M 831.5,347.5 C 831.5,347.833 831.5,348.167 831.5,348.5C 826.305,348.179 821.305,348.513 816.5,349.5C 815.244,349.539 814.244,349.039 813.5,348C 819.491,347.501 825.491,347.334 831.5,347.5 Z"/></g>
<g><path style="opacity:0.176" fill="#9f9f9f" d="M 818.5,364.5 C 814.979,365.166 811.313,365.833 807.5,366.5C 806.911,369.64 806.244,372.64 805.5,375.5C 805.922,371.288 805.256,367.288 803.5,363.5C 803.833,363.167 804.167,362.833 804.5,362.5C 808.997,364.217 813.663,364.884 818.5,364.5 Z"/></g>
<g><path style="opacity:0.061" fill="#dadada" d="M 831.5,348.5 C 833.403,348.796 835.07,349.463 836.5,350.5C 832.979,351.91 829.313,353.077 825.5,354C 828.934,360.604 827.267,365.604 820.5,369C 817.306,370.439 814.139,370.939 811,370.5C 811.524,376.775 809.358,381.775 804.5,385.5C 803.876,385.083 803.543,384.416 803.5,383.5C 804.754,381.666 805.421,379.666 805.5,377.5C 805.5,376.833 805.5,376.167 805.5,375.5C 806.244,372.64 806.911,369.64 807.5,366.5C 811.313,365.833 814.979,365.166 818.5,364.5C 821.05,364.116 822.383,362.616 822.5,360C 821.966,355.639 819.966,352.139 816.5,349.5C 821.305,348.513 826.305,348.179 831.5,348.5 Z"/></g>
<g><path style="opacity:0.547" fill="#808080" d="M 716.5,365.5 C 715.081,366.451 713.415,366.784 711.5,366.5C 711.81,369.713 711.477,372.713 710.5,375.5C 710.5,372.167 710.5,368.833 710.5,365.5C 712.5,365.5 714.5,365.5 716.5,365.5 Z"/></g>
<g><path style="opacity:0.084" fill="#bebebe" d="M 773.5,371.5 C 776.822,377.653 781.822,381.82 788.5,384C 795.856,385.832 801.523,383.665 805.5,377.5C 805.421,379.666 804.754,381.666 803.5,383.5C 803.543,384.416 803.876,385.083 804.5,385.5C 801.637,388.754 797.97,390.087 793.5,389.5C 788.026,389.263 783.026,387.597 778.5,384.5C 774.039,399.448 767.373,400.781 758.5,388.5C 757.482,389.193 756.482,389.859 755.5,390.5C 755.062,390.565 754.728,390.399 754.5,390C 756.109,385.649 757.776,381.483 759.5,377.5C 761.252,382.837 763.919,387.67 767.5,392C 770.806,391.959 772.139,390.126 771.5,386.5C 772.167,381.5 772.833,376.5 773.5,371.5 Z"/></g>
<g><path style="opacity:0.674" fill="#474848" d="M 773.5,371.5 C 772.833,376.5 772.167,381.5 771.5,386.5C 771.334,380.491 771.501,374.491 772,368.5C 773.039,369.244 773.539,370.244 773.5,371.5 Z"/></g>
<g><path style="opacity:0.06" fill="#c6c6c6" d="M 510.5,412.5 C 507.134,414.305 503.801,416.305 500.5,418.5C 499.188,417.54 497.854,417.706 496.5,419C 496.833,419.333 497.167,419.667 497.5,420C 495.09,420.057 493.756,421.224 493.5,423.5C 488.961,425.262 484.295,426.762 479.5,428C 478.643,428.689 477.977,429.522 477.5,430.5C 480.416,433.793 484.083,435.793 488.5,436.5C 488.414,437.496 488.748,438.329 489.5,439C 491.246,439.471 492.913,440.138 494.5,441C 495.784,441.684 496.951,441.517 498,440.5C 500.714,441.996 503.547,442.996 506.5,443.5C 496.703,443.923 487.369,442.09 478.5,438C 470.3,432.458 470.634,427.458 479.5,423C 489.906,419.587 500.239,416.087 510.5,412.5 Z"/></g>
<g><path style="opacity:0.055" fill="#b3b3b3" d="M 759.5,377.5 C 757.776,381.483 756.109,385.649 754.5,390C 754.728,390.399 755.062,390.565 755.5,390.5C 753.484,393.144 750.817,393.977 747.5,393C 742.19,389.855 738.524,385.355 736.5,379.5C 730.11,377.95 725.276,374.283 722,368.5C 720.333,369.5 718.667,370.5 717,371.5C 715.625,377.305 713.292,382.638 710,387.5C 706.489,390.722 702.322,392.222 697.5,392C 694.714,398.963 689.714,403.13 682.5,404.5C 680.9,404.449 679.4,404.116 678,403.5C 674.03,408.475 669.197,412.309 663.5,415C 660.466,415.66 657.633,415.16 655,413.5C 652.117,418.05 648.284,421.55 643.5,424C 640.004,424.695 636.67,424.195 633.5,422.5C 627.485,431.097 619.652,433.431 610,429.5C 606.569,431.261 603.403,433.428 600.5,436C 594.252,439.724 588.419,439.224 583,434.5C 576.375,439.564 569.208,443.731 561.5,447C 555.843,447.499 550.176,447.666 544.5,447.5C 554.149,444.775 563.482,440.941 572.5,436C 577.604,433.196 581.77,429.363 585,424.5C 584.865,427.938 586.032,430.772 588.5,433C 597.808,433.048 604.642,428.881 609,420.5C 611.451,426.089 615.617,427.922 621.5,426C 626.894,423.393 630.561,419.227 632.5,413.5C 633.711,415.422 635.044,417.255 636.5,419C 638.5,419.667 640.5,419.667 642.5,419C 647.977,415.55 651.643,410.716 653.5,404.5C 654.641,406.808 656.308,408.641 658.5,410C 667.569,409.448 673.236,404.615 675.5,395.5C 678.79,399.66 682.79,400.493 687.5,398C 691.197,393.102 693.697,387.602 695,381.5C 697.162,385.368 700.328,386.868 704.5,386C 707.411,383.01 709.411,379.51 710.5,375.5C 711.477,372.713 711.81,369.713 711.5,366.5C 713.415,366.784 715.081,366.451 716.5,365.5C 718.679,365.16 720.512,364.16 722,362.5C 723.522,360.259 724.855,357.926 726,355.5C 726.104,361.145 727.437,366.478 730,371.5C 734.26,374.614 737.76,373.948 740.5,369.5C 741.333,373.5 742.167,377.5 743,381.5C 744.261,384.211 746.094,386.378 748.5,388C 751.804,389.042 753.971,387.875 755,384.5C 755.83,379.857 756.497,375.19 757,370.5C 758.136,372.743 758.97,375.076 759.5,377.5 Z"/></g>
<g><path style="opacity:0.062" fill="#ababab" d="M 534.5,447.5 C 532.801,447.66 531.134,447.494 529.5,447C 529.034,444.877 527.867,443.377 526,442.5C 520.486,443.143 514.986,443.81 509.5,444.5C 508.583,443.873 507.583,443.539 506.5,443.5C 503.547,442.996 500.714,441.996 498,440.5C 496.951,441.517 495.784,441.684 494.5,441C 492.913,440.138 491.246,439.471 489.5,439C 488.748,438.329 488.414,437.496 488.5,436.5C 490.414,437.185 492.414,437.685 494.5,438C 513.189,440.618 530.856,437.951 547.5,430C 542.571,434.384 537.738,438.884 533,443.5C 532.7,445.066 533.2,446.399 534.5,447.5 Z"/></g>
</svg>
